%
M48
M72
T01C0.11811
T02C0.12598
T03C0.23622
T04C0.27953
%
T01
X164668Y417398
T02
X234550Y521728
X94786Y521728
X94786Y39445
X234550Y39445
T03
X90849Y90626
X90849Y141807
X90849Y192988
X140062Y192988
X140062Y141807
X140062Y90626
X190258Y90626
X190258Y141807
X190258Y192988
X238487Y192988
X238487Y141807
X238487Y90626
X164668Y374091
X164668Y468579
T04
X216833Y468579
X216833Y374091
X189274Y271728
X236518Y255980
X141046Y255980
X92817Y271728
X110534Y374091
X110534Y468579
M30
