G75*
%MOIN*%
%OFA0B0*%
%FSLAX25Y25*%
%IPPOS*%
%LPD*%
%AMOC8*
5,1,8,0,0,1.08239X$1,22.5*
%
%ADD10C,0.28753*%
%ADD11C,0.24422*%
%ADD12C,0.00039*%
%ADD13C,0.12611*%
%ADD14C,0.17398*%
D10*
X0092817Y0271728D03*
X0141046Y0255980D03*
X0189274Y0271728D03*
X0236518Y0255980D03*
X0216833Y0374091D03*
X0216833Y0468579D03*
X0110534Y0468579D03*
X0110534Y0374091D03*
D11*
X0090849Y0090626D03*
X0090849Y0141807D03*
X0090849Y0192988D03*
X0140062Y0192988D03*
X0140062Y0141807D03*
X0140062Y0090626D03*
X0190258Y0090626D03*
X0190258Y0141807D03*
X0190258Y0192988D03*
X0238487Y0192988D03*
X0238487Y0141807D03*
X0238487Y0090626D03*
X0164668Y0374091D03*
X0164668Y0468579D03*
D12*
X0164685Y0334471D02*
X0154776Y0330596D01*
X0164685Y0326016D01*
X0174594Y0330596D01*
X0164685Y0334471D01*
X0164593Y0334435D02*
X0164777Y0334435D01*
X0164874Y0334397D02*
X0164496Y0334397D01*
X0164399Y0334360D02*
X0164971Y0334360D01*
X0165067Y0334322D02*
X0164302Y0334322D01*
X0164206Y0334284D02*
X0165164Y0334284D01*
X0165261Y0334246D02*
X0164109Y0334246D01*
X0164012Y0334208D02*
X0165358Y0334208D01*
X0165455Y0334170D02*
X0163915Y0334170D01*
X0163818Y0334132D02*
X0165552Y0334132D01*
X0165649Y0334094D02*
X0163721Y0334094D01*
X0163624Y0334056D02*
X0165745Y0334056D01*
X0165842Y0334019D02*
X0163528Y0334019D01*
X0163431Y0333981D02*
X0165939Y0333981D01*
X0166036Y0333943D02*
X0163334Y0333943D01*
X0163237Y0333905D02*
X0166133Y0333905D01*
X0166230Y0333867D02*
X0163140Y0333867D01*
X0163043Y0333829D02*
X0166327Y0333829D01*
X0166423Y0333791D02*
X0162946Y0333791D01*
X0162849Y0333753D02*
X0166520Y0333753D01*
X0166617Y0333716D02*
X0162753Y0333716D01*
X0162656Y0333678D02*
X0166714Y0333678D01*
X0166811Y0333640D02*
X0162559Y0333640D01*
X0162462Y0333602D02*
X0166908Y0333602D01*
X0167005Y0333564D02*
X0162365Y0333564D01*
X0162268Y0333526D02*
X0167101Y0333526D01*
X0167198Y0333488D02*
X0162171Y0333488D01*
X0162075Y0333450D02*
X0167295Y0333450D01*
X0167392Y0333413D02*
X0161978Y0333413D01*
X0161881Y0333375D02*
X0167489Y0333375D01*
X0167586Y0333337D02*
X0161784Y0333337D01*
X0161687Y0333299D02*
X0167683Y0333299D01*
X0167780Y0333261D02*
X0161590Y0333261D01*
X0161493Y0333223D02*
X0167876Y0333223D01*
X0167973Y0333185D02*
X0161397Y0333185D01*
X0161300Y0333147D02*
X0168070Y0333147D01*
X0168167Y0333109D02*
X0161203Y0333109D01*
X0161106Y0333072D02*
X0168264Y0333072D01*
X0168361Y0333034D02*
X0161009Y0333034D01*
X0160912Y0332996D02*
X0168458Y0332996D01*
X0168554Y0332958D02*
X0160815Y0332958D01*
X0160718Y0332920D02*
X0168651Y0332920D01*
X0168748Y0332882D02*
X0160622Y0332882D01*
X0160525Y0332844D02*
X0168845Y0332844D01*
X0168942Y0332806D02*
X0160428Y0332806D01*
X0160331Y0332769D02*
X0169039Y0332769D01*
X0169136Y0332731D02*
X0160234Y0332731D01*
X0160137Y0332693D02*
X0169232Y0332693D01*
X0169329Y0332655D02*
X0160040Y0332655D01*
X0159944Y0332617D02*
X0169426Y0332617D01*
X0169523Y0332579D02*
X0159847Y0332579D01*
X0159750Y0332541D02*
X0169620Y0332541D01*
X0169717Y0332503D02*
X0159653Y0332503D01*
X0159556Y0332465D02*
X0169814Y0332465D01*
X0169910Y0332428D02*
X0159459Y0332428D01*
X0159362Y0332390D02*
X0170007Y0332390D01*
X0170104Y0332352D02*
X0159265Y0332352D01*
X0159169Y0332314D02*
X0170201Y0332314D01*
X0170298Y0332276D02*
X0159072Y0332276D01*
X0158975Y0332238D02*
X0170395Y0332238D01*
X0170492Y0332200D02*
X0158878Y0332200D01*
X0158781Y0332162D02*
X0170588Y0332162D01*
X0170685Y0332125D02*
X0158684Y0332125D01*
X0158587Y0332087D02*
X0170782Y0332087D01*
X0170879Y0332049D02*
X0158491Y0332049D01*
X0158394Y0332011D02*
X0170976Y0332011D01*
X0171073Y0331973D02*
X0158297Y0331973D01*
X0158200Y0331935D02*
X0171170Y0331935D01*
X0171267Y0331897D02*
X0158103Y0331897D01*
X0158006Y0331859D02*
X0171363Y0331859D01*
X0171460Y0331821D02*
X0157909Y0331821D01*
X0157812Y0331784D02*
X0171557Y0331784D01*
X0171654Y0331746D02*
X0157716Y0331746D01*
X0157619Y0331708D02*
X0171751Y0331708D01*
X0171848Y0331670D02*
X0157522Y0331670D01*
X0157425Y0331632D02*
X0171945Y0331632D01*
X0172041Y0331594D02*
X0157328Y0331594D01*
X0157231Y0331556D02*
X0172138Y0331556D01*
X0172235Y0331518D02*
X0157134Y0331518D01*
X0157038Y0331481D02*
X0172332Y0331481D01*
X0172429Y0331443D02*
X0156941Y0331443D01*
X0156844Y0331405D02*
X0172526Y0331405D01*
X0172623Y0331367D02*
X0156747Y0331367D01*
X0156650Y0331329D02*
X0172719Y0331329D01*
X0172816Y0331291D02*
X0156553Y0331291D01*
X0156456Y0331253D02*
X0172913Y0331253D01*
X0173010Y0331215D02*
X0156359Y0331215D01*
X0156263Y0331177D02*
X0173107Y0331177D01*
X0173204Y0331140D02*
X0156166Y0331140D01*
X0156069Y0331102D02*
X0173301Y0331102D01*
X0173397Y0331064D02*
X0155972Y0331064D01*
X0155875Y0331026D02*
X0173494Y0331026D01*
X0173591Y0330988D02*
X0155778Y0330988D01*
X0155681Y0330950D02*
X0173688Y0330950D01*
X0173785Y0330912D02*
X0155585Y0330912D01*
X0155488Y0330874D02*
X0173882Y0330874D01*
X0173979Y0330837D02*
X0155391Y0330837D01*
X0155294Y0330799D02*
X0174076Y0330799D01*
X0174172Y0330761D02*
X0155197Y0330761D01*
X0155100Y0330723D02*
X0174269Y0330723D01*
X0174366Y0330685D02*
X0155003Y0330685D01*
X0154907Y0330647D02*
X0174463Y0330647D01*
X0174560Y0330609D02*
X0154810Y0330609D01*
X0154829Y0330571D02*
X0174540Y0330571D01*
X0174458Y0330534D02*
X0154911Y0330534D01*
X0154993Y0330496D02*
X0174376Y0330496D01*
X0174294Y0330458D02*
X0155075Y0330458D01*
X0155157Y0330420D02*
X0174212Y0330420D01*
X0174130Y0330382D02*
X0155239Y0330382D01*
X0155321Y0330344D02*
X0174048Y0330344D01*
X0173966Y0330306D02*
X0155403Y0330306D01*
X0155485Y0330268D02*
X0173884Y0330268D01*
X0173802Y0330230D02*
X0155567Y0330230D01*
X0155649Y0330193D02*
X0173721Y0330193D01*
X0173639Y0330155D02*
X0155731Y0330155D01*
X0155813Y0330117D02*
X0173557Y0330117D01*
X0173475Y0330079D02*
X0155895Y0330079D01*
X0155977Y0330041D02*
X0173393Y0330041D01*
X0173311Y0330003D02*
X0156059Y0330003D01*
X0156141Y0329965D02*
X0173229Y0329965D01*
X0173147Y0329927D02*
X0156223Y0329927D01*
X0156305Y0329890D02*
X0173065Y0329890D01*
X0172983Y0329852D02*
X0156386Y0329852D01*
X0156468Y0329814D02*
X0172901Y0329814D01*
X0172819Y0329776D02*
X0156550Y0329776D01*
X0156632Y0329738D02*
X0172737Y0329738D01*
X0172655Y0329700D02*
X0156714Y0329700D01*
X0156796Y0329662D02*
X0172573Y0329662D01*
X0172491Y0329624D02*
X0156878Y0329624D01*
X0156960Y0329586D02*
X0172409Y0329586D01*
X0172327Y0329549D02*
X0157042Y0329549D01*
X0157124Y0329511D02*
X0172245Y0329511D01*
X0172163Y0329473D02*
X0157206Y0329473D01*
X0157288Y0329435D02*
X0172081Y0329435D01*
X0171999Y0329397D02*
X0157370Y0329397D01*
X0157452Y0329359D02*
X0171918Y0329359D01*
X0171836Y0329321D02*
X0157534Y0329321D01*
X0157616Y0329283D02*
X0171754Y0329283D01*
X0171672Y0329246D02*
X0157698Y0329246D01*
X0157780Y0329208D02*
X0171590Y0329208D01*
X0171508Y0329170D02*
X0157862Y0329170D01*
X0157944Y0329132D02*
X0171426Y0329132D01*
X0171344Y0329094D02*
X0158026Y0329094D01*
X0158107Y0329056D02*
X0171262Y0329056D01*
X0171180Y0329018D02*
X0158189Y0329018D01*
X0158271Y0328980D02*
X0171098Y0328980D01*
X0171016Y0328942D02*
X0158353Y0328942D01*
X0158435Y0328905D02*
X0170934Y0328905D01*
X0170852Y0328867D02*
X0158517Y0328867D01*
X0158599Y0328829D02*
X0170770Y0328829D01*
X0170688Y0328791D02*
X0158681Y0328791D01*
X0158763Y0328753D02*
X0170606Y0328753D01*
X0170524Y0328715D02*
X0158845Y0328715D01*
X0158927Y0328677D02*
X0170442Y0328677D01*
X0170360Y0328639D02*
X0159009Y0328639D01*
X0159091Y0328602D02*
X0170278Y0328602D01*
X0170196Y0328564D02*
X0159173Y0328564D01*
X0159255Y0328526D02*
X0170115Y0328526D01*
X0170033Y0328488D02*
X0159337Y0328488D01*
X0159419Y0328450D02*
X0169951Y0328450D01*
X0169869Y0328412D02*
X0159501Y0328412D01*
X0159583Y0328374D02*
X0169787Y0328374D01*
X0169705Y0328336D02*
X0159665Y0328336D01*
X0159747Y0328299D02*
X0169623Y0328299D01*
X0169541Y0328261D02*
X0159828Y0328261D01*
X0159910Y0328223D02*
X0169459Y0328223D01*
X0169377Y0328185D02*
X0159992Y0328185D01*
X0160074Y0328147D02*
X0169295Y0328147D01*
X0169213Y0328109D02*
X0160156Y0328109D01*
X0160238Y0328071D02*
X0169131Y0328071D01*
X0169049Y0328033D02*
X0160320Y0328033D01*
X0160402Y0327995D02*
X0168967Y0327995D01*
X0168885Y0327958D02*
X0160484Y0327958D01*
X0160566Y0327920D02*
X0168803Y0327920D01*
X0168721Y0327882D02*
X0160648Y0327882D01*
X0160730Y0327844D02*
X0168639Y0327844D01*
X0168557Y0327806D02*
X0160812Y0327806D01*
X0160894Y0327768D02*
X0168475Y0327768D01*
X0168393Y0327730D02*
X0160976Y0327730D01*
X0161058Y0327692D02*
X0168312Y0327692D01*
X0168230Y0327655D02*
X0161140Y0327655D01*
X0161222Y0327617D02*
X0168148Y0327617D01*
X0168066Y0327579D02*
X0161304Y0327579D01*
X0161386Y0327541D02*
X0167984Y0327541D01*
X0167902Y0327503D02*
X0161467Y0327503D01*
X0161549Y0327465D02*
X0167820Y0327465D01*
X0167738Y0327427D02*
X0161631Y0327427D01*
X0161713Y0327389D02*
X0167656Y0327389D01*
X0167574Y0327351D02*
X0161795Y0327351D01*
X0161877Y0327314D02*
X0167492Y0327314D01*
X0167410Y0327276D02*
X0161959Y0327276D01*
X0162041Y0327238D02*
X0167328Y0327238D01*
X0167246Y0327200D02*
X0162123Y0327200D01*
X0162205Y0327162D02*
X0167164Y0327162D01*
X0167082Y0327124D02*
X0162287Y0327124D01*
X0162369Y0327086D02*
X0167000Y0327086D01*
X0166918Y0327048D02*
X0162451Y0327048D01*
X0162533Y0327011D02*
X0166836Y0327011D01*
X0166754Y0326973D02*
X0162615Y0326973D01*
X0162697Y0326935D02*
X0166672Y0326935D01*
X0166590Y0326897D02*
X0162779Y0326897D01*
X0162861Y0326859D02*
X0166509Y0326859D01*
X0166427Y0326821D02*
X0162943Y0326821D01*
X0163025Y0326783D02*
X0166345Y0326783D01*
X0166263Y0326745D02*
X0163107Y0326745D01*
X0163188Y0326707D02*
X0166181Y0326707D01*
X0166099Y0326670D02*
X0163270Y0326670D01*
X0163352Y0326632D02*
X0166017Y0326632D01*
X0165935Y0326594D02*
X0163434Y0326594D01*
X0163516Y0326556D02*
X0165853Y0326556D01*
X0165771Y0326518D02*
X0163598Y0326518D01*
X0163680Y0326480D02*
X0165689Y0326480D01*
X0165607Y0326442D02*
X0163762Y0326442D01*
X0163844Y0326404D02*
X0165525Y0326404D01*
X0165443Y0326367D02*
X0163926Y0326367D01*
X0164008Y0326329D02*
X0165361Y0326329D01*
X0165279Y0326291D02*
X0164090Y0326291D01*
X0164172Y0326253D02*
X0165197Y0326253D01*
X0165115Y0326215D02*
X0164254Y0326215D01*
X0164336Y0326177D02*
X0165033Y0326177D01*
X0164951Y0326139D02*
X0164418Y0326139D01*
X0164500Y0326101D02*
X0164869Y0326101D01*
X0164787Y0326064D02*
X0164582Y0326064D01*
X0164664Y0326026D02*
X0164705Y0326026D01*
X0165425Y0324910D02*
X0175317Y0329482D01*
X0175317Y0316623D01*
X0165425Y0311348D01*
X0165425Y0324910D01*
X0165425Y0324889D02*
X0175317Y0324889D01*
X0175317Y0324851D02*
X0165425Y0324851D01*
X0165425Y0324813D02*
X0175317Y0324813D01*
X0175317Y0324776D02*
X0165425Y0324776D01*
X0165425Y0324738D02*
X0175317Y0324738D01*
X0175317Y0324700D02*
X0165425Y0324700D01*
X0165425Y0324662D02*
X0175317Y0324662D01*
X0175317Y0324624D02*
X0165425Y0324624D01*
X0165425Y0324586D02*
X0175317Y0324586D01*
X0175317Y0324548D02*
X0165425Y0324548D01*
X0165425Y0324510D02*
X0175317Y0324510D01*
X0175317Y0324472D02*
X0165425Y0324472D01*
X0165425Y0324435D02*
X0175317Y0324435D01*
X0175317Y0324397D02*
X0165425Y0324397D01*
X0165425Y0324359D02*
X0175317Y0324359D01*
X0175317Y0324321D02*
X0165425Y0324321D01*
X0165425Y0324283D02*
X0175317Y0324283D01*
X0175317Y0324245D02*
X0165425Y0324245D01*
X0165425Y0324207D02*
X0175317Y0324207D01*
X0175317Y0324169D02*
X0165425Y0324169D01*
X0165425Y0324132D02*
X0175317Y0324132D01*
X0175317Y0324094D02*
X0165425Y0324094D01*
X0165425Y0324056D02*
X0175317Y0324056D01*
X0175317Y0324018D02*
X0165425Y0324018D01*
X0165425Y0323980D02*
X0175317Y0323980D01*
X0175317Y0323942D02*
X0165425Y0323942D01*
X0165425Y0323904D02*
X0175317Y0323904D01*
X0175317Y0323866D02*
X0165425Y0323866D01*
X0165425Y0323829D02*
X0175317Y0323829D01*
X0175317Y0323791D02*
X0165425Y0323791D01*
X0165425Y0323753D02*
X0175317Y0323753D01*
X0175317Y0323715D02*
X0165425Y0323715D01*
X0165425Y0323677D02*
X0175317Y0323677D01*
X0175317Y0323639D02*
X0165425Y0323639D01*
X0165425Y0323601D02*
X0175317Y0323601D01*
X0175317Y0323563D02*
X0165425Y0323563D01*
X0165425Y0323525D02*
X0175317Y0323525D01*
X0175317Y0323488D02*
X0165425Y0323488D01*
X0165425Y0323450D02*
X0175317Y0323450D01*
X0175317Y0323412D02*
X0165425Y0323412D01*
X0165425Y0323374D02*
X0175317Y0323374D01*
X0175317Y0323336D02*
X0165425Y0323336D01*
X0165425Y0323298D02*
X0175317Y0323298D01*
X0175317Y0323260D02*
X0165425Y0323260D01*
X0165425Y0323222D02*
X0175317Y0323222D01*
X0175317Y0323185D02*
X0165425Y0323185D01*
X0165425Y0323147D02*
X0175317Y0323147D01*
X0175317Y0323109D02*
X0165425Y0323109D01*
X0165425Y0323071D02*
X0175317Y0323071D01*
X0175317Y0323033D02*
X0165425Y0323033D01*
X0165425Y0322995D02*
X0175317Y0322995D01*
X0175317Y0322957D02*
X0165425Y0322957D01*
X0165425Y0322919D02*
X0175317Y0322919D01*
X0175317Y0322881D02*
X0165425Y0322881D01*
X0165425Y0322844D02*
X0175317Y0322844D01*
X0175317Y0322806D02*
X0165425Y0322806D01*
X0165425Y0322768D02*
X0175317Y0322768D01*
X0175317Y0322730D02*
X0165425Y0322730D01*
X0165425Y0322692D02*
X0175317Y0322692D01*
X0175317Y0322654D02*
X0165425Y0322654D01*
X0165425Y0322616D02*
X0175317Y0322616D01*
X0175317Y0322578D02*
X0165425Y0322578D01*
X0165425Y0322541D02*
X0175317Y0322541D01*
X0175317Y0322503D02*
X0165425Y0322503D01*
X0165425Y0322465D02*
X0175317Y0322465D01*
X0175317Y0322427D02*
X0165425Y0322427D01*
X0165425Y0322389D02*
X0175317Y0322389D01*
X0175317Y0322351D02*
X0165425Y0322351D01*
X0165425Y0322313D02*
X0175317Y0322313D01*
X0175317Y0322275D02*
X0165425Y0322275D01*
X0165425Y0322237D02*
X0175317Y0322237D01*
X0175317Y0322200D02*
X0165425Y0322200D01*
X0165425Y0322162D02*
X0175317Y0322162D01*
X0175317Y0322124D02*
X0165425Y0322124D01*
X0165425Y0322086D02*
X0175317Y0322086D01*
X0175317Y0322048D02*
X0165425Y0322048D01*
X0165425Y0322010D02*
X0175317Y0322010D01*
X0175317Y0321972D02*
X0165425Y0321972D01*
X0165425Y0321934D02*
X0175317Y0321934D01*
X0175317Y0321897D02*
X0165425Y0321897D01*
X0165425Y0321859D02*
X0175317Y0321859D01*
X0175317Y0321821D02*
X0165425Y0321821D01*
X0165425Y0321783D02*
X0175317Y0321783D01*
X0175317Y0321745D02*
X0165425Y0321745D01*
X0165425Y0321707D02*
X0175317Y0321707D01*
X0175317Y0321669D02*
X0165425Y0321669D01*
X0165425Y0321631D02*
X0175317Y0321631D01*
X0175317Y0321594D02*
X0165425Y0321594D01*
X0165425Y0321556D02*
X0175317Y0321556D01*
X0175317Y0321518D02*
X0165425Y0321518D01*
X0165425Y0321480D02*
X0175317Y0321480D01*
X0175317Y0321442D02*
X0165425Y0321442D01*
X0165425Y0321404D02*
X0175317Y0321404D01*
X0175317Y0321366D02*
X0165425Y0321366D01*
X0165425Y0321328D02*
X0175317Y0321328D01*
X0175317Y0321290D02*
X0165425Y0321290D01*
X0165425Y0321253D02*
X0175317Y0321253D01*
X0175317Y0321215D02*
X0165425Y0321215D01*
X0165425Y0321177D02*
X0175317Y0321177D01*
X0175317Y0321139D02*
X0165425Y0321139D01*
X0165425Y0321101D02*
X0175317Y0321101D01*
X0175317Y0321063D02*
X0165425Y0321063D01*
X0165425Y0321025D02*
X0175317Y0321025D01*
X0175317Y0320987D02*
X0165425Y0320987D01*
X0165425Y0320950D02*
X0175317Y0320950D01*
X0175317Y0320912D02*
X0165425Y0320912D01*
X0165425Y0320874D02*
X0175317Y0320874D01*
X0175317Y0320836D02*
X0165425Y0320836D01*
X0165425Y0320798D02*
X0175317Y0320798D01*
X0175317Y0320760D02*
X0165425Y0320760D01*
X0165425Y0320722D02*
X0175317Y0320722D01*
X0175317Y0320684D02*
X0165425Y0320684D01*
X0165425Y0320646D02*
X0175317Y0320646D01*
X0175317Y0320609D02*
X0165425Y0320609D01*
X0165425Y0320571D02*
X0175317Y0320571D01*
X0175317Y0320533D02*
X0165425Y0320533D01*
X0165425Y0320495D02*
X0175317Y0320495D01*
X0175317Y0320457D02*
X0165425Y0320457D01*
X0165425Y0320419D02*
X0175317Y0320419D01*
X0175317Y0320381D02*
X0165425Y0320381D01*
X0165425Y0320343D02*
X0175317Y0320343D01*
X0175317Y0320306D02*
X0165425Y0320306D01*
X0165425Y0320268D02*
X0175317Y0320268D01*
X0175317Y0320230D02*
X0165425Y0320230D01*
X0165425Y0320192D02*
X0175317Y0320192D01*
X0175317Y0320154D02*
X0165425Y0320154D01*
X0165425Y0320116D02*
X0175317Y0320116D01*
X0175317Y0320078D02*
X0165425Y0320078D01*
X0165425Y0320040D02*
X0175317Y0320040D01*
X0175317Y0320002D02*
X0165425Y0320002D01*
X0165425Y0319965D02*
X0175317Y0319965D01*
X0175317Y0319927D02*
X0165425Y0319927D01*
X0165425Y0319889D02*
X0175317Y0319889D01*
X0175317Y0319851D02*
X0165425Y0319851D01*
X0165425Y0319813D02*
X0175317Y0319813D01*
X0175317Y0319775D02*
X0165425Y0319775D01*
X0165425Y0319737D02*
X0175317Y0319737D01*
X0175317Y0319699D02*
X0165425Y0319699D01*
X0165425Y0319662D02*
X0175317Y0319662D01*
X0175317Y0319624D02*
X0165425Y0319624D01*
X0165425Y0319586D02*
X0175317Y0319586D01*
X0175317Y0319548D02*
X0165425Y0319548D01*
X0165425Y0319510D02*
X0175317Y0319510D01*
X0175317Y0319472D02*
X0165425Y0319472D01*
X0165425Y0319434D02*
X0175317Y0319434D01*
X0175317Y0319396D02*
X0165425Y0319396D01*
X0165425Y0319359D02*
X0175317Y0319359D01*
X0175317Y0319321D02*
X0165425Y0319321D01*
X0165425Y0319283D02*
X0175317Y0319283D01*
X0175317Y0319245D02*
X0165425Y0319245D01*
X0165425Y0319207D02*
X0175317Y0319207D01*
X0175317Y0319169D02*
X0165425Y0319169D01*
X0165425Y0319131D02*
X0175317Y0319131D01*
X0175317Y0319093D02*
X0165425Y0319093D01*
X0165425Y0319055D02*
X0175317Y0319055D01*
X0175317Y0319018D02*
X0165425Y0319018D01*
X0165425Y0318980D02*
X0175317Y0318980D01*
X0175317Y0318942D02*
X0165425Y0318942D01*
X0165425Y0318904D02*
X0175317Y0318904D01*
X0175317Y0318866D02*
X0165425Y0318866D01*
X0165425Y0318828D02*
X0175317Y0318828D01*
X0175317Y0318790D02*
X0165425Y0318790D01*
X0165425Y0318752D02*
X0175317Y0318752D01*
X0175317Y0318715D02*
X0165425Y0318715D01*
X0165425Y0318677D02*
X0175317Y0318677D01*
X0175317Y0318639D02*
X0165425Y0318639D01*
X0165425Y0318601D02*
X0175317Y0318601D01*
X0175317Y0318563D02*
X0165425Y0318563D01*
X0165425Y0318525D02*
X0175317Y0318525D01*
X0175317Y0318487D02*
X0165425Y0318487D01*
X0165425Y0318449D02*
X0175317Y0318449D01*
X0175317Y0318411D02*
X0165425Y0318411D01*
X0165425Y0318374D02*
X0175317Y0318374D01*
X0175317Y0318336D02*
X0165425Y0318336D01*
X0165425Y0318298D02*
X0175317Y0318298D01*
X0175317Y0318260D02*
X0165425Y0318260D01*
X0165425Y0318222D02*
X0175317Y0318222D01*
X0175317Y0318184D02*
X0165425Y0318184D01*
X0165425Y0318146D02*
X0175317Y0318146D01*
X0175317Y0318108D02*
X0165425Y0318108D01*
X0165425Y0318071D02*
X0175317Y0318071D01*
X0175317Y0318033D02*
X0165425Y0318033D01*
X0165425Y0317995D02*
X0175317Y0317995D01*
X0175317Y0317957D02*
X0165425Y0317957D01*
X0165425Y0317919D02*
X0175317Y0317919D01*
X0175317Y0317881D02*
X0165425Y0317881D01*
X0165425Y0317843D02*
X0175317Y0317843D01*
X0175317Y0317805D02*
X0165425Y0317805D01*
X0165425Y0317767D02*
X0175317Y0317767D01*
X0175317Y0317730D02*
X0165425Y0317730D01*
X0165425Y0317692D02*
X0175317Y0317692D01*
X0175317Y0317654D02*
X0165425Y0317654D01*
X0165425Y0317616D02*
X0175317Y0317616D01*
X0175317Y0317578D02*
X0165425Y0317578D01*
X0165425Y0317540D02*
X0175317Y0317540D01*
X0175317Y0317502D02*
X0165425Y0317502D01*
X0165425Y0317464D02*
X0175317Y0317464D01*
X0175317Y0317427D02*
X0165425Y0317427D01*
X0165425Y0317389D02*
X0175317Y0317389D01*
X0175317Y0317351D02*
X0165425Y0317351D01*
X0165425Y0317313D02*
X0175317Y0317313D01*
X0175317Y0317275D02*
X0165425Y0317275D01*
X0165425Y0317237D02*
X0175317Y0317237D01*
X0175317Y0317199D02*
X0165425Y0317199D01*
X0165425Y0317161D02*
X0175317Y0317161D01*
X0175317Y0317123D02*
X0165425Y0317123D01*
X0165425Y0317086D02*
X0175317Y0317086D01*
X0175317Y0317048D02*
X0165425Y0317048D01*
X0165425Y0317010D02*
X0175317Y0317010D01*
X0175317Y0316972D02*
X0165425Y0316972D01*
X0165425Y0316934D02*
X0175317Y0316934D01*
X0175317Y0316896D02*
X0165425Y0316896D01*
X0165425Y0316858D02*
X0175317Y0316858D01*
X0175317Y0316820D02*
X0165425Y0316820D01*
X0165425Y0316783D02*
X0175317Y0316783D01*
X0175317Y0316745D02*
X0165425Y0316745D01*
X0165425Y0316707D02*
X0175317Y0316707D01*
X0175317Y0316669D02*
X0165425Y0316669D01*
X0165425Y0316631D02*
X0175317Y0316631D01*
X0175261Y0316593D02*
X0165425Y0316593D01*
X0165425Y0316555D02*
X0175190Y0316555D01*
X0175119Y0316517D02*
X0165425Y0316517D01*
X0165425Y0316480D02*
X0175048Y0316480D01*
X0174977Y0316442D02*
X0165425Y0316442D01*
X0165425Y0316404D02*
X0174906Y0316404D01*
X0174835Y0316366D02*
X0165425Y0316366D01*
X0165425Y0316328D02*
X0174764Y0316328D01*
X0174693Y0316290D02*
X0165425Y0316290D01*
X0165425Y0316252D02*
X0174622Y0316252D01*
X0174551Y0316214D02*
X0165425Y0316214D01*
X0165425Y0316176D02*
X0174480Y0316176D01*
X0174409Y0316139D02*
X0165425Y0316139D01*
X0165425Y0316101D02*
X0174338Y0316101D01*
X0174267Y0316063D02*
X0165425Y0316063D01*
X0165425Y0316025D02*
X0174196Y0316025D01*
X0174125Y0315987D02*
X0165425Y0315987D01*
X0165425Y0315949D02*
X0174054Y0315949D01*
X0173982Y0315911D02*
X0165425Y0315911D01*
X0165425Y0315873D02*
X0173911Y0315873D01*
X0173840Y0315836D02*
X0165425Y0315836D01*
X0165425Y0315798D02*
X0173769Y0315798D01*
X0173698Y0315760D02*
X0165425Y0315760D01*
X0165425Y0315722D02*
X0173627Y0315722D01*
X0173556Y0315684D02*
X0165425Y0315684D01*
X0165425Y0315646D02*
X0173485Y0315646D01*
X0173414Y0315608D02*
X0165425Y0315608D01*
X0165425Y0315570D02*
X0173343Y0315570D01*
X0173272Y0315532D02*
X0165425Y0315532D01*
X0165425Y0315495D02*
X0173201Y0315495D01*
X0173130Y0315457D02*
X0165425Y0315457D01*
X0165425Y0315419D02*
X0173059Y0315419D01*
X0172988Y0315381D02*
X0165425Y0315381D01*
X0165425Y0315343D02*
X0172917Y0315343D01*
X0172846Y0315305D02*
X0165425Y0315305D01*
X0165425Y0315267D02*
X0172775Y0315267D01*
X0172704Y0315229D02*
X0165425Y0315229D01*
X0165425Y0315192D02*
X0172633Y0315192D01*
X0172562Y0315154D02*
X0165425Y0315154D01*
X0165425Y0315116D02*
X0172491Y0315116D01*
X0172420Y0315078D02*
X0165425Y0315078D01*
X0165425Y0315040D02*
X0172349Y0315040D01*
X0172278Y0315002D02*
X0165425Y0315002D01*
X0165425Y0314964D02*
X0172207Y0314964D01*
X0172136Y0314926D02*
X0165425Y0314926D01*
X0165425Y0314888D02*
X0172065Y0314888D01*
X0171994Y0314851D02*
X0165425Y0314851D01*
X0165425Y0314813D02*
X0171922Y0314813D01*
X0171851Y0314775D02*
X0165425Y0314775D01*
X0165425Y0314737D02*
X0171780Y0314737D01*
X0171709Y0314699D02*
X0165425Y0314699D01*
X0165425Y0314661D02*
X0171638Y0314661D01*
X0171567Y0314623D02*
X0165425Y0314623D01*
X0165425Y0314585D02*
X0171496Y0314585D01*
X0171425Y0314548D02*
X0165425Y0314548D01*
X0165425Y0314510D02*
X0171354Y0314510D01*
X0171283Y0314472D02*
X0165425Y0314472D01*
X0165425Y0314434D02*
X0171212Y0314434D01*
X0171141Y0314396D02*
X0165425Y0314396D01*
X0165425Y0314358D02*
X0171070Y0314358D01*
X0170999Y0314320D02*
X0165425Y0314320D01*
X0165425Y0314282D02*
X0170928Y0314282D01*
X0170857Y0314245D02*
X0165425Y0314245D01*
X0165425Y0314207D02*
X0170786Y0314207D01*
X0170715Y0314169D02*
X0165425Y0314169D01*
X0165425Y0314131D02*
X0170644Y0314131D01*
X0170573Y0314093D02*
X0165425Y0314093D01*
X0165425Y0314055D02*
X0170502Y0314055D01*
X0170431Y0314017D02*
X0165425Y0314017D01*
X0165425Y0313979D02*
X0170360Y0313979D01*
X0170289Y0313941D02*
X0165425Y0313941D01*
X0165425Y0313904D02*
X0170218Y0313904D01*
X0170147Y0313866D02*
X0165425Y0313866D01*
X0165425Y0313828D02*
X0170076Y0313828D01*
X0170005Y0313790D02*
X0165425Y0313790D01*
X0165425Y0313752D02*
X0169934Y0313752D01*
X0169863Y0313714D02*
X0165425Y0313714D01*
X0165425Y0313676D02*
X0169791Y0313676D01*
X0169720Y0313638D02*
X0165425Y0313638D01*
X0165425Y0313601D02*
X0169649Y0313601D01*
X0169578Y0313563D02*
X0165425Y0313563D01*
X0165425Y0313525D02*
X0169507Y0313525D01*
X0169436Y0313487D02*
X0165425Y0313487D01*
X0165425Y0313449D02*
X0169365Y0313449D01*
X0169294Y0313411D02*
X0165425Y0313411D01*
X0165425Y0313373D02*
X0169223Y0313373D01*
X0169152Y0313335D02*
X0165425Y0313335D01*
X0165425Y0313297D02*
X0169081Y0313297D01*
X0169010Y0313260D02*
X0165425Y0313260D01*
X0165425Y0313222D02*
X0168939Y0313222D01*
X0168868Y0313184D02*
X0165425Y0313184D01*
X0165425Y0313146D02*
X0168797Y0313146D01*
X0168726Y0313108D02*
X0165425Y0313108D01*
X0165425Y0313070D02*
X0168655Y0313070D01*
X0168584Y0313032D02*
X0165425Y0313032D01*
X0165425Y0312994D02*
X0168513Y0312994D01*
X0168442Y0312957D02*
X0165425Y0312957D01*
X0165425Y0312919D02*
X0168371Y0312919D01*
X0168300Y0312881D02*
X0165425Y0312881D01*
X0165425Y0312843D02*
X0168229Y0312843D01*
X0168158Y0312805D02*
X0165425Y0312805D01*
X0165425Y0312767D02*
X0168087Y0312767D01*
X0168016Y0312729D02*
X0165425Y0312729D01*
X0165425Y0312691D02*
X0167945Y0312691D01*
X0167874Y0312653D02*
X0165425Y0312653D01*
X0165425Y0312616D02*
X0167803Y0312616D01*
X0167731Y0312578D02*
X0165425Y0312578D01*
X0165425Y0312540D02*
X0167660Y0312540D01*
X0167589Y0312502D02*
X0165425Y0312502D01*
X0165425Y0312464D02*
X0167518Y0312464D01*
X0167447Y0312426D02*
X0165425Y0312426D01*
X0165425Y0312388D02*
X0167376Y0312388D01*
X0167305Y0312350D02*
X0165425Y0312350D01*
X0165425Y0312313D02*
X0167234Y0312313D01*
X0167163Y0312275D02*
X0165425Y0312275D01*
X0165425Y0312237D02*
X0167092Y0312237D01*
X0167021Y0312199D02*
X0165425Y0312199D01*
X0165425Y0312161D02*
X0166950Y0312161D01*
X0166879Y0312123D02*
X0165425Y0312123D01*
X0165425Y0312085D02*
X0166808Y0312085D01*
X0166737Y0312047D02*
X0165425Y0312047D01*
X0165425Y0312010D02*
X0166666Y0312010D01*
X0166595Y0311972D02*
X0165425Y0311972D01*
X0165425Y0311934D02*
X0166524Y0311934D01*
X0166453Y0311896D02*
X0165425Y0311896D01*
X0165425Y0311858D02*
X0166382Y0311858D01*
X0166311Y0311820D02*
X0165425Y0311820D01*
X0165425Y0311782D02*
X0166240Y0311782D01*
X0166169Y0311744D02*
X0165425Y0311744D01*
X0165425Y0311706D02*
X0166098Y0311706D01*
X0166027Y0311669D02*
X0165425Y0311669D01*
X0165425Y0311631D02*
X0165956Y0311631D01*
X0165885Y0311593D02*
X0165425Y0311593D01*
X0165425Y0311555D02*
X0165814Y0311555D01*
X0165743Y0311517D02*
X0165425Y0311517D01*
X0165425Y0311479D02*
X0165672Y0311479D01*
X0165600Y0311441D02*
X0165425Y0311441D01*
X0165425Y0311403D02*
X0165529Y0311403D01*
X0165458Y0311366D02*
X0165425Y0311366D01*
X0163911Y0311366D02*
X0163892Y0311366D01*
X0163911Y0311356D02*
X0154018Y0316631D01*
X0154018Y0329491D01*
X0163911Y0324918D01*
X0163911Y0311356D01*
X0163911Y0311403D02*
X0163821Y0311403D01*
X0163750Y0311441D02*
X0163911Y0311441D01*
X0163911Y0311479D02*
X0163679Y0311479D01*
X0163608Y0311517D02*
X0163911Y0311517D01*
X0163911Y0311555D02*
X0163537Y0311555D01*
X0163466Y0311593D02*
X0163911Y0311593D01*
X0163911Y0311631D02*
X0163395Y0311631D01*
X0163324Y0311669D02*
X0163911Y0311669D01*
X0163911Y0311706D02*
X0163253Y0311706D01*
X0163182Y0311744D02*
X0163911Y0311744D01*
X0163911Y0311782D02*
X0163111Y0311782D01*
X0163040Y0311820D02*
X0163911Y0311820D01*
X0163911Y0311858D02*
X0162969Y0311858D01*
X0162898Y0311896D02*
X0163911Y0311896D01*
X0163911Y0311934D02*
X0162827Y0311934D01*
X0162756Y0311972D02*
X0163911Y0311972D01*
X0163911Y0312010D02*
X0162685Y0312010D01*
X0162614Y0312047D02*
X0163911Y0312047D01*
X0163911Y0312085D02*
X0162543Y0312085D01*
X0162472Y0312123D02*
X0163911Y0312123D01*
X0163911Y0312161D02*
X0162401Y0312161D01*
X0162329Y0312199D02*
X0163911Y0312199D01*
X0163911Y0312237D02*
X0162258Y0312237D01*
X0162187Y0312275D02*
X0163911Y0312275D01*
X0163911Y0312313D02*
X0162116Y0312313D01*
X0162045Y0312350D02*
X0163911Y0312350D01*
X0163911Y0312388D02*
X0161974Y0312388D01*
X0161903Y0312426D02*
X0163911Y0312426D01*
X0163911Y0312464D02*
X0161832Y0312464D01*
X0161761Y0312502D02*
X0163911Y0312502D01*
X0163911Y0312540D02*
X0161690Y0312540D01*
X0161619Y0312578D02*
X0163911Y0312578D01*
X0163911Y0312616D02*
X0161548Y0312616D01*
X0161477Y0312653D02*
X0163911Y0312653D01*
X0163911Y0312691D02*
X0161406Y0312691D01*
X0161335Y0312729D02*
X0163911Y0312729D01*
X0163911Y0312767D02*
X0161264Y0312767D01*
X0161193Y0312805D02*
X0163911Y0312805D01*
X0163911Y0312843D02*
X0161122Y0312843D01*
X0161051Y0312881D02*
X0163911Y0312881D01*
X0163911Y0312919D02*
X0160980Y0312919D01*
X0160909Y0312957D02*
X0163911Y0312957D01*
X0163911Y0312994D02*
X0160838Y0312994D01*
X0160767Y0313032D02*
X0163911Y0313032D01*
X0163911Y0313070D02*
X0160696Y0313070D01*
X0160625Y0313108D02*
X0163911Y0313108D01*
X0163911Y0313146D02*
X0160554Y0313146D01*
X0160483Y0313184D02*
X0163911Y0313184D01*
X0163911Y0313222D02*
X0160412Y0313222D01*
X0160341Y0313260D02*
X0163911Y0313260D01*
X0163911Y0313297D02*
X0160270Y0313297D01*
X0160198Y0313335D02*
X0163911Y0313335D01*
X0163911Y0313373D02*
X0160127Y0313373D01*
X0160056Y0313411D02*
X0163911Y0313411D01*
X0163911Y0313449D02*
X0159985Y0313449D01*
X0159914Y0313487D02*
X0163911Y0313487D01*
X0163911Y0313525D02*
X0159843Y0313525D01*
X0159772Y0313563D02*
X0163911Y0313563D01*
X0163911Y0313601D02*
X0159701Y0313601D01*
X0159630Y0313638D02*
X0163911Y0313638D01*
X0163911Y0313676D02*
X0159559Y0313676D01*
X0159488Y0313714D02*
X0163911Y0313714D01*
X0163911Y0313752D02*
X0159417Y0313752D01*
X0159346Y0313790D02*
X0163911Y0313790D01*
X0163911Y0313828D02*
X0159275Y0313828D01*
X0159204Y0313866D02*
X0163911Y0313866D01*
X0163911Y0313904D02*
X0159133Y0313904D01*
X0159062Y0313941D02*
X0163911Y0313941D01*
X0163911Y0313979D02*
X0158991Y0313979D01*
X0158920Y0314017D02*
X0163911Y0314017D01*
X0163911Y0314055D02*
X0158849Y0314055D01*
X0158778Y0314093D02*
X0163911Y0314093D01*
X0163911Y0314131D02*
X0158707Y0314131D01*
X0158636Y0314169D02*
X0163911Y0314169D01*
X0163911Y0314207D02*
X0158565Y0314207D01*
X0158494Y0314245D02*
X0163911Y0314245D01*
X0163911Y0314282D02*
X0158423Y0314282D01*
X0158352Y0314320D02*
X0163911Y0314320D01*
X0163911Y0314358D02*
X0158281Y0314358D01*
X0158210Y0314396D02*
X0163911Y0314396D01*
X0163911Y0314434D02*
X0158138Y0314434D01*
X0158067Y0314472D02*
X0163911Y0314472D01*
X0163911Y0314510D02*
X0157996Y0314510D01*
X0157925Y0314548D02*
X0163911Y0314548D01*
X0163911Y0314585D02*
X0157854Y0314585D01*
X0157783Y0314623D02*
X0163911Y0314623D01*
X0163911Y0314661D02*
X0157712Y0314661D01*
X0157641Y0314699D02*
X0163911Y0314699D01*
X0163911Y0314737D02*
X0157570Y0314737D01*
X0157499Y0314775D02*
X0163911Y0314775D01*
X0163911Y0314813D02*
X0157428Y0314813D01*
X0157357Y0314851D02*
X0163911Y0314851D01*
X0163911Y0314888D02*
X0157286Y0314888D01*
X0157215Y0314926D02*
X0163911Y0314926D01*
X0163911Y0314964D02*
X0157144Y0314964D01*
X0157073Y0315002D02*
X0163911Y0315002D01*
X0163911Y0315040D02*
X0157002Y0315040D01*
X0156931Y0315078D02*
X0163911Y0315078D01*
X0163911Y0315116D02*
X0156860Y0315116D01*
X0156789Y0315154D02*
X0163911Y0315154D01*
X0163911Y0315192D02*
X0156718Y0315192D01*
X0156647Y0315229D02*
X0163911Y0315229D01*
X0163911Y0315267D02*
X0156576Y0315267D01*
X0156505Y0315305D02*
X0163911Y0315305D01*
X0163911Y0315343D02*
X0156434Y0315343D01*
X0156363Y0315381D02*
X0163911Y0315381D01*
X0163911Y0315419D02*
X0156292Y0315419D01*
X0156221Y0315457D02*
X0163911Y0315457D01*
X0163911Y0315495D02*
X0156150Y0315495D01*
X0156079Y0315532D02*
X0163911Y0315532D01*
X0163911Y0315570D02*
X0156007Y0315570D01*
X0155936Y0315608D02*
X0163911Y0315608D01*
X0163911Y0315646D02*
X0155865Y0315646D01*
X0155794Y0315684D02*
X0163911Y0315684D01*
X0163911Y0315722D02*
X0155723Y0315722D01*
X0155652Y0315760D02*
X0163911Y0315760D01*
X0163911Y0315798D02*
X0155581Y0315798D01*
X0155510Y0315836D02*
X0163911Y0315836D01*
X0163911Y0315873D02*
X0155439Y0315873D01*
X0155368Y0315911D02*
X0163911Y0315911D01*
X0163911Y0315949D02*
X0155297Y0315949D01*
X0155226Y0315987D02*
X0163911Y0315987D01*
X0163911Y0316025D02*
X0155155Y0316025D01*
X0155084Y0316063D02*
X0163911Y0316063D01*
X0163911Y0316101D02*
X0155013Y0316101D01*
X0154942Y0316139D02*
X0163911Y0316139D01*
X0163911Y0316176D02*
X0154871Y0316176D01*
X0154800Y0316214D02*
X0163911Y0316214D01*
X0163911Y0316252D02*
X0154729Y0316252D01*
X0154658Y0316290D02*
X0163911Y0316290D01*
X0163911Y0316328D02*
X0154587Y0316328D01*
X0154516Y0316366D02*
X0163911Y0316366D01*
X0163911Y0316404D02*
X0154445Y0316404D01*
X0154374Y0316442D02*
X0163911Y0316442D01*
X0163911Y0316480D02*
X0154303Y0316480D01*
X0154232Y0316517D02*
X0163911Y0316517D01*
X0163911Y0316555D02*
X0154161Y0316555D01*
X0154090Y0316593D02*
X0163911Y0316593D01*
X0163911Y0316631D02*
X0154019Y0316631D01*
X0154018Y0316669D02*
X0163911Y0316669D01*
X0163911Y0316707D02*
X0154018Y0316707D01*
X0154018Y0316745D02*
X0163911Y0316745D01*
X0163911Y0316783D02*
X0154018Y0316783D01*
X0154018Y0316820D02*
X0163911Y0316820D01*
X0163911Y0316858D02*
X0154018Y0316858D01*
X0154018Y0316896D02*
X0163911Y0316896D01*
X0163911Y0316934D02*
X0154018Y0316934D01*
X0154018Y0316972D02*
X0163911Y0316972D01*
X0163911Y0317010D02*
X0154018Y0317010D01*
X0154018Y0317048D02*
X0163911Y0317048D01*
X0163911Y0317086D02*
X0154018Y0317086D01*
X0154018Y0317123D02*
X0163911Y0317123D01*
X0163911Y0317161D02*
X0154018Y0317161D01*
X0154018Y0317199D02*
X0163911Y0317199D01*
X0163911Y0317237D02*
X0154018Y0317237D01*
X0154018Y0317275D02*
X0163911Y0317275D01*
X0163911Y0317313D02*
X0154018Y0317313D01*
X0154018Y0317351D02*
X0163911Y0317351D01*
X0163911Y0317389D02*
X0154018Y0317389D01*
X0154018Y0317427D02*
X0163911Y0317427D01*
X0163911Y0317464D02*
X0154018Y0317464D01*
X0154018Y0317502D02*
X0163911Y0317502D01*
X0163911Y0317540D02*
X0154018Y0317540D01*
X0154018Y0317578D02*
X0163911Y0317578D01*
X0163911Y0317616D02*
X0154018Y0317616D01*
X0154018Y0317654D02*
X0163911Y0317654D01*
X0163911Y0317692D02*
X0154018Y0317692D01*
X0154018Y0317730D02*
X0163911Y0317730D01*
X0163911Y0317767D02*
X0154018Y0317767D01*
X0154018Y0317805D02*
X0163911Y0317805D01*
X0163911Y0317843D02*
X0154018Y0317843D01*
X0154018Y0317881D02*
X0163911Y0317881D01*
X0163911Y0317919D02*
X0154018Y0317919D01*
X0154018Y0317957D02*
X0163911Y0317957D01*
X0163911Y0317995D02*
X0154018Y0317995D01*
X0154018Y0318033D02*
X0163911Y0318033D01*
X0163911Y0318071D02*
X0154018Y0318071D01*
X0154018Y0318108D02*
X0163911Y0318108D01*
X0163911Y0318146D02*
X0154018Y0318146D01*
X0154018Y0318184D02*
X0163911Y0318184D01*
X0163911Y0318222D02*
X0154018Y0318222D01*
X0154018Y0318260D02*
X0163911Y0318260D01*
X0163911Y0318298D02*
X0154018Y0318298D01*
X0154018Y0318336D02*
X0163911Y0318336D01*
X0163911Y0318374D02*
X0154018Y0318374D01*
X0154018Y0318411D02*
X0163911Y0318411D01*
X0163911Y0318449D02*
X0154018Y0318449D01*
X0154018Y0318487D02*
X0163911Y0318487D01*
X0163911Y0318525D02*
X0154018Y0318525D01*
X0154018Y0318563D02*
X0163911Y0318563D01*
X0163911Y0318601D02*
X0154018Y0318601D01*
X0154018Y0318639D02*
X0163911Y0318639D01*
X0163911Y0318677D02*
X0154018Y0318677D01*
X0154018Y0318715D02*
X0163911Y0318715D01*
X0163911Y0318752D02*
X0154018Y0318752D01*
X0154018Y0318790D02*
X0163911Y0318790D01*
X0163911Y0318828D02*
X0154018Y0318828D01*
X0154018Y0318866D02*
X0163911Y0318866D01*
X0163911Y0318904D02*
X0154018Y0318904D01*
X0154018Y0318942D02*
X0163911Y0318942D01*
X0163911Y0318980D02*
X0154018Y0318980D01*
X0154018Y0319018D02*
X0163911Y0319018D01*
X0163911Y0319055D02*
X0154018Y0319055D01*
X0154018Y0319093D02*
X0163911Y0319093D01*
X0163911Y0319131D02*
X0154018Y0319131D01*
X0154018Y0319169D02*
X0163911Y0319169D01*
X0163911Y0319207D02*
X0154018Y0319207D01*
X0154018Y0319245D02*
X0163911Y0319245D01*
X0163911Y0319283D02*
X0154018Y0319283D01*
X0154018Y0319321D02*
X0163911Y0319321D01*
X0163911Y0319359D02*
X0154018Y0319359D01*
X0154018Y0319396D02*
X0163911Y0319396D01*
X0163911Y0319434D02*
X0154018Y0319434D01*
X0154018Y0319472D02*
X0163911Y0319472D01*
X0163911Y0319510D02*
X0154018Y0319510D01*
X0154018Y0319548D02*
X0163911Y0319548D01*
X0163911Y0319586D02*
X0154018Y0319586D01*
X0154018Y0319624D02*
X0163911Y0319624D01*
X0163911Y0319662D02*
X0154018Y0319662D01*
X0154018Y0319699D02*
X0163911Y0319699D01*
X0163911Y0319737D02*
X0154018Y0319737D01*
X0154018Y0319775D02*
X0163911Y0319775D01*
X0163911Y0319813D02*
X0154018Y0319813D01*
X0154018Y0319851D02*
X0163911Y0319851D01*
X0163911Y0319889D02*
X0154018Y0319889D01*
X0154018Y0319927D02*
X0163911Y0319927D01*
X0163911Y0319965D02*
X0154018Y0319965D01*
X0154018Y0320002D02*
X0163911Y0320002D01*
X0163911Y0320040D02*
X0154018Y0320040D01*
X0154018Y0320078D02*
X0163911Y0320078D01*
X0163911Y0320116D02*
X0154018Y0320116D01*
X0154018Y0320154D02*
X0163911Y0320154D01*
X0163911Y0320192D02*
X0154018Y0320192D01*
X0154018Y0320230D02*
X0163911Y0320230D01*
X0163911Y0320268D02*
X0154018Y0320268D01*
X0154018Y0320306D02*
X0163911Y0320306D01*
X0163911Y0320343D02*
X0154018Y0320343D01*
X0154018Y0320381D02*
X0163911Y0320381D01*
X0163911Y0320419D02*
X0154018Y0320419D01*
X0154018Y0320457D02*
X0163911Y0320457D01*
X0163911Y0320495D02*
X0154018Y0320495D01*
X0154018Y0320533D02*
X0163911Y0320533D01*
X0163911Y0320571D02*
X0154018Y0320571D01*
X0154018Y0320609D02*
X0163911Y0320609D01*
X0163911Y0320646D02*
X0154018Y0320646D01*
X0154018Y0320684D02*
X0163911Y0320684D01*
X0163911Y0320722D02*
X0154018Y0320722D01*
X0154018Y0320760D02*
X0163911Y0320760D01*
X0163911Y0320798D02*
X0154018Y0320798D01*
X0154018Y0320836D02*
X0163911Y0320836D01*
X0163911Y0320874D02*
X0154018Y0320874D01*
X0154018Y0320912D02*
X0163911Y0320912D01*
X0163911Y0320950D02*
X0154018Y0320950D01*
X0154018Y0320987D02*
X0163911Y0320987D01*
X0163911Y0321025D02*
X0154018Y0321025D01*
X0154018Y0321063D02*
X0163911Y0321063D01*
X0163911Y0321101D02*
X0154018Y0321101D01*
X0154018Y0321139D02*
X0163911Y0321139D01*
X0163911Y0321177D02*
X0154018Y0321177D01*
X0154018Y0321215D02*
X0163911Y0321215D01*
X0163911Y0321253D02*
X0154018Y0321253D01*
X0154018Y0321290D02*
X0163911Y0321290D01*
X0163911Y0321328D02*
X0154018Y0321328D01*
X0154018Y0321366D02*
X0163911Y0321366D01*
X0163911Y0321404D02*
X0154018Y0321404D01*
X0154018Y0321442D02*
X0163911Y0321442D01*
X0163911Y0321480D02*
X0154018Y0321480D01*
X0154018Y0321518D02*
X0163911Y0321518D01*
X0163911Y0321556D02*
X0154018Y0321556D01*
X0154018Y0321594D02*
X0163911Y0321594D01*
X0163911Y0321631D02*
X0154018Y0321631D01*
X0154018Y0321669D02*
X0163911Y0321669D01*
X0163911Y0321707D02*
X0154018Y0321707D01*
X0154018Y0321745D02*
X0163911Y0321745D01*
X0163911Y0321783D02*
X0154018Y0321783D01*
X0154018Y0321821D02*
X0163911Y0321821D01*
X0163911Y0321859D02*
X0154018Y0321859D01*
X0154018Y0321897D02*
X0163911Y0321897D01*
X0163911Y0321934D02*
X0154018Y0321934D01*
X0154018Y0321972D02*
X0163911Y0321972D01*
X0163911Y0322010D02*
X0154018Y0322010D01*
X0154018Y0322048D02*
X0163911Y0322048D01*
X0163911Y0322086D02*
X0154018Y0322086D01*
X0154018Y0322124D02*
X0163911Y0322124D01*
X0163911Y0322162D02*
X0154018Y0322162D01*
X0154018Y0322200D02*
X0163911Y0322200D01*
X0163911Y0322237D02*
X0154018Y0322237D01*
X0154018Y0322275D02*
X0163911Y0322275D01*
X0163911Y0322313D02*
X0154018Y0322313D01*
X0154018Y0322351D02*
X0163911Y0322351D01*
X0163911Y0322389D02*
X0154018Y0322389D01*
X0154018Y0322427D02*
X0163911Y0322427D01*
X0163911Y0322465D02*
X0154018Y0322465D01*
X0154018Y0322503D02*
X0163911Y0322503D01*
X0163911Y0322541D02*
X0154018Y0322541D01*
X0154018Y0322578D02*
X0163911Y0322578D01*
X0163911Y0322616D02*
X0154018Y0322616D01*
X0154018Y0322654D02*
X0163911Y0322654D01*
X0163911Y0322692D02*
X0154018Y0322692D01*
X0154018Y0322730D02*
X0163911Y0322730D01*
X0163911Y0322768D02*
X0154018Y0322768D01*
X0154018Y0322806D02*
X0163911Y0322806D01*
X0163911Y0322844D02*
X0154018Y0322844D01*
X0154018Y0322881D02*
X0163911Y0322881D01*
X0163911Y0322919D02*
X0154018Y0322919D01*
X0154018Y0322957D02*
X0163911Y0322957D01*
X0163911Y0322995D02*
X0154018Y0322995D01*
X0154018Y0323033D02*
X0163911Y0323033D01*
X0163911Y0323071D02*
X0154018Y0323071D01*
X0154018Y0323109D02*
X0163911Y0323109D01*
X0163911Y0323147D02*
X0154018Y0323147D01*
X0154018Y0323185D02*
X0163911Y0323185D01*
X0163911Y0323222D02*
X0154018Y0323222D01*
X0154018Y0323260D02*
X0163911Y0323260D01*
X0163911Y0323298D02*
X0154018Y0323298D01*
X0154018Y0323336D02*
X0163911Y0323336D01*
X0163911Y0323374D02*
X0154018Y0323374D01*
X0154018Y0323412D02*
X0163911Y0323412D01*
X0163911Y0323450D02*
X0154018Y0323450D01*
X0154018Y0323488D02*
X0163911Y0323488D01*
X0163911Y0323525D02*
X0154018Y0323525D01*
X0154018Y0323563D02*
X0163911Y0323563D01*
X0163911Y0323601D02*
X0154018Y0323601D01*
X0154018Y0323639D02*
X0163911Y0323639D01*
X0163911Y0323677D02*
X0154018Y0323677D01*
X0154018Y0323715D02*
X0163911Y0323715D01*
X0163911Y0323753D02*
X0154018Y0323753D01*
X0154018Y0323791D02*
X0163911Y0323791D01*
X0163911Y0323829D02*
X0154018Y0323829D01*
X0154018Y0323866D02*
X0163911Y0323866D01*
X0163911Y0323904D02*
X0154018Y0323904D01*
X0154018Y0323942D02*
X0163911Y0323942D01*
X0163911Y0323980D02*
X0154018Y0323980D01*
X0154018Y0324018D02*
X0163911Y0324018D01*
X0163911Y0324056D02*
X0154018Y0324056D01*
X0154018Y0324094D02*
X0163911Y0324094D01*
X0163911Y0324132D02*
X0154018Y0324132D01*
X0154018Y0324169D02*
X0163911Y0324169D01*
X0163911Y0324207D02*
X0154018Y0324207D01*
X0154018Y0324245D02*
X0163911Y0324245D01*
X0163911Y0324283D02*
X0154018Y0324283D01*
X0154018Y0324321D02*
X0163911Y0324321D01*
X0163911Y0324359D02*
X0154018Y0324359D01*
X0154018Y0324397D02*
X0163911Y0324397D01*
X0163911Y0324435D02*
X0154018Y0324435D01*
X0154018Y0324472D02*
X0163911Y0324472D01*
X0163911Y0324510D02*
X0154018Y0324510D01*
X0154018Y0324548D02*
X0163911Y0324548D01*
X0163911Y0324586D02*
X0154018Y0324586D01*
X0154018Y0324624D02*
X0163911Y0324624D01*
X0163911Y0324662D02*
X0154018Y0324662D01*
X0154018Y0324700D02*
X0163911Y0324700D01*
X0163911Y0324738D02*
X0154018Y0324738D01*
X0154018Y0324776D02*
X0163911Y0324776D01*
X0163911Y0324813D02*
X0154018Y0324813D01*
X0154018Y0324851D02*
X0163911Y0324851D01*
X0163911Y0324889D02*
X0154018Y0324889D01*
X0154018Y0324927D02*
X0163892Y0324927D01*
X0163810Y0324965D02*
X0154018Y0324965D01*
X0154018Y0325003D02*
X0163728Y0325003D01*
X0163646Y0325041D02*
X0154018Y0325041D01*
X0154018Y0325079D02*
X0163564Y0325079D01*
X0163482Y0325116D02*
X0154018Y0325116D01*
X0154018Y0325154D02*
X0163400Y0325154D01*
X0163318Y0325192D02*
X0154018Y0325192D01*
X0154018Y0325230D02*
X0163236Y0325230D01*
X0163154Y0325268D02*
X0154018Y0325268D01*
X0154018Y0325306D02*
X0163072Y0325306D01*
X0162990Y0325344D02*
X0154018Y0325344D01*
X0154018Y0325382D02*
X0162908Y0325382D01*
X0162826Y0325420D02*
X0154018Y0325420D01*
X0154018Y0325457D02*
X0162744Y0325457D01*
X0162662Y0325495D02*
X0154018Y0325495D01*
X0154018Y0325533D02*
X0162580Y0325533D01*
X0162498Y0325571D02*
X0154018Y0325571D01*
X0154018Y0325609D02*
X0162416Y0325609D01*
X0162334Y0325647D02*
X0154018Y0325647D01*
X0154018Y0325685D02*
X0162252Y0325685D01*
X0162171Y0325723D02*
X0154018Y0325723D01*
X0154018Y0325760D02*
X0162089Y0325760D01*
X0162007Y0325798D02*
X0154018Y0325798D01*
X0154018Y0325836D02*
X0161925Y0325836D01*
X0161843Y0325874D02*
X0154018Y0325874D01*
X0154018Y0325912D02*
X0161761Y0325912D01*
X0161679Y0325950D02*
X0154018Y0325950D01*
X0154018Y0325988D02*
X0161597Y0325988D01*
X0161515Y0326026D02*
X0154018Y0326026D01*
X0154018Y0326064D02*
X0161433Y0326064D01*
X0161351Y0326101D02*
X0154018Y0326101D01*
X0154018Y0326139D02*
X0161269Y0326139D01*
X0161187Y0326177D02*
X0154018Y0326177D01*
X0154018Y0326215D02*
X0161105Y0326215D01*
X0161023Y0326253D02*
X0154018Y0326253D01*
X0154018Y0326291D02*
X0160941Y0326291D01*
X0160859Y0326329D02*
X0154018Y0326329D01*
X0154018Y0326367D02*
X0160777Y0326367D01*
X0160695Y0326404D02*
X0154018Y0326404D01*
X0154018Y0326442D02*
X0160613Y0326442D01*
X0160531Y0326480D02*
X0154018Y0326480D01*
X0154018Y0326518D02*
X0160449Y0326518D01*
X0160367Y0326556D02*
X0154018Y0326556D01*
X0154018Y0326594D02*
X0160286Y0326594D01*
X0160204Y0326632D02*
X0154018Y0326632D01*
X0154018Y0326670D02*
X0160122Y0326670D01*
X0160040Y0326707D02*
X0154018Y0326707D01*
X0154018Y0326745D02*
X0159958Y0326745D01*
X0159876Y0326783D02*
X0154018Y0326783D01*
X0154018Y0326821D02*
X0159794Y0326821D01*
X0159712Y0326859D02*
X0154018Y0326859D01*
X0154018Y0326897D02*
X0159630Y0326897D01*
X0159548Y0326935D02*
X0154018Y0326935D01*
X0154018Y0326973D02*
X0159466Y0326973D01*
X0159384Y0327011D02*
X0154018Y0327011D01*
X0154018Y0327048D02*
X0159302Y0327048D01*
X0159220Y0327086D02*
X0154018Y0327086D01*
X0154018Y0327124D02*
X0159138Y0327124D01*
X0159056Y0327162D02*
X0154018Y0327162D01*
X0154018Y0327200D02*
X0158974Y0327200D01*
X0158892Y0327238D02*
X0154018Y0327238D01*
X0154018Y0327276D02*
X0158810Y0327276D01*
X0158728Y0327314D02*
X0154018Y0327314D01*
X0154018Y0327351D02*
X0158646Y0327351D01*
X0158564Y0327389D02*
X0154018Y0327389D01*
X0154018Y0327427D02*
X0158482Y0327427D01*
X0158400Y0327465D02*
X0154018Y0327465D01*
X0154018Y0327503D02*
X0158319Y0327503D01*
X0158237Y0327541D02*
X0154018Y0327541D01*
X0154018Y0327579D02*
X0158155Y0327579D01*
X0158073Y0327617D02*
X0154018Y0327617D01*
X0154018Y0327655D02*
X0157991Y0327655D01*
X0157909Y0327692D02*
X0154018Y0327692D01*
X0154018Y0327730D02*
X0157827Y0327730D01*
X0157745Y0327768D02*
X0154018Y0327768D01*
X0154018Y0327806D02*
X0157663Y0327806D01*
X0157581Y0327844D02*
X0154018Y0327844D01*
X0154018Y0327882D02*
X0157499Y0327882D01*
X0157417Y0327920D02*
X0154018Y0327920D01*
X0154018Y0327958D02*
X0157335Y0327958D01*
X0157253Y0327995D02*
X0154018Y0327995D01*
X0154018Y0328033D02*
X0157171Y0328033D01*
X0157089Y0328071D02*
X0154018Y0328071D01*
X0154018Y0328109D02*
X0157007Y0328109D01*
X0156925Y0328147D02*
X0154018Y0328147D01*
X0154018Y0328185D02*
X0156843Y0328185D01*
X0156761Y0328223D02*
X0154018Y0328223D01*
X0154018Y0328261D02*
X0156679Y0328261D01*
X0156597Y0328299D02*
X0154018Y0328299D01*
X0154018Y0328336D02*
X0156515Y0328336D01*
X0156434Y0328374D02*
X0154018Y0328374D01*
X0154018Y0328412D02*
X0156352Y0328412D01*
X0156270Y0328450D02*
X0154018Y0328450D01*
X0154018Y0328488D02*
X0156188Y0328488D01*
X0156106Y0328526D02*
X0154018Y0328526D01*
X0154018Y0328564D02*
X0156024Y0328564D01*
X0155942Y0328602D02*
X0154018Y0328602D01*
X0154018Y0328639D02*
X0155860Y0328639D01*
X0155778Y0328677D02*
X0154018Y0328677D01*
X0154018Y0328715D02*
X0155696Y0328715D01*
X0155614Y0328753D02*
X0154018Y0328753D01*
X0154018Y0328791D02*
X0155532Y0328791D01*
X0155450Y0328829D02*
X0154018Y0328829D01*
X0154018Y0328867D02*
X0155368Y0328867D01*
X0155286Y0328905D02*
X0154018Y0328905D01*
X0154018Y0328942D02*
X0155204Y0328942D01*
X0155122Y0328980D02*
X0154018Y0328980D01*
X0154018Y0329018D02*
X0155040Y0329018D01*
X0154958Y0329056D02*
X0154018Y0329056D01*
X0154018Y0329094D02*
X0154876Y0329094D01*
X0154794Y0329132D02*
X0154018Y0329132D01*
X0154018Y0329170D02*
X0154712Y0329170D01*
X0154630Y0329208D02*
X0154018Y0329208D01*
X0154018Y0329246D02*
X0154548Y0329246D01*
X0154467Y0329283D02*
X0154018Y0329283D01*
X0154018Y0329321D02*
X0154385Y0329321D01*
X0154303Y0329359D02*
X0154018Y0329359D01*
X0154018Y0329397D02*
X0154221Y0329397D01*
X0154139Y0329435D02*
X0154018Y0329435D01*
X0154018Y0329473D02*
X0154057Y0329473D01*
X0165461Y0324927D02*
X0175317Y0324927D01*
X0175317Y0324965D02*
X0165543Y0324965D01*
X0165625Y0325003D02*
X0175317Y0325003D01*
X0175317Y0325041D02*
X0165707Y0325041D01*
X0165789Y0325079D02*
X0175317Y0325079D01*
X0175317Y0325116D02*
X0165871Y0325116D01*
X0165953Y0325154D02*
X0175317Y0325154D01*
X0175317Y0325192D02*
X0166035Y0325192D01*
X0166117Y0325230D02*
X0175317Y0325230D01*
X0175317Y0325268D02*
X0166199Y0325268D01*
X0166281Y0325306D02*
X0175317Y0325306D01*
X0175317Y0325344D02*
X0166363Y0325344D01*
X0166445Y0325382D02*
X0175317Y0325382D01*
X0175317Y0325420D02*
X0166527Y0325420D01*
X0166609Y0325457D02*
X0175317Y0325457D01*
X0175317Y0325495D02*
X0166691Y0325495D01*
X0166773Y0325533D02*
X0175317Y0325533D01*
X0175317Y0325571D02*
X0166855Y0325571D01*
X0166937Y0325609D02*
X0175317Y0325609D01*
X0175317Y0325647D02*
X0167019Y0325647D01*
X0167101Y0325685D02*
X0175317Y0325685D01*
X0175317Y0325723D02*
X0167183Y0325723D01*
X0167264Y0325760D02*
X0175317Y0325760D01*
X0175317Y0325798D02*
X0167346Y0325798D01*
X0167428Y0325836D02*
X0175317Y0325836D01*
X0175317Y0325874D02*
X0167510Y0325874D01*
X0167592Y0325912D02*
X0175317Y0325912D01*
X0175317Y0325950D02*
X0167674Y0325950D01*
X0167756Y0325988D02*
X0175317Y0325988D01*
X0175317Y0326026D02*
X0167838Y0326026D01*
X0167920Y0326064D02*
X0175317Y0326064D01*
X0175317Y0326101D02*
X0168002Y0326101D01*
X0168084Y0326139D02*
X0175317Y0326139D01*
X0175317Y0326177D02*
X0168166Y0326177D01*
X0168248Y0326215D02*
X0175317Y0326215D01*
X0175317Y0326253D02*
X0168330Y0326253D01*
X0168412Y0326291D02*
X0175317Y0326291D01*
X0175317Y0326329D02*
X0168494Y0326329D01*
X0168576Y0326367D02*
X0175317Y0326367D01*
X0175317Y0326404D02*
X0168658Y0326404D01*
X0168740Y0326442D02*
X0175317Y0326442D01*
X0175317Y0326480D02*
X0168822Y0326480D01*
X0168904Y0326518D02*
X0175317Y0326518D01*
X0175317Y0326556D02*
X0168986Y0326556D01*
X0169068Y0326594D02*
X0175317Y0326594D01*
X0175317Y0326632D02*
X0169150Y0326632D01*
X0169231Y0326670D02*
X0175317Y0326670D01*
X0175317Y0326707D02*
X0169313Y0326707D01*
X0169395Y0326745D02*
X0175317Y0326745D01*
X0175317Y0326783D02*
X0169477Y0326783D01*
X0169559Y0326821D02*
X0175317Y0326821D01*
X0175317Y0326859D02*
X0169641Y0326859D01*
X0169723Y0326897D02*
X0175317Y0326897D01*
X0175317Y0326935D02*
X0169805Y0326935D01*
X0169887Y0326973D02*
X0175317Y0326973D01*
X0175317Y0327011D02*
X0169969Y0327011D01*
X0170051Y0327048D02*
X0175317Y0327048D01*
X0175317Y0327086D02*
X0170133Y0327086D01*
X0170215Y0327124D02*
X0175317Y0327124D01*
X0175317Y0327162D02*
X0170297Y0327162D01*
X0170379Y0327200D02*
X0175317Y0327200D01*
X0175317Y0327238D02*
X0170461Y0327238D01*
X0170543Y0327276D02*
X0175317Y0327276D01*
X0175317Y0327314D02*
X0170625Y0327314D01*
X0170707Y0327351D02*
X0175317Y0327351D01*
X0175317Y0327389D02*
X0170789Y0327389D01*
X0170871Y0327427D02*
X0175317Y0327427D01*
X0175317Y0327465D02*
X0170953Y0327465D01*
X0171035Y0327503D02*
X0175317Y0327503D01*
X0175317Y0327541D02*
X0171117Y0327541D01*
X0171198Y0327579D02*
X0175317Y0327579D01*
X0175317Y0327617D02*
X0171280Y0327617D01*
X0171362Y0327655D02*
X0175317Y0327655D01*
X0175317Y0327692D02*
X0171444Y0327692D01*
X0171526Y0327730D02*
X0175317Y0327730D01*
X0175317Y0327768D02*
X0171608Y0327768D01*
X0171690Y0327806D02*
X0175317Y0327806D01*
X0175317Y0327844D02*
X0171772Y0327844D01*
X0171854Y0327882D02*
X0175317Y0327882D01*
X0175317Y0327920D02*
X0171936Y0327920D01*
X0172018Y0327958D02*
X0175317Y0327958D01*
X0175317Y0327995D02*
X0172100Y0327995D01*
X0172182Y0328033D02*
X0175317Y0328033D01*
X0175317Y0328071D02*
X0172264Y0328071D01*
X0172346Y0328109D02*
X0175317Y0328109D01*
X0175317Y0328147D02*
X0172428Y0328147D01*
X0172510Y0328185D02*
X0175317Y0328185D01*
X0175317Y0328223D02*
X0172592Y0328223D01*
X0172674Y0328261D02*
X0175317Y0328261D01*
X0175317Y0328299D02*
X0172756Y0328299D01*
X0172838Y0328336D02*
X0175317Y0328336D01*
X0175317Y0328374D02*
X0172920Y0328374D01*
X0173002Y0328412D02*
X0175317Y0328412D01*
X0175317Y0328450D02*
X0173083Y0328450D01*
X0173165Y0328488D02*
X0175317Y0328488D01*
X0175317Y0328526D02*
X0173247Y0328526D01*
X0173329Y0328564D02*
X0175317Y0328564D01*
X0175317Y0328602D02*
X0173411Y0328602D01*
X0173493Y0328639D02*
X0175317Y0328639D01*
X0175317Y0328677D02*
X0173575Y0328677D01*
X0173657Y0328715D02*
X0175317Y0328715D01*
X0175317Y0328753D02*
X0173739Y0328753D01*
X0173821Y0328791D02*
X0175317Y0328791D01*
X0175317Y0328829D02*
X0173903Y0328829D01*
X0173985Y0328867D02*
X0175317Y0328867D01*
X0175317Y0328905D02*
X0174067Y0328905D01*
X0174149Y0328942D02*
X0175317Y0328942D01*
X0175317Y0328980D02*
X0174231Y0328980D01*
X0174313Y0329018D02*
X0175317Y0329018D01*
X0175317Y0329056D02*
X0174395Y0329056D01*
X0174477Y0329094D02*
X0175317Y0329094D01*
X0175317Y0329132D02*
X0174559Y0329132D01*
X0174641Y0329170D02*
X0175317Y0329170D01*
X0175317Y0329208D02*
X0174723Y0329208D01*
X0174805Y0329246D02*
X0175317Y0329246D01*
X0175317Y0329283D02*
X0174887Y0329283D01*
X0174969Y0329321D02*
X0175317Y0329321D01*
X0175317Y0329359D02*
X0175050Y0329359D01*
X0175132Y0329397D02*
X0175317Y0329397D01*
X0175317Y0329435D02*
X0175214Y0329435D01*
X0175296Y0329473D02*
X0175317Y0329473D01*
D13*
X0164668Y0417398D03*
D14*
X0234550Y0521728D03*
X0094786Y0521728D03*
X0094786Y0039445D03*
X0234550Y0039445D03*
M02*
