M48
;GenerationSoftware,Autodesk,EAGLE,9.2.2*%
;CreationDate,2019-01-13T11:27:34Z*%
FMAT,2
ICI,OFF
METRIC,TZ,000.000
T6C0.300
T5C0.813
T4C1.000
T3C1.016
T2C1.100
T1C2.100
%
G90
M71
T1
X16000Y112000
X23750Y58000
X7000Y112000
X14750Y58000
X27000Y62000
X36000Y62000
X7000Y88000
X16000Y88000
X34000Y112000
X43000Y112000
X39000Y58000
X48000Y58000
X34000Y88000
X43000Y88000
X2500Y62000
X11500Y62000
T2
X31750Y21000
X31750Y12500
X29527Y11174
X6500Y21000
X6500Y12500
X4278Y11174
X19000Y34000
X19000Y25500
X16778Y24174
X14000Y81000
X11500Y81000
X9000Y81000
X6500Y34000
X16750Y51000
X19250Y51000
X14000Y105000
X21750Y51000
X16778Y37174
X19000Y38500
X19000Y47000
X4278Y24174
X34000Y55000
X41778Y11174
X29000Y55000
X31750Y47000
X31750Y38500
X29527Y37174
X11500Y105000
X9000Y105000
X41000Y105000
X38500Y105000
X36000Y105000
X44000Y47000
X44000Y38500
X41778Y37174
X19000Y21000
X19000Y12500
X46000Y51000
X43500Y51000
X41000Y51000
X16778Y11174
X44000Y21000
X41000Y81000
X38500Y81000
X36000Y81000
X44000Y34000
X44000Y25500
X41778Y24174
X31750Y34000
X31750Y25500
X31500Y55000
X6500Y47000
X6500Y38500
X4278Y37174
X6500Y25500
X44000Y12500
X9500Y55000
X7000Y55000
X4500Y55000
X29527Y24174
T3
X5670Y97220
X26300Y79400
X26300Y81940
X23760Y79400
X23760Y81940
X21220Y79400
X21220Y81940
X32000Y68500
X32000Y71040
X29460Y68500
X29460Y71040
X26920Y68500
X26920Y71040
X15830Y94680
X15830Y97220
X13290Y94680
X13290Y97220
X10750Y94680
X10750Y97220
X8210Y94680
X8210Y97220
X5670Y94680
T4
X25250Y88000
X25250Y85460
X25250Y90540
X25250Y109460
X25250Y112000
X25250Y114540
T5
X26520Y99000
X23980Y99000
X19480Y106000
X22020Y106000
X31520Y106000
X47060Y73310
X28980Y106000
X11060Y69190
X8520Y69190
X8520Y76810
X11060Y76810
X5980Y69190
X3440Y69190
X5980Y76810
X3440Y76810
X39440Y73310
X41980Y73310
X41980Y65690
X39440Y65690
X44520Y73310
X44520Y65690
X47060Y65690
T6
X35300Y58000
X43200Y61900
X35200Y71900
X44800Y71400
X45000Y69800
X44500Y68000
X38300Y69800
X41000Y64100
X44800Y57300
X49200Y60400
X49200Y79400
X48400Y62700
X11600Y73400
X7800Y72700
X36919Y74981
X46063Y77610
X46063Y102184
X38800Y44500
X38800Y41500
X27546Y81039
X11887Y64122
X19888Y84239
X25375Y52349
X34176Y46749
X34176Y41834
X2286Y80124
X47800Y76800
X30500Y49300
X33000Y52100
X28918Y80124
X34290Y68809
X36005Y67094
X15773Y74981
X31900Y62600
X14000Y18000
X8200Y67600
X9900Y65900
X33500Y73900
X47000Y68000
X17200Y81600
X37400Y107900
X37300Y78800
X30400Y74500
X21100Y34900
X42600Y76200
X35400Y77500
X22500Y77200
X42200Y103400
X39900Y107100
X41400Y109000
X14700Y91700
X10700Y87400
X3100Y103700
X15300Y100300
X8900Y20600
X46100Y49200
X38400Y37300
X34500Y36500
X21700Y44700
X11500Y47900
X28900Y44100
X32500Y44000
X45400Y32300
X24100Y64000
X15700Y65500
X9600Y60300
X18700Y56600
X40800Y67400
X18800Y53800
X31200Y65200
X8400Y100500
X20500Y101700
X24000Y93400
X43500Y83600
X39000Y85800
X29100Y85900
X31300Y84700
X29000Y82900
X26500Y84100
X45300Y78700
X24100Y84100
X19800Y76700
X12400Y78600
X38062Y40577
X14859Y74638
X24346Y39662
X12459Y36462
X37490Y68351
X20500Y66400
X20400Y62800
X37600Y64300
X25946Y37719
X29604Y78181
X33376Y74981
X23500Y86400
M30