G04 EAGLE Gerber RS-274X export*
G75*
%MOMM*%
%FSLAX34Y34*%
%LPD*%
%INLötstopmaske Lötseite*%
%IPPOS*%
%AMOC8*
5,1,8,0,0,1.08239X$1,22.5*%
G01*
%ADD10P,2.144431X8X202.500000*%
%ADD11C,1.981200*%
%ADD12R,1.303200X1.203200*%
%ADD13R,1.203200X1.303200*%
%ADD14P,2.144431X8X22.500000*%
%ADD15R,1.203200X1.003200*%
%ADD16R,1.603200X1.603200*%
%ADD17R,1.003200X1.203200*%
%ADD18R,2.209800X1.701800*%
%ADD19R,2.209800X4.013200*%
%ADD20R,1.803200X1.703200*%
%ADD21R,1.403200X1.403200*%
%ADD22C,1.524000*%
%ADD23R,1.853200X1.853200*%
%ADD24P,2.005885X8X292.500000*%
%ADD25C,3.319200*%
%ADD26C,1.853200*%
%ADD27C,1.711200*%
%ADD28C,1.727200*%
%ADD29C,1.828800*%
%ADD30P,2.254402X8X202.500000*%


D10*
X289800Y1060000D03*
D11*
X315200Y1060000D03*
D12*
X134000Y767500D03*
X151000Y767500D03*
D13*
X35000Y853500D03*
X35000Y836500D03*
X317500Y759000D03*
X317500Y776000D03*
D12*
X426500Y535000D03*
X443500Y535000D03*
X106500Y235000D03*
X123500Y235000D03*
D13*
X395000Y636000D03*
X395000Y619000D03*
D14*
X220200Y1060000D03*
D11*
X194800Y1060000D03*
D15*
X360000Y325000D03*
X380000Y325000D03*
D16*
X214000Y1000000D03*
X214000Y962000D03*
D17*
X184500Y672000D03*
X184500Y692000D03*
D15*
X210000Y645000D03*
X190000Y645000D03*
X367500Y495000D03*
X347500Y495000D03*
X372500Y415000D03*
X352500Y415000D03*
X460000Y1080000D03*
X440000Y1080000D03*
D17*
X385000Y1070000D03*
X385000Y1090000D03*
X172500Y532500D03*
X172500Y552500D03*
D15*
X202500Y612500D03*
X182500Y612500D03*
D12*
X255000Y1034500D03*
X255000Y1017500D03*
D18*
X410004Y973894D03*
X410004Y996754D03*
X410004Y1019614D03*
D19*
X472996Y996500D03*
D20*
X194500Y743000D03*
D21*
X227750Y753000D03*
X227750Y733000D03*
D22*
X239800Y990000D03*
X265200Y990000D03*
D23*
X167500Y510000D03*
D24*
X192500Y510000D03*
X217500Y510000D03*
D25*
X237500Y580000D03*
X147500Y580000D03*
D26*
X167775Y371740D03*
X190000Y385000D03*
X190000Y470000D03*
X42775Y241740D03*
X65000Y255000D03*
X65000Y340000D03*
D23*
X90000Y810000D03*
D24*
X115000Y810000D03*
X140000Y810000D03*
D25*
X160000Y880000D03*
X70000Y880000D03*
D26*
X167775Y241740D03*
X190000Y255000D03*
X190000Y340000D03*
X42775Y111740D03*
X65000Y125000D03*
X65000Y210000D03*
X295275Y111740D03*
X317500Y125000D03*
X317500Y210000D03*
D27*
X252500Y1094600D03*
X252500Y1120000D03*
X252500Y1145400D03*
D26*
X417775Y111740D03*
X440000Y125000D03*
X440000Y210000D03*
X167775Y111740D03*
X190000Y125000D03*
X190000Y210000D03*
D23*
X90000Y1050000D03*
D24*
X115000Y1050000D03*
X140000Y1050000D03*
D25*
X160000Y1120000D03*
X70000Y1120000D03*
D23*
X45000Y550000D03*
D24*
X70000Y550000D03*
X95000Y550000D03*
D25*
X115000Y620000D03*
X25000Y620000D03*
D26*
X42775Y371740D03*
X65000Y385000D03*
X65000Y470000D03*
D28*
X158300Y946800D03*
X158300Y972200D03*
X132900Y946800D03*
X132900Y972200D03*
X107500Y946800D03*
X107500Y972200D03*
X82100Y946800D03*
X82100Y972200D03*
X56700Y946800D03*
X56700Y972200D03*
D13*
X256000Y957500D03*
X239000Y957500D03*
D12*
X470000Y631000D03*
X470000Y614000D03*
X65000Y166500D03*
X65000Y183500D03*
X112500Y358500D03*
X112500Y341500D03*
D13*
X261000Y427500D03*
X244000Y427500D03*
D12*
X395000Y776000D03*
X395000Y759000D03*
D13*
X291000Y880000D03*
X274000Y880000D03*
X204000Y540000D03*
X221000Y540000D03*
D12*
X305000Y823500D03*
X305000Y806500D03*
X35000Y796500D03*
X35000Y813500D03*
X190000Y166500D03*
X190000Y183500D03*
D13*
X211500Y1120000D03*
X228500Y1120000D03*
X34000Y660000D03*
X51000Y660000D03*
D12*
X440000Y166500D03*
X440000Y183500D03*
D13*
X69000Y585000D03*
X86000Y585000D03*
X369000Y465000D03*
X386000Y465000D03*
X313500Y580000D03*
X296500Y580000D03*
D27*
X252500Y854600D03*
X252500Y880000D03*
X252500Y905400D03*
D26*
X295275Y241740D03*
X317500Y255000D03*
X317500Y340000D03*
X417775Y241740D03*
X440000Y255000D03*
X440000Y340000D03*
D23*
X360000Y810000D03*
D24*
X385000Y810000D03*
X410000Y810000D03*
D25*
X430000Y880000D03*
X340000Y880000D03*
D23*
X410000Y510000D03*
D24*
X435000Y510000D03*
X460000Y510000D03*
D25*
X480000Y580000D03*
X390000Y580000D03*
D26*
X417775Y371740D03*
X440000Y385000D03*
X440000Y470000D03*
D29*
X110600Y691900D03*
X85200Y691900D03*
X85200Y768100D03*
X110600Y768100D03*
X59800Y691900D03*
X34400Y691900D03*
X59800Y768100D03*
X34400Y768100D03*
X394400Y733100D03*
X419800Y733100D03*
X419800Y656900D03*
X394400Y656900D03*
X445200Y733100D03*
X470600Y733100D03*
X445200Y656900D03*
X470600Y656900D03*
D23*
X360000Y1050000D03*
D24*
X385000Y1050000D03*
X410000Y1050000D03*
D25*
X430000Y1120000D03*
X340000Y1120000D03*
D26*
X295275Y371740D03*
X317500Y385000D03*
X317500Y470000D03*
D23*
X290000Y550000D03*
D24*
X315000Y550000D03*
X340000Y550000D03*
D25*
X360000Y620000D03*
X270000Y620000D03*
D30*
X263000Y794000D03*
X263000Y819400D03*
X237600Y794000D03*
X237600Y819400D03*
X212200Y794000D03*
X212200Y819400D03*
X320000Y685000D03*
X320000Y710400D03*
X294600Y685000D03*
X294600Y710400D03*
X269200Y685000D03*
X269200Y710400D03*
M02*
