G75*
%MOIN*%
%OFA0B0*%
%FSLAX25Y25*%
%IPPOS*%
%LPD*%
%AMOC8*
5,1,8,0,0,1.08239X$1,22.5*
%
%ADD10C,0.00400*%
%ADD11C,0.00800*%
%ADD12OC8,0.07800*%
%ADD13C,0.07800*%
%ADD14R,0.05131X0.04737*%
%ADD15R,0.04737X0.05131*%
%ADD16R,0.02769X0.02769*%
%ADD17R,0.06312X0.06312*%
%ADD18R,0.08700X0.06700*%
%ADD19R,0.08700X0.15800*%
%ADD20R,0.07099X0.06706*%
%ADD21R,0.05524X0.05524*%
%ADD22C,0.06000*%
%ADD23R,0.07296X0.07296*%
%ADD24OC8,0.07296*%
%ADD25C,0.13068*%
%ADD26C,0.07296*%
%ADD27C,0.06737*%
%ADD28C,0.06800*%
%ADD29C,0.07200*%
D10*
X0128923Y0135708D02*
X0130125Y0135708D01*
X0130125Y0140032D01*
X0128923Y0140032D01*
X0128863Y0140030D01*
X0128803Y0140024D01*
X0128743Y0140015D01*
X0128684Y0140002D01*
X0128626Y0139985D01*
X0128569Y0139965D01*
X0128514Y0139941D01*
X0128460Y0139913D01*
X0128408Y0139882D01*
X0128358Y0139848D01*
X0128310Y0139811D01*
X0128265Y0139772D01*
X0128222Y0139729D01*
X0128183Y0139684D01*
X0128146Y0139636D01*
X0128112Y0139586D01*
X0128081Y0139534D01*
X0128053Y0139480D01*
X0128029Y0139425D01*
X0128009Y0139368D01*
X0127992Y0139310D01*
X0127979Y0139251D01*
X0127970Y0139191D01*
X0127964Y0139131D01*
X0127962Y0139071D01*
X0127964Y0139011D01*
X0127970Y0138951D01*
X0127979Y0138891D01*
X0127992Y0138832D01*
X0128009Y0138774D01*
X0128029Y0138717D01*
X0128053Y0138662D01*
X0128081Y0138608D01*
X0128112Y0138556D01*
X0128146Y0138506D01*
X0128183Y0138458D01*
X0128222Y0138413D01*
X0128265Y0138370D01*
X0128310Y0138331D01*
X0128358Y0138294D01*
X0128408Y0138260D01*
X0128460Y0138229D01*
X0128514Y0138201D01*
X0128569Y0138177D01*
X0128626Y0138157D01*
X0128684Y0138140D01*
X0128743Y0138127D01*
X0128803Y0138118D01*
X0128863Y0138112D01*
X0128923Y0138110D01*
X0130125Y0138110D01*
X0128923Y0138110D02*
X0128854Y0138108D01*
X0128786Y0138102D01*
X0128718Y0138092D01*
X0128651Y0138079D01*
X0128585Y0138061D01*
X0128519Y0138040D01*
X0128455Y0138015D01*
X0128393Y0137987D01*
X0128332Y0137955D01*
X0128274Y0137919D01*
X0128217Y0137881D01*
X0128163Y0137839D01*
X0128111Y0137794D01*
X0128062Y0137746D01*
X0128015Y0137695D01*
X0127972Y0137642D01*
X0127932Y0137587D01*
X0127895Y0137529D01*
X0127861Y0137469D01*
X0127831Y0137408D01*
X0127804Y0137345D01*
X0127781Y0137280D01*
X0127761Y0137214D01*
X0127746Y0137148D01*
X0127734Y0137080D01*
X0127726Y0137012D01*
X0127722Y0136943D01*
X0127722Y0136875D01*
X0127726Y0136806D01*
X0127734Y0136738D01*
X0127746Y0136670D01*
X0127761Y0136604D01*
X0127781Y0136538D01*
X0127804Y0136473D01*
X0127831Y0136410D01*
X0127861Y0136349D01*
X0127895Y0136289D01*
X0127932Y0136231D01*
X0127972Y0136176D01*
X0128015Y0136123D01*
X0128062Y0136072D01*
X0128111Y0136024D01*
X0128163Y0135979D01*
X0128217Y0135937D01*
X0128274Y0135899D01*
X0128332Y0135863D01*
X0128393Y0135831D01*
X0128455Y0135803D01*
X0128519Y0135778D01*
X0128585Y0135757D01*
X0128651Y0135739D01*
X0128718Y0135726D01*
X0128786Y0135716D01*
X0128854Y0135710D01*
X0128923Y0135708D01*
X0131965Y0135708D02*
X0132926Y0135708D01*
X0132986Y0135710D01*
X0133046Y0135716D01*
X0133106Y0135725D01*
X0133165Y0135738D01*
X0133223Y0135755D01*
X0133280Y0135775D01*
X0133335Y0135799D01*
X0133389Y0135827D01*
X0133441Y0135858D01*
X0133491Y0135892D01*
X0133539Y0135929D01*
X0133584Y0135968D01*
X0133627Y0136011D01*
X0133666Y0136056D01*
X0133703Y0136104D01*
X0133737Y0136154D01*
X0133768Y0136206D01*
X0133796Y0136260D01*
X0133820Y0136315D01*
X0133840Y0136372D01*
X0133857Y0136430D01*
X0133870Y0136489D01*
X0133879Y0136549D01*
X0133885Y0136609D01*
X0133887Y0136669D01*
X0133887Y0139071D01*
X0133885Y0139131D01*
X0133879Y0139191D01*
X0133870Y0139251D01*
X0133857Y0139310D01*
X0133840Y0139368D01*
X0133820Y0139425D01*
X0133796Y0139480D01*
X0133768Y0139534D01*
X0133737Y0139586D01*
X0133703Y0139636D01*
X0133666Y0139684D01*
X0133627Y0139729D01*
X0133584Y0139772D01*
X0133539Y0139811D01*
X0133491Y0139848D01*
X0133441Y0139882D01*
X0133389Y0139913D01*
X0133335Y0139941D01*
X0133280Y0139965D01*
X0133223Y0139985D01*
X0133165Y0140002D01*
X0133106Y0140015D01*
X0133046Y0140024D01*
X0132986Y0140030D01*
X0132926Y0140032D01*
X0131965Y0140032D01*
X0136719Y0140032D02*
X0137920Y0140032D01*
X0137920Y0135708D01*
X0137920Y0137630D02*
X0136719Y0137630D01*
X0136650Y0137632D01*
X0136582Y0137638D01*
X0136514Y0137648D01*
X0136447Y0137661D01*
X0136381Y0137679D01*
X0136315Y0137700D01*
X0136251Y0137725D01*
X0136189Y0137753D01*
X0136128Y0137785D01*
X0136070Y0137821D01*
X0136013Y0137859D01*
X0135959Y0137901D01*
X0135907Y0137946D01*
X0135858Y0137994D01*
X0135811Y0138045D01*
X0135768Y0138098D01*
X0135728Y0138153D01*
X0135691Y0138211D01*
X0135657Y0138271D01*
X0135627Y0138332D01*
X0135600Y0138395D01*
X0135577Y0138460D01*
X0135557Y0138526D01*
X0135542Y0138592D01*
X0135530Y0138660D01*
X0135522Y0138728D01*
X0135518Y0138797D01*
X0135518Y0138865D01*
X0135522Y0138934D01*
X0135530Y0139002D01*
X0135542Y0139070D01*
X0135557Y0139136D01*
X0135577Y0139202D01*
X0135600Y0139267D01*
X0135627Y0139330D01*
X0135657Y0139391D01*
X0135691Y0139451D01*
X0135728Y0139509D01*
X0135768Y0139564D01*
X0135811Y0139617D01*
X0135858Y0139668D01*
X0135907Y0139716D01*
X0135959Y0139761D01*
X0136013Y0139803D01*
X0136070Y0139841D01*
X0136128Y0139877D01*
X0136189Y0139909D01*
X0136251Y0139937D01*
X0136315Y0139962D01*
X0136381Y0139983D01*
X0136447Y0140001D01*
X0136514Y0140014D01*
X0136582Y0140024D01*
X0136650Y0140030D01*
X0136719Y0140032D01*
X0142385Y0140032D02*
X0142385Y0135708D01*
X0144788Y0140032D01*
X0144788Y0135708D01*
X0146649Y0135708D02*
X0147610Y0135708D01*
X0147130Y0135708D02*
X0147130Y0140032D01*
X0147610Y0140032D02*
X0146649Y0140032D01*
X0150531Y0140032D02*
X0149090Y0135708D01*
X0149450Y0136789D02*
X0151613Y0136789D01*
X0151973Y0135708D02*
X0150531Y0140032D01*
X0153767Y0140032D02*
X0153767Y0135708D01*
X0155209Y0137630D02*
X0153767Y0140032D01*
X0155209Y0137630D02*
X0156650Y0140032D01*
X0156650Y0135708D01*
X0160715Y0135708D02*
X0162637Y0135708D01*
X0162637Y0140032D01*
X0160715Y0140032D01*
X0161196Y0138110D02*
X0162637Y0138110D01*
X0164400Y0135708D02*
X0166322Y0135708D01*
X0166322Y0140032D01*
X0168039Y0140032D02*
X0170441Y0140032D01*
X0169240Y0140032D02*
X0169240Y0135708D01*
X0172346Y0137510D02*
X0173667Y0138230D01*
X0173187Y0140032D02*
X0173104Y0140030D01*
X0173022Y0140024D01*
X0172939Y0140015D01*
X0172858Y0140002D01*
X0172776Y0139985D01*
X0172696Y0139964D01*
X0172617Y0139940D01*
X0172539Y0139912D01*
X0172463Y0139880D01*
X0172388Y0139845D01*
X0172314Y0139807D01*
X0172243Y0139765D01*
X0172173Y0139720D01*
X0172106Y0139672D01*
X0173668Y0138230D02*
X0173718Y0138262D01*
X0173766Y0138297D01*
X0173812Y0138335D01*
X0173856Y0138375D01*
X0173897Y0138418D01*
X0173936Y0138464D01*
X0173972Y0138511D01*
X0174004Y0138561D01*
X0174034Y0138613D01*
X0174060Y0138666D01*
X0174083Y0138721D01*
X0174103Y0138778D01*
X0174119Y0138835D01*
X0174132Y0138893D01*
X0174141Y0138952D01*
X0174146Y0139011D01*
X0174148Y0139071D01*
X0174146Y0139131D01*
X0174140Y0139191D01*
X0174131Y0139251D01*
X0174118Y0139310D01*
X0174101Y0139368D01*
X0174081Y0139425D01*
X0174057Y0139480D01*
X0174029Y0139534D01*
X0173998Y0139586D01*
X0173964Y0139636D01*
X0173927Y0139684D01*
X0173888Y0139729D01*
X0173845Y0139772D01*
X0173800Y0139811D01*
X0173752Y0139848D01*
X0173702Y0139882D01*
X0173650Y0139913D01*
X0173596Y0139941D01*
X0173541Y0139965D01*
X0173484Y0139985D01*
X0173426Y0140002D01*
X0173367Y0140015D01*
X0173307Y0140024D01*
X0173247Y0140030D01*
X0173187Y0140032D01*
X0174268Y0136309D02*
X0174204Y0136247D01*
X0174138Y0136188D01*
X0174068Y0136132D01*
X0173997Y0136079D01*
X0173923Y0136029D01*
X0173847Y0135983D01*
X0173769Y0135940D01*
X0173689Y0135900D01*
X0173608Y0135864D01*
X0173525Y0135832D01*
X0173441Y0135803D01*
X0173355Y0135778D01*
X0173269Y0135757D01*
X0173181Y0135739D01*
X0173093Y0135726D01*
X0173005Y0135716D01*
X0172916Y0135710D01*
X0172827Y0135708D01*
X0172767Y0135710D01*
X0172707Y0135716D01*
X0172647Y0135725D01*
X0172588Y0135738D01*
X0172530Y0135755D01*
X0172473Y0135775D01*
X0172418Y0135799D01*
X0172364Y0135827D01*
X0172312Y0135858D01*
X0172262Y0135892D01*
X0172214Y0135929D01*
X0172169Y0135968D01*
X0172126Y0136011D01*
X0172087Y0136056D01*
X0172050Y0136104D01*
X0172016Y0136154D01*
X0171985Y0136206D01*
X0171957Y0136260D01*
X0171933Y0136315D01*
X0171913Y0136372D01*
X0171896Y0136430D01*
X0171883Y0136489D01*
X0171874Y0136549D01*
X0171868Y0136609D01*
X0171866Y0136669D01*
X0171868Y0136729D01*
X0171873Y0136788D01*
X0171882Y0136847D01*
X0171895Y0136905D01*
X0171911Y0136962D01*
X0171931Y0137019D01*
X0171954Y0137074D01*
X0171980Y0137127D01*
X0172010Y0137179D01*
X0172042Y0137229D01*
X0172078Y0137277D01*
X0172117Y0137322D01*
X0172158Y0137365D01*
X0172202Y0137406D01*
X0172248Y0137443D01*
X0172296Y0137478D01*
X0172347Y0137510D01*
X0175736Y0135708D02*
X0177177Y0140032D01*
X0178618Y0135708D01*
X0178258Y0136789D02*
X0176096Y0136789D01*
X0180021Y0135708D02*
X0181463Y0138351D01*
X0182424Y0137390D02*
X0180021Y0140032D01*
X0182424Y0140032D02*
X0182424Y0135708D01*
X0186747Y0136909D02*
X0186747Y0138831D01*
X0186748Y0138831D02*
X0186750Y0138900D01*
X0186756Y0138968D01*
X0186766Y0139036D01*
X0186779Y0139103D01*
X0186797Y0139169D01*
X0186818Y0139235D01*
X0186843Y0139299D01*
X0186871Y0139361D01*
X0186903Y0139422D01*
X0186939Y0139480D01*
X0186977Y0139537D01*
X0187019Y0139591D01*
X0187064Y0139643D01*
X0187112Y0139692D01*
X0187163Y0139739D01*
X0187216Y0139782D01*
X0187271Y0139822D01*
X0187329Y0139859D01*
X0187389Y0139893D01*
X0187450Y0139923D01*
X0187513Y0139950D01*
X0187578Y0139973D01*
X0187644Y0139993D01*
X0187710Y0140008D01*
X0187778Y0140020D01*
X0187846Y0140028D01*
X0187915Y0140032D01*
X0187983Y0140032D01*
X0188052Y0140028D01*
X0188120Y0140020D01*
X0188188Y0140008D01*
X0188254Y0139993D01*
X0188320Y0139973D01*
X0188385Y0139950D01*
X0188448Y0139923D01*
X0188509Y0139893D01*
X0188569Y0139859D01*
X0188627Y0139822D01*
X0188682Y0139782D01*
X0188735Y0139739D01*
X0188786Y0139692D01*
X0188834Y0139643D01*
X0188879Y0139591D01*
X0188921Y0139537D01*
X0188959Y0139480D01*
X0188995Y0139422D01*
X0189027Y0139361D01*
X0189055Y0139299D01*
X0189080Y0139235D01*
X0189101Y0139169D01*
X0189119Y0139103D01*
X0189132Y0139036D01*
X0189142Y0138968D01*
X0189148Y0138900D01*
X0189150Y0138831D01*
X0189150Y0136909D01*
X0189148Y0136840D01*
X0189142Y0136772D01*
X0189132Y0136704D01*
X0189119Y0136637D01*
X0189101Y0136571D01*
X0189080Y0136505D01*
X0189055Y0136441D01*
X0189027Y0136379D01*
X0188995Y0136318D01*
X0188959Y0136260D01*
X0188921Y0136203D01*
X0188879Y0136149D01*
X0188834Y0136097D01*
X0188786Y0136048D01*
X0188735Y0136001D01*
X0188682Y0135958D01*
X0188627Y0135918D01*
X0188569Y0135881D01*
X0188509Y0135847D01*
X0188448Y0135817D01*
X0188385Y0135790D01*
X0188320Y0135767D01*
X0188254Y0135747D01*
X0188188Y0135732D01*
X0188120Y0135720D01*
X0188052Y0135712D01*
X0187983Y0135708D01*
X0187915Y0135708D01*
X0187846Y0135712D01*
X0187778Y0135720D01*
X0187710Y0135732D01*
X0187644Y0135747D01*
X0187578Y0135767D01*
X0187513Y0135790D01*
X0187450Y0135817D01*
X0187389Y0135847D01*
X0187329Y0135881D01*
X0187271Y0135918D01*
X0187216Y0135958D01*
X0187163Y0136001D01*
X0187112Y0136048D01*
X0187064Y0136097D01*
X0187019Y0136149D01*
X0186977Y0136203D01*
X0186939Y0136260D01*
X0186903Y0136318D01*
X0186871Y0136379D01*
X0186843Y0136441D01*
X0186818Y0136505D01*
X0186797Y0136571D01*
X0186779Y0136637D01*
X0186766Y0136704D01*
X0186756Y0136772D01*
X0186750Y0136840D01*
X0186748Y0136909D01*
X0190971Y0135708D02*
X0191932Y0137630D01*
X0192172Y0137630D02*
X0193374Y0137630D01*
X0192172Y0137630D02*
X0192103Y0137632D01*
X0192035Y0137638D01*
X0191967Y0137648D01*
X0191900Y0137661D01*
X0191834Y0137679D01*
X0191768Y0137700D01*
X0191704Y0137725D01*
X0191642Y0137753D01*
X0191581Y0137785D01*
X0191523Y0137821D01*
X0191466Y0137859D01*
X0191412Y0137901D01*
X0191360Y0137946D01*
X0191311Y0137994D01*
X0191264Y0138045D01*
X0191221Y0138098D01*
X0191181Y0138153D01*
X0191144Y0138211D01*
X0191110Y0138271D01*
X0191080Y0138332D01*
X0191053Y0138395D01*
X0191030Y0138460D01*
X0191010Y0138526D01*
X0190995Y0138592D01*
X0190983Y0138660D01*
X0190975Y0138728D01*
X0190971Y0138797D01*
X0190971Y0138865D01*
X0190975Y0138934D01*
X0190983Y0139002D01*
X0190995Y0139070D01*
X0191010Y0139136D01*
X0191030Y0139202D01*
X0191053Y0139267D01*
X0191080Y0139330D01*
X0191110Y0139391D01*
X0191144Y0139451D01*
X0191181Y0139509D01*
X0191221Y0139564D01*
X0191264Y0139617D01*
X0191311Y0139668D01*
X0191360Y0139716D01*
X0191412Y0139761D01*
X0191466Y0139803D01*
X0191523Y0139841D01*
X0191581Y0139877D01*
X0191642Y0139909D01*
X0191704Y0139937D01*
X0191768Y0139962D01*
X0191834Y0139983D01*
X0191900Y0140001D01*
X0191967Y0140014D01*
X0192035Y0140024D01*
X0192103Y0140030D01*
X0192172Y0140032D01*
X0193374Y0140032D01*
X0193374Y0135708D01*
X0195535Y0136909D02*
X0195535Y0140032D01*
X0197937Y0140032D02*
X0197937Y0136909D01*
X0197935Y0136840D01*
X0197929Y0136772D01*
X0197919Y0136704D01*
X0197906Y0136637D01*
X0197888Y0136571D01*
X0197867Y0136505D01*
X0197842Y0136441D01*
X0197814Y0136379D01*
X0197782Y0136318D01*
X0197746Y0136260D01*
X0197708Y0136203D01*
X0197666Y0136149D01*
X0197621Y0136097D01*
X0197573Y0136048D01*
X0197522Y0136001D01*
X0197469Y0135958D01*
X0197414Y0135918D01*
X0197356Y0135881D01*
X0197296Y0135847D01*
X0197235Y0135817D01*
X0197172Y0135790D01*
X0197107Y0135767D01*
X0197041Y0135747D01*
X0196975Y0135732D01*
X0196907Y0135720D01*
X0196839Y0135712D01*
X0196770Y0135708D01*
X0196702Y0135708D01*
X0196633Y0135712D01*
X0196565Y0135720D01*
X0196497Y0135732D01*
X0196431Y0135747D01*
X0196365Y0135767D01*
X0196300Y0135790D01*
X0196237Y0135817D01*
X0196176Y0135847D01*
X0196116Y0135881D01*
X0196058Y0135918D01*
X0196003Y0135958D01*
X0195950Y0136001D01*
X0195899Y0136048D01*
X0195851Y0136097D01*
X0195806Y0136149D01*
X0195764Y0136203D01*
X0195726Y0136260D01*
X0195690Y0136318D01*
X0195658Y0136379D01*
X0195630Y0136441D01*
X0195605Y0136505D01*
X0195584Y0136571D01*
X0195566Y0136637D01*
X0195553Y0136704D01*
X0195543Y0136772D01*
X0195537Y0136840D01*
X0195535Y0136909D01*
X0199692Y0135708D02*
X0201614Y0135708D01*
X0201614Y0140032D01*
X0199692Y0140032D01*
X0200172Y0138110D02*
X0201614Y0138110D01*
D11*
X0206991Y0141807D02*
X0206991Y0133933D01*
X0122345Y0133933D01*
X0122345Y0141807D01*
X0206991Y0141807D01*
D12*
X0179353Y0439051D03*
X0151951Y0439051D03*
D13*
X0141951Y0439051D03*
X0189353Y0439051D03*
D14*
X0165652Y0429012D03*
X0165652Y0422319D03*
X0185337Y0345941D03*
X0185337Y0339248D03*
X0220770Y0327240D03*
X0220770Y0320547D03*
X0250298Y0270154D03*
X0250298Y0263461D03*
X0239865Y0232358D03*
X0233172Y0232358D03*
X0238487Y0093972D03*
X0238487Y0087280D03*
X0140062Y0087280D03*
X0140062Y0093972D03*
X0113880Y0114248D03*
X0107188Y0114248D03*
X0090849Y0093972D03*
X0090849Y0087280D03*
X0109550Y0156177D03*
X0109550Y0162870D03*
X0118014Y0323894D03*
X0124707Y0323894D03*
X0079038Y0335311D03*
X0079038Y0342004D03*
D15*
X0079038Y0351059D03*
X0079038Y0357752D03*
X0078644Y0281571D03*
X0085337Y0281571D03*
X0092424Y0252043D03*
X0099117Y0252043D03*
X0145573Y0234327D03*
X0152266Y0234327D03*
X0161321Y0190035D03*
X0168014Y0190035D03*
X0181991Y0250075D03*
X0188684Y0250075D03*
X0189274Y0292004D03*
X0189274Y0298697D03*
X0220770Y0272122D03*
X0220770Y0265429D03*
X0217227Y0204799D03*
X0210534Y0204799D03*
X0179825Y0368185D03*
X0173132Y0368185D03*
X0166046Y0398697D03*
X0159353Y0398697D03*
X0155219Y0462673D03*
X0148526Y0462673D03*
D16*
X0216833Y0451256D03*
X0216833Y0442594D03*
X0238093Y0446925D03*
X0246754Y0446925D03*
X0148329Y0275665D03*
X0139668Y0275665D03*
X0139077Y0289051D03*
X0139077Y0297713D03*
X0136715Y0258933D03*
X0145377Y0258933D03*
X0133172Y0239642D03*
X0133172Y0230980D03*
X0201676Y0216610D03*
X0210337Y0216610D03*
X0212306Y0185114D03*
X0203644Y0185114D03*
X0206597Y0149681D03*
X0215258Y0149681D03*
D17*
X0149510Y0400469D03*
X0149510Y0415429D03*
D18*
X0226677Y0414151D03*
X0226677Y0405151D03*
X0226677Y0423151D03*
D19*
X0251477Y0414051D03*
D20*
X0158762Y0342201D03*
D21*
X0171853Y0346138D03*
X0171853Y0338264D03*
D22*
X0169668Y0411492D03*
X0159668Y0411492D03*
D23*
X0206991Y0435114D03*
X0206991Y0340626D03*
X0179432Y0238264D03*
X0226676Y0222516D03*
X0131203Y0222516D03*
X0082975Y0238264D03*
X0100691Y0340626D03*
X0100691Y0435114D03*
D24*
X0110534Y0435114D03*
X0120377Y0435114D03*
X0120377Y0340626D03*
X0110534Y0340626D03*
X0102660Y0238264D03*
X0092817Y0238264D03*
X0141046Y0222516D03*
X0150888Y0222516D03*
X0189274Y0238264D03*
X0199117Y0238264D03*
X0236518Y0222516D03*
X0246361Y0222516D03*
X0226676Y0340626D03*
X0216833Y0340626D03*
X0216833Y0435114D03*
X0226676Y0435114D03*
D25*
X0234550Y0462673D03*
X0199117Y0462673D03*
X0199117Y0368185D03*
X0234550Y0368185D03*
X0206991Y0265823D03*
X0218802Y0250075D03*
X0254235Y0250075D03*
X0171558Y0265823D03*
X0158762Y0250075D03*
X0123329Y0250075D03*
X0110534Y0265823D03*
X0075101Y0265823D03*
X0092817Y0368185D03*
X0128251Y0368185D03*
X0128251Y0462673D03*
X0092817Y0462673D03*
D26*
X0082099Y0065720D03*
X0090849Y0070941D03*
X0090849Y0104406D03*
X0090849Y0122122D03*
X0082099Y0116902D03*
X0090849Y0155587D03*
X0090849Y0173303D03*
X0082099Y0168083D03*
X0090849Y0206768D03*
X0131312Y0168083D03*
X0140062Y0173303D03*
X0140062Y0155587D03*
X0140062Y0122122D03*
X0131312Y0116902D03*
X0140062Y0104406D03*
X0140062Y0070941D03*
X0131312Y0065720D03*
X0181508Y0065720D03*
X0190258Y0070941D03*
X0190258Y0104406D03*
X0181508Y0116902D03*
X0190258Y0122122D03*
X0190258Y0155587D03*
X0181508Y0168083D03*
X0190258Y0173303D03*
X0190258Y0206768D03*
X0229737Y0168083D03*
X0238487Y0173303D03*
X0238487Y0155587D03*
X0238487Y0122122D03*
X0229737Y0116902D03*
X0238487Y0104406D03*
X0238487Y0070941D03*
X0229737Y0065720D03*
X0238487Y0206768D03*
X0140062Y0206768D03*
D27*
X0164668Y0358185D03*
X0164668Y0368185D03*
X0164668Y0378185D03*
X0164668Y0452673D03*
X0164668Y0462673D03*
X0164668Y0472673D03*
D28*
X0127581Y0404484D03*
X0127581Y0394484D03*
X0117581Y0394484D03*
X0117581Y0404484D03*
X0107581Y0404484D03*
X0107581Y0394484D03*
X0097581Y0394484D03*
X0097581Y0404484D03*
X0087581Y0404484D03*
X0087581Y0394484D03*
D29*
X0088802Y0324130D03*
X0098802Y0324130D03*
X0108802Y0324130D03*
X0108802Y0294130D03*
X0098802Y0294130D03*
X0088802Y0294130D03*
X0078802Y0294130D03*
X0078802Y0324130D03*
X0220534Y0310350D03*
X0230534Y0310350D03*
X0240534Y0310350D03*
X0250534Y0310350D03*
X0250534Y0280350D03*
X0240534Y0280350D03*
X0230534Y0280350D03*
X0220534Y0280350D03*
M02*
