G75*
%MOIN*%
%OFA0B0*%
%FSLAX25Y25*%
%IPPOS*%
%LPD*%
%AMOC8*
5,1,8,0,0,1.08239X$1,22.5*
%
%ADD10OC8,0.07800*%
%ADD11C,0.07800*%
%ADD12C,0.06000*%
%ADD13R,0.07296X0.07296*%
%ADD14OC8,0.07296*%
%ADD15C,0.13068*%
%ADD16C,0.07296*%
%ADD17C,0.06737*%
%ADD18C,0.06800*%
%ADD19C,0.07200*%
%ADD20R,0.05524X0.05524*%
D10*
X0151951Y0439051D03*
X0179353Y0439051D03*
D11*
X0189353Y0439051D03*
X0141951Y0439051D03*
D12*
X0159668Y0411492D03*
X0169668Y0411492D03*
D13*
X0206991Y0435114D03*
X0206991Y0340626D03*
X0179432Y0238264D03*
X0226676Y0222516D03*
X0131203Y0222516D03*
X0082975Y0238264D03*
X0100691Y0340626D03*
X0100691Y0435114D03*
D14*
X0110534Y0435114D03*
X0120377Y0435114D03*
X0120377Y0340626D03*
X0110534Y0340626D03*
X0102660Y0238264D03*
X0092817Y0238264D03*
X0141046Y0222516D03*
X0150888Y0222516D03*
X0189274Y0238264D03*
X0199117Y0238264D03*
X0236518Y0222516D03*
X0246361Y0222516D03*
X0226676Y0340626D03*
X0216833Y0340626D03*
X0216833Y0435114D03*
X0226676Y0435114D03*
D15*
X0234550Y0462673D03*
X0199117Y0462673D03*
X0199117Y0368185D03*
X0234550Y0368185D03*
X0206991Y0265823D03*
X0218802Y0250075D03*
X0254235Y0250075D03*
X0171558Y0265823D03*
X0158762Y0250075D03*
X0123329Y0250075D03*
X0110534Y0265823D03*
X0075101Y0265823D03*
X0092817Y0368185D03*
X0128251Y0368185D03*
X0128251Y0462673D03*
X0092817Y0462673D03*
D16*
X0082099Y0065720D03*
X0090849Y0070941D03*
X0090849Y0104406D03*
X0090849Y0122122D03*
X0082099Y0116902D03*
X0090849Y0155587D03*
X0090849Y0173303D03*
X0082099Y0168083D03*
X0090849Y0206768D03*
X0131312Y0168083D03*
X0140062Y0173303D03*
X0140062Y0155587D03*
X0140062Y0122122D03*
X0131312Y0116902D03*
X0140062Y0104406D03*
X0140062Y0070941D03*
X0131312Y0065720D03*
X0181508Y0065720D03*
X0190258Y0070941D03*
X0190258Y0104406D03*
X0181508Y0116902D03*
X0190258Y0122122D03*
X0190258Y0155587D03*
X0181508Y0168083D03*
X0190258Y0173303D03*
X0190258Y0206768D03*
X0229737Y0168083D03*
X0238487Y0173303D03*
X0238487Y0155587D03*
X0238487Y0122122D03*
X0229737Y0116902D03*
X0238487Y0104406D03*
X0238487Y0070941D03*
X0229737Y0065720D03*
X0238487Y0206768D03*
X0140062Y0206768D03*
D17*
X0164668Y0358185D03*
X0164668Y0368185D03*
X0164668Y0378185D03*
X0164668Y0452673D03*
X0164668Y0462673D03*
X0164668Y0472673D03*
D18*
X0127581Y0404484D03*
X0127581Y0394484D03*
X0117581Y0394484D03*
X0117581Y0404484D03*
X0107581Y0404484D03*
X0107581Y0394484D03*
X0097581Y0394484D03*
X0097581Y0404484D03*
X0087581Y0404484D03*
X0087581Y0394484D03*
D19*
X0088802Y0324130D03*
X0098802Y0324130D03*
X0108802Y0324130D03*
X0108802Y0294130D03*
X0098802Y0294130D03*
X0088802Y0294130D03*
X0078802Y0294130D03*
X0078802Y0324130D03*
X0220534Y0310350D03*
X0230534Y0310350D03*
X0240534Y0310350D03*
X0250534Y0310350D03*
X0250534Y0280350D03*
X0240534Y0280350D03*
X0230534Y0280350D03*
X0220534Y0280350D03*
D20*
X0163684Y0312870D03*
X0163684Y0321138D03*
M02*
