%
M48
M72
T01C0.01181
T02C0.03200
T03C0.03937
T04C0.04000
T05C0.04331
T06C0.08268
%
T01
X101676Y103421
X118808Y108578
X130958Y125228
X113487Y145744
X112502Y198894
X112502Y238264
X126282Y281571
X116440Y289445
X128251Y316020
X145967Y317004
X163684Y293382
X142030Y267791
X171558Y229406
X192227Y223500
X202069Y250075
X196164Y258933
X197148Y283539
X210928Y280587
X214865Y269760
X225691Y289445
X233565Y289445
X241440Y295350
X233108Y302978
X230613Y319957
X231597Y331768
X234550Y338657
X240455Y331768
X245258Y332678
X250298Y324878
X253251Y342594
X239471Y322909
X250298Y299287
X251282Y289445
X233565Y272713
X229628Y255980
X223723Y232358
X211912Y240232
X246361Y238264
X244392Y164445
X212896Y114248
X210928Y75862
X176479Y146728
X175495Y177240
X173526Y190035
X205022Y165429
X194195Y316020
X185337Y334720
X178447Y353421
X173526Y389839
X203054Y401650
X208959Y363264
X214865Y333736
X231597Y354406
X240455Y390823
X247058Y424028
X252266Y458736
X184353Y472516
X139077Y381965
X131203Y416413
X130219Y442004
X86912Y380980
X93802Y354406
X88880Y305193
X100691Y305193
X86912Y273697
X78054Y450862
T02
X78802Y324130
X88802Y324130
X98802Y324130
X108802Y324130
X108802Y294130
X98802Y294130
X88802Y294130
X78802Y294130
X141951Y439051
X151951Y439051
X159668Y411492
X169668Y411492
X179353Y439051
X189353Y439051
X220534Y310350
X230534Y310350
X240534Y310350
X250534Y310350
X250534Y280350
X240534Y280350
X230534Y280350
X220534Y280350
T03
X164668Y358185
X164668Y368185
X164668Y378185
X164668Y452673
X164668Y462673
X164668Y472673
T04
X127581Y404484
X127581Y394484
X117581Y394484
X117581Y404484
X107581Y404484
X107581Y394484
X97581Y394484
X97581Y404484
X87581Y404484
X87581Y394484
T05
X82099Y65720
X90849Y70941
X90849Y104406
X90849Y122122
X82099Y116902
X90849Y155587
X90849Y173303
X82099Y168083
X90849Y206768
X92817Y238264
X82975Y238264
X102660Y238264
X131203Y222516
X140062Y206768
X141046Y222516
X150888Y222516
X140062Y173303
X131312Y168083
X140062Y155587
X140062Y122122
X131312Y116902
X140062Y104406
X140062Y70941
X131312Y65720
X181508Y65720
X190258Y70941
X190258Y104406
X181508Y116902
X190258Y122122
X190258Y155587
X181508Y168083
X190258Y173303
X190258Y206768
X189274Y238264
X179432Y238264
X199117Y238264
X226676Y222516
X236518Y222516
X238487Y206768
X246361Y222516
X238487Y173303
X229737Y168083
X238487Y155587
X238487Y122122
X229737Y116902
X238487Y104406
X238487Y70941
X229737Y65720
X226676Y340626
X216833Y340626
X206991Y340626
X206991Y435114
X216833Y435114
X226676Y435114
X120377Y435114
X110534Y435114
X100691Y435114
X100691Y340626
X110534Y340626
X120377Y340626
T06
X128251Y368185
X92817Y368185
X92817Y462673
X128251Y462673
X199117Y462673
X234550Y462673
X234550Y368185
X199117Y368185
X206991Y265823
X218802Y250075
X254235Y250075
X171558Y265823
X158762Y250075
X123329Y250075
X110534Y265823
X75101Y265823
M30
