G75*
%MOIN*%
%OFA0B0*%
%FSLAX25Y25*%
%IPPOS*%
%LPD*%
%AMOC8*
5,1,8,0,0,1.08239X$1,22.5*
%
%ADD10OC8,0.07000*%
%ADD11C,0.07000*%
%ADD12C,0.05200*%
%ADD13R,0.06496X0.06496*%
%ADD14OC8,0.06496*%
%ADD15C,0.12268*%
%ADD16C,0.06496*%
%ADD17C,0.05937*%
%ADD18C,0.06000*%
%ADD19C,0.06400*%
%ADD20R,0.04724X0.04724*%
%ADD21C,0.03937*%
%ADD22C,0.02781*%
%ADD23C,0.01000*%
%ADD24C,0.01300*%
D10*
X0151951Y0439051D03*
X0179353Y0439051D03*
D11*
X0189353Y0439051D03*
X0141951Y0439051D03*
D12*
X0159668Y0411492D03*
X0169668Y0411492D03*
D13*
X0206991Y0435114D03*
X0206991Y0340626D03*
X0179432Y0238264D03*
X0226676Y0222516D03*
X0131203Y0222516D03*
X0082975Y0238264D03*
X0100691Y0340626D03*
X0100691Y0435114D03*
D14*
X0110534Y0435114D03*
X0120377Y0435114D03*
X0120377Y0340626D03*
X0110534Y0340626D03*
X0102660Y0238264D03*
X0092817Y0238264D03*
X0141046Y0222516D03*
X0150888Y0222516D03*
X0189274Y0238264D03*
X0199117Y0238264D03*
X0236518Y0222516D03*
X0246361Y0222516D03*
X0226676Y0340626D03*
X0216833Y0340626D03*
X0216833Y0435114D03*
X0226676Y0435114D03*
D15*
X0234550Y0462673D03*
X0199117Y0462673D03*
X0199117Y0368185D03*
X0234550Y0368185D03*
X0206991Y0265823D03*
X0218802Y0250075D03*
X0254235Y0250075D03*
X0171558Y0265823D03*
X0158762Y0250075D03*
X0123329Y0250075D03*
X0110534Y0265823D03*
X0075101Y0265823D03*
X0092817Y0368185D03*
X0128251Y0368185D03*
X0128251Y0462673D03*
X0092817Y0462673D03*
D16*
X0090849Y0206768D03*
X0090849Y0173303D03*
X0090849Y0155587D03*
X0082099Y0168083D03*
X0090849Y0122122D03*
X0090849Y0104406D03*
X0082099Y0116902D03*
X0090849Y0070941D03*
X0082099Y0065720D03*
X0131312Y0065720D03*
X0140062Y0070941D03*
X0140062Y0104406D03*
X0131312Y0116902D03*
X0140062Y0122122D03*
X0140062Y0155587D03*
X0131312Y0168083D03*
X0140062Y0173303D03*
X0140062Y0206768D03*
X0181508Y0168083D03*
X0190258Y0173303D03*
X0190258Y0155587D03*
X0190258Y0122122D03*
X0181508Y0116902D03*
X0190258Y0104406D03*
X0190258Y0070941D03*
X0181508Y0065720D03*
X0229737Y0065720D03*
X0238487Y0070941D03*
X0238487Y0104406D03*
X0229737Y0116902D03*
X0238487Y0122122D03*
X0238487Y0155587D03*
X0229737Y0168083D03*
X0238487Y0173303D03*
X0238487Y0206768D03*
X0190258Y0206768D03*
D17*
X0164668Y0358185D03*
X0164668Y0368185D03*
X0164668Y0378185D03*
X0164668Y0452673D03*
X0164668Y0462673D03*
X0164668Y0472673D03*
D18*
X0127581Y0404484D03*
X0127581Y0394484D03*
X0117581Y0394484D03*
X0117581Y0404484D03*
X0107581Y0404484D03*
X0107581Y0394484D03*
X0097581Y0394484D03*
X0097581Y0404484D03*
X0087581Y0404484D03*
X0087581Y0394484D03*
D19*
X0088802Y0324130D03*
X0098802Y0324130D03*
X0108802Y0324130D03*
X0108802Y0294130D03*
X0098802Y0294130D03*
X0088802Y0294130D03*
X0078802Y0294130D03*
X0078802Y0324130D03*
X0220534Y0310350D03*
X0230534Y0310350D03*
X0240534Y0310350D03*
X0250534Y0310350D03*
X0250534Y0280350D03*
X0240534Y0280350D03*
X0230534Y0280350D03*
X0220534Y0280350D03*
D20*
X0163684Y0312870D03*
X0163684Y0321138D03*
D21*
X0069711Y0258623D02*
X0069711Y0064370D01*
X0076019Y0064370D01*
X0075882Y0065231D01*
X0075882Y0065720D01*
X0082099Y0065720D01*
X0082099Y0065721D01*
X0082099Y0065721D01*
X0082099Y0071937D01*
X0082588Y0071937D01*
X0083555Y0071784D01*
X0084485Y0071482D01*
X0084832Y0071305D01*
X0084832Y0072138D01*
X0085748Y0074349D01*
X0087441Y0076042D01*
X0089652Y0076957D01*
X0092046Y0076957D01*
X0094257Y0076042D01*
X0095950Y0074349D01*
X0096865Y0072138D01*
X0096865Y0069744D01*
X0095950Y0067533D01*
X0094257Y0065840D01*
X0092046Y0064924D01*
X0089652Y0064924D01*
X0088315Y0065478D01*
X0088315Y0065231D01*
X0088179Y0064370D01*
X0125231Y0064370D01*
X0125095Y0065231D01*
X0125095Y0065720D01*
X0131311Y0065720D01*
X0131311Y0065721D01*
X0125095Y0065721D01*
X0125095Y0066210D01*
X0125248Y0067176D01*
X0125550Y0068107D01*
X0125995Y0068979D01*
X0126570Y0069770D01*
X0127262Y0070462D01*
X0128053Y0071037D01*
X0128925Y0071482D01*
X0129856Y0071784D01*
X0130822Y0071937D01*
X0131311Y0071937D01*
X0131311Y0065721D01*
X0131312Y0065721D01*
X0131312Y0071937D01*
X0131801Y0071937D01*
X0132767Y0071784D01*
X0133698Y0071482D01*
X0134045Y0071305D01*
X0134045Y0072138D01*
X0134961Y0074349D01*
X0136653Y0076042D01*
X0138865Y0076957D01*
X0141258Y0076957D01*
X0143470Y0076042D01*
X0145162Y0074349D01*
X0146078Y0072138D01*
X0146078Y0069744D01*
X0145162Y0067533D01*
X0143470Y0065840D01*
X0141258Y0064924D01*
X0138865Y0064924D01*
X0137528Y0065478D01*
X0137528Y0065231D01*
X0137392Y0064370D01*
X0175428Y0064370D01*
X0175292Y0065231D01*
X0175292Y0065720D01*
X0181508Y0065720D01*
X0181508Y0065721D01*
X0181508Y0071937D01*
X0181019Y0071937D01*
X0180053Y0071784D01*
X0179122Y0071482D01*
X0178250Y0071037D01*
X0177459Y0070462D01*
X0176767Y0069770D01*
X0176192Y0068979D01*
X0175747Y0068107D01*
X0175445Y0067176D01*
X0175292Y0066210D01*
X0175292Y0065721D01*
X0181508Y0065721D01*
X0181508Y0065721D01*
X0181508Y0071937D01*
X0181998Y0071937D01*
X0182964Y0071784D01*
X0183895Y0071482D01*
X0184242Y0071305D01*
X0184242Y0072138D01*
X0185158Y0074349D01*
X0186850Y0076042D01*
X0189062Y0076957D01*
X0191455Y0076957D01*
X0193666Y0076042D01*
X0195359Y0074349D01*
X0196275Y0072138D01*
X0196275Y0069744D01*
X0195359Y0067533D01*
X0193666Y0065840D01*
X0191455Y0064924D01*
X0189062Y0064924D01*
X0187725Y0065478D01*
X0187725Y0065231D01*
X0187589Y0064370D01*
X0223657Y0064370D01*
X0223520Y0065231D01*
X0223520Y0065720D01*
X0229737Y0065720D01*
X0229737Y0065721D01*
X0229737Y0065721D01*
X0229737Y0071937D01*
X0230226Y0071937D01*
X0231192Y0071784D01*
X0232123Y0071482D01*
X0232470Y0071305D01*
X0232470Y0072138D01*
X0233386Y0074349D01*
X0235079Y0076042D01*
X0237290Y0076957D01*
X0239684Y0076957D01*
X0241895Y0076042D01*
X0243587Y0074349D01*
X0244503Y0072138D01*
X0244503Y0069744D01*
X0243587Y0067533D01*
X0241895Y0065840D01*
X0239684Y0064924D01*
X0237290Y0064924D01*
X0235953Y0065478D01*
X0235953Y0065231D01*
X0235817Y0064370D01*
X0259625Y0064370D01*
X0259625Y0242875D01*
X0259278Y0242528D01*
X0256006Y0241172D01*
X0252464Y0241172D01*
X0249192Y0242528D01*
X0246688Y0245032D01*
X0245332Y0248304D01*
X0245332Y0251846D01*
X0246688Y0255118D01*
X0249192Y0257622D01*
X0252464Y0258977D01*
X0256006Y0258977D01*
X0259278Y0257622D01*
X0259625Y0257275D01*
X0259625Y0477906D01*
X0167476Y0477906D01*
X0167780Y0477751D01*
X0168536Y0477202D01*
X0169196Y0476541D01*
X0169746Y0475785D01*
X0170170Y0474952D01*
X0170459Y0474063D01*
X0170605Y0473140D01*
X0170605Y0472673D01*
X0164668Y0472673D01*
X0164668Y0472673D01*
X0170605Y0472673D01*
X0170605Y0472206D01*
X0170459Y0471283D01*
X0170170Y0470394D01*
X0169746Y0469562D01*
X0169196Y0468806D01*
X0168536Y0468145D01*
X0167780Y0467595D01*
X0167778Y0467595D01*
X0167918Y0467537D01*
X0169531Y0465923D01*
X0170405Y0463814D01*
X0170405Y0461532D01*
X0169531Y0459423D01*
X0167918Y0457810D01*
X0167588Y0457673D01*
X0167918Y0457537D01*
X0169363Y0456092D01*
X0176344Y0456092D01*
X0177600Y0455571D01*
X0187926Y0445245D01*
X0188106Y0445320D01*
X0190600Y0445320D01*
X0192904Y0444365D01*
X0193622Y0443647D01*
X0222242Y0443647D01*
X0223498Y0443126D01*
X0224460Y0442165D01*
X0225494Y0441131D01*
X0229168Y0441131D01*
X0232692Y0437606D01*
X0232692Y0432622D01*
X0229168Y0429098D01*
X0224184Y0429098D01*
X0221754Y0431527D01*
X0220177Y0429949D01*
X0220177Y0376332D01*
X0225913Y0370596D01*
X0227003Y0373228D01*
X0229507Y0375732D01*
X0232779Y0377087D01*
X0236321Y0377087D01*
X0239593Y0375732D01*
X0242097Y0373228D01*
X0243452Y0369956D01*
X0243452Y0366414D01*
X0242097Y0363142D01*
X0239593Y0360638D01*
X0236961Y0359548D01*
X0241258Y0355251D01*
X0241755Y0354050D01*
X0241755Y0335057D01*
X0242902Y0336204D01*
X0243790Y0336572D01*
X0243790Y0421415D01*
X0243533Y0421672D01*
X0242899Y0423201D01*
X0242899Y0424856D01*
X0243533Y0426384D01*
X0244702Y0427554D01*
X0246231Y0428187D01*
X0247886Y0428187D01*
X0249414Y0427554D01*
X0250584Y0426384D01*
X0251217Y0424856D01*
X0251217Y0423201D01*
X0250584Y0421672D01*
X0250327Y0421415D01*
X0250327Y0336282D01*
X0257010Y0329599D01*
X0257010Y0329599D01*
X0257929Y0328680D01*
X0258427Y0327478D01*
X0258427Y0299693D01*
X0257929Y0298492D01*
X0248527Y0289089D01*
X0248527Y0285979D01*
X0249347Y0286319D01*
X0251721Y0286319D01*
X0253915Y0285410D01*
X0255594Y0283731D01*
X0256502Y0281538D01*
X0256502Y0279163D01*
X0255594Y0276970D01*
X0253915Y0275291D01*
X0251721Y0274382D01*
X0249347Y0274382D01*
X0248465Y0274747D01*
X0248029Y0273696D01*
X0230010Y0255677D01*
X0229091Y0254757D01*
X0227890Y0254260D01*
X0226704Y0254260D01*
X0227704Y0251846D01*
X0227704Y0248304D01*
X0226349Y0245032D01*
X0223844Y0242528D01*
X0220573Y0241172D01*
X0217031Y0241172D01*
X0213759Y0242528D01*
X0211255Y0245032D01*
X0209945Y0248193D01*
X0203821Y0242068D01*
X0205133Y0240756D01*
X0205133Y0235772D01*
X0202385Y0233024D01*
X0202385Y0214976D01*
X0201888Y0213775D01*
X0200968Y0212855D01*
X0200968Y0212855D01*
X0196217Y0208104D01*
X0196275Y0207964D01*
X0196275Y0205571D01*
X0195359Y0203360D01*
X0193666Y0201667D01*
X0191455Y0200751D01*
X0189062Y0200751D01*
X0187777Y0201283D01*
X0187777Y0194051D01*
X0196074Y0194051D01*
X0197227Y0192898D01*
X0197227Y0181267D01*
X0196074Y0180114D01*
X0184443Y0180114D01*
X0183290Y0181267D01*
X0183290Y0187337D01*
X0138822Y0142870D01*
X0145877Y0142870D01*
X0147030Y0141717D01*
X0147030Y0130086D01*
X0145877Y0128933D01*
X0134246Y0128933D01*
X0134227Y0128952D01*
X0134227Y0127842D01*
X0134484Y0127584D01*
X0135117Y0126056D01*
X0135117Y0125687D01*
X0136653Y0127223D01*
X0138865Y0128139D01*
X0141258Y0128139D01*
X0143470Y0127223D01*
X0145162Y0125530D01*
X0146078Y0123319D01*
X0146078Y0120925D01*
X0145162Y0118714D01*
X0143470Y0117021D01*
X0141258Y0116106D01*
X0138865Y0116106D01*
X0137528Y0116659D01*
X0137528Y0116412D01*
X0137375Y0115446D01*
X0137073Y0114515D01*
X0136628Y0113643D01*
X0136053Y0112852D01*
X0135361Y0112160D01*
X0134570Y0111585D01*
X0133698Y0111140D01*
X0132767Y0110838D01*
X0131801Y0110685D01*
X0131312Y0110685D01*
X0131312Y0116901D01*
X0131311Y0116901D01*
X0131311Y0110685D01*
X0130822Y0110685D01*
X0129856Y0110838D01*
X0128925Y0111140D01*
X0128053Y0111585D01*
X0127262Y0112160D01*
X0126570Y0112852D01*
X0125995Y0113643D01*
X0125550Y0114515D01*
X0125248Y0115446D01*
X0125095Y0116412D01*
X0125095Y0116902D01*
X0131311Y0116902D01*
X0131311Y0116902D01*
X0125095Y0116902D01*
X0125095Y0117391D01*
X0125248Y0118357D01*
X0125550Y0119288D01*
X0125995Y0120160D01*
X0126570Y0120951D01*
X0127262Y0121643D01*
X0128053Y0122218D01*
X0128075Y0122230D01*
X0127433Y0122872D01*
X0126799Y0124401D01*
X0126799Y0126056D01*
X0127433Y0127584D01*
X0127690Y0127842D01*
X0127690Y0140278D01*
X0128187Y0141480D01*
X0137036Y0150328D01*
X0136653Y0150486D01*
X0134961Y0152179D01*
X0134045Y0154390D01*
X0134045Y0156783D01*
X0134961Y0158995D01*
X0136653Y0160687D01*
X0136793Y0160745D01*
X0136793Y0164111D01*
X0137291Y0165312D01*
X0139265Y0167287D01*
X0138865Y0167287D01*
X0137328Y0167923D01*
X0137328Y0166886D01*
X0136412Y0164675D01*
X0134720Y0162982D01*
X0132508Y0162066D01*
X0130115Y0162066D01*
X0127903Y0162982D01*
X0126211Y0164675D01*
X0125295Y0166886D01*
X0125295Y0169279D01*
X0126211Y0171491D01*
X0127903Y0173183D01*
X0130115Y0174099D01*
X0132508Y0174099D01*
X0134045Y0173463D01*
X0134045Y0174500D01*
X0134961Y0176711D01*
X0136653Y0178404D01*
X0138865Y0179320D01*
X0141258Y0179320D01*
X0143470Y0178404D01*
X0145162Y0176711D01*
X0146078Y0174500D01*
X0146078Y0174099D01*
X0152440Y0180461D01*
X0152440Y0216499D01*
X0149452Y0216499D01*
X0144145Y0211193D01*
X0145162Y0210176D01*
X0146078Y0207964D01*
X0146078Y0205571D01*
X0145162Y0203360D01*
X0143470Y0201667D01*
X0141258Y0200751D01*
X0138865Y0200751D01*
X0136653Y0201667D01*
X0134961Y0203360D01*
X0134045Y0205571D01*
X0134045Y0207964D01*
X0134961Y0210176D01*
X0136653Y0211868D01*
X0137140Y0212070D01*
X0137140Y0212728D01*
X0137638Y0213930D01*
X0140207Y0216499D01*
X0138554Y0216499D01*
X0137114Y0217939D01*
X0137082Y0217862D01*
X0136757Y0217375D01*
X0136344Y0216962D01*
X0135857Y0216637D01*
X0135317Y0216413D01*
X0134744Y0216299D01*
X0131203Y0216299D01*
X0131203Y0222516D01*
X0131203Y0228732D01*
X0127663Y0228732D01*
X0127089Y0228618D01*
X0126549Y0228394D01*
X0126063Y0228070D01*
X0125649Y0227656D01*
X0125325Y0227170D01*
X0125101Y0226630D01*
X0124987Y0226056D01*
X0124987Y0222516D01*
X0131203Y0222516D01*
X0131203Y0222516D01*
X0131203Y0222516D01*
X0124987Y0222516D01*
X0124987Y0218975D01*
X0125101Y0218402D01*
X0125325Y0217862D01*
X0125649Y0217375D01*
X0126063Y0216962D01*
X0126549Y0216637D01*
X0127089Y0216413D01*
X0127663Y0216299D01*
X0131203Y0216299D01*
X0131203Y0222516D01*
X0131203Y0228732D01*
X0134744Y0228732D01*
X0135317Y0228618D01*
X0135857Y0228394D01*
X0136344Y0228070D01*
X0136757Y0227656D01*
X0137082Y0227170D01*
X0137114Y0227093D01*
X0138554Y0228532D01*
X0143538Y0228532D01*
X0145967Y0226103D01*
X0148396Y0228532D01*
X0153380Y0228532D01*
X0153935Y0227977D01*
X0202007Y0276049D01*
X0203208Y0276547D01*
X0215897Y0276547D01*
X0215474Y0276970D01*
X0214565Y0279163D01*
X0214565Y0281538D01*
X0215474Y0283731D01*
X0217115Y0285373D01*
X0217115Y0301700D01*
X0217636Y0302956D01*
X0219145Y0304465D01*
X0217153Y0305291D01*
X0215474Y0306970D01*
X0214565Y0309163D01*
X0214565Y0311538D01*
X0215474Y0313731D01*
X0217153Y0315410D01*
X0219347Y0316319D01*
X0221721Y0316319D01*
X0222465Y0316011D01*
X0222465Y0336328D01*
X0221754Y0337039D01*
X0219325Y0334609D01*
X0214341Y0334609D01*
X0212901Y0336049D01*
X0212869Y0335972D01*
X0212545Y0335486D01*
X0212131Y0335072D01*
X0211645Y0334747D01*
X0211105Y0334524D01*
X0210531Y0334409D01*
X0206991Y0334409D01*
X0206991Y0340626D01*
X0206991Y0340626D01*
X0206991Y0346842D01*
X0210531Y0346843D01*
X0211105Y0346728D01*
X0211645Y0346505D01*
X0212131Y0346180D01*
X0212545Y0345766D01*
X0212869Y0345280D01*
X0212901Y0345203D01*
X0214341Y0346643D01*
X0215825Y0346643D01*
X0208007Y0354460D01*
X0169056Y0354460D01*
X0167918Y0353321D01*
X0165809Y0352448D01*
X0163527Y0352448D01*
X0161418Y0353321D01*
X0160280Y0354460D01*
X0139124Y0354460D01*
X0126393Y0341729D01*
X0126393Y0338134D01*
X0122869Y0334609D01*
X0119274Y0334609D01*
X0113018Y0328354D01*
X0113862Y0327511D01*
X0114770Y0325317D01*
X0114770Y0322943D01*
X0113862Y0320749D01*
X0112183Y0319070D01*
X0109989Y0318161D01*
X0107614Y0318161D01*
X0105421Y0319070D01*
X0103802Y0320689D01*
X0102183Y0319070D01*
X0099989Y0318161D01*
X0097614Y0318161D01*
X0096877Y0318467D01*
X0096877Y0299793D01*
X0097614Y0300098D01*
X0099989Y0300098D01*
X0102183Y0299190D01*
X0103802Y0297571D01*
X0105421Y0299190D01*
X0107614Y0300098D01*
X0109989Y0300098D01*
X0112183Y0299190D01*
X0113862Y0297511D01*
X0114770Y0295317D01*
X0114770Y0292943D01*
X0113862Y0290749D01*
X0112183Y0289070D01*
X0109989Y0288161D01*
X0107614Y0288161D01*
X0105421Y0289070D01*
X0103802Y0290689D01*
X0102183Y0289070D01*
X0099989Y0288161D01*
X0097614Y0288161D01*
X0096877Y0288467D01*
X0096877Y0270582D01*
X0101632Y0265827D01*
X0101632Y0267594D01*
X0102987Y0270866D01*
X0105491Y0273370D01*
X0108763Y0274725D01*
X0112305Y0274725D01*
X0115577Y0273370D01*
X0118081Y0270866D01*
X0119436Y0267594D01*
X0119436Y0264052D01*
X0118081Y0260780D01*
X0115577Y0258276D01*
X0112305Y0256920D01*
X0110539Y0256920D01*
X0114774Y0252685D01*
X0115782Y0255118D01*
X0118286Y0257622D01*
X0121558Y0258977D01*
X0125100Y0258977D01*
X0128372Y0257622D01*
X0130876Y0255118D01*
X0132232Y0251846D01*
X0132232Y0248304D01*
X0130876Y0245032D01*
X0128372Y0242528D01*
X0125100Y0241172D01*
X0122077Y0241172D01*
X0122077Y0111192D01*
X0122334Y0110934D01*
X0122967Y0109406D01*
X0122967Y0107751D01*
X0122334Y0106222D01*
X0121164Y0105052D01*
X0119636Y0104419D01*
X0117981Y0104419D01*
X0116452Y0105052D01*
X0115283Y0106222D01*
X0114649Y0107751D01*
X0114649Y0109406D01*
X0115283Y0110934D01*
X0115540Y0111192D01*
X0115540Y0242674D01*
X0091757Y0266457D01*
X0090837Y0267377D01*
X0090340Y0268578D01*
X0090340Y0288307D01*
X0089989Y0288161D01*
X0087614Y0288161D01*
X0085421Y0289070D01*
X0083874Y0290617D01*
X0083507Y0290111D01*
X0082820Y0289425D01*
X0082035Y0288854D01*
X0081170Y0288413D01*
X0080246Y0288113D01*
X0079287Y0287961D01*
X0078802Y0287961D01*
X0078802Y0294130D01*
X0078802Y0294130D01*
X0078802Y0300298D01*
X0079287Y0300298D01*
X0080246Y0300147D01*
X0081170Y0299846D01*
X0082035Y0299406D01*
X0082820Y0298835D01*
X0083507Y0298148D01*
X0083874Y0297643D01*
X0085421Y0299190D01*
X0087614Y0300098D01*
X0089989Y0300098D01*
X0090340Y0299953D01*
X0090340Y0318274D01*
X0090317Y0318297D01*
X0089989Y0318161D01*
X0087614Y0318161D01*
X0085421Y0319070D01*
X0083802Y0320689D01*
X0082183Y0319070D01*
X0079989Y0318161D01*
X0077614Y0318161D01*
X0075421Y0319070D01*
X0073742Y0320749D01*
X0072833Y0322943D01*
X0072833Y0325317D01*
X0073742Y0327511D01*
X0075421Y0329190D01*
X0077614Y0330098D01*
X0079989Y0330098D01*
X0082183Y0329190D01*
X0083802Y0327571D01*
X0085421Y0329190D01*
X0087614Y0330098D01*
X0089989Y0330098D01*
X0092183Y0329190D01*
X0093802Y0327571D01*
X0095421Y0329190D01*
X0097614Y0330098D01*
X0099989Y0330098D01*
X0102183Y0329190D01*
X0103802Y0327571D01*
X0105421Y0329190D01*
X0105490Y0329218D01*
X0105490Y0329758D01*
X0106010Y0331015D01*
X0109605Y0334609D01*
X0108042Y0334609D01*
X0106602Y0336049D01*
X0106570Y0335972D01*
X0106245Y0335486D01*
X0105832Y0335072D01*
X0105346Y0334747D01*
X0104805Y0334524D01*
X0104232Y0334409D01*
X0100692Y0334409D01*
X0100692Y0340626D01*
X0100691Y0340626D01*
X0094475Y0340626D01*
X0100691Y0340626D01*
X0100691Y0340626D01*
X0100691Y0346843D01*
X0097151Y0346843D01*
X0096578Y0346728D01*
X0096037Y0346505D01*
X0095551Y0346180D01*
X0095138Y0345766D01*
X0094813Y0345280D01*
X0094589Y0344740D01*
X0094475Y0344166D01*
X0094475Y0340626D01*
X0094475Y0337086D01*
X0094589Y0336512D01*
X0094813Y0335972D01*
X0095138Y0335486D01*
X0095551Y0335072D01*
X0096037Y0334747D01*
X0096578Y0334524D01*
X0097151Y0334409D01*
X0100691Y0334409D01*
X0100691Y0340626D01*
X0100692Y0340626D01*
X0100692Y0346842D01*
X0104232Y0346843D01*
X0104805Y0346728D01*
X0105346Y0346505D01*
X0105832Y0346180D01*
X0106245Y0345766D01*
X0106570Y0345280D01*
X0106602Y0345203D01*
X0108042Y0346643D01*
X0113026Y0346643D01*
X0115455Y0344213D01*
X0117884Y0346643D01*
X0121638Y0346643D01*
X0135772Y0360776D01*
X0137028Y0361297D01*
X0159747Y0361297D01*
X0159804Y0361435D01*
X0161418Y0363049D01*
X0161747Y0363185D01*
X0161418Y0363321D01*
X0159804Y0364935D01*
X0158931Y0367044D01*
X0158931Y0369326D01*
X0159804Y0371435D01*
X0161418Y0373049D01*
X0161558Y0373106D01*
X0161556Y0373107D01*
X0160800Y0373657D01*
X0160139Y0374317D01*
X0159590Y0375073D01*
X0159166Y0375906D01*
X0158877Y0376795D01*
X0158731Y0377718D01*
X0158731Y0378185D01*
X0164668Y0378185D01*
X0164668Y0378185D01*
X0170605Y0378185D01*
X0170605Y0377718D01*
X0170459Y0376795D01*
X0170170Y0375906D01*
X0169746Y0375073D01*
X0169196Y0374317D01*
X0168536Y0373657D01*
X0167780Y0373107D01*
X0167778Y0373106D01*
X0167918Y0373049D01*
X0169531Y0371435D01*
X0170405Y0369326D01*
X0170405Y0367044D01*
X0169531Y0364935D01*
X0167918Y0363321D01*
X0167588Y0363185D01*
X0167918Y0363049D01*
X0169531Y0361435D01*
X0169589Y0361297D01*
X0193415Y0361297D01*
X0191570Y0363142D01*
X0190214Y0366414D01*
X0190214Y0369956D01*
X0191570Y0373228D01*
X0194074Y0375732D01*
X0197346Y0377087D01*
X0200887Y0377087D01*
X0204159Y0375732D01*
X0206664Y0373228D01*
X0208019Y0369956D01*
X0208019Y0366414D01*
X0206664Y0363142D01*
X0204818Y0361297D01*
X0210103Y0361297D01*
X0211360Y0360776D01*
X0212321Y0359815D01*
X0223257Y0348879D01*
X0223257Y0358895D01*
X0186455Y0395697D01*
X0185934Y0396954D01*
X0185934Y0433682D01*
X0185802Y0433737D01*
X0184494Y0435045D01*
X0182032Y0432583D01*
X0179353Y0432583D01*
X0179353Y0439051D01*
X0179353Y0439051D01*
X0179353Y0432583D01*
X0176674Y0432583D01*
X0172884Y0436372D01*
X0172884Y0439051D01*
X0179353Y0439051D01*
X0179353Y0439051D01*
X0172884Y0439051D01*
X0172884Y0441731D01*
X0176674Y0445520D01*
X0177983Y0445520D01*
X0174248Y0449255D01*
X0169363Y0449255D01*
X0167918Y0447810D01*
X0165809Y0446936D01*
X0163527Y0446936D01*
X0161418Y0447810D01*
X0159973Y0449255D01*
X0149769Y0449255D01*
X0145062Y0444548D01*
X0145502Y0444365D01*
X0146810Y0443058D01*
X0149272Y0445520D01*
X0151951Y0445520D01*
X0151951Y0439051D01*
X0151951Y0439051D01*
X0151951Y0432583D01*
X0149272Y0432583D01*
X0146810Y0435045D01*
X0145502Y0433737D01*
X0143198Y0432783D01*
X0140704Y0432783D01*
X0138400Y0433737D01*
X0136637Y0435500D01*
X0136455Y0435940D01*
X0133856Y0433342D01*
X0132895Y0432380D01*
X0131638Y0431860D01*
X0125631Y0431860D01*
X0122869Y0429098D01*
X0117884Y0429098D01*
X0115455Y0431527D01*
X0113026Y0429098D01*
X0108042Y0429098D01*
X0106602Y0430537D01*
X0106570Y0430460D01*
X0106245Y0429974D01*
X0105832Y0429560D01*
X0105346Y0429235D01*
X0104805Y0429012D01*
X0104232Y0428898D01*
X0100692Y0428898D01*
X0100692Y0435114D01*
X0100691Y0435114D01*
X0094475Y0435114D01*
X0094475Y0431574D01*
X0094589Y0431000D01*
X0094813Y0430460D01*
X0095138Y0429974D01*
X0095551Y0429560D01*
X0096037Y0429235D01*
X0096578Y0429012D01*
X0097151Y0428898D01*
X0100691Y0428898D01*
X0100691Y0435114D01*
X0100691Y0435114D01*
X0094475Y0435114D01*
X0094475Y0438655D01*
X0094589Y0439228D01*
X0094813Y0439768D01*
X0095138Y0440255D01*
X0095551Y0440668D01*
X0096037Y0440993D01*
X0096578Y0441217D01*
X0097151Y0441331D01*
X0100691Y0441331D01*
X0100691Y0435114D01*
X0100692Y0435114D01*
X0100692Y0441331D01*
X0104232Y0441331D01*
X0104805Y0441217D01*
X0105346Y0440993D01*
X0105832Y0440668D01*
X0106245Y0440255D01*
X0106570Y0439768D01*
X0106602Y0439691D01*
X0108042Y0441131D01*
X0113026Y0441131D01*
X0115455Y0438702D01*
X0117884Y0441131D01*
X0122869Y0441131D01*
X0125302Y0438697D01*
X0129542Y0438697D01*
X0146417Y0455571D01*
X0147673Y0456092D01*
X0159973Y0456092D01*
X0161418Y0457537D01*
X0161747Y0457673D01*
X0161418Y0457810D01*
X0159804Y0459423D01*
X0158931Y0461532D01*
X0158931Y0463814D01*
X0159804Y0465923D01*
X0161418Y0467537D01*
X0161558Y0467595D01*
X0161556Y0467595D01*
X0160800Y0468145D01*
X0160139Y0468806D01*
X0159590Y0469562D01*
X0159166Y0470394D01*
X0158877Y0471283D01*
X0158731Y0472206D01*
X0158731Y0472673D01*
X0164668Y0472673D01*
X0164668Y0472673D01*
X0158731Y0472673D01*
X0158731Y0473140D01*
X0158877Y0474063D01*
X0159166Y0474952D01*
X0159590Y0475785D01*
X0160139Y0476541D01*
X0160800Y0477202D01*
X0161556Y0477751D01*
X0161859Y0477906D01*
X0069711Y0477906D01*
X0069711Y0273023D01*
X0070058Y0273370D01*
X0073330Y0274725D01*
X0076872Y0274725D01*
X0080144Y0273370D01*
X0082648Y0270866D01*
X0084003Y0267594D01*
X0084003Y0264052D01*
X0082648Y0260780D01*
X0080144Y0258276D01*
X0076872Y0256920D01*
X0073330Y0256920D01*
X0070058Y0258276D01*
X0069711Y0258623D01*
X0069711Y0257859D02*
X0071063Y0257859D01*
X0069711Y0253924D02*
X0104290Y0253924D01*
X0100355Y0257859D02*
X0079139Y0257859D01*
X0083068Y0261795D02*
X0096419Y0261795D01*
X0092484Y0265731D02*
X0084003Y0265731D01*
X0083145Y0269666D02*
X0090340Y0269666D01*
X0090340Y0273602D02*
X0079584Y0273602D01*
X0070617Y0273602D02*
X0069711Y0273602D01*
X0069711Y0277537D02*
X0090340Y0277537D01*
X0090340Y0281473D02*
X0069711Y0281473D01*
X0069711Y0285408D02*
X0090340Y0285408D01*
X0085147Y0289344D02*
X0082708Y0289344D01*
X0078802Y0289344D02*
X0078802Y0289344D01*
X0078802Y0287961D02*
X0078802Y0294130D01*
X0078802Y0294130D01*
X0078802Y0300298D01*
X0078316Y0300298D01*
X0077357Y0300147D01*
X0076434Y0299846D01*
X0075569Y0299406D01*
X0074783Y0298835D01*
X0074097Y0298148D01*
X0073526Y0297363D01*
X0073085Y0296498D01*
X0072785Y0295574D01*
X0072633Y0294615D01*
X0072633Y0294130D01*
X0078802Y0294130D01*
X0078802Y0294130D01*
X0072633Y0294130D01*
X0072633Y0293644D01*
X0072785Y0292685D01*
X0073085Y0291762D01*
X0073526Y0290897D01*
X0074097Y0290111D01*
X0074783Y0289425D01*
X0075569Y0288854D01*
X0076434Y0288413D01*
X0077357Y0288113D01*
X0078316Y0287961D01*
X0078802Y0287961D01*
X0074895Y0289344D02*
X0069711Y0289344D01*
X0069711Y0293279D02*
X0072691Y0293279D01*
X0073450Y0297215D02*
X0069711Y0297215D01*
X0069711Y0301150D02*
X0090340Y0301150D01*
X0090340Y0305086D02*
X0069711Y0305086D01*
X0069711Y0309021D02*
X0090340Y0309021D01*
X0090340Y0312957D02*
X0069711Y0312957D01*
X0069711Y0316892D02*
X0090340Y0316892D01*
X0092674Y0328699D02*
X0094930Y0328699D01*
X0094578Y0336570D02*
X0069711Y0336570D01*
X0069711Y0340505D02*
X0094475Y0340505D01*
X0094530Y0344441D02*
X0069711Y0344441D01*
X0069711Y0348376D02*
X0123372Y0348376D01*
X0126393Y0340505D02*
X0200774Y0340505D01*
X0200774Y0340626D02*
X0200774Y0337086D01*
X0200888Y0336512D01*
X0201112Y0335972D01*
X0201437Y0335486D01*
X0201850Y0335072D01*
X0202337Y0334747D01*
X0202877Y0334524D01*
X0203450Y0334409D01*
X0206991Y0334409D01*
X0206991Y0340626D01*
X0206991Y0340626D01*
X0206991Y0346843D01*
X0203450Y0346843D01*
X0202877Y0346728D01*
X0202337Y0346505D01*
X0201850Y0346180D01*
X0201437Y0345766D01*
X0201112Y0345280D01*
X0200888Y0344740D01*
X0200774Y0344166D01*
X0200774Y0340626D01*
X0206991Y0340626D01*
X0200774Y0340626D01*
X0200829Y0344441D02*
X0129105Y0344441D01*
X0127308Y0352312D02*
X0069711Y0352312D01*
X0069711Y0356247D02*
X0131243Y0356247D01*
X0130021Y0359283D02*
X0133293Y0360638D01*
X0135798Y0363142D01*
X0137153Y0366414D01*
X0137153Y0369956D01*
X0135798Y0373228D01*
X0133293Y0375732D01*
X0130021Y0377087D01*
X0126480Y0377087D01*
X0123208Y0375732D01*
X0120703Y0373228D01*
X0119348Y0369956D01*
X0119348Y0366414D01*
X0120703Y0363142D01*
X0123208Y0360638D01*
X0126480Y0359283D01*
X0130021Y0359283D01*
X0132195Y0360183D02*
X0135179Y0360183D01*
X0136202Y0364119D02*
X0160621Y0364119D01*
X0158931Y0368054D02*
X0137153Y0368054D01*
X0136310Y0371990D02*
X0160359Y0371990D01*
X0159160Y0375925D02*
X0132827Y0375925D01*
X0128729Y0388716D02*
X0126434Y0388716D01*
X0124314Y0389594D01*
X0122691Y0391217D01*
X0122652Y0391310D01*
X0122134Y0390596D01*
X0121469Y0389932D01*
X0120709Y0389380D01*
X0119872Y0388953D01*
X0118979Y0388663D01*
X0118051Y0388516D01*
X0117581Y0388516D01*
X0117581Y0394484D01*
X0117581Y0394484D01*
X0107581Y0394484D01*
X0107581Y0394484D01*
X0107581Y0388516D01*
X0107111Y0388516D01*
X0106184Y0388663D01*
X0105290Y0388953D01*
X0104453Y0389380D01*
X0103693Y0389932D01*
X0103029Y0390596D01*
X0102581Y0391212D01*
X0102134Y0390596D01*
X0101469Y0389932D01*
X0100709Y0389380D01*
X0099872Y0388953D01*
X0098979Y0388663D01*
X0098051Y0388516D01*
X0097581Y0388516D01*
X0097581Y0394484D01*
X0097581Y0394484D01*
X0097581Y0388516D01*
X0097111Y0388516D01*
X0096184Y0388663D01*
X0095290Y0388953D01*
X0094453Y0389380D01*
X0093693Y0389932D01*
X0093029Y0390596D01*
X0092510Y0391310D01*
X0092472Y0391217D01*
X0090849Y0389594D01*
X0088729Y0388716D01*
X0086434Y0388716D01*
X0084314Y0389594D01*
X0082691Y0391217D01*
X0081813Y0393337D01*
X0081813Y0395632D01*
X0082691Y0397752D01*
X0084314Y0399375D01*
X0084578Y0399484D01*
X0084314Y0399594D01*
X0082691Y0401217D01*
X0081813Y0403337D01*
X0081813Y0405632D01*
X0082691Y0407752D01*
X0084314Y0409375D01*
X0086434Y0410253D01*
X0088729Y0410253D01*
X0090849Y0409375D01*
X0092472Y0407752D01*
X0092510Y0407659D01*
X0093029Y0408372D01*
X0093693Y0409037D01*
X0094453Y0409589D01*
X0095290Y0410015D01*
X0096184Y0410306D01*
X0097111Y0410453D01*
X0097581Y0410453D01*
X0097581Y0404484D01*
X0097581Y0404484D01*
X0097581Y0394484D01*
X0097581Y0394484D01*
X0107581Y0394484D01*
X0107581Y0394484D01*
X0107581Y0388516D01*
X0108051Y0388516D01*
X0108979Y0388663D01*
X0109872Y0388953D01*
X0110709Y0389380D01*
X0111469Y0389932D01*
X0112134Y0390596D01*
X0112581Y0391212D01*
X0113029Y0390596D01*
X0113693Y0389932D01*
X0114453Y0389380D01*
X0115290Y0388953D01*
X0116184Y0388663D01*
X0117111Y0388516D01*
X0117581Y0388516D01*
X0117581Y0394484D01*
X0117581Y0394484D01*
X0113550Y0394484D01*
X0107581Y0394484D01*
X0101613Y0394484D01*
X0097581Y0394484D01*
X0097581Y0394484D01*
X0097581Y0398516D01*
X0097581Y0404484D01*
X0097581Y0404484D01*
X0097581Y0404484D01*
X0107581Y0404484D01*
X0107581Y0404484D01*
X0107581Y0394484D01*
X0107581Y0394484D01*
X0107581Y0394484D01*
X0107581Y0398516D01*
X0107581Y0404484D01*
X0107581Y0404484D01*
X0101613Y0404484D01*
X0097581Y0404484D01*
X0097581Y0410453D01*
X0098051Y0410453D01*
X0098979Y0410306D01*
X0099872Y0410015D01*
X0100709Y0409589D01*
X0101469Y0409037D01*
X0102134Y0408372D01*
X0102581Y0407757D01*
X0103029Y0408372D01*
X0103693Y0409037D01*
X0104453Y0409589D01*
X0105290Y0410015D01*
X0106184Y0410306D01*
X0107111Y0410453D01*
X0107581Y0410453D01*
X0107581Y0404484D01*
X0107581Y0404484D01*
X0107581Y0404484D01*
X0117581Y0404484D01*
X0117581Y0404484D01*
X0117581Y0394484D01*
X0117581Y0394484D01*
X0117581Y0398516D01*
X0117581Y0404484D01*
X0117581Y0404484D01*
X0113550Y0404484D01*
X0107581Y0404484D01*
X0107581Y0410453D01*
X0108051Y0410453D01*
X0108979Y0410306D01*
X0109872Y0410015D01*
X0110709Y0409589D01*
X0111469Y0409037D01*
X0112134Y0408372D01*
X0112581Y0407757D01*
X0113029Y0408372D01*
X0113693Y0409037D01*
X0114453Y0409589D01*
X0115290Y0410015D01*
X0116184Y0410306D01*
X0117111Y0410453D01*
X0117581Y0410453D01*
X0117581Y0404484D01*
X0117581Y0404484D01*
X0117581Y0410453D01*
X0118051Y0410453D01*
X0118979Y0410306D01*
X0119872Y0410015D01*
X0120709Y0409589D01*
X0121469Y0409037D01*
X0122134Y0408372D01*
X0122652Y0407659D01*
X0122691Y0407752D01*
X0124314Y0409375D01*
X0126434Y0410253D01*
X0128729Y0410253D01*
X0130849Y0409375D01*
X0132472Y0407752D01*
X0133350Y0405632D01*
X0133350Y0403337D01*
X0132472Y0401217D01*
X0130849Y0399594D01*
X0130584Y0399484D01*
X0130849Y0399375D01*
X0132472Y0397752D01*
X0133350Y0395632D01*
X0133350Y0393337D01*
X0132472Y0391217D01*
X0130849Y0389594D01*
X0128729Y0388716D01*
X0130714Y0399538D02*
X0185934Y0399538D01*
X0185934Y0403474D02*
X0133350Y0403474D01*
X0132613Y0407409D02*
X0156159Y0407409D01*
X0156627Y0406941D02*
X0158600Y0406124D01*
X0160736Y0406124D01*
X0162709Y0406941D01*
X0164219Y0408451D01*
X0164555Y0409262D01*
X0164905Y0408574D01*
X0165420Y0407864D01*
X0166040Y0407245D01*
X0166749Y0406730D01*
X0167530Y0406332D01*
X0168364Y0406061D01*
X0169230Y0405924D01*
X0169668Y0405924D01*
X0170106Y0405924D01*
X0170972Y0406061D01*
X0171805Y0406332D01*
X0172586Y0406730D01*
X0173295Y0407245D01*
X0173915Y0407864D01*
X0174430Y0408574D01*
X0174828Y0409355D01*
X0175099Y0410188D01*
X0175236Y0411054D01*
X0175236Y0411492D01*
X0169668Y0411492D01*
X0169668Y0411492D01*
X0169668Y0405924D01*
X0169668Y0411492D01*
X0169668Y0411492D01*
X0175236Y0411492D01*
X0175236Y0411930D01*
X0175099Y0412796D01*
X0174828Y0413630D01*
X0174430Y0414411D01*
X0173915Y0415120D01*
X0173295Y0415740D01*
X0172586Y0416255D01*
X0171805Y0416653D01*
X0170972Y0416923D01*
X0170106Y0417061D01*
X0169668Y0417061D01*
X0169668Y0411492D01*
X0169668Y0411492D01*
X0169668Y0417061D01*
X0169230Y0417061D01*
X0168364Y0416923D01*
X0167530Y0416653D01*
X0166749Y0416255D01*
X0166040Y0415740D01*
X0165420Y0415120D01*
X0164905Y0414411D01*
X0164555Y0413723D01*
X0164219Y0414533D01*
X0162709Y0416043D01*
X0160736Y0416861D01*
X0158600Y0416861D01*
X0156627Y0416043D01*
X0155117Y0414533D01*
X0154299Y0412560D01*
X0154299Y0410424D01*
X0155117Y0408451D01*
X0156627Y0406941D01*
X0154299Y0411345D02*
X0069711Y0411345D01*
X0069711Y0415280D02*
X0155864Y0415280D01*
X0163472Y0415280D02*
X0165581Y0415280D01*
X0169668Y0415280D02*
X0169668Y0415280D01*
X0169668Y0411345D02*
X0169668Y0411345D01*
X0169668Y0407409D02*
X0169668Y0407409D01*
X0165876Y0407409D02*
X0163177Y0407409D01*
X0173460Y0407409D02*
X0185934Y0407409D01*
X0185934Y0411345D02*
X0175236Y0411345D01*
X0173755Y0415280D02*
X0185934Y0415280D01*
X0185934Y0419216D02*
X0069711Y0419216D01*
X0069711Y0423151D02*
X0185934Y0423151D01*
X0185934Y0427087D02*
X0069711Y0427087D01*
X0069711Y0431022D02*
X0094585Y0431022D01*
X0094475Y0434958D02*
X0069711Y0434958D01*
X0069711Y0438893D02*
X0094522Y0438893D01*
X0100691Y0438893D02*
X0100692Y0438893D01*
X0100691Y0434958D02*
X0100692Y0434958D01*
X0100691Y0431022D02*
X0100692Y0431022D01*
X0094588Y0453771D02*
X0091047Y0453771D01*
X0087775Y0455126D01*
X0085270Y0457630D01*
X0083915Y0460902D01*
X0083915Y0464444D01*
X0085270Y0467716D01*
X0087775Y0470220D01*
X0091047Y0471576D01*
X0094588Y0471576D01*
X0097860Y0470220D01*
X0100365Y0467716D01*
X0101720Y0464444D01*
X0101720Y0460902D01*
X0100365Y0457630D01*
X0097860Y0455126D01*
X0094588Y0453771D01*
X0096676Y0454635D02*
X0124392Y0454635D01*
X0123208Y0455126D02*
X0126480Y0453771D01*
X0130021Y0453771D01*
X0133293Y0455126D01*
X0135798Y0457630D01*
X0137153Y0460902D01*
X0137153Y0464444D01*
X0135798Y0467716D01*
X0133293Y0470220D01*
X0130021Y0471576D01*
X0126480Y0471576D01*
X0123208Y0470220D01*
X0120703Y0467716D01*
X0119348Y0464444D01*
X0119348Y0460902D01*
X0120703Y0457630D01*
X0123208Y0455126D01*
X0120314Y0458571D02*
X0100754Y0458571D01*
X0101720Y0462506D02*
X0119348Y0462506D01*
X0120176Y0466442D02*
X0100892Y0466442D01*
X0097481Y0470378D02*
X0123587Y0470378D01*
X0132914Y0470378D02*
X0159174Y0470378D01*
X0158958Y0474313D02*
X0069711Y0474313D01*
X0069711Y0470378D02*
X0088154Y0470378D01*
X0084743Y0466442D02*
X0069711Y0466442D01*
X0069711Y0462506D02*
X0083915Y0462506D01*
X0084881Y0458571D02*
X0069711Y0458571D01*
X0069711Y0454635D02*
X0088959Y0454635D01*
X0069711Y0450700D02*
X0141546Y0450700D01*
X0145481Y0454635D02*
X0132109Y0454635D01*
X0136187Y0458571D02*
X0160657Y0458571D01*
X0158931Y0462506D02*
X0137153Y0462506D01*
X0136325Y0466442D02*
X0160323Y0466442D01*
X0169012Y0466442D02*
X0191042Y0466442D01*
X0191570Y0467716D02*
X0190214Y0464444D01*
X0190214Y0460902D01*
X0191570Y0457630D01*
X0194074Y0455126D01*
X0197346Y0453771D01*
X0200887Y0453771D01*
X0204159Y0455126D01*
X0206664Y0457630D01*
X0208019Y0460902D01*
X0208019Y0464444D01*
X0206664Y0467716D01*
X0204159Y0470220D01*
X0200887Y0471576D01*
X0197346Y0471576D01*
X0194074Y0470220D01*
X0191570Y0467716D01*
X0194454Y0470378D02*
X0170161Y0470378D01*
X0170378Y0474313D02*
X0259625Y0474313D01*
X0259625Y0470378D02*
X0239213Y0470378D01*
X0239593Y0470220D02*
X0236321Y0471576D01*
X0232779Y0471576D01*
X0229507Y0470220D01*
X0227003Y0467716D01*
X0225647Y0464444D01*
X0225647Y0460902D01*
X0227003Y0457630D01*
X0229507Y0455126D01*
X0232779Y0453771D01*
X0236321Y0453771D01*
X0239593Y0455126D01*
X0242097Y0457630D01*
X0243452Y0460902D01*
X0243452Y0464444D01*
X0242097Y0467716D01*
X0239593Y0470220D01*
X0242624Y0466442D02*
X0259625Y0466442D01*
X0259625Y0462506D02*
X0243452Y0462506D01*
X0242486Y0458571D02*
X0259625Y0458571D01*
X0259625Y0454635D02*
X0238408Y0454635D01*
X0230692Y0454635D02*
X0202975Y0454635D01*
X0207053Y0458571D02*
X0226613Y0458571D01*
X0225647Y0462506D02*
X0208019Y0462506D01*
X0207191Y0466442D02*
X0226475Y0466442D01*
X0229887Y0470378D02*
X0203780Y0470378D01*
X0195259Y0454635D02*
X0178536Y0454635D01*
X0176738Y0446764D02*
X0147279Y0446764D01*
X0151951Y0445520D02*
X0151951Y0439051D01*
X0151951Y0432583D01*
X0154631Y0432583D01*
X0158420Y0436372D01*
X0158420Y0439051D01*
X0151951Y0439051D01*
X0151951Y0439051D01*
X0151951Y0439051D01*
X0158420Y0439051D01*
X0158420Y0441731D01*
X0154631Y0445520D01*
X0151951Y0445520D01*
X0151951Y0442829D02*
X0151951Y0442829D01*
X0151951Y0438893D02*
X0151951Y0438893D01*
X0151951Y0434958D02*
X0151951Y0434958D01*
X0146897Y0434958D02*
X0146723Y0434958D01*
X0137610Y0446764D02*
X0069711Y0446764D01*
X0069711Y0442829D02*
X0133674Y0442829D01*
X0129739Y0438893D02*
X0125106Y0438893D01*
X0124793Y0431022D02*
X0185934Y0431022D01*
X0184581Y0434958D02*
X0184407Y0434958D01*
X0179353Y0434958D02*
X0179353Y0434958D01*
X0179353Y0438893D02*
X0179353Y0438893D01*
X0174298Y0434958D02*
X0157006Y0434958D01*
X0158420Y0438893D02*
X0172884Y0438893D01*
X0173983Y0442829D02*
X0157321Y0442829D01*
X0168679Y0458571D02*
X0191180Y0458571D01*
X0190214Y0462506D02*
X0170405Y0462506D01*
X0182471Y0450700D02*
X0259625Y0450700D01*
X0259625Y0446764D02*
X0186407Y0446764D01*
X0195209Y0436810D02*
X0194667Y0435500D01*
X0192904Y0433737D01*
X0192771Y0433682D01*
X0192771Y0399050D01*
X0213640Y0378181D01*
X0213640Y0429799D01*
X0212901Y0430537D01*
X0212869Y0430460D01*
X0212545Y0429974D01*
X0212131Y0429560D01*
X0211645Y0429235D01*
X0211105Y0429012D01*
X0210531Y0428898D01*
X0206991Y0428898D01*
X0206991Y0435114D01*
X0206991Y0435114D01*
X0206991Y0428898D01*
X0203450Y0428898D01*
X0202877Y0429012D01*
X0202337Y0429235D01*
X0201850Y0429560D01*
X0201437Y0429974D01*
X0201112Y0430460D01*
X0200888Y0431000D01*
X0200774Y0431574D01*
X0200774Y0435114D01*
X0206991Y0435114D01*
X0206991Y0435114D01*
X0200774Y0435114D01*
X0200774Y0436810D01*
X0195209Y0436810D01*
X0194125Y0434958D02*
X0200774Y0434958D01*
X0200884Y0431022D02*
X0192771Y0431022D01*
X0192771Y0427087D02*
X0213640Y0427087D01*
X0213640Y0423151D02*
X0192771Y0423151D01*
X0192771Y0419216D02*
X0213640Y0419216D01*
X0213640Y0415280D02*
X0192771Y0415280D01*
X0192771Y0411345D02*
X0213640Y0411345D01*
X0213640Y0407409D02*
X0192771Y0407409D01*
X0192771Y0403474D02*
X0213640Y0403474D01*
X0213640Y0399538D02*
X0192771Y0399538D01*
X0196219Y0395603D02*
X0213640Y0395603D01*
X0213640Y0391667D02*
X0200154Y0391667D01*
X0198356Y0383796D02*
X0166611Y0383796D01*
X0166947Y0383687D02*
X0166058Y0383976D01*
X0165135Y0384122D01*
X0164668Y0384122D01*
X0164668Y0378185D01*
X0170605Y0378185D01*
X0170605Y0378652D01*
X0170459Y0379575D01*
X0170170Y0380464D01*
X0169746Y0381297D01*
X0169196Y0382053D01*
X0168536Y0382714D01*
X0167780Y0383263D01*
X0166947Y0383687D01*
X0164668Y0383796D02*
X0164668Y0383796D01*
X0164668Y0384122D02*
X0164201Y0384122D01*
X0163278Y0383976D01*
X0162389Y0383687D01*
X0161556Y0383263D01*
X0160800Y0382714D01*
X0160139Y0382053D01*
X0159590Y0381297D01*
X0159166Y0380464D01*
X0158877Y0379575D01*
X0158731Y0378652D01*
X0158731Y0378185D01*
X0164668Y0378185D01*
X0164668Y0378185D01*
X0164668Y0384122D01*
X0162724Y0383796D02*
X0069711Y0383796D01*
X0069711Y0379861D02*
X0158970Y0379861D01*
X0164668Y0379861D02*
X0164668Y0379861D01*
X0164668Y0378185D02*
X0164668Y0378185D01*
X0170366Y0379861D02*
X0202292Y0379861D01*
X0203694Y0375925D02*
X0206227Y0375925D01*
X0207177Y0371990D02*
X0210163Y0371990D01*
X0208019Y0368054D02*
X0214098Y0368054D01*
X0211953Y0360183D02*
X0221969Y0360183D01*
X0223257Y0356247D02*
X0215889Y0356247D01*
X0219824Y0352312D02*
X0223257Y0352312D01*
X0230094Y0352312D02*
X0234952Y0352312D01*
X0235218Y0352046D02*
X0235218Y0336074D01*
X0233507Y0334363D01*
X0232587Y0333444D01*
X0232090Y0332242D01*
X0232090Y0316166D01*
X0231721Y0316319D01*
X0229347Y0316319D01*
X0229302Y0316301D01*
X0229302Y0334744D01*
X0232692Y0338134D01*
X0232692Y0343118D01*
X0230094Y0345716D01*
X0230094Y0357170D01*
X0235218Y0352046D01*
X0235218Y0348376D02*
X0230094Y0348376D01*
X0231369Y0344441D02*
X0235218Y0344441D01*
X0235218Y0340505D02*
X0232692Y0340505D01*
X0231128Y0336570D02*
X0235218Y0336570D01*
X0232252Y0332634D02*
X0229302Y0332634D01*
X0229302Y0328699D02*
X0232090Y0328699D01*
X0232090Y0324763D02*
X0229302Y0324763D01*
X0229302Y0320828D02*
X0232090Y0320828D01*
X0232090Y0316892D02*
X0229302Y0316892D01*
X0222465Y0316892D02*
X0172131Y0316892D01*
X0168814Y0313575D02*
X0185800Y0330561D01*
X0186164Y0330561D01*
X0187693Y0331195D01*
X0188863Y0332365D01*
X0189496Y0333893D01*
X0189496Y0335548D01*
X0188863Y0337076D01*
X0187693Y0338246D01*
X0186164Y0338880D01*
X0184510Y0338880D01*
X0182981Y0338246D01*
X0181811Y0337076D01*
X0181178Y0335548D01*
X0181178Y0335184D01*
X0169014Y0323020D01*
X0169014Y0323792D01*
X0168900Y0324366D01*
X0168676Y0324906D01*
X0168352Y0325392D01*
X0167938Y0325806D01*
X0167452Y0326131D01*
X0166912Y0326354D01*
X0166338Y0326468D01*
X0163684Y0326468D01*
X0163684Y0321138D01*
X0163684Y0321138D01*
X0163684Y0326468D01*
X0161029Y0326468D01*
X0160456Y0326354D01*
X0159915Y0326131D01*
X0159429Y0325806D01*
X0159016Y0325392D01*
X0158691Y0324906D01*
X0158467Y0324366D01*
X0158353Y0323792D01*
X0158353Y0321138D01*
X0163683Y0321138D01*
X0163683Y0321138D01*
X0158353Y0321138D01*
X0158353Y0318483D01*
X0158467Y0317910D01*
X0158691Y0317369D01*
X0159016Y0316883D01*
X0159036Y0316863D01*
X0158974Y0316801D01*
X0158553Y0315783D01*
X0158553Y0309957D01*
X0158974Y0308940D01*
X0159753Y0308161D01*
X0160771Y0307739D01*
X0166596Y0307739D01*
X0167614Y0308161D01*
X0168393Y0308940D01*
X0168814Y0309957D01*
X0168814Y0313575D01*
X0168814Y0312957D02*
X0215153Y0312957D01*
X0214624Y0309021D02*
X0168427Y0309021D01*
X0168736Y0324763D02*
X0170758Y0324763D01*
X0174693Y0328699D02*
X0113363Y0328699D01*
X0114770Y0324763D02*
X0158632Y0324763D01*
X0158353Y0320828D02*
X0113894Y0320828D01*
X0117299Y0332634D02*
X0178629Y0332634D01*
X0181601Y0336570D02*
X0124829Y0336570D01*
X0115683Y0344441D02*
X0115228Y0344441D01*
X0107630Y0332634D02*
X0069711Y0332634D01*
X0069711Y0328699D02*
X0074930Y0328699D01*
X0072833Y0324763D02*
X0069711Y0324763D01*
X0069711Y0320828D02*
X0073709Y0320828D01*
X0082674Y0328699D02*
X0084930Y0328699D01*
X0096877Y0316892D02*
X0159010Y0316892D01*
X0158553Y0312957D02*
X0096877Y0312957D01*
X0096877Y0309021D02*
X0158941Y0309021D01*
X0163684Y0324763D02*
X0163684Y0324763D01*
X0176067Y0320828D02*
X0222465Y0320828D01*
X0222465Y0324763D02*
X0180002Y0324763D01*
X0183938Y0328699D02*
X0222465Y0328699D01*
X0222465Y0332634D02*
X0188975Y0332634D01*
X0189073Y0336570D02*
X0200877Y0336570D01*
X0206991Y0336570D02*
X0206991Y0336570D01*
X0206991Y0340505D02*
X0206991Y0340505D01*
X0206991Y0340626D02*
X0206991Y0340626D01*
X0206991Y0344441D02*
X0206991Y0344441D01*
X0210155Y0352312D02*
X0136976Y0352312D01*
X0133041Y0348376D02*
X0214091Y0348376D01*
X0221286Y0336570D02*
X0222223Y0336570D01*
X0230094Y0356247D02*
X0231017Y0356247D01*
X0238494Y0360183D02*
X0243790Y0360183D01*
X0243790Y0364119D02*
X0242501Y0364119D01*
X0243452Y0368054D02*
X0243790Y0368054D01*
X0243790Y0371990D02*
X0242610Y0371990D01*
X0243790Y0375925D02*
X0239127Y0375925D01*
X0243790Y0379861D02*
X0220177Y0379861D01*
X0220177Y0383796D02*
X0243790Y0383796D01*
X0243790Y0387732D02*
X0220177Y0387732D01*
X0220177Y0391667D02*
X0243790Y0391667D01*
X0243790Y0395603D02*
X0220177Y0395603D01*
X0220177Y0399538D02*
X0243790Y0399538D01*
X0243790Y0403474D02*
X0220177Y0403474D01*
X0220177Y0407409D02*
X0243790Y0407409D01*
X0243790Y0411345D02*
X0220177Y0411345D01*
X0220177Y0415280D02*
X0243790Y0415280D01*
X0243790Y0419216D02*
X0220177Y0419216D01*
X0220177Y0423151D02*
X0242920Y0423151D01*
X0244235Y0427087D02*
X0220177Y0427087D01*
X0221250Y0431022D02*
X0222259Y0431022D01*
X0223795Y0442829D02*
X0259625Y0442829D01*
X0259625Y0438893D02*
X0231405Y0438893D01*
X0232692Y0434958D02*
X0259625Y0434958D01*
X0259625Y0431022D02*
X0231093Y0431022D01*
X0249882Y0427087D02*
X0259625Y0427087D01*
X0259625Y0423151D02*
X0251197Y0423151D01*
X0250327Y0419216D02*
X0259625Y0419216D01*
X0259625Y0415280D02*
X0250327Y0415280D01*
X0250327Y0411345D02*
X0259625Y0411345D01*
X0259625Y0407409D02*
X0250327Y0407409D01*
X0250327Y0403474D02*
X0259625Y0403474D01*
X0259625Y0399538D02*
X0250327Y0399538D01*
X0250327Y0395603D02*
X0259625Y0395603D01*
X0259625Y0391667D02*
X0250327Y0391667D01*
X0250327Y0387732D02*
X0259625Y0387732D01*
X0259625Y0383796D02*
X0250327Y0383796D01*
X0250327Y0379861D02*
X0259625Y0379861D01*
X0259625Y0375925D02*
X0250327Y0375925D01*
X0250327Y0371990D02*
X0259625Y0371990D01*
X0259625Y0368054D02*
X0250327Y0368054D01*
X0250327Y0364119D02*
X0259625Y0364119D01*
X0259625Y0360183D02*
X0250327Y0360183D01*
X0250327Y0356247D02*
X0259625Y0356247D01*
X0259625Y0352312D02*
X0250327Y0352312D01*
X0250327Y0348376D02*
X0259625Y0348376D01*
X0259625Y0344441D02*
X0250327Y0344441D01*
X0250327Y0340505D02*
X0259625Y0340505D01*
X0259625Y0336570D02*
X0250327Y0336570D01*
X0253975Y0332634D02*
X0259625Y0332634D01*
X0259625Y0328699D02*
X0257910Y0328699D01*
X0258427Y0324763D02*
X0259625Y0324763D01*
X0259625Y0320828D02*
X0258427Y0320828D01*
X0258427Y0316892D02*
X0259625Y0316892D01*
X0259625Y0312957D02*
X0258427Y0312957D01*
X0258427Y0309021D02*
X0259625Y0309021D01*
X0259625Y0305086D02*
X0258427Y0305086D01*
X0258427Y0301150D02*
X0259625Y0301150D01*
X0259625Y0297215D02*
X0256652Y0297215D01*
X0259625Y0293279D02*
X0252717Y0293279D01*
X0248781Y0289344D02*
X0259625Y0289344D01*
X0259625Y0285408D02*
X0253917Y0285408D01*
X0256502Y0281473D02*
X0259625Y0281473D01*
X0259625Y0277537D02*
X0255829Y0277537D01*
X0259625Y0273602D02*
X0247935Y0273602D01*
X0244000Y0269666D02*
X0259625Y0269666D01*
X0259625Y0265731D02*
X0240064Y0265731D01*
X0237660Y0272757D02*
X0239303Y0274400D01*
X0239347Y0274382D01*
X0239471Y0274382D01*
X0225886Y0260797D01*
X0219849Y0260797D01*
X0231312Y0272260D01*
X0236459Y0272260D01*
X0237660Y0272757D01*
X0238504Y0273602D02*
X0238690Y0273602D01*
X0234755Y0269666D02*
X0228718Y0269666D01*
X0230819Y0265731D02*
X0224783Y0265731D01*
X0226884Y0261795D02*
X0220847Y0261795D01*
X0215893Y0266085D02*
X0219818Y0270010D01*
X0214892Y0270010D01*
X0215893Y0267594D01*
X0215893Y0266085D01*
X0215035Y0269666D02*
X0219474Y0269666D01*
X0215239Y0277537D02*
X0096877Y0277537D01*
X0096877Y0273602D02*
X0106051Y0273602D01*
X0102490Y0269666D02*
X0097793Y0269666D01*
X0096877Y0281473D02*
X0214565Y0281473D01*
X0217115Y0285408D02*
X0096877Y0285408D01*
X0102456Y0289344D02*
X0105147Y0289344D01*
X0112456Y0289344D02*
X0217115Y0289344D01*
X0217115Y0293279D02*
X0114770Y0293279D01*
X0113984Y0297215D02*
X0217115Y0297215D01*
X0217115Y0301150D02*
X0096877Y0301150D01*
X0096877Y0305086D02*
X0217648Y0305086D01*
X0223952Y0299604D02*
X0226607Y0302258D01*
X0226607Y0287599D01*
X0224166Y0285159D01*
X0223952Y0285373D01*
X0223952Y0299604D01*
X0225499Y0301150D02*
X0226607Y0301150D01*
X0226607Y0297215D02*
X0223952Y0297215D01*
X0223952Y0293279D02*
X0226607Y0293279D01*
X0226607Y0289344D02*
X0223952Y0289344D01*
X0223952Y0285408D02*
X0224416Y0285408D01*
X0233144Y0285730D02*
X0233144Y0298819D01*
X0233936Y0298819D01*
X0234155Y0298910D01*
X0234155Y0285170D01*
X0233915Y0285410D01*
X0233144Y0285730D01*
X0233917Y0285408D02*
X0234155Y0285408D01*
X0234155Y0289344D02*
X0233144Y0289344D01*
X0233144Y0293279D02*
X0234155Y0293279D01*
X0234155Y0297215D02*
X0233144Y0297215D01*
X0240692Y0297215D02*
X0247408Y0297215D01*
X0243870Y0301150D02*
X0251343Y0301150D01*
X0251890Y0301697D02*
X0243407Y0293214D01*
X0242487Y0292294D01*
X0241990Y0291093D01*
X0241990Y0286208D01*
X0241721Y0286319D01*
X0240692Y0286319D01*
X0240692Y0297973D01*
X0247628Y0304908D01*
X0248166Y0304634D01*
X0249090Y0304334D01*
X0250049Y0304182D01*
X0250534Y0304182D01*
X0251019Y0304182D01*
X0251890Y0304320D01*
X0251890Y0301697D01*
X0250534Y0304182D02*
X0250534Y0310350D01*
X0250534Y0310350D01*
X0250534Y0304182D01*
X0250534Y0305086D02*
X0250534Y0305086D01*
X0250534Y0309021D02*
X0250534Y0309021D01*
X0250534Y0310351D02*
X0250534Y0316519D01*
X0250534Y0310351D01*
X0250534Y0310351D01*
X0250534Y0312957D02*
X0250534Y0312957D01*
X0250534Y0316519D02*
X0251019Y0316519D01*
X0251890Y0316381D01*
X0251890Y0325474D01*
X0248527Y0328838D01*
X0248527Y0316184D01*
X0249090Y0316367D01*
X0250049Y0316519D01*
X0250534Y0316519D01*
X0251890Y0316892D02*
X0248527Y0316892D01*
X0248527Y0320828D02*
X0251890Y0320828D01*
X0251890Y0324763D02*
X0248527Y0324763D01*
X0248527Y0328699D02*
X0248666Y0328699D01*
X0241990Y0328699D02*
X0238627Y0328699D01*
X0238627Y0330238D02*
X0241099Y0332711D01*
X0241099Y0331851D01*
X0241733Y0330322D01*
X0241990Y0330065D01*
X0241990Y0316208D01*
X0241721Y0316319D01*
X0239347Y0316319D01*
X0238627Y0316021D01*
X0238627Y0330238D01*
X0241023Y0332634D02*
X0241099Y0332634D01*
X0241755Y0336570D02*
X0243785Y0336570D01*
X0243790Y0340505D02*
X0241755Y0340505D01*
X0241755Y0344441D02*
X0243790Y0344441D01*
X0243790Y0348376D02*
X0241755Y0348376D01*
X0241755Y0352312D02*
X0243790Y0352312D01*
X0243790Y0356247D02*
X0240262Y0356247D01*
X0229973Y0375925D02*
X0220584Y0375925D01*
X0224520Y0371990D02*
X0226490Y0371990D01*
X0218034Y0364119D02*
X0207068Y0364119D01*
X0211961Y0379861D02*
X0213640Y0379861D01*
X0213640Y0383796D02*
X0208025Y0383796D01*
X0204090Y0387732D02*
X0213640Y0387732D01*
X0194421Y0387732D02*
X0069711Y0387732D01*
X0069711Y0391667D02*
X0082504Y0391667D01*
X0081813Y0395603D02*
X0069711Y0395603D01*
X0069711Y0399538D02*
X0084448Y0399538D01*
X0081813Y0403474D02*
X0069711Y0403474D01*
X0069711Y0407409D02*
X0082549Y0407409D01*
X0097581Y0407409D02*
X0097581Y0407409D01*
X0097581Y0403474D02*
X0097581Y0403474D01*
X0097581Y0399538D02*
X0097581Y0399538D01*
X0097581Y0395603D02*
X0097581Y0395603D01*
X0097581Y0391667D02*
X0097581Y0391667D01*
X0094588Y0377087D02*
X0091047Y0377087D01*
X0087775Y0375732D01*
X0085270Y0373228D01*
X0083915Y0369956D01*
X0083915Y0366414D01*
X0085270Y0363142D01*
X0087775Y0360638D01*
X0091047Y0359283D01*
X0094588Y0359283D01*
X0097860Y0360638D01*
X0100365Y0363142D01*
X0101720Y0366414D01*
X0101720Y0369956D01*
X0100365Y0373228D01*
X0097860Y0375732D01*
X0094588Y0377087D01*
X0097394Y0375925D02*
X0123674Y0375925D01*
X0120191Y0371990D02*
X0100877Y0371990D01*
X0101720Y0368054D02*
X0119348Y0368054D01*
X0120299Y0364119D02*
X0100769Y0364119D01*
X0096762Y0360183D02*
X0124306Y0360183D01*
X0117581Y0391667D02*
X0117581Y0391667D01*
X0117581Y0395603D02*
X0117581Y0395603D01*
X0117581Y0399538D02*
X0117581Y0399538D01*
X0117581Y0403474D02*
X0117581Y0403474D01*
X0117581Y0407409D02*
X0117581Y0407409D01*
X0107581Y0407409D02*
X0107581Y0407409D01*
X0107581Y0403474D02*
X0107581Y0403474D01*
X0107581Y0399538D02*
X0107581Y0399538D01*
X0107581Y0395603D02*
X0107581Y0395603D01*
X0107581Y0391667D02*
X0107581Y0391667D01*
X0088241Y0375925D02*
X0069711Y0375925D01*
X0069711Y0371990D02*
X0084758Y0371990D01*
X0083915Y0368054D02*
X0069711Y0368054D01*
X0069711Y0364119D02*
X0084866Y0364119D01*
X0088873Y0360183D02*
X0069711Y0360183D01*
X0100691Y0344441D02*
X0100692Y0344441D01*
X0100691Y0340505D02*
X0100692Y0340505D01*
X0100691Y0336570D02*
X0100692Y0336570D01*
X0102674Y0328699D02*
X0104930Y0328699D01*
X0078802Y0297215D02*
X0078802Y0297215D01*
X0078802Y0293279D02*
X0078802Y0293279D01*
X0069711Y0249988D02*
X0108226Y0249988D01*
X0112161Y0246053D02*
X0069711Y0246053D01*
X0069711Y0242117D02*
X0076821Y0242117D01*
X0076872Y0242378D02*
X0076758Y0241804D01*
X0076758Y0238264D01*
X0082975Y0238264D01*
X0082975Y0238264D01*
X0082975Y0244480D01*
X0086515Y0244480D01*
X0087089Y0244366D01*
X0087629Y0244142D01*
X0088115Y0243818D01*
X0088529Y0243404D01*
X0088854Y0242918D01*
X0088886Y0242841D01*
X0090325Y0244280D01*
X0095310Y0244280D01*
X0097739Y0241851D01*
X0100168Y0244280D01*
X0105152Y0244280D01*
X0108677Y0240756D01*
X0108677Y0235772D01*
X0105152Y0232247D01*
X0101300Y0232247D01*
X0094177Y0225124D01*
X0094177Y0211901D01*
X0094257Y0211868D01*
X0095950Y0210176D01*
X0096865Y0207964D01*
X0096865Y0205571D01*
X0095950Y0203360D01*
X0094257Y0201667D01*
X0092046Y0200751D01*
X0089652Y0200751D01*
X0087441Y0201667D01*
X0085748Y0203360D01*
X0084832Y0205571D01*
X0084832Y0207964D01*
X0085748Y0210176D01*
X0087441Y0211868D01*
X0087640Y0211951D01*
X0087640Y0227128D01*
X0088137Y0228330D01*
X0092055Y0232247D01*
X0090325Y0232247D01*
X0088886Y0233687D01*
X0088854Y0233610D01*
X0088529Y0233123D01*
X0088115Y0232710D01*
X0087629Y0232385D01*
X0087089Y0232161D01*
X0086515Y0232047D01*
X0082975Y0232047D01*
X0082975Y0238264D01*
X0082975Y0244480D01*
X0079435Y0244480D01*
X0078861Y0244366D01*
X0078321Y0244142D01*
X0077835Y0243818D01*
X0077421Y0243404D01*
X0077096Y0242918D01*
X0076872Y0242378D01*
X0076758Y0238264D02*
X0076758Y0234723D01*
X0076872Y0234150D01*
X0077096Y0233610D01*
X0077421Y0233123D01*
X0077835Y0232710D01*
X0078321Y0232385D01*
X0078861Y0232161D01*
X0079435Y0232047D01*
X0082975Y0232047D01*
X0082975Y0238264D01*
X0082975Y0238264D01*
X0076758Y0238264D01*
X0076758Y0238182D02*
X0069711Y0238182D01*
X0069711Y0234246D02*
X0076853Y0234246D01*
X0069711Y0230311D02*
X0090119Y0230311D01*
X0087640Y0226375D02*
X0069711Y0226375D01*
X0069711Y0222440D02*
X0087640Y0222440D01*
X0087640Y0218504D02*
X0069711Y0218504D01*
X0069711Y0214569D02*
X0087640Y0214569D01*
X0086206Y0210633D02*
X0069711Y0210633D01*
X0069711Y0206698D02*
X0084832Y0206698D01*
X0086346Y0202762D02*
X0069711Y0202762D01*
X0069711Y0198827D02*
X0115540Y0198827D01*
X0115540Y0202762D02*
X0095352Y0202762D01*
X0096865Y0206698D02*
X0115540Y0206698D01*
X0115540Y0210633D02*
X0095492Y0210633D01*
X0094177Y0214569D02*
X0115540Y0214569D01*
X0115540Y0218504D02*
X0094177Y0218504D01*
X0094177Y0222440D02*
X0115540Y0222440D01*
X0115540Y0226375D02*
X0095428Y0226375D01*
X0099363Y0230311D02*
X0115540Y0230311D01*
X0115540Y0234246D02*
X0107151Y0234246D01*
X0108677Y0238182D02*
X0115540Y0238182D01*
X0115540Y0242117D02*
X0107315Y0242117D01*
X0113535Y0253924D02*
X0115288Y0253924D01*
X0114572Y0257859D02*
X0118860Y0257859D01*
X0118501Y0261795D02*
X0163590Y0261795D01*
X0164011Y0260780D02*
X0166515Y0258276D01*
X0169787Y0256920D01*
X0173328Y0256920D01*
X0176600Y0258276D01*
X0179105Y0260780D01*
X0180460Y0264052D01*
X0180460Y0267594D01*
X0179105Y0270866D01*
X0176600Y0273370D01*
X0173328Y0274725D01*
X0169787Y0274725D01*
X0166515Y0273370D01*
X0164011Y0270866D01*
X0162655Y0267594D01*
X0162655Y0264052D01*
X0164011Y0260780D01*
X0163231Y0257859D02*
X0167520Y0257859D01*
X0166309Y0255118D02*
X0163805Y0257622D01*
X0160533Y0258977D01*
X0156992Y0258977D01*
X0153720Y0257622D01*
X0151215Y0255118D01*
X0149860Y0251846D01*
X0149860Y0248304D01*
X0151215Y0245032D01*
X0153720Y0242528D01*
X0156992Y0241172D01*
X0160533Y0241172D01*
X0163805Y0242528D01*
X0166309Y0245032D01*
X0167665Y0248304D01*
X0167665Y0251846D01*
X0166309Y0255118D01*
X0166804Y0253924D02*
X0179882Y0253924D01*
X0183817Y0257859D02*
X0175595Y0257859D01*
X0179525Y0261795D02*
X0187753Y0261795D01*
X0191688Y0265731D02*
X0180460Y0265731D01*
X0179602Y0269666D02*
X0195624Y0269666D01*
X0199559Y0273602D02*
X0176041Y0273602D01*
X0167074Y0273602D02*
X0115017Y0273602D01*
X0118578Y0269666D02*
X0163514Y0269666D01*
X0162655Y0265731D02*
X0119436Y0265731D01*
X0127798Y0257859D02*
X0154293Y0257859D01*
X0150721Y0253924D02*
X0131371Y0253924D01*
X0132232Y0249988D02*
X0149860Y0249988D01*
X0150792Y0246053D02*
X0131299Y0246053D01*
X0127381Y0242117D02*
X0154710Y0242117D01*
X0160204Y0234246D02*
X0122077Y0234246D01*
X0122077Y0230311D02*
X0156269Y0230311D01*
X0158977Y0223774D02*
X0173215Y0238013D01*
X0173215Y0234723D01*
X0173329Y0234150D01*
X0173553Y0233610D01*
X0173878Y0233123D01*
X0174291Y0232710D01*
X0174777Y0232385D01*
X0175318Y0232161D01*
X0175891Y0232047D01*
X0179432Y0232047D01*
X0181240Y0232047D01*
X0181240Y0194532D01*
X0145320Y0158613D01*
X0145162Y0158995D01*
X0143470Y0160687D01*
X0143330Y0160745D01*
X0143330Y0162107D01*
X0157560Y0176337D01*
X0158479Y0177256D01*
X0158977Y0178457D01*
X0158977Y0223774D01*
X0158977Y0222440D02*
X0181240Y0222440D01*
X0181240Y0226375D02*
X0161578Y0226375D01*
X0158977Y0218504D02*
X0181240Y0218504D01*
X0181240Y0214569D02*
X0158977Y0214569D01*
X0158977Y0210633D02*
X0181240Y0210633D01*
X0181240Y0206698D02*
X0158977Y0206698D01*
X0158977Y0202762D02*
X0181240Y0202762D01*
X0181240Y0198827D02*
X0158977Y0198827D01*
X0158977Y0194891D02*
X0181240Y0194891D01*
X0177663Y0190956D02*
X0158977Y0190956D01*
X0158977Y0187020D02*
X0173728Y0187020D01*
X0175102Y0179149D02*
X0188650Y0179149D01*
X0189062Y0179320D02*
X0186850Y0178404D01*
X0185158Y0176711D01*
X0184242Y0174500D01*
X0184242Y0173667D01*
X0183895Y0173844D01*
X0182964Y0174146D01*
X0181998Y0174299D01*
X0181508Y0174299D01*
X0181019Y0174299D01*
X0180053Y0174146D01*
X0179122Y0173844D01*
X0178250Y0173400D01*
X0177459Y0172824D01*
X0176767Y0172132D01*
X0176192Y0171341D01*
X0175747Y0170469D01*
X0175445Y0169538D01*
X0175292Y0168572D01*
X0175292Y0168083D01*
X0181508Y0168083D01*
X0181508Y0168083D01*
X0181508Y0174299D01*
X0181508Y0168083D01*
X0181508Y0168083D01*
X0175292Y0168083D01*
X0175292Y0167593D01*
X0175445Y0166627D01*
X0175747Y0165696D01*
X0176192Y0164824D01*
X0176767Y0164033D01*
X0177459Y0163341D01*
X0178250Y0162766D01*
X0179122Y0162322D01*
X0180053Y0162019D01*
X0181019Y0161866D01*
X0181508Y0161866D01*
X0181508Y0168083D01*
X0181508Y0168083D01*
X0181508Y0161866D01*
X0181998Y0161866D01*
X0182964Y0162019D01*
X0183895Y0162322D01*
X0184767Y0162766D01*
X0185558Y0163341D01*
X0186250Y0164033D01*
X0186825Y0164824D01*
X0187269Y0165696D01*
X0187572Y0166627D01*
X0187725Y0167593D01*
X0187725Y0167840D01*
X0189062Y0167287D01*
X0191455Y0167287D01*
X0193666Y0168203D01*
X0195359Y0169895D01*
X0196275Y0172106D01*
X0196275Y0174500D01*
X0195359Y0176711D01*
X0193666Y0178404D01*
X0191455Y0179320D01*
X0189062Y0179320D01*
X0191867Y0179149D02*
X0236878Y0179149D01*
X0237290Y0179320D02*
X0235079Y0178404D01*
X0233386Y0176711D01*
X0232470Y0174500D01*
X0232470Y0173463D01*
X0230934Y0174099D01*
X0228540Y0174099D01*
X0226329Y0173183D01*
X0224636Y0171491D01*
X0223720Y0169279D01*
X0223720Y0166886D01*
X0224636Y0164675D01*
X0226329Y0162982D01*
X0228540Y0162066D01*
X0230934Y0162066D01*
X0233145Y0162982D01*
X0234837Y0164675D01*
X0235753Y0166886D01*
X0235753Y0167923D01*
X0237290Y0167287D01*
X0239684Y0167287D01*
X0241895Y0168203D01*
X0243587Y0169895D01*
X0244503Y0172106D01*
X0244503Y0174500D01*
X0243587Y0176711D01*
X0241895Y0178404D01*
X0239684Y0179320D01*
X0237290Y0179320D01*
X0240095Y0179149D02*
X0259625Y0179149D01*
X0259625Y0175214D02*
X0244208Y0175214D01*
X0244160Y0171278D02*
X0259625Y0171278D01*
X0259625Y0167343D02*
X0239819Y0167343D01*
X0237155Y0167343D02*
X0235753Y0167343D01*
X0233570Y0163407D02*
X0259625Y0163407D01*
X0259625Y0159472D02*
X0243110Y0159472D01*
X0243587Y0158995D02*
X0241895Y0160687D01*
X0239684Y0161603D01*
X0237290Y0161603D01*
X0235079Y0160687D01*
X0233386Y0158995D01*
X0232470Y0156783D01*
X0232470Y0154390D01*
X0233386Y0152179D01*
X0235079Y0150486D01*
X0237290Y0149570D01*
X0239684Y0149570D01*
X0241895Y0150486D01*
X0243587Y0152179D01*
X0244503Y0154390D01*
X0244503Y0156783D01*
X0243587Y0158995D01*
X0244503Y0155536D02*
X0259625Y0155536D01*
X0259625Y0151600D02*
X0243009Y0151600D01*
X0244302Y0142870D02*
X0232671Y0142870D01*
X0231518Y0141717D01*
X0231518Y0130086D01*
X0232671Y0128933D01*
X0244302Y0128933D01*
X0245455Y0130086D01*
X0245455Y0141717D01*
X0244302Y0142870D01*
X0245455Y0139794D02*
X0259625Y0139794D01*
X0259625Y0143729D02*
X0139682Y0143729D01*
X0135539Y0151600D02*
X0122077Y0151600D01*
X0122077Y0147665D02*
X0134373Y0147665D01*
X0130437Y0143729D02*
X0122077Y0143729D01*
X0122077Y0139794D02*
X0127690Y0139794D01*
X0127690Y0135858D02*
X0122077Y0135858D01*
X0122077Y0131923D02*
X0127690Y0131923D01*
X0127690Y0127987D02*
X0122077Y0127987D01*
X0122077Y0124052D02*
X0126944Y0124052D01*
X0125973Y0120116D02*
X0122077Y0120116D01*
X0122077Y0116181D02*
X0125132Y0116181D01*
X0127176Y0112245D02*
X0122077Y0112245D01*
X0122967Y0108310D02*
X0135457Y0108310D01*
X0134961Y0107814D02*
X0134045Y0105602D01*
X0134045Y0103209D01*
X0134961Y0100997D01*
X0136653Y0099305D01*
X0138865Y0098389D01*
X0141258Y0098389D01*
X0143470Y0099305D01*
X0145162Y0100997D01*
X0146078Y0103209D01*
X0146078Y0105602D01*
X0145162Y0107814D01*
X0143470Y0109506D01*
X0141258Y0110422D01*
X0138865Y0110422D01*
X0136653Y0109506D01*
X0134961Y0107814D01*
X0134045Y0104374D02*
X0096865Y0104374D01*
X0096865Y0103209D02*
X0095950Y0100997D01*
X0094257Y0099305D01*
X0092046Y0098389D01*
X0089652Y0098389D01*
X0087441Y0099305D01*
X0085748Y0100997D01*
X0084832Y0103209D01*
X0084832Y0105602D01*
X0085748Y0107814D01*
X0087441Y0109506D01*
X0089652Y0110422D01*
X0092046Y0110422D01*
X0094257Y0109506D01*
X0095950Y0107814D01*
X0096865Y0105602D01*
X0096865Y0103209D01*
X0095391Y0100439D02*
X0135520Y0100439D01*
X0134246Y0091689D02*
X0133093Y0090536D01*
X0133093Y0078905D01*
X0134246Y0077752D01*
X0145877Y0077752D01*
X0147030Y0078905D01*
X0147030Y0090536D01*
X0145877Y0091689D01*
X0134246Y0091689D01*
X0133093Y0088632D02*
X0097817Y0088632D01*
X0097817Y0090536D02*
X0096664Y0091689D01*
X0085034Y0091689D01*
X0083880Y0090536D01*
X0083880Y0078905D01*
X0085034Y0077752D01*
X0096664Y0077752D01*
X0097817Y0078905D01*
X0097817Y0090536D01*
X0097817Y0084697D02*
X0133093Y0084697D01*
X0133093Y0080761D02*
X0097817Y0080761D01*
X0092364Y0076826D02*
X0138546Y0076826D01*
X0141577Y0076826D02*
X0188743Y0076826D01*
X0191773Y0076826D02*
X0236972Y0076826D01*
X0240002Y0076826D02*
X0259625Y0076826D01*
X0259625Y0080761D02*
X0245455Y0080761D01*
X0245455Y0078905D02*
X0244302Y0077752D01*
X0232671Y0077752D01*
X0231518Y0078905D01*
X0231518Y0090536D01*
X0232671Y0091689D01*
X0244302Y0091689D01*
X0245455Y0090536D01*
X0245455Y0078905D01*
X0245455Y0084697D02*
X0259625Y0084697D01*
X0259625Y0088632D02*
X0245455Y0088632D01*
X0241895Y0099305D02*
X0243587Y0100997D01*
X0244503Y0103209D01*
X0244503Y0105602D01*
X0243587Y0107814D01*
X0241895Y0109506D01*
X0239684Y0110422D01*
X0237290Y0110422D01*
X0235079Y0109506D01*
X0233386Y0107814D01*
X0232470Y0105602D01*
X0232470Y0103209D01*
X0233386Y0100997D01*
X0235079Y0099305D01*
X0237290Y0098389D01*
X0239684Y0098389D01*
X0241895Y0099305D01*
X0243029Y0100439D02*
X0259625Y0100439D01*
X0259625Y0104374D02*
X0244503Y0104374D01*
X0243091Y0108310D02*
X0259625Y0108310D01*
X0259625Y0112245D02*
X0233872Y0112245D01*
X0233787Y0112160D02*
X0234478Y0112852D01*
X0235054Y0113643D01*
X0235498Y0114515D01*
X0235800Y0115446D01*
X0235953Y0116412D01*
X0235953Y0116659D01*
X0237290Y0116106D01*
X0239684Y0116106D01*
X0241895Y0117021D01*
X0243587Y0118714D01*
X0244503Y0120925D01*
X0244503Y0123319D01*
X0243587Y0125530D01*
X0241895Y0127223D01*
X0239684Y0128139D01*
X0237290Y0128139D01*
X0235079Y0127223D01*
X0233386Y0125530D01*
X0232470Y0123319D01*
X0232470Y0122486D01*
X0232123Y0122663D01*
X0231192Y0122965D01*
X0230226Y0123118D01*
X0229737Y0123118D01*
X0229737Y0116902D01*
X0229737Y0116902D01*
X0229737Y0123118D01*
X0229247Y0123118D01*
X0228281Y0122965D01*
X0227350Y0122663D01*
X0226479Y0122218D01*
X0225687Y0121643D01*
X0224995Y0120951D01*
X0224420Y0120160D01*
X0223976Y0119288D01*
X0223673Y0118357D01*
X0223520Y0117391D01*
X0223520Y0116902D01*
X0229737Y0116902D01*
X0229737Y0116902D01*
X0229737Y0116901D02*
X0229737Y0110685D01*
X0230226Y0110685D01*
X0231192Y0110838D01*
X0232123Y0111140D01*
X0232995Y0111585D01*
X0233787Y0112160D01*
X0233882Y0108310D02*
X0194863Y0108310D01*
X0195359Y0107814D02*
X0193666Y0109506D01*
X0191455Y0110422D01*
X0189062Y0110422D01*
X0186850Y0109506D01*
X0185158Y0107814D01*
X0184242Y0105602D01*
X0184242Y0103209D01*
X0185158Y0100997D01*
X0186850Y0099305D01*
X0189062Y0098389D01*
X0191455Y0098389D01*
X0193666Y0099305D01*
X0195359Y0100997D01*
X0196275Y0103209D01*
X0196275Y0105602D01*
X0195359Y0107814D01*
X0196275Y0104374D02*
X0232470Y0104374D01*
X0233945Y0100439D02*
X0194800Y0100439D01*
X0196074Y0091689D02*
X0184443Y0091689D01*
X0183290Y0090536D01*
X0183290Y0078905D01*
X0184443Y0077752D01*
X0196074Y0077752D01*
X0197227Y0078905D01*
X0197227Y0090536D01*
X0196074Y0091689D01*
X0197227Y0088632D02*
X0231518Y0088632D01*
X0231518Y0084697D02*
X0197227Y0084697D01*
X0197227Y0080761D02*
X0231518Y0080761D01*
X0232782Y0072890D02*
X0195963Y0072890D01*
X0195948Y0068955D02*
X0224408Y0068955D01*
X0224420Y0068979D02*
X0223976Y0068107D01*
X0223673Y0067176D01*
X0223520Y0066210D01*
X0223520Y0065721D01*
X0229737Y0065721D01*
X0229737Y0071937D01*
X0229247Y0071937D01*
X0228281Y0071784D01*
X0227350Y0071482D01*
X0226479Y0071037D01*
X0225687Y0070462D01*
X0224995Y0069770D01*
X0224420Y0068979D01*
X0223554Y0065019D02*
X0191684Y0065019D01*
X0188833Y0065019D02*
X0187691Y0065019D01*
X0184554Y0072890D02*
X0145766Y0072890D01*
X0145751Y0068955D02*
X0176179Y0068955D01*
X0175325Y0065019D02*
X0141487Y0065019D01*
X0138636Y0065019D02*
X0137494Y0065019D01*
X0134357Y0072890D02*
X0096554Y0072890D01*
X0096538Y0068955D02*
X0125982Y0068955D01*
X0125129Y0065019D02*
X0092274Y0065019D01*
X0089424Y0065019D02*
X0088282Y0065019D01*
X0085144Y0072890D02*
X0069711Y0072890D01*
X0069711Y0068955D02*
X0076770Y0068955D01*
X0076782Y0068979D02*
X0076338Y0068107D01*
X0076035Y0067176D01*
X0075882Y0066210D01*
X0075882Y0065721D01*
X0082099Y0065721D01*
X0082099Y0071937D01*
X0081610Y0071937D01*
X0080643Y0071784D01*
X0079713Y0071482D01*
X0078841Y0071037D01*
X0078049Y0070462D01*
X0077357Y0069770D01*
X0076782Y0068979D01*
X0075916Y0065019D02*
X0069711Y0065019D01*
X0069711Y0076826D02*
X0089334Y0076826D01*
X0083880Y0080761D02*
X0069711Y0080761D01*
X0069711Y0084697D02*
X0083880Y0084697D01*
X0083880Y0088632D02*
X0069711Y0088632D01*
X0069711Y0092568D02*
X0259625Y0092568D01*
X0259625Y0096503D02*
X0069711Y0096503D01*
X0069711Y0100439D02*
X0086307Y0100439D01*
X0084832Y0104374D02*
X0069711Y0104374D01*
X0069711Y0108310D02*
X0086245Y0108310D01*
X0084485Y0111140D02*
X0085357Y0111585D01*
X0086149Y0112160D01*
X0086841Y0112852D01*
X0087416Y0113643D01*
X0087860Y0114515D01*
X0088162Y0115446D01*
X0088315Y0116412D01*
X0088315Y0116659D01*
X0089652Y0116106D01*
X0092046Y0116106D01*
X0094257Y0117021D01*
X0095950Y0118714D01*
X0096865Y0120925D01*
X0096865Y0123319D01*
X0095950Y0125530D01*
X0094257Y0127223D01*
X0092046Y0128139D01*
X0089652Y0128139D01*
X0087441Y0127223D01*
X0085748Y0125530D01*
X0084832Y0123319D01*
X0084832Y0122486D01*
X0084485Y0122663D01*
X0083555Y0122965D01*
X0082588Y0123118D01*
X0082099Y0123118D01*
X0082099Y0116902D01*
X0082099Y0116902D01*
X0082099Y0123118D01*
X0081610Y0123118D01*
X0080643Y0122965D01*
X0079713Y0122663D01*
X0078841Y0122218D01*
X0078049Y0121643D01*
X0077357Y0120951D01*
X0076782Y0120160D01*
X0076338Y0119288D01*
X0076035Y0118357D01*
X0075882Y0117391D01*
X0075882Y0116902D01*
X0082099Y0116902D01*
X0082099Y0116902D01*
X0075882Y0116902D01*
X0075882Y0116412D01*
X0076035Y0115446D01*
X0076338Y0114515D01*
X0076782Y0113643D01*
X0077357Y0112852D01*
X0078049Y0112160D01*
X0078841Y0111585D01*
X0079713Y0111140D01*
X0080643Y0110838D01*
X0081610Y0110685D01*
X0082099Y0110685D01*
X0082588Y0110685D01*
X0083555Y0110838D01*
X0084485Y0111140D01*
X0086234Y0112245D02*
X0115540Y0112245D01*
X0115540Y0116181D02*
X0092227Y0116181D01*
X0089470Y0116181D02*
X0088279Y0116181D01*
X0085136Y0124052D02*
X0069711Y0124052D01*
X0069711Y0127987D02*
X0089287Y0127987D01*
X0092411Y0127987D02*
X0115540Y0127987D01*
X0115540Y0124052D02*
X0096562Y0124052D01*
X0096530Y0120116D02*
X0115540Y0120116D01*
X0115540Y0131923D02*
X0097817Y0131923D01*
X0097817Y0130086D02*
X0096664Y0128933D01*
X0085034Y0128933D01*
X0083880Y0130086D01*
X0083880Y0141717D01*
X0085034Y0142870D01*
X0096664Y0142870D01*
X0097817Y0141717D01*
X0097817Y0130086D01*
X0097817Y0135858D02*
X0115540Y0135858D01*
X0115540Y0139794D02*
X0097817Y0139794D01*
X0094257Y0150486D02*
X0092046Y0149570D01*
X0089652Y0149570D01*
X0087441Y0150486D01*
X0085748Y0152179D01*
X0084832Y0154390D01*
X0084832Y0156783D01*
X0085748Y0158995D01*
X0087441Y0160687D01*
X0089652Y0161603D01*
X0092046Y0161603D01*
X0094257Y0160687D01*
X0095950Y0158995D01*
X0096865Y0156783D01*
X0096865Y0154390D01*
X0095950Y0152179D01*
X0094257Y0150486D01*
X0095371Y0151600D02*
X0115540Y0151600D01*
X0115540Y0147665D02*
X0069711Y0147665D01*
X0069711Y0151600D02*
X0086326Y0151600D01*
X0084832Y0155536D02*
X0069711Y0155536D01*
X0069711Y0159472D02*
X0086225Y0159472D01*
X0085507Y0162982D02*
X0083296Y0162066D01*
X0080902Y0162066D01*
X0078691Y0162982D01*
X0076998Y0164675D01*
X0076082Y0166886D01*
X0076082Y0169279D01*
X0076998Y0171491D01*
X0078691Y0173183D01*
X0080902Y0174099D01*
X0083296Y0174099D01*
X0084832Y0173463D01*
X0084832Y0174500D01*
X0085748Y0176711D01*
X0087441Y0178404D01*
X0089652Y0179320D01*
X0092046Y0179320D01*
X0094257Y0178404D01*
X0095950Y0176711D01*
X0096865Y0174500D01*
X0096865Y0172106D01*
X0095950Y0169895D01*
X0094257Y0168203D01*
X0092046Y0167287D01*
X0089652Y0167287D01*
X0088115Y0167923D01*
X0088115Y0166886D01*
X0087200Y0164675D01*
X0085507Y0162982D01*
X0085932Y0163407D02*
X0115540Y0163407D01*
X0115540Y0159472D02*
X0095473Y0159472D01*
X0096865Y0155536D02*
X0115540Y0155536D01*
X0122077Y0155536D02*
X0134045Y0155536D01*
X0135438Y0159472D02*
X0122077Y0159472D01*
X0122077Y0163407D02*
X0127479Y0163407D01*
X0125295Y0167343D02*
X0122077Y0167343D01*
X0122077Y0171278D02*
X0126123Y0171278D01*
X0122077Y0175214D02*
X0134341Y0175214D01*
X0134246Y0180114D02*
X0145877Y0180114D01*
X0147030Y0181267D01*
X0147030Y0192898D01*
X0145877Y0194051D01*
X0134246Y0194051D01*
X0133093Y0192898D01*
X0133093Y0181267D01*
X0134246Y0180114D01*
X0133093Y0183085D02*
X0122077Y0183085D01*
X0122077Y0187020D02*
X0133093Y0187020D01*
X0133093Y0190956D02*
X0122077Y0190956D01*
X0122077Y0194891D02*
X0152440Y0194891D01*
X0152440Y0190956D02*
X0147030Y0190956D01*
X0147030Y0187020D02*
X0152440Y0187020D01*
X0152440Y0183085D02*
X0147030Y0183085D01*
X0151128Y0179149D02*
X0141670Y0179149D01*
X0138453Y0179149D02*
X0122077Y0179149D01*
X0115540Y0179149D02*
X0092457Y0179149D01*
X0089240Y0179149D02*
X0069711Y0179149D01*
X0069711Y0175214D02*
X0085128Y0175214D01*
X0085034Y0180114D02*
X0096664Y0180114D01*
X0097817Y0181267D01*
X0097817Y0192898D01*
X0096664Y0194051D01*
X0085034Y0194051D01*
X0083880Y0192898D01*
X0083880Y0181267D01*
X0085034Y0180114D01*
X0083880Y0183085D02*
X0069711Y0183085D01*
X0069711Y0187020D02*
X0083880Y0187020D01*
X0083880Y0190956D02*
X0069711Y0190956D01*
X0069711Y0194891D02*
X0115540Y0194891D01*
X0115540Y0190956D02*
X0097817Y0190956D01*
X0097817Y0187020D02*
X0115540Y0187020D01*
X0115540Y0183085D02*
X0097817Y0183085D01*
X0096570Y0175214D02*
X0115540Y0175214D01*
X0115540Y0171278D02*
X0096522Y0171278D01*
X0092181Y0167343D02*
X0115540Y0167343D01*
X0115540Y0143729D02*
X0069711Y0143729D01*
X0069711Y0139794D02*
X0083880Y0139794D01*
X0083880Y0135858D02*
X0069711Y0135858D01*
X0069711Y0131923D02*
X0083880Y0131923D01*
X0082099Y0120116D02*
X0082099Y0120116D01*
X0082099Y0116901D02*
X0082099Y0110685D01*
X0082099Y0116901D01*
X0082099Y0116901D01*
X0082099Y0116181D02*
X0082099Y0116181D01*
X0082099Y0112245D02*
X0082099Y0112245D01*
X0077964Y0112245D02*
X0069711Y0112245D01*
X0069711Y0116181D02*
X0075919Y0116181D01*
X0076760Y0120116D02*
X0069711Y0120116D01*
X0069711Y0163407D02*
X0078266Y0163407D01*
X0076082Y0167343D02*
X0069711Y0167343D01*
X0069711Y0171278D02*
X0076910Y0171278D01*
X0088115Y0167343D02*
X0089517Y0167343D01*
X0095453Y0108310D02*
X0114649Y0108310D01*
X0131311Y0112245D02*
X0131312Y0112245D01*
X0131311Y0116181D02*
X0131312Y0116181D01*
X0135447Y0112245D02*
X0177373Y0112245D01*
X0177459Y0112160D02*
X0178250Y0111585D01*
X0179122Y0111140D01*
X0180053Y0110838D01*
X0181019Y0110685D01*
X0181508Y0110685D01*
X0181508Y0116901D01*
X0181508Y0116901D01*
X0181508Y0116902D02*
X0175292Y0116902D01*
X0181508Y0116902D01*
X0181508Y0123118D01*
X0181019Y0123118D01*
X0180053Y0122965D01*
X0179122Y0122663D01*
X0178250Y0122218D01*
X0177459Y0121643D01*
X0176767Y0120951D01*
X0176192Y0120160D01*
X0175747Y0119288D01*
X0175445Y0118357D01*
X0175292Y0117391D01*
X0175292Y0116902D01*
X0175292Y0116412D01*
X0175445Y0115446D01*
X0175747Y0114515D01*
X0176192Y0113643D01*
X0176767Y0112852D01*
X0177459Y0112160D01*
X0175329Y0116181D02*
X0141440Y0116181D01*
X0138683Y0116181D02*
X0137491Y0116181D01*
X0144666Y0108310D02*
X0185654Y0108310D01*
X0183895Y0111140D02*
X0184767Y0111585D01*
X0185558Y0112160D01*
X0186250Y0112852D01*
X0186825Y0113643D01*
X0187269Y0114515D01*
X0187572Y0115446D01*
X0187725Y0116412D01*
X0187725Y0116659D01*
X0189062Y0116106D01*
X0191455Y0116106D01*
X0193666Y0117021D01*
X0195359Y0118714D01*
X0196275Y0120925D01*
X0196275Y0123319D01*
X0195359Y0125530D01*
X0193666Y0127223D01*
X0191455Y0128139D01*
X0189062Y0128139D01*
X0186850Y0127223D01*
X0185158Y0125530D01*
X0184242Y0123319D01*
X0184242Y0122486D01*
X0183895Y0122663D01*
X0182964Y0122965D01*
X0181998Y0123118D01*
X0181508Y0123118D01*
X0181508Y0116902D01*
X0181508Y0116902D01*
X0181508Y0116902D01*
X0181508Y0116901D02*
X0181508Y0110685D01*
X0181998Y0110685D01*
X0182964Y0110838D01*
X0183895Y0111140D01*
X0185644Y0112245D02*
X0225602Y0112245D01*
X0225687Y0112160D02*
X0226479Y0111585D01*
X0227350Y0111140D01*
X0228281Y0110838D01*
X0229247Y0110685D01*
X0229737Y0110685D01*
X0229737Y0116901D01*
X0229737Y0116901D01*
X0229737Y0116902D02*
X0223520Y0116902D01*
X0223520Y0116412D01*
X0223673Y0115446D01*
X0223976Y0114515D01*
X0224420Y0113643D01*
X0224995Y0112852D01*
X0225687Y0112160D01*
X0229737Y0112245D02*
X0229737Y0112245D01*
X0229737Y0116181D02*
X0229737Y0116181D01*
X0229737Y0120116D02*
X0229737Y0120116D01*
X0232774Y0124052D02*
X0195971Y0124052D01*
X0195940Y0120116D02*
X0224398Y0120116D01*
X0223557Y0116181D02*
X0191637Y0116181D01*
X0188880Y0116181D02*
X0187688Y0116181D01*
X0184546Y0124052D02*
X0145774Y0124052D01*
X0145743Y0120116D02*
X0176169Y0120116D01*
X0181508Y0120116D02*
X0181508Y0120116D01*
X0181508Y0116181D02*
X0181508Y0116181D01*
X0181508Y0112245D02*
X0181508Y0112245D01*
X0184242Y0104374D02*
X0146078Y0104374D01*
X0144603Y0100439D02*
X0185717Y0100439D01*
X0183290Y0088632D02*
X0147030Y0088632D01*
X0147030Y0084697D02*
X0183290Y0084697D01*
X0183290Y0080761D02*
X0147030Y0080761D01*
X0131311Y0068955D02*
X0131312Y0068955D01*
X0134227Y0127987D02*
X0138500Y0127987D01*
X0141623Y0127987D02*
X0188697Y0127987D01*
X0191820Y0127987D02*
X0236925Y0127987D01*
X0240049Y0127987D02*
X0259625Y0127987D01*
X0259625Y0124052D02*
X0244200Y0124052D01*
X0244168Y0120116D02*
X0259625Y0120116D01*
X0259625Y0116181D02*
X0239865Y0116181D01*
X0237108Y0116181D02*
X0235917Y0116181D01*
X0231518Y0131923D02*
X0197227Y0131923D01*
X0197227Y0130086D02*
X0196074Y0128933D01*
X0184443Y0128933D01*
X0183290Y0130086D01*
X0183290Y0141717D01*
X0184443Y0142870D01*
X0196074Y0142870D01*
X0197227Y0141717D01*
X0197227Y0130086D01*
X0197227Y0135858D02*
X0231518Y0135858D01*
X0231518Y0139794D02*
X0197227Y0139794D01*
X0193666Y0150486D02*
X0191455Y0149570D01*
X0189062Y0149570D01*
X0186850Y0150486D01*
X0185158Y0152179D01*
X0184242Y0154390D01*
X0184242Y0156783D01*
X0185158Y0158995D01*
X0186850Y0160687D01*
X0189062Y0161603D01*
X0191455Y0161603D01*
X0193666Y0160687D01*
X0195359Y0158995D01*
X0196275Y0156783D01*
X0196275Y0154390D01*
X0195359Y0152179D01*
X0193666Y0150486D01*
X0194781Y0151600D02*
X0233964Y0151600D01*
X0232470Y0155536D02*
X0196275Y0155536D01*
X0194882Y0159472D02*
X0233863Y0159472D01*
X0225904Y0163407D02*
X0185624Y0163407D01*
X0185635Y0159472D02*
X0155424Y0159472D01*
X0159359Y0163407D02*
X0177393Y0163407D01*
X0175332Y0167343D02*
X0163295Y0167343D01*
X0167230Y0171278D02*
X0176160Y0171278D01*
X0181508Y0171278D02*
X0181508Y0171278D01*
X0181508Y0167343D02*
X0181508Y0167343D01*
X0181508Y0163407D02*
X0181508Y0163407D01*
X0184242Y0155536D02*
X0151488Y0155536D01*
X0150115Y0163407D02*
X0144630Y0163407D01*
X0144685Y0159472D02*
X0146179Y0159472D01*
X0147553Y0151600D02*
X0185736Y0151600D01*
X0183290Y0139794D02*
X0147030Y0139794D01*
X0147030Y0135858D02*
X0183290Y0135858D01*
X0183290Y0131923D02*
X0147030Y0131923D01*
X0143617Y0147665D02*
X0259625Y0147665D01*
X0259625Y0135858D02*
X0245455Y0135858D01*
X0245455Y0131923D02*
X0259625Y0131923D01*
X0244302Y0180114D02*
X0245455Y0181267D01*
X0245455Y0192898D01*
X0244302Y0194051D01*
X0232671Y0194051D01*
X0231518Y0192898D01*
X0231518Y0181267D01*
X0232671Y0180114D01*
X0244302Y0180114D01*
X0245455Y0183085D02*
X0259625Y0183085D01*
X0259625Y0187020D02*
X0245455Y0187020D01*
X0245455Y0190956D02*
X0259625Y0190956D01*
X0259625Y0194891D02*
X0187777Y0194891D01*
X0187777Y0198827D02*
X0259625Y0198827D01*
X0259625Y0202762D02*
X0242990Y0202762D01*
X0243587Y0203360D02*
X0244503Y0205571D01*
X0244503Y0207964D01*
X0243587Y0210176D01*
X0241895Y0211868D01*
X0241777Y0211917D01*
X0241777Y0213424D01*
X0244852Y0216499D01*
X0248853Y0216499D01*
X0252377Y0220024D01*
X0252377Y0225008D01*
X0248853Y0228532D01*
X0243869Y0228532D01*
X0241439Y0226103D01*
X0239010Y0228532D01*
X0234026Y0228532D01*
X0232586Y0227093D01*
X0232554Y0227170D01*
X0232230Y0227656D01*
X0231816Y0228070D01*
X0231330Y0228394D01*
X0230790Y0228618D01*
X0230216Y0228732D01*
X0226676Y0228732D01*
X0226676Y0222516D01*
X0226676Y0222516D01*
X0226676Y0228732D01*
X0223135Y0228732D01*
X0222562Y0228618D01*
X0222022Y0228394D01*
X0221535Y0228070D01*
X0221122Y0227656D01*
X0220797Y0227170D01*
X0220573Y0226630D01*
X0220459Y0226056D01*
X0220459Y0222516D01*
X0226676Y0222516D01*
X0226676Y0216299D01*
X0230216Y0216299D01*
X0230790Y0216413D01*
X0231330Y0216637D01*
X0231816Y0216962D01*
X0232230Y0217375D01*
X0232554Y0217862D01*
X0232586Y0217939D01*
X0234026Y0216499D01*
X0235683Y0216499D01*
X0235240Y0215428D01*
X0235240Y0211935D01*
X0235079Y0211868D01*
X0233386Y0210176D01*
X0232470Y0207964D01*
X0232470Y0205571D01*
X0233386Y0203360D01*
X0235079Y0201667D01*
X0237290Y0200751D01*
X0239684Y0200751D01*
X0241895Y0201667D01*
X0243587Y0203360D01*
X0244503Y0206698D02*
X0259625Y0206698D01*
X0259625Y0210633D02*
X0243130Y0210633D01*
X0242921Y0214569D02*
X0259625Y0214569D01*
X0259625Y0218504D02*
X0250858Y0218504D01*
X0252377Y0222440D02*
X0259625Y0222440D01*
X0259625Y0226375D02*
X0251010Y0226375D01*
X0259625Y0230311D02*
X0202385Y0230311D01*
X0202385Y0226375D02*
X0220523Y0226375D01*
X0220459Y0222516D02*
X0220459Y0218975D01*
X0220573Y0218402D01*
X0220797Y0217862D01*
X0221122Y0217375D01*
X0221535Y0216962D01*
X0222022Y0216637D01*
X0222562Y0216413D01*
X0223135Y0216299D01*
X0226676Y0216299D01*
X0226676Y0222516D01*
X0226676Y0222516D01*
X0226676Y0222516D01*
X0220459Y0222516D01*
X0220459Y0222440D02*
X0202385Y0222440D01*
X0202385Y0218504D02*
X0220553Y0218504D01*
X0226676Y0218504D02*
X0226676Y0218504D01*
X0226676Y0222440D02*
X0226676Y0222440D01*
X0226676Y0226375D02*
X0226676Y0226375D01*
X0235240Y0214569D02*
X0202217Y0214569D01*
X0198746Y0210633D02*
X0233844Y0210633D01*
X0232470Y0206698D02*
X0196275Y0206698D01*
X0194762Y0202762D02*
X0233984Y0202762D01*
X0231518Y0190956D02*
X0197227Y0190956D01*
X0197227Y0187020D02*
X0231518Y0187020D01*
X0231518Y0183085D02*
X0197227Y0183085D01*
X0195979Y0175214D02*
X0232766Y0175214D01*
X0224548Y0171278D02*
X0195932Y0171278D01*
X0191590Y0167343D02*
X0223720Y0167343D01*
X0191595Y0212726D02*
X0195848Y0216980D01*
X0195848Y0233024D01*
X0194195Y0234676D01*
X0191766Y0232247D01*
X0187777Y0232247D01*
X0187777Y0212252D01*
X0189062Y0212784D01*
X0191455Y0212784D01*
X0191595Y0212726D01*
X0193437Y0214569D02*
X0187777Y0214569D01*
X0187777Y0218504D02*
X0195848Y0218504D01*
X0195848Y0222440D02*
X0187777Y0222440D01*
X0187777Y0226375D02*
X0195848Y0226375D01*
X0195848Y0230311D02*
X0187777Y0230311D01*
X0193765Y0234246D02*
X0194625Y0234246D01*
X0195549Y0246397D02*
X0203862Y0254710D01*
X0207218Y0254710D01*
X0198905Y0246397D01*
X0195549Y0246397D01*
X0199141Y0249988D02*
X0202496Y0249988D01*
X0203076Y0253924D02*
X0206432Y0253924D01*
X0207805Y0246053D02*
X0210832Y0246053D01*
X0214750Y0242117D02*
X0203870Y0242117D01*
X0205133Y0238182D02*
X0259625Y0238182D01*
X0259625Y0242117D02*
X0258287Y0242117D01*
X0259625Y0234246D02*
X0203608Y0234246D01*
X0193832Y0253924D02*
X0189126Y0253924D01*
X0189896Y0249988D02*
X0185191Y0249988D01*
X0185961Y0246053D02*
X0181255Y0246053D01*
X0179683Y0244480D02*
X0198430Y0263227D01*
X0199444Y0260780D01*
X0200066Y0260158D01*
X0199737Y0259830D01*
X0184061Y0244153D01*
X0183546Y0244366D01*
X0182972Y0244480D01*
X0179683Y0244480D01*
X0179432Y0238264D02*
X0179432Y0232047D01*
X0179432Y0238264D01*
X0179432Y0238264D01*
X0179432Y0238182D02*
X0179432Y0238182D01*
X0179432Y0234246D02*
X0179432Y0234246D01*
X0181240Y0230311D02*
X0165513Y0230311D01*
X0169449Y0234246D02*
X0173310Y0234246D01*
X0168075Y0242117D02*
X0162815Y0242117D01*
X0164140Y0238182D02*
X0122077Y0238182D01*
X0122077Y0226375D02*
X0125050Y0226375D01*
X0124987Y0222440D02*
X0122077Y0222440D01*
X0122077Y0218504D02*
X0125080Y0218504D01*
X0122077Y0214569D02*
X0138277Y0214569D01*
X0135418Y0210633D02*
X0122077Y0210633D01*
X0122077Y0206698D02*
X0134045Y0206698D01*
X0135558Y0202762D02*
X0122077Y0202762D01*
X0122077Y0198827D02*
X0152440Y0198827D01*
X0152440Y0202762D02*
X0144565Y0202762D01*
X0146078Y0206698D02*
X0152440Y0206698D01*
X0152440Y0210633D02*
X0144705Y0210633D01*
X0147521Y0214569D02*
X0152440Y0214569D01*
X0146239Y0226375D02*
X0145695Y0226375D01*
X0131203Y0226375D02*
X0131203Y0226375D01*
X0131203Y0222516D02*
X0131203Y0222516D01*
X0131203Y0222440D02*
X0131203Y0222440D01*
X0131203Y0218504D02*
X0131203Y0218504D01*
X0145782Y0175214D02*
X0147192Y0175214D01*
X0148566Y0167343D02*
X0154050Y0167343D01*
X0152501Y0171278D02*
X0157986Y0171278D01*
X0156437Y0175214D02*
X0161921Y0175214D01*
X0158977Y0179149D02*
X0165857Y0179149D01*
X0169792Y0183085D02*
X0158977Y0183085D01*
X0171166Y0175214D02*
X0184537Y0175214D01*
X0187685Y0167343D02*
X0188927Y0167343D01*
X0183290Y0183085D02*
X0179037Y0183085D01*
X0182973Y0187020D02*
X0183290Y0187020D01*
X0172011Y0246053D02*
X0166732Y0246053D01*
X0167665Y0249988D02*
X0175946Y0249988D01*
X0193062Y0257859D02*
X0197767Y0257859D01*
X0196997Y0261795D02*
X0199023Y0261795D01*
X0222854Y0242117D02*
X0250183Y0242117D01*
X0246265Y0246053D02*
X0226772Y0246053D01*
X0227704Y0249988D02*
X0245332Y0249988D01*
X0246193Y0253924D02*
X0226843Y0253924D01*
X0232193Y0257859D02*
X0249766Y0257859D01*
X0258704Y0257859D02*
X0259625Y0257859D01*
X0259625Y0261795D02*
X0236129Y0261795D01*
X0240692Y0289344D02*
X0241990Y0289344D01*
X0240692Y0293279D02*
X0243472Y0293279D01*
X0241990Y0316892D02*
X0238627Y0316892D01*
X0238627Y0320828D02*
X0241990Y0320828D01*
X0241990Y0324763D02*
X0238627Y0324763D01*
X0194540Y0375925D02*
X0170176Y0375925D01*
X0168977Y0371990D02*
X0191057Y0371990D01*
X0190214Y0368054D02*
X0170405Y0368054D01*
X0168715Y0364119D02*
X0191165Y0364119D01*
X0190485Y0391667D02*
X0132658Y0391667D01*
X0133350Y0395603D02*
X0186550Y0395603D01*
X0206991Y0431022D02*
X0206991Y0431022D01*
X0206991Y0434958D02*
X0206991Y0434958D01*
X0137180Y0434958D02*
X0135472Y0434958D01*
X0115960Y0431022D02*
X0114951Y0431022D01*
X0115263Y0438893D02*
X0115647Y0438893D01*
X0098005Y0242117D02*
X0097472Y0242117D01*
X0082975Y0242117D02*
X0082975Y0242117D01*
X0082975Y0238264D02*
X0082975Y0238264D01*
X0082975Y0238182D02*
X0082975Y0238182D01*
X0082975Y0234246D02*
X0082975Y0234246D01*
X0137328Y0167343D02*
X0138730Y0167343D01*
X0136793Y0163407D02*
X0135145Y0163407D01*
X0181508Y0068955D02*
X0181508Y0068955D01*
X0229737Y0068955D02*
X0229737Y0068955D01*
X0235920Y0065019D02*
X0237061Y0065019D01*
X0239912Y0065019D02*
X0259625Y0065019D01*
X0259625Y0068955D02*
X0244176Y0068955D01*
X0244192Y0072890D02*
X0259625Y0072890D01*
X0241712Y0226375D02*
X0241167Y0226375D01*
X0082099Y0068955D02*
X0082099Y0068955D01*
D22*
X0101676Y0103421D03*
X0118808Y0108578D03*
X0130958Y0125228D03*
X0113487Y0145744D03*
X0112502Y0198894D03*
X0112502Y0238264D03*
X0126282Y0281571D03*
X0116440Y0289445D03*
X0128251Y0316020D03*
X0145967Y0317004D03*
X0163684Y0293382D03*
X0142030Y0267791D03*
X0171558Y0229406D03*
X0192227Y0223500D03*
X0202069Y0250075D03*
X0196164Y0258933D03*
X0197148Y0283539D03*
X0210928Y0280587D03*
X0214865Y0269760D03*
X0225691Y0289445D03*
X0233565Y0289445D03*
X0241440Y0295350D03*
X0233108Y0302978D03*
X0230613Y0319957D03*
X0231597Y0331768D03*
X0234550Y0338657D03*
X0240455Y0331768D03*
X0245258Y0332678D03*
X0250298Y0324878D03*
X0253251Y0342594D03*
X0239471Y0322909D03*
X0250298Y0299287D03*
X0251282Y0289445D03*
X0233565Y0272713D03*
X0229628Y0255980D03*
X0223723Y0232358D03*
X0211912Y0240232D03*
X0246361Y0238264D03*
X0244392Y0164445D03*
X0212896Y0114248D03*
X0210928Y0075862D03*
X0176479Y0146728D03*
X0175495Y0177240D03*
X0173526Y0190035D03*
X0205022Y0165429D03*
X0194195Y0316020D03*
X0185337Y0334720D03*
X0178447Y0353421D03*
X0173526Y0389839D03*
X0203054Y0401650D03*
X0208959Y0363264D03*
X0214865Y0333736D03*
X0231597Y0354406D03*
X0240455Y0390823D03*
X0247058Y0424028D03*
X0252266Y0458736D03*
X0184353Y0472516D03*
X0139077Y0381965D03*
X0131203Y0416413D03*
X0130219Y0442004D03*
X0086912Y0380980D03*
X0093802Y0354406D03*
X0088880Y0305193D03*
X0100691Y0305193D03*
X0086912Y0273697D03*
X0078054Y0450862D03*
D23*
X0088802Y0324130D02*
X0089108Y0324128D01*
X0093608Y0319628D01*
X0093608Y0269228D01*
X0118808Y0244028D01*
X0118808Y0108578D01*
X0130958Y0125228D02*
X0130958Y0139628D01*
X0184508Y0193178D01*
X0184508Y0239978D01*
X0202508Y0257978D01*
X0212408Y0257978D01*
X0229958Y0275528D01*
X0235808Y0275528D01*
X0240308Y0280028D01*
X0240534Y0280350D01*
X0237424Y0283461D01*
X0237424Y0299327D01*
X0245258Y0307161D01*
X0245258Y0332678D01*
X0247058Y0334928D02*
X0255158Y0326828D01*
X0255158Y0300343D01*
X0245258Y0290443D01*
X0245258Y0275547D01*
X0227240Y0257528D01*
X0214658Y0257528D01*
X0200258Y0243128D01*
X0193958Y0243128D01*
X0189458Y0238628D01*
X0189274Y0238264D01*
X0199117Y0238264D02*
X0199117Y0215626D01*
X0190258Y0206768D01*
X0155708Y0225128D02*
X0203858Y0273278D01*
X0220058Y0273278D01*
X0225458Y0278678D01*
X0225458Y0281828D01*
X0229875Y0286245D01*
X0229875Y0309645D01*
X0230408Y0310178D01*
X0230534Y0310350D01*
X0233108Y0306128D02*
X0235358Y0308378D01*
X0235358Y0331592D01*
X0238487Y0334720D01*
X0238487Y0353400D01*
X0216908Y0374978D01*
X0216908Y0434828D01*
X0216833Y0435114D01*
X0247058Y0424028D02*
X0247058Y0334928D01*
X0233108Y0306128D02*
X0233108Y0302978D01*
X0246361Y0222516D02*
X0246158Y0222428D01*
X0238508Y0214778D01*
X0238508Y0207128D01*
X0238487Y0206768D01*
X0163684Y0313067D02*
X0185337Y0334720D01*
X0163684Y0313067D02*
X0163684Y0312870D01*
X0155708Y0225128D02*
X0155708Y0179107D01*
X0140062Y0163461D01*
X0140062Y0155587D01*
X0140062Y0206768D02*
X0140408Y0207128D01*
X0140408Y0212078D01*
X0150758Y0222428D01*
X0150888Y0222516D01*
X0102660Y0238264D02*
X0102608Y0238178D01*
X0090908Y0226478D01*
X0090908Y0207128D01*
X0090849Y0206768D01*
D24*
X0108802Y0324130D02*
X0108908Y0324578D01*
X0108908Y0329078D01*
X0120158Y0340328D01*
X0120377Y0340626D01*
X0120608Y0340778D01*
X0137708Y0357878D01*
X0164258Y0357878D01*
X0164668Y0358185D01*
X0165158Y0357878D01*
X0189458Y0357878D01*
X0201085Y0357878D01*
X0209423Y0357878D01*
X0226676Y0340626D01*
X0225884Y0339834D01*
X0225884Y0306370D01*
X0220534Y0301020D01*
X0220534Y0280350D01*
X0226676Y0340626D02*
X0225908Y0340778D01*
X0226676Y0341546D01*
X0226676Y0360311D01*
X0189353Y0397634D01*
X0189353Y0439051D01*
X0189458Y0438428D01*
X0189353Y0439051D02*
X0189908Y0439328D01*
X0190808Y0440228D01*
X0221562Y0440228D01*
X0226676Y0435114D01*
X0189353Y0439051D02*
X0189008Y0439328D01*
X0175664Y0452673D01*
X0164668Y0452673D01*
X0148353Y0452673D01*
X0130958Y0435278D01*
X0120608Y0435278D01*
X0120377Y0435114D01*
X0201085Y0357878D02*
X0206558Y0357878D01*
M02*
