G75*
%MOIN*%
%OFA0B0*%
%FSLAX25Y25*%
%IPPOS*%
%LPD*%
%AMOC8*
5,1,8,0,0,1.08239X$1,22.5*
%
%ADD10C,0.16598*%
%ADD11C,0.03937*%
D10*
X0094786Y0039445D03*
X0234550Y0039445D03*
X0234550Y0521728D03*
X0094786Y0521728D03*
D11*
X0057384Y0017791D02*
X0269983Y0017791D01*
X0269983Y0543382D01*
X0057384Y0543382D01*
X0057384Y0017791D01*
X0057384Y0019763D02*
X0269983Y0019763D01*
X0269983Y0023698D02*
X0057384Y0023698D01*
X0057384Y0027634D02*
X0061790Y0027634D01*
X0061790Y0026944D02*
X0062318Y0025669D01*
X0063294Y0024693D01*
X0064568Y0024165D01*
X0065948Y0024165D01*
X0263387Y0024165D01*
X0264767Y0024165D01*
X0266042Y0024693D01*
X0267018Y0025669D01*
X0267546Y0026944D01*
X0267546Y0534229D01*
X0267018Y0535504D01*
X0266042Y0536480D01*
X0264767Y0537008D01*
X0064568Y0537008D01*
X0063294Y0536480D01*
X0062318Y0535504D01*
X0061790Y0534229D01*
X0061790Y0026944D01*
X0061790Y0031569D02*
X0057384Y0031569D01*
X0057384Y0035505D02*
X0061790Y0035505D01*
X0061790Y0039440D02*
X0057384Y0039440D01*
X0057384Y0043376D02*
X0061790Y0043376D01*
X0061790Y0047311D02*
X0057384Y0047311D01*
X0057384Y0051247D02*
X0061790Y0051247D01*
X0061790Y0055182D02*
X0057384Y0055182D01*
X0057384Y0059118D02*
X0061790Y0059118D01*
X0061790Y0063054D02*
X0057384Y0063054D01*
X0057384Y0066989D02*
X0061790Y0066989D01*
X0061790Y0070925D02*
X0057384Y0070925D01*
X0057384Y0074860D02*
X0061790Y0074860D01*
X0061790Y0078796D02*
X0057384Y0078796D01*
X0057384Y0082731D02*
X0061790Y0082731D01*
X0061790Y0086667D02*
X0057384Y0086667D01*
X0057384Y0090602D02*
X0061790Y0090602D01*
X0061790Y0094538D02*
X0057384Y0094538D01*
X0057384Y0098473D02*
X0061790Y0098473D01*
X0061790Y0102409D02*
X0057384Y0102409D01*
X0057384Y0106344D02*
X0061790Y0106344D01*
X0061790Y0110280D02*
X0057384Y0110280D01*
X0057384Y0114215D02*
X0061790Y0114215D01*
X0061790Y0118151D02*
X0057384Y0118151D01*
X0057384Y0122086D02*
X0061790Y0122086D01*
X0061790Y0126022D02*
X0057384Y0126022D01*
X0057384Y0129957D02*
X0061790Y0129957D01*
X0061790Y0133893D02*
X0057384Y0133893D01*
X0057384Y0137828D02*
X0061790Y0137828D01*
X0061790Y0141764D02*
X0057384Y0141764D01*
X0057384Y0145699D02*
X0061790Y0145699D01*
X0061790Y0149635D02*
X0057384Y0149635D01*
X0057384Y0153570D02*
X0061790Y0153570D01*
X0061790Y0157506D02*
X0057384Y0157506D01*
X0057384Y0161442D02*
X0061790Y0161442D01*
X0061790Y0165377D02*
X0057384Y0165377D01*
X0057384Y0169313D02*
X0061790Y0169313D01*
X0061790Y0173248D02*
X0057384Y0173248D01*
X0057384Y0177184D02*
X0061790Y0177184D01*
X0061790Y0181119D02*
X0057384Y0181119D01*
X0057384Y0185055D02*
X0061790Y0185055D01*
X0061790Y0188990D02*
X0057384Y0188990D01*
X0057384Y0192926D02*
X0061790Y0192926D01*
X0061790Y0196861D02*
X0057384Y0196861D01*
X0057384Y0200797D02*
X0061790Y0200797D01*
X0061790Y0204732D02*
X0057384Y0204732D01*
X0057384Y0208668D02*
X0061790Y0208668D01*
X0061790Y0212603D02*
X0057384Y0212603D01*
X0057384Y0216539D02*
X0061790Y0216539D01*
X0061790Y0220474D02*
X0057384Y0220474D01*
X0057384Y0224410D02*
X0061790Y0224410D01*
X0061790Y0228345D02*
X0057384Y0228345D01*
X0057384Y0232281D02*
X0061790Y0232281D01*
X0061790Y0236216D02*
X0057384Y0236216D01*
X0057384Y0240152D02*
X0061790Y0240152D01*
X0061790Y0244087D02*
X0057384Y0244087D01*
X0057384Y0248023D02*
X0061790Y0248023D01*
X0061790Y0251958D02*
X0057384Y0251958D01*
X0057384Y0255894D02*
X0061790Y0255894D01*
X0061790Y0259829D02*
X0057384Y0259829D01*
X0057384Y0263765D02*
X0061790Y0263765D01*
X0061790Y0267701D02*
X0057384Y0267701D01*
X0057384Y0271636D02*
X0061790Y0271636D01*
X0061790Y0275572D02*
X0057384Y0275572D01*
X0057384Y0279507D02*
X0061790Y0279507D01*
X0061790Y0283443D02*
X0057384Y0283443D01*
X0057384Y0287378D02*
X0061790Y0287378D01*
X0061790Y0291314D02*
X0057384Y0291314D01*
X0057384Y0295249D02*
X0061790Y0295249D01*
X0061790Y0299185D02*
X0057384Y0299185D01*
X0057384Y0303120D02*
X0061790Y0303120D01*
X0061790Y0307056D02*
X0057384Y0307056D01*
X0057384Y0310991D02*
X0061790Y0310991D01*
X0061790Y0314927D02*
X0057384Y0314927D01*
X0057384Y0318862D02*
X0061790Y0318862D01*
X0061790Y0322798D02*
X0057384Y0322798D01*
X0057384Y0326733D02*
X0061790Y0326733D01*
X0061790Y0330669D02*
X0057384Y0330669D01*
X0057384Y0334604D02*
X0061790Y0334604D01*
X0061790Y0338540D02*
X0057384Y0338540D01*
X0057384Y0342475D02*
X0061790Y0342475D01*
X0061790Y0346411D02*
X0057384Y0346411D01*
X0057384Y0350346D02*
X0061790Y0350346D01*
X0061790Y0354282D02*
X0057384Y0354282D01*
X0057384Y0358217D02*
X0061790Y0358217D01*
X0061790Y0362153D02*
X0057384Y0362153D01*
X0057384Y0366089D02*
X0061790Y0366089D01*
X0061790Y0370024D02*
X0057384Y0370024D01*
X0057384Y0373960D02*
X0061790Y0373960D01*
X0061790Y0377895D02*
X0057384Y0377895D01*
X0057384Y0381831D02*
X0061790Y0381831D01*
X0061790Y0385766D02*
X0057384Y0385766D01*
X0057384Y0389702D02*
X0061790Y0389702D01*
X0061790Y0393637D02*
X0057384Y0393637D01*
X0057384Y0397573D02*
X0061790Y0397573D01*
X0061790Y0401508D02*
X0057384Y0401508D01*
X0057384Y0405444D02*
X0061790Y0405444D01*
X0061790Y0409379D02*
X0057384Y0409379D01*
X0057384Y0413315D02*
X0061790Y0413315D01*
X0061790Y0417250D02*
X0057384Y0417250D01*
X0057384Y0421186D02*
X0061790Y0421186D01*
X0061790Y0425121D02*
X0057384Y0425121D01*
X0057384Y0429057D02*
X0061790Y0429057D01*
X0061790Y0432992D02*
X0057384Y0432992D01*
X0057384Y0436928D02*
X0061790Y0436928D01*
X0061790Y0440863D02*
X0057384Y0440863D01*
X0057384Y0444799D02*
X0061790Y0444799D01*
X0061790Y0448734D02*
X0057384Y0448734D01*
X0057384Y0452670D02*
X0061790Y0452670D01*
X0061790Y0456605D02*
X0057384Y0456605D01*
X0057384Y0460541D02*
X0061790Y0460541D01*
X0061790Y0464476D02*
X0057384Y0464476D01*
X0057384Y0468412D02*
X0061790Y0468412D01*
X0061790Y0472348D02*
X0057384Y0472348D01*
X0057384Y0476283D02*
X0061790Y0476283D01*
X0061790Y0480219D02*
X0057384Y0480219D01*
X0057384Y0484154D02*
X0061790Y0484154D01*
X0061790Y0488090D02*
X0057384Y0488090D01*
X0057384Y0492025D02*
X0061790Y0492025D01*
X0061790Y0495961D02*
X0057384Y0495961D01*
X0057384Y0499896D02*
X0061790Y0499896D01*
X0061790Y0503832D02*
X0057384Y0503832D01*
X0057384Y0507767D02*
X0061790Y0507767D01*
X0061790Y0511703D02*
X0057384Y0511703D01*
X0057384Y0515638D02*
X0061790Y0515638D01*
X0061790Y0519574D02*
X0057384Y0519574D01*
X0057384Y0523509D02*
X0061790Y0523509D01*
X0061790Y0527445D02*
X0057384Y0527445D01*
X0057384Y0531380D02*
X0061790Y0531380D01*
X0062240Y0535316D02*
X0057384Y0535316D01*
X0057384Y0539251D02*
X0269983Y0539251D01*
X0269983Y0535316D02*
X0267096Y0535316D01*
X0267546Y0531380D02*
X0269983Y0531380D01*
X0269983Y0527445D02*
X0267546Y0527445D01*
X0267546Y0523509D02*
X0269983Y0523509D01*
X0269983Y0519574D02*
X0267546Y0519574D01*
X0267546Y0515638D02*
X0269983Y0515638D01*
X0269983Y0511703D02*
X0267546Y0511703D01*
X0267546Y0507767D02*
X0269983Y0507767D01*
X0269983Y0503832D02*
X0267546Y0503832D01*
X0267546Y0499896D02*
X0269983Y0499896D01*
X0269983Y0495961D02*
X0267546Y0495961D01*
X0267546Y0492025D02*
X0269983Y0492025D01*
X0269983Y0488090D02*
X0267546Y0488090D01*
X0267546Y0484154D02*
X0269983Y0484154D01*
X0269983Y0480219D02*
X0267546Y0480219D01*
X0267546Y0476283D02*
X0269983Y0476283D01*
X0269983Y0472348D02*
X0267546Y0472348D01*
X0267546Y0468412D02*
X0269983Y0468412D01*
X0269983Y0464476D02*
X0267546Y0464476D01*
X0267546Y0460541D02*
X0269983Y0460541D01*
X0269983Y0456605D02*
X0267546Y0456605D01*
X0267546Y0452670D02*
X0269983Y0452670D01*
X0269983Y0448734D02*
X0267546Y0448734D01*
X0267546Y0444799D02*
X0269983Y0444799D01*
X0269983Y0440863D02*
X0267546Y0440863D01*
X0267546Y0436928D02*
X0269983Y0436928D01*
X0269983Y0432992D02*
X0267546Y0432992D01*
X0267546Y0429057D02*
X0269983Y0429057D01*
X0269983Y0425121D02*
X0267546Y0425121D01*
X0267546Y0421186D02*
X0269983Y0421186D01*
X0269983Y0417250D02*
X0267546Y0417250D01*
X0267546Y0413315D02*
X0269983Y0413315D01*
X0269983Y0409379D02*
X0267546Y0409379D01*
X0267546Y0405444D02*
X0269983Y0405444D01*
X0269983Y0401508D02*
X0267546Y0401508D01*
X0267546Y0397573D02*
X0269983Y0397573D01*
X0269983Y0393637D02*
X0267546Y0393637D01*
X0267546Y0389702D02*
X0269983Y0389702D01*
X0269983Y0385766D02*
X0267546Y0385766D01*
X0267546Y0381831D02*
X0269983Y0381831D01*
X0269983Y0377895D02*
X0267546Y0377895D01*
X0267546Y0373960D02*
X0269983Y0373960D01*
X0269983Y0370024D02*
X0267546Y0370024D01*
X0267546Y0366089D02*
X0269983Y0366089D01*
X0269983Y0362153D02*
X0267546Y0362153D01*
X0267546Y0358217D02*
X0269983Y0358217D01*
X0269983Y0354282D02*
X0267546Y0354282D01*
X0267546Y0350346D02*
X0269983Y0350346D01*
X0269983Y0346411D02*
X0267546Y0346411D01*
X0267546Y0342475D02*
X0269983Y0342475D01*
X0269983Y0338540D02*
X0267546Y0338540D01*
X0267546Y0334604D02*
X0269983Y0334604D01*
X0269983Y0330669D02*
X0267546Y0330669D01*
X0267546Y0326733D02*
X0269983Y0326733D01*
X0269983Y0322798D02*
X0267546Y0322798D01*
X0267546Y0318862D02*
X0269983Y0318862D01*
X0269983Y0314927D02*
X0267546Y0314927D01*
X0267546Y0310991D02*
X0269983Y0310991D01*
X0269983Y0307056D02*
X0267546Y0307056D01*
X0267546Y0303120D02*
X0269983Y0303120D01*
X0269983Y0299185D02*
X0267546Y0299185D01*
X0267546Y0295249D02*
X0269983Y0295249D01*
X0269983Y0291314D02*
X0267546Y0291314D01*
X0267546Y0287378D02*
X0269983Y0287378D01*
X0269983Y0283443D02*
X0267546Y0283443D01*
X0267546Y0279507D02*
X0269983Y0279507D01*
X0269983Y0275572D02*
X0267546Y0275572D01*
X0267546Y0271636D02*
X0269983Y0271636D01*
X0269983Y0267701D02*
X0267546Y0267701D01*
X0267546Y0263765D02*
X0269983Y0263765D01*
X0269983Y0259829D02*
X0267546Y0259829D01*
X0267546Y0255894D02*
X0269983Y0255894D01*
X0269983Y0251958D02*
X0267546Y0251958D01*
X0267546Y0248023D02*
X0269983Y0248023D01*
X0269983Y0244087D02*
X0267546Y0244087D01*
X0267546Y0240152D02*
X0269983Y0240152D01*
X0269983Y0236216D02*
X0267546Y0236216D01*
X0267546Y0232281D02*
X0269983Y0232281D01*
X0269983Y0228345D02*
X0267546Y0228345D01*
X0267546Y0224410D02*
X0269983Y0224410D01*
X0269983Y0220474D02*
X0267546Y0220474D01*
X0267546Y0216539D02*
X0269983Y0216539D01*
X0269983Y0212603D02*
X0267546Y0212603D01*
X0267546Y0208668D02*
X0269983Y0208668D01*
X0269983Y0204732D02*
X0267546Y0204732D01*
X0267546Y0200797D02*
X0269983Y0200797D01*
X0269983Y0196861D02*
X0267546Y0196861D01*
X0267546Y0192926D02*
X0269983Y0192926D01*
X0269983Y0188990D02*
X0267546Y0188990D01*
X0267546Y0185055D02*
X0269983Y0185055D01*
X0269983Y0181119D02*
X0267546Y0181119D01*
X0267546Y0177184D02*
X0269983Y0177184D01*
X0269983Y0173248D02*
X0267546Y0173248D01*
X0267546Y0169313D02*
X0269983Y0169313D01*
X0269983Y0165377D02*
X0267546Y0165377D01*
X0267546Y0161442D02*
X0269983Y0161442D01*
X0269983Y0157506D02*
X0267546Y0157506D01*
X0267546Y0153570D02*
X0269983Y0153570D01*
X0269983Y0149635D02*
X0267546Y0149635D01*
X0267546Y0145699D02*
X0269983Y0145699D01*
X0269983Y0141764D02*
X0267546Y0141764D01*
X0267546Y0137828D02*
X0269983Y0137828D01*
X0269983Y0133893D02*
X0267546Y0133893D01*
X0267546Y0129957D02*
X0269983Y0129957D01*
X0269983Y0126022D02*
X0267546Y0126022D01*
X0267546Y0122086D02*
X0269983Y0122086D01*
X0269983Y0118151D02*
X0267546Y0118151D01*
X0267546Y0114215D02*
X0269983Y0114215D01*
X0269983Y0110280D02*
X0267546Y0110280D01*
X0267546Y0106344D02*
X0269983Y0106344D01*
X0269983Y0102409D02*
X0267546Y0102409D01*
X0267546Y0098473D02*
X0269983Y0098473D01*
X0269983Y0094538D02*
X0267546Y0094538D01*
X0267546Y0090602D02*
X0269983Y0090602D01*
X0269983Y0086667D02*
X0267546Y0086667D01*
X0267546Y0082731D02*
X0269983Y0082731D01*
X0269983Y0078796D02*
X0267546Y0078796D01*
X0267546Y0074860D02*
X0269983Y0074860D01*
X0269983Y0070925D02*
X0267546Y0070925D01*
X0267546Y0066989D02*
X0269983Y0066989D01*
X0269983Y0063054D02*
X0267546Y0063054D01*
X0267546Y0059118D02*
X0269983Y0059118D01*
X0269983Y0055182D02*
X0267546Y0055182D01*
X0267546Y0051247D02*
X0269983Y0051247D01*
X0269983Y0047311D02*
X0267546Y0047311D01*
X0267546Y0043376D02*
X0269983Y0043376D01*
X0269983Y0039440D02*
X0267546Y0039440D01*
X0267546Y0035505D02*
X0269983Y0035505D01*
X0269983Y0031569D02*
X0267546Y0031569D01*
X0267546Y0027634D02*
X0269983Y0027634D01*
X0260609Y0031102D02*
X0241859Y0031102D01*
X0243406Y0032649D01*
X0244863Y0035173D01*
X0245617Y0037988D01*
X0245617Y0040902D01*
X0244863Y0043717D01*
X0243406Y0046241D01*
X0241345Y0048301D01*
X0238822Y0049758D01*
X0236007Y0050513D01*
X0233093Y0050513D01*
X0230278Y0049758D01*
X0227754Y0048301D01*
X0225693Y0046241D01*
X0224236Y0043717D01*
X0223482Y0040902D01*
X0223482Y0037988D01*
X0224236Y0035173D01*
X0225693Y0032649D01*
X0227240Y0031102D01*
X0102096Y0031102D01*
X0103642Y0032649D01*
X0105099Y0035173D01*
X0105854Y0037988D01*
X0105854Y0040902D01*
X0105099Y0043717D01*
X0103642Y0046241D01*
X0101582Y0048301D01*
X0099058Y0049758D01*
X0096243Y0050513D01*
X0093329Y0050513D01*
X0090514Y0049758D01*
X0087990Y0048301D01*
X0085930Y0046241D01*
X0084472Y0043717D01*
X0083718Y0040902D01*
X0083718Y0037988D01*
X0084472Y0035173D01*
X0085930Y0032649D01*
X0087476Y0031102D01*
X0068727Y0031102D01*
X0068727Y0530071D01*
X0087476Y0530071D01*
X0085930Y0528524D01*
X0084472Y0526000D01*
X0083718Y0523185D01*
X0083718Y0520271D01*
X0084472Y0517456D01*
X0085930Y0514933D01*
X0087990Y0512872D01*
X0090514Y0511415D01*
X0093329Y0510661D01*
X0096243Y0510661D01*
X0099058Y0511415D01*
X0101582Y0512872D01*
X0103642Y0514933D01*
X0105099Y0517456D01*
X0105854Y0520271D01*
X0105854Y0523185D01*
X0105099Y0526000D01*
X0103642Y0528524D01*
X0102096Y0530071D01*
X0227240Y0530071D01*
X0225693Y0528524D01*
X0224236Y0526000D01*
X0223482Y0523185D01*
X0223482Y0520271D01*
X0224236Y0517456D01*
X0225693Y0514933D01*
X0227754Y0512872D01*
X0230278Y0511415D01*
X0233093Y0510661D01*
X0236007Y0510661D01*
X0238822Y0511415D01*
X0241345Y0512872D01*
X0243406Y0514933D01*
X0244863Y0517456D01*
X0245617Y0520271D01*
X0245617Y0523185D01*
X0244863Y0526000D01*
X0243406Y0528524D01*
X0241859Y0530071D01*
X0260609Y0530071D01*
X0260609Y0031102D01*
X0260609Y0031569D02*
X0242326Y0031569D01*
X0244952Y0035505D02*
X0260609Y0035505D01*
X0260609Y0039440D02*
X0245617Y0039440D01*
X0244955Y0043376D02*
X0260609Y0043376D01*
X0260609Y0047311D02*
X0242335Y0047311D01*
X0226764Y0047311D02*
X0102571Y0047311D01*
X0105191Y0043376D02*
X0224145Y0043376D01*
X0223482Y0039440D02*
X0105854Y0039440D01*
X0105188Y0035505D02*
X0224147Y0035505D01*
X0226773Y0031569D02*
X0102563Y0031569D01*
X0087009Y0031569D02*
X0068727Y0031569D01*
X0068727Y0035505D02*
X0084384Y0035505D01*
X0083718Y0039440D02*
X0068727Y0039440D01*
X0068727Y0043376D02*
X0084381Y0043376D01*
X0087000Y0047311D02*
X0068727Y0047311D01*
X0068727Y0051247D02*
X0260609Y0051247D01*
X0260609Y0055182D02*
X0068727Y0055182D01*
X0068727Y0059118D02*
X0260609Y0059118D01*
X0260609Y0063054D02*
X0068727Y0063054D01*
X0068727Y0066989D02*
X0260609Y0066989D01*
X0260609Y0070925D02*
X0068727Y0070925D01*
X0068727Y0074860D02*
X0260609Y0074860D01*
X0260609Y0078796D02*
X0248265Y0078796D01*
X0247869Y0078399D02*
X0250713Y0081244D01*
X0252725Y0084728D01*
X0253766Y0088614D01*
X0253766Y0092638D01*
X0252725Y0096524D01*
X0250713Y0100008D01*
X0247869Y0102853D01*
X0244384Y0104864D01*
X0240498Y0105905D01*
X0236475Y0105905D01*
X0232589Y0104864D01*
X0229105Y0102853D01*
X0226260Y0100008D01*
X0224248Y0096524D01*
X0223207Y0092638D01*
X0223207Y0088614D01*
X0224248Y0084728D01*
X0226260Y0081244D01*
X0229105Y0078399D01*
X0232589Y0076388D01*
X0236475Y0075346D01*
X0240498Y0075346D01*
X0244384Y0076388D01*
X0247869Y0078399D01*
X0251572Y0082731D02*
X0260609Y0082731D01*
X0260609Y0086667D02*
X0253244Y0086667D01*
X0253766Y0090602D02*
X0260609Y0090602D01*
X0260609Y0094538D02*
X0253257Y0094538D01*
X0251599Y0098473D02*
X0260609Y0098473D01*
X0260609Y0102409D02*
X0248313Y0102409D01*
X0240498Y0126528D02*
X0236475Y0126528D01*
X0232589Y0127569D01*
X0229105Y0129580D01*
X0226260Y0132425D01*
X0224248Y0135909D01*
X0223207Y0139795D01*
X0223207Y0143819D01*
X0224248Y0147705D01*
X0226260Y0151189D01*
X0229105Y0154034D01*
X0232589Y0156045D01*
X0236475Y0157087D01*
X0240498Y0157087D01*
X0244384Y0156045D01*
X0247869Y0154034D01*
X0250713Y0151189D01*
X0252725Y0147705D01*
X0253766Y0143819D01*
X0253766Y0139795D01*
X0252725Y0135909D01*
X0250713Y0132425D01*
X0247869Y0129580D01*
X0244384Y0127569D01*
X0240498Y0126528D01*
X0248246Y0129957D02*
X0260609Y0129957D01*
X0260609Y0126022D02*
X0068727Y0126022D01*
X0068727Y0129957D02*
X0081090Y0129957D01*
X0081467Y0129580D02*
X0084951Y0127569D01*
X0088837Y0126528D01*
X0092861Y0126528D01*
X0096747Y0127569D01*
X0100231Y0129580D01*
X0103076Y0132425D01*
X0105087Y0135909D01*
X0106128Y0139795D01*
X0106128Y0143819D01*
X0105087Y0147705D01*
X0103076Y0151189D01*
X0100231Y0154034D01*
X0096747Y0156045D01*
X0092861Y0157087D01*
X0088837Y0157087D01*
X0084951Y0156045D01*
X0081467Y0154034D01*
X0078622Y0151189D01*
X0076611Y0147705D01*
X0075569Y0143819D01*
X0075569Y0139795D01*
X0076611Y0135909D01*
X0078622Y0132425D01*
X0081467Y0129580D01*
X0077775Y0133893D02*
X0068727Y0133893D01*
X0068727Y0137828D02*
X0076097Y0137828D01*
X0075569Y0141764D02*
X0068727Y0141764D01*
X0068727Y0145699D02*
X0076073Y0145699D01*
X0077725Y0149635D02*
X0068727Y0149635D01*
X0068727Y0153570D02*
X0081004Y0153570D01*
X0068727Y0157506D02*
X0260609Y0157506D01*
X0260609Y0161442D02*
X0068727Y0161442D01*
X0068727Y0165377D02*
X0260609Y0165377D01*
X0260609Y0169313D02*
X0068727Y0169313D01*
X0068727Y0173248D02*
X0260609Y0173248D01*
X0260609Y0177184D02*
X0068727Y0177184D01*
X0068727Y0181119D02*
X0081110Y0181119D01*
X0081467Y0180762D02*
X0084951Y0178750D01*
X0088837Y0177709D01*
X0092861Y0177709D01*
X0096747Y0178750D01*
X0100231Y0180762D01*
X0103076Y0183606D01*
X0105087Y0187091D01*
X0106128Y0190977D01*
X0106128Y0195000D01*
X0105087Y0198886D01*
X0103076Y0202370D01*
X0100231Y0205215D01*
X0096747Y0207226D01*
X0092861Y0208268D01*
X0088837Y0208268D01*
X0084951Y0207226D01*
X0081467Y0205215D01*
X0078622Y0202370D01*
X0076611Y0198886D01*
X0075569Y0195000D01*
X0075569Y0190977D01*
X0076611Y0187091D01*
X0078622Y0183606D01*
X0081467Y0180762D01*
X0077786Y0185055D02*
X0068727Y0185055D01*
X0068727Y0188990D02*
X0076102Y0188990D01*
X0075569Y0192926D02*
X0068727Y0192926D01*
X0068727Y0196861D02*
X0076068Y0196861D01*
X0077714Y0200797D02*
X0068727Y0200797D01*
X0068727Y0204732D02*
X0080984Y0204732D01*
X0068727Y0208668D02*
X0260609Y0208668D01*
X0260609Y0212603D02*
X0068727Y0212603D01*
X0068727Y0216539D02*
X0260609Y0216539D01*
X0260609Y0220474D02*
X0068727Y0220474D01*
X0068727Y0224410D02*
X0260609Y0224410D01*
X0260609Y0228345D02*
X0068727Y0228345D01*
X0068727Y0232281D02*
X0260609Y0232281D01*
X0260609Y0236216D02*
X0068727Y0236216D01*
X0068727Y0240152D02*
X0133572Y0240152D01*
X0134312Y0239724D02*
X0130334Y0242021D01*
X0127086Y0245269D01*
X0124790Y0249247D01*
X0123601Y0253684D01*
X0123601Y0258277D01*
X0124790Y0262714D01*
X0127086Y0266692D01*
X0130334Y0269940D01*
X0134312Y0272236D01*
X0138749Y0273425D01*
X0143342Y0273425D01*
X0147779Y0272236D01*
X0151757Y0269940D01*
X0155005Y0266692D01*
X0157302Y0262714D01*
X0158491Y0258277D01*
X0158491Y0253684D01*
X0157302Y0249247D01*
X0155005Y0245269D01*
X0151757Y0242021D01*
X0147779Y0239724D01*
X0143342Y0238535D01*
X0138749Y0238535D01*
X0134312Y0239724D01*
X0128268Y0244087D02*
X0068727Y0244087D01*
X0068727Y0248023D02*
X0125496Y0248023D01*
X0124063Y0251958D02*
X0068727Y0251958D01*
X0068727Y0255894D02*
X0085354Y0255894D01*
X0086084Y0255472D02*
X0090521Y0254283D01*
X0095114Y0254283D01*
X0099551Y0255472D01*
X0103529Y0257769D01*
X0106777Y0261017D01*
X0109073Y0264995D01*
X0110262Y0269432D01*
X0110262Y0274025D01*
X0109073Y0278462D01*
X0106777Y0282440D01*
X0103529Y0285688D01*
X0099551Y0287984D01*
X0095114Y0289173D01*
X0090521Y0289173D01*
X0086084Y0287984D01*
X0082106Y0285688D01*
X0078858Y0282440D01*
X0076561Y0278462D01*
X0075373Y0274025D01*
X0075373Y0269432D01*
X0076561Y0264995D01*
X0078858Y0261017D01*
X0082106Y0257769D01*
X0086084Y0255472D01*
X0080046Y0259829D02*
X0068727Y0259829D01*
X0068727Y0263765D02*
X0077271Y0263765D01*
X0075836Y0267701D02*
X0068727Y0267701D01*
X0068727Y0271636D02*
X0075373Y0271636D01*
X0075787Y0275572D02*
X0068727Y0275572D01*
X0068727Y0279507D02*
X0077165Y0279507D01*
X0079861Y0283443D02*
X0068727Y0283443D01*
X0068727Y0287378D02*
X0085034Y0287378D01*
X0100601Y0287378D02*
X0181491Y0287378D01*
X0182541Y0287984D02*
X0178563Y0285688D01*
X0175315Y0282440D01*
X0173018Y0278462D01*
X0171829Y0274025D01*
X0171829Y0269432D01*
X0173018Y0264995D01*
X0175315Y0261017D01*
X0178563Y0257769D01*
X0182541Y0255472D01*
X0186977Y0254283D01*
X0191571Y0254283D01*
X0196008Y0255472D01*
X0199986Y0257769D01*
X0203234Y0261017D01*
X0205530Y0264995D01*
X0206719Y0269432D01*
X0206719Y0274025D01*
X0205530Y0278462D01*
X0203234Y0282440D01*
X0199986Y0285688D01*
X0196008Y0287984D01*
X0191571Y0289173D01*
X0186977Y0289173D01*
X0182541Y0287984D01*
X0176318Y0283443D02*
X0105774Y0283443D01*
X0108470Y0279507D02*
X0173622Y0279507D01*
X0172244Y0275572D02*
X0109848Y0275572D01*
X0110262Y0271636D02*
X0133273Y0271636D01*
X0128095Y0267701D02*
X0109798Y0267701D01*
X0108363Y0263765D02*
X0125397Y0263765D01*
X0124017Y0259829D02*
X0105589Y0259829D01*
X0100281Y0255894D02*
X0123601Y0255894D01*
X0138050Y0208268D02*
X0134164Y0207226D01*
X0130680Y0205215D01*
X0127835Y0202370D01*
X0125823Y0198886D01*
X0124782Y0195000D01*
X0124782Y0190977D01*
X0125823Y0187091D01*
X0127835Y0183606D01*
X0130680Y0180762D01*
X0134164Y0178750D01*
X0138050Y0177709D01*
X0142073Y0177709D01*
X0145959Y0178750D01*
X0149443Y0180762D01*
X0152288Y0183606D01*
X0154300Y0187091D01*
X0155341Y0190977D01*
X0155341Y0195000D01*
X0154300Y0198886D01*
X0152288Y0202370D01*
X0149443Y0205215D01*
X0145959Y0207226D01*
X0142073Y0208268D01*
X0138050Y0208268D01*
X0130197Y0204732D02*
X0100713Y0204732D01*
X0103984Y0200797D02*
X0126927Y0200797D01*
X0125281Y0196861D02*
X0105630Y0196861D01*
X0106128Y0192926D02*
X0124782Y0192926D01*
X0125314Y0188990D02*
X0105596Y0188990D01*
X0103912Y0185055D02*
X0126999Y0185055D01*
X0130322Y0181119D02*
X0100588Y0181119D01*
X0100694Y0153570D02*
X0130216Y0153570D01*
X0130680Y0154034D02*
X0127835Y0151189D01*
X0125823Y0147705D01*
X0124782Y0143819D01*
X0124782Y0139795D01*
X0125823Y0135909D01*
X0127835Y0132425D01*
X0130680Y0129580D01*
X0134164Y0127569D01*
X0138050Y0126528D01*
X0142073Y0126528D01*
X0145959Y0127569D01*
X0149443Y0129580D01*
X0152288Y0132425D01*
X0154300Y0135909D01*
X0155341Y0139795D01*
X0155341Y0143819D01*
X0154300Y0147705D01*
X0152288Y0151189D01*
X0149443Y0154034D01*
X0145959Y0156045D01*
X0142073Y0157087D01*
X0138050Y0157087D01*
X0134164Y0156045D01*
X0130680Y0154034D01*
X0126938Y0149635D02*
X0103973Y0149635D01*
X0105625Y0145699D02*
X0125286Y0145699D01*
X0124782Y0141764D02*
X0106128Y0141764D01*
X0105601Y0137828D02*
X0125309Y0137828D01*
X0126988Y0133893D02*
X0103923Y0133893D01*
X0100608Y0129957D02*
X0130303Y0129957D01*
X0138050Y0105905D02*
X0134164Y0104864D01*
X0130680Y0102853D01*
X0127835Y0100008D01*
X0125823Y0096524D01*
X0124782Y0092638D01*
X0124782Y0088614D01*
X0125823Y0084728D01*
X0127835Y0081244D01*
X0130680Y0078399D01*
X0134164Y0076388D01*
X0138050Y0075346D01*
X0142073Y0075346D01*
X0145959Y0076388D01*
X0149443Y0078399D01*
X0152288Y0081244D01*
X0154300Y0084728D01*
X0155341Y0088614D01*
X0155341Y0092638D01*
X0154300Y0096524D01*
X0152288Y0100008D01*
X0149443Y0102853D01*
X0145959Y0104864D01*
X0142073Y0105905D01*
X0138050Y0105905D01*
X0130236Y0102409D02*
X0100675Y0102409D01*
X0100231Y0102853D02*
X0096747Y0104864D01*
X0092861Y0105905D01*
X0088837Y0105905D01*
X0084951Y0104864D01*
X0081467Y0102853D01*
X0078622Y0100008D01*
X0076611Y0096524D01*
X0075569Y0092638D01*
X0075569Y0088614D01*
X0076611Y0084728D01*
X0078622Y0081244D01*
X0081467Y0078399D01*
X0084951Y0076388D01*
X0088837Y0075346D01*
X0092861Y0075346D01*
X0096747Y0076388D01*
X0100231Y0078399D01*
X0103076Y0081244D01*
X0105087Y0084728D01*
X0106128Y0088614D01*
X0106128Y0092638D01*
X0105087Y0096524D01*
X0103076Y0100008D01*
X0100231Y0102853D01*
X0103962Y0098473D02*
X0126949Y0098473D01*
X0125291Y0094538D02*
X0105619Y0094538D01*
X0106128Y0090602D02*
X0124782Y0090602D01*
X0125304Y0086667D02*
X0105607Y0086667D01*
X0103934Y0082731D02*
X0126976Y0082731D01*
X0130283Y0078796D02*
X0100627Y0078796D01*
X0081071Y0078796D02*
X0068727Y0078796D01*
X0068727Y0082731D02*
X0077764Y0082731D01*
X0076091Y0086667D02*
X0068727Y0086667D01*
X0068727Y0090602D02*
X0075569Y0090602D01*
X0076079Y0094538D02*
X0068727Y0094538D01*
X0068727Y0098473D02*
X0077736Y0098473D01*
X0081023Y0102409D02*
X0068727Y0102409D01*
X0068727Y0106344D02*
X0260609Y0106344D01*
X0260609Y0110280D02*
X0068727Y0110280D01*
X0068727Y0114215D02*
X0260609Y0114215D01*
X0260609Y0118151D02*
X0068727Y0118151D01*
X0068727Y0122086D02*
X0260609Y0122086D01*
X0260609Y0133893D02*
X0251561Y0133893D01*
X0253239Y0137828D02*
X0260609Y0137828D01*
X0260609Y0141764D02*
X0253766Y0141764D01*
X0253262Y0145699D02*
X0260609Y0145699D01*
X0260609Y0149635D02*
X0251611Y0149635D01*
X0248332Y0153570D02*
X0260609Y0153570D01*
X0260609Y0181119D02*
X0248226Y0181119D01*
X0247869Y0180762D02*
X0250713Y0183606D01*
X0252725Y0187091D01*
X0253766Y0190977D01*
X0253766Y0195000D01*
X0252725Y0198886D01*
X0250713Y0202370D01*
X0247869Y0205215D01*
X0244384Y0207226D01*
X0240498Y0208268D01*
X0236475Y0208268D01*
X0232589Y0207226D01*
X0229105Y0205215D01*
X0226260Y0202370D01*
X0224248Y0198886D01*
X0223207Y0195000D01*
X0223207Y0190977D01*
X0224248Y0187091D01*
X0226260Y0183606D01*
X0229105Y0180762D01*
X0232589Y0178750D01*
X0236475Y0177709D01*
X0240498Y0177709D01*
X0244384Y0178750D01*
X0247869Y0180762D01*
X0251550Y0185055D02*
X0260609Y0185055D01*
X0260609Y0188990D02*
X0253234Y0188990D01*
X0253766Y0192926D02*
X0260609Y0192926D01*
X0260609Y0196861D02*
X0253268Y0196861D01*
X0251622Y0200797D02*
X0260609Y0200797D01*
X0260609Y0204732D02*
X0248351Y0204732D01*
X0238815Y0238535D02*
X0234222Y0238535D01*
X0229785Y0239724D01*
X0225807Y0242021D01*
X0222559Y0245269D01*
X0220262Y0249247D01*
X0219073Y0253684D01*
X0219073Y0258277D01*
X0220262Y0262714D01*
X0222559Y0266692D01*
X0225807Y0269940D01*
X0229785Y0272236D01*
X0234222Y0273425D01*
X0238815Y0273425D01*
X0243252Y0272236D01*
X0247230Y0269940D01*
X0250478Y0266692D01*
X0252774Y0262714D01*
X0253963Y0258277D01*
X0253963Y0253684D01*
X0252774Y0249247D01*
X0250478Y0245269D01*
X0247230Y0242021D01*
X0243252Y0239724D01*
X0238815Y0238535D01*
X0243992Y0240152D02*
X0260609Y0240152D01*
X0260609Y0244087D02*
X0249296Y0244087D01*
X0252068Y0248023D02*
X0260609Y0248023D01*
X0260609Y0251958D02*
X0253501Y0251958D01*
X0253963Y0255894D02*
X0260609Y0255894D01*
X0260609Y0259829D02*
X0253547Y0259829D01*
X0252167Y0263765D02*
X0260609Y0263765D01*
X0260609Y0267701D02*
X0249469Y0267701D01*
X0244291Y0271636D02*
X0260609Y0271636D01*
X0260609Y0275572D02*
X0206305Y0275572D01*
X0206719Y0271636D02*
X0228745Y0271636D01*
X0223568Y0267701D02*
X0206255Y0267701D01*
X0204820Y0263765D02*
X0220869Y0263765D01*
X0219489Y0259829D02*
X0202046Y0259829D01*
X0196738Y0255894D02*
X0219073Y0255894D01*
X0219536Y0251958D02*
X0158028Y0251958D01*
X0158491Y0255894D02*
X0181810Y0255894D01*
X0176502Y0259829D02*
X0158075Y0259829D01*
X0156695Y0263765D02*
X0173728Y0263765D01*
X0172293Y0267701D02*
X0153996Y0267701D01*
X0148819Y0271636D02*
X0171829Y0271636D01*
X0156595Y0248023D02*
X0220969Y0248023D01*
X0223740Y0244087D02*
X0153824Y0244087D01*
X0148520Y0240152D02*
X0229044Y0240152D01*
X0228622Y0204732D02*
X0200123Y0204732D01*
X0199640Y0205215D02*
X0196156Y0207226D01*
X0192270Y0208268D01*
X0188247Y0208268D01*
X0184361Y0207226D01*
X0180877Y0205215D01*
X0178032Y0202370D01*
X0176020Y0198886D01*
X0174979Y0195000D01*
X0174979Y0190977D01*
X0176020Y0187091D01*
X0178032Y0183606D01*
X0180877Y0180762D01*
X0184361Y0178750D01*
X0188247Y0177709D01*
X0192270Y0177709D01*
X0196156Y0178750D01*
X0199640Y0180762D01*
X0202485Y0183606D01*
X0204497Y0187091D01*
X0205538Y0190977D01*
X0205538Y0195000D01*
X0204497Y0198886D01*
X0202485Y0202370D01*
X0199640Y0205215D01*
X0203393Y0200797D02*
X0225352Y0200797D01*
X0223706Y0196861D02*
X0205039Y0196861D01*
X0205538Y0192926D02*
X0223207Y0192926D01*
X0223739Y0188990D02*
X0205006Y0188990D01*
X0203321Y0185055D02*
X0225424Y0185055D01*
X0228747Y0181119D02*
X0199998Y0181119D01*
X0192270Y0157087D02*
X0188247Y0157087D01*
X0184361Y0156045D01*
X0180877Y0154034D01*
X0178032Y0151189D01*
X0176020Y0147705D01*
X0174979Y0143819D01*
X0174979Y0139795D01*
X0176020Y0135909D01*
X0178032Y0132425D01*
X0180877Y0129580D01*
X0184361Y0127569D01*
X0188247Y0126528D01*
X0192270Y0126528D01*
X0196156Y0127569D01*
X0199640Y0129580D01*
X0202485Y0132425D01*
X0204497Y0135909D01*
X0205538Y0139795D01*
X0205538Y0143819D01*
X0204497Y0147705D01*
X0202485Y0151189D01*
X0199640Y0154034D01*
X0196156Y0156045D01*
X0192270Y0157087D01*
X0200104Y0153570D02*
X0228642Y0153570D01*
X0225363Y0149635D02*
X0203382Y0149635D01*
X0205034Y0145699D02*
X0223711Y0145699D01*
X0223207Y0141764D02*
X0205538Y0141764D01*
X0205011Y0137828D02*
X0223734Y0137828D01*
X0225413Y0133893D02*
X0203332Y0133893D01*
X0200017Y0129957D02*
X0228728Y0129957D01*
X0228661Y0102409D02*
X0200084Y0102409D01*
X0199640Y0102853D02*
X0196156Y0104864D01*
X0192270Y0105905D01*
X0188247Y0105905D01*
X0184361Y0104864D01*
X0180877Y0102853D01*
X0178032Y0100008D01*
X0176020Y0096524D01*
X0174979Y0092638D01*
X0174979Y0088614D01*
X0176020Y0084728D01*
X0178032Y0081244D01*
X0180877Y0078399D01*
X0184361Y0076388D01*
X0188247Y0075346D01*
X0192270Y0075346D01*
X0196156Y0076388D01*
X0199640Y0078399D01*
X0202485Y0081244D01*
X0204497Y0084728D01*
X0205538Y0088614D01*
X0205538Y0092638D01*
X0204497Y0096524D01*
X0202485Y0100008D01*
X0199640Y0102853D01*
X0203371Y0098473D02*
X0225374Y0098473D01*
X0223716Y0094538D02*
X0205029Y0094538D01*
X0205538Y0090602D02*
X0223207Y0090602D01*
X0223729Y0086667D02*
X0205016Y0086667D01*
X0203344Y0082731D02*
X0225402Y0082731D01*
X0228709Y0078796D02*
X0200037Y0078796D01*
X0180480Y0078796D02*
X0149840Y0078796D01*
X0153147Y0082731D02*
X0177173Y0082731D01*
X0175501Y0086667D02*
X0154819Y0086667D01*
X0155341Y0090602D02*
X0174979Y0090602D01*
X0175488Y0094538D02*
X0154832Y0094538D01*
X0153174Y0098473D02*
X0177146Y0098473D01*
X0180433Y0102409D02*
X0149887Y0102409D01*
X0149820Y0129957D02*
X0180500Y0129957D01*
X0177184Y0133893D02*
X0153136Y0133893D01*
X0154814Y0137828D02*
X0175506Y0137828D01*
X0174979Y0141764D02*
X0155341Y0141764D01*
X0154837Y0145699D02*
X0175483Y0145699D01*
X0177135Y0149635D02*
X0153185Y0149635D01*
X0149907Y0153570D02*
X0180413Y0153570D01*
X0180519Y0181119D02*
X0149801Y0181119D01*
X0153124Y0185055D02*
X0177196Y0185055D01*
X0175511Y0188990D02*
X0154809Y0188990D01*
X0155341Y0192926D02*
X0174979Y0192926D01*
X0175478Y0196861D02*
X0154842Y0196861D01*
X0153197Y0200797D02*
X0177123Y0200797D01*
X0180394Y0204732D02*
X0149926Y0204732D01*
X0197058Y0287378D02*
X0260609Y0287378D01*
X0260609Y0283443D02*
X0202231Y0283443D01*
X0204927Y0279507D02*
X0260609Y0279507D01*
X0260609Y0291314D02*
X0068727Y0291314D01*
X0068727Y0295249D02*
X0260609Y0295249D01*
X0260609Y0299185D02*
X0068727Y0299185D01*
X0068727Y0303120D02*
X0260609Y0303120D01*
X0260609Y0307056D02*
X0068727Y0307056D01*
X0068727Y0310991D02*
X0160369Y0310991D01*
X0162714Y0309741D02*
X0163087Y0309367D01*
X0163414Y0309367D01*
X0163702Y0309214D01*
X0164207Y0309367D01*
X0164593Y0309367D01*
X0164601Y0309359D01*
X0165129Y0309359D01*
X0165634Y0309206D01*
X0165922Y0309359D01*
X0166248Y0309359D01*
X0166622Y0309733D01*
X0175814Y0314635D01*
X0176141Y0314635D01*
X0176514Y0315008D01*
X0176979Y0315256D01*
X0177075Y0315569D01*
X0177305Y0315800D01*
X0177305Y0316327D01*
X0177459Y0316832D01*
X0177305Y0317120D01*
X0177305Y0329128D01*
X0177467Y0329569D01*
X0177305Y0329920D01*
X0177305Y0330306D01*
X0176973Y0330638D01*
X0176776Y0331064D01*
X0176525Y0331157D01*
X0176407Y0331412D01*
X0176085Y0332148D01*
X0176063Y0332156D01*
X0176053Y0332178D01*
X0175299Y0332455D01*
X0165446Y0336308D01*
X0164728Y0336623D01*
X0164685Y0336606D01*
X0164642Y0336623D01*
X0163924Y0336308D01*
X0154071Y0332455D01*
X0153317Y0332178D01*
X0153307Y0332156D01*
X0153285Y0332148D01*
X0152963Y0331412D01*
X0152856Y0331181D01*
X0152559Y0331072D01*
X0152362Y0330646D01*
X0152030Y0330314D01*
X0152030Y0329928D01*
X0151868Y0329577D01*
X0152030Y0329136D01*
X0152030Y0317128D01*
X0151877Y0316840D01*
X0152030Y0316335D01*
X0152030Y0315808D01*
X0152261Y0315577D01*
X0152356Y0315264D01*
X0152822Y0315016D01*
X0153195Y0314643D01*
X0153521Y0314643D01*
X0162714Y0309741D01*
X0168982Y0310991D02*
X0260609Y0310991D01*
X0260609Y0314927D02*
X0176433Y0314927D01*
X0177305Y0318862D02*
X0260609Y0318862D01*
X0260609Y0322798D02*
X0177305Y0322798D01*
X0177305Y0326733D02*
X0260609Y0326733D01*
X0260609Y0330669D02*
X0176959Y0330669D01*
X0169803Y0334604D02*
X0260609Y0334604D01*
X0260609Y0338540D02*
X0068727Y0338540D01*
X0068727Y0342475D02*
X0260609Y0342475D01*
X0260609Y0346411D02*
X0068727Y0346411D01*
X0068727Y0350346D02*
X0260609Y0350346D01*
X0260609Y0354282D02*
X0068727Y0354282D01*
X0068727Y0358217D02*
X0103137Y0358217D01*
X0103801Y0357835D02*
X0108237Y0356646D01*
X0112831Y0356646D01*
X0117267Y0357835D01*
X0121245Y0360131D01*
X0124493Y0363379D01*
X0126790Y0367357D01*
X0127979Y0371794D01*
X0127979Y0376387D01*
X0126790Y0380824D01*
X0124493Y0384802D01*
X0121245Y0388050D01*
X0117267Y0390347D01*
X0112831Y0391535D01*
X0108237Y0391535D01*
X0103801Y0390347D01*
X0099823Y0388050D01*
X0096575Y0384802D01*
X0094278Y0380824D01*
X0093089Y0376387D01*
X0093089Y0371794D01*
X0094278Y0367357D01*
X0096575Y0363379D01*
X0099823Y0360131D01*
X0103801Y0357835D01*
X0097801Y0362153D02*
X0068727Y0362153D01*
X0068727Y0366089D02*
X0095010Y0366089D01*
X0093563Y0370024D02*
X0068727Y0370024D01*
X0068727Y0373960D02*
X0093089Y0373960D01*
X0093493Y0377895D02*
X0068727Y0377895D01*
X0068727Y0381831D02*
X0094859Y0381831D01*
X0097539Y0385766D02*
X0068727Y0385766D01*
X0068727Y0389702D02*
X0102683Y0389702D01*
X0118385Y0389702D02*
X0208983Y0389702D01*
X0210100Y0390347D02*
X0206122Y0388050D01*
X0202874Y0384802D01*
X0200577Y0380824D01*
X0199388Y0376387D01*
X0199388Y0371794D01*
X0200577Y0367357D01*
X0202874Y0363379D01*
X0206122Y0360131D01*
X0210100Y0357835D01*
X0214537Y0356646D01*
X0219130Y0356646D01*
X0223567Y0357835D01*
X0227545Y0360131D01*
X0230793Y0363379D01*
X0233089Y0367357D01*
X0234278Y0371794D01*
X0234278Y0376387D01*
X0233089Y0380824D01*
X0230793Y0384802D01*
X0227545Y0388050D01*
X0223567Y0390347D01*
X0219130Y0391535D01*
X0214537Y0391535D01*
X0210100Y0390347D01*
X0203838Y0385766D02*
X0174601Y0385766D01*
X0174050Y0386317D02*
X0170566Y0388329D01*
X0166679Y0389370D01*
X0162656Y0389370D01*
X0158770Y0388329D01*
X0155286Y0386317D01*
X0152441Y0383472D01*
X0150430Y0379988D01*
X0149388Y0376102D01*
X0149388Y0372079D01*
X0150430Y0368193D01*
X0152441Y0364709D01*
X0155286Y0361864D01*
X0158770Y0359852D01*
X0162656Y0358811D01*
X0166679Y0358811D01*
X0170566Y0359852D01*
X0174050Y0361864D01*
X0176895Y0364709D01*
X0178906Y0368193D01*
X0179947Y0372079D01*
X0179947Y0376102D01*
X0178906Y0379988D01*
X0176895Y0383472D01*
X0174050Y0386317D01*
X0177842Y0381831D02*
X0201158Y0381831D01*
X0199792Y0377895D02*
X0179467Y0377895D01*
X0179947Y0373960D02*
X0199388Y0373960D01*
X0199863Y0370024D02*
X0179397Y0370024D01*
X0177691Y0366089D02*
X0201310Y0366089D01*
X0204100Y0362153D02*
X0174339Y0362153D01*
X0159567Y0334604D02*
X0068727Y0334604D01*
X0068727Y0330669D02*
X0152373Y0330669D01*
X0152030Y0326733D02*
X0068727Y0326733D01*
X0068727Y0322798D02*
X0152030Y0322798D01*
X0152030Y0318862D02*
X0068727Y0318862D01*
X0068727Y0314927D02*
X0152911Y0314927D01*
X0154997Y0362153D02*
X0123267Y0362153D01*
X0126058Y0366089D02*
X0151645Y0366089D01*
X0149939Y0370024D02*
X0127505Y0370024D01*
X0127979Y0373960D02*
X0149388Y0373960D01*
X0149869Y0377895D02*
X0127575Y0377895D01*
X0126209Y0381831D02*
X0151493Y0381831D01*
X0154735Y0385766D02*
X0123529Y0385766D01*
X0117931Y0358217D02*
X0209436Y0358217D01*
X0224230Y0358217D02*
X0260609Y0358217D01*
X0260609Y0362153D02*
X0229566Y0362153D01*
X0232357Y0366089D02*
X0260609Y0366089D01*
X0260609Y0370024D02*
X0233804Y0370024D01*
X0234278Y0373960D02*
X0260609Y0373960D01*
X0260609Y0377895D02*
X0233874Y0377895D01*
X0232508Y0381831D02*
X0260609Y0381831D01*
X0260609Y0385766D02*
X0229828Y0385766D01*
X0224684Y0389702D02*
X0260609Y0389702D01*
X0260609Y0393637D02*
X0068727Y0393637D01*
X0068727Y0397573D02*
X0260609Y0397573D01*
X0260609Y0401508D02*
X0068727Y0401508D01*
X0068727Y0405444D02*
X0260609Y0405444D01*
X0260609Y0409379D02*
X0169805Y0409379D01*
X0169978Y0409451D02*
X0172615Y0412088D01*
X0174042Y0415533D01*
X0174042Y0419262D01*
X0172615Y0422708D01*
X0169978Y0425345D01*
X0166532Y0426772D01*
X0162803Y0426772D01*
X0159358Y0425345D01*
X0156721Y0422708D01*
X0155294Y0419262D01*
X0155294Y0415533D01*
X0156721Y0412088D01*
X0159358Y0409451D01*
X0162803Y0408024D01*
X0166532Y0408024D01*
X0169978Y0409451D01*
X0173123Y0413315D02*
X0260609Y0413315D01*
X0260609Y0417250D02*
X0174042Y0417250D01*
X0173245Y0421186D02*
X0260609Y0421186D01*
X0260609Y0425121D02*
X0170201Y0425121D01*
X0159135Y0425121D02*
X0068727Y0425121D01*
X0068727Y0421186D02*
X0156091Y0421186D01*
X0155294Y0417250D02*
X0068727Y0417250D01*
X0068727Y0413315D02*
X0156213Y0413315D01*
X0159531Y0409379D02*
X0068727Y0409379D01*
X0068727Y0429057D02*
X0260609Y0429057D01*
X0260609Y0432992D02*
X0068727Y0432992D01*
X0068727Y0436928D02*
X0260609Y0436928D01*
X0260609Y0440863D02*
X0068727Y0440863D01*
X0068727Y0444799D02*
X0260609Y0444799D01*
X0260609Y0448734D02*
X0068727Y0448734D01*
X0068727Y0452670D02*
X0103199Y0452670D01*
X0103801Y0452323D02*
X0099823Y0454619D01*
X0096575Y0457867D01*
X0094278Y0461845D01*
X0093089Y0466282D01*
X0093089Y0470875D01*
X0094278Y0475312D01*
X0096575Y0479290D01*
X0099823Y0482538D01*
X0103801Y0484835D01*
X0108237Y0486024D01*
X0112831Y0486024D01*
X0117267Y0484835D01*
X0121245Y0482538D01*
X0124493Y0479290D01*
X0126790Y0475312D01*
X0127979Y0470875D01*
X0127979Y0466282D01*
X0126790Y0461845D01*
X0124493Y0457867D01*
X0121245Y0454619D01*
X0117267Y0452323D01*
X0112831Y0451134D01*
X0108237Y0451134D01*
X0103801Y0452323D01*
X0097836Y0456605D02*
X0068727Y0456605D01*
X0068727Y0460541D02*
X0095031Y0460541D01*
X0093573Y0464476D02*
X0068727Y0464476D01*
X0068727Y0468412D02*
X0093089Y0468412D01*
X0093484Y0472348D02*
X0068727Y0472348D01*
X0068727Y0476283D02*
X0094838Y0476283D01*
X0097503Y0480219D02*
X0068727Y0480219D01*
X0068727Y0484154D02*
X0102622Y0484154D01*
X0099556Y0511703D02*
X0229779Y0511703D01*
X0225286Y0515638D02*
X0104050Y0515638D01*
X0105667Y0519574D02*
X0223669Y0519574D01*
X0223569Y0523509D02*
X0105767Y0523509D01*
X0104265Y0527445D02*
X0225070Y0527445D01*
X0239320Y0511703D02*
X0260609Y0511703D01*
X0260609Y0515638D02*
X0243814Y0515638D01*
X0245431Y0519574D02*
X0260609Y0519574D01*
X0260609Y0523509D02*
X0245531Y0523509D01*
X0244029Y0527445D02*
X0260609Y0527445D01*
X0269983Y0543187D02*
X0057384Y0543187D01*
X0068727Y0527445D02*
X0085306Y0527445D01*
X0083805Y0523509D02*
X0068727Y0523509D01*
X0068727Y0519574D02*
X0083905Y0519574D01*
X0085522Y0515638D02*
X0068727Y0515638D01*
X0068727Y0511703D02*
X0090015Y0511703D01*
X0068727Y0507767D02*
X0260609Y0507767D01*
X0260609Y0503832D02*
X0068727Y0503832D01*
X0068727Y0499896D02*
X0260609Y0499896D01*
X0260609Y0495961D02*
X0068727Y0495961D01*
X0068727Y0492025D02*
X0260609Y0492025D01*
X0260609Y0488090D02*
X0068727Y0488090D01*
X0118446Y0484154D02*
X0208921Y0484154D01*
X0210100Y0484835D02*
X0206122Y0482538D01*
X0202874Y0479290D01*
X0200577Y0475312D01*
X0199388Y0470875D01*
X0199388Y0466282D01*
X0200577Y0461845D01*
X0202874Y0457867D01*
X0206122Y0454619D01*
X0210100Y0452323D01*
X0214537Y0451134D01*
X0219130Y0451134D01*
X0223567Y0452323D01*
X0227545Y0454619D01*
X0230793Y0457867D01*
X0233089Y0461845D01*
X0234278Y0466282D01*
X0234278Y0470875D01*
X0233089Y0475312D01*
X0230793Y0479290D01*
X0227545Y0482538D01*
X0223567Y0484835D01*
X0219130Y0486024D01*
X0214537Y0486024D01*
X0210100Y0484835D01*
X0203802Y0480219D02*
X0174637Y0480219D01*
X0174050Y0480805D02*
X0170566Y0482817D01*
X0166679Y0483858D01*
X0162656Y0483858D01*
X0158770Y0482817D01*
X0155286Y0480805D01*
X0152441Y0477961D01*
X0150430Y0474476D01*
X0149388Y0470590D01*
X0149388Y0466567D01*
X0150430Y0462681D01*
X0152441Y0459197D01*
X0155286Y0456352D01*
X0158770Y0454340D01*
X0162656Y0453299D01*
X0166679Y0453299D01*
X0170566Y0454340D01*
X0174050Y0456352D01*
X0176895Y0459197D01*
X0178906Y0462681D01*
X0179947Y0466567D01*
X0179947Y0470590D01*
X0178906Y0474476D01*
X0176895Y0477961D01*
X0174050Y0480805D01*
X0177863Y0476283D02*
X0201138Y0476283D01*
X0199783Y0472348D02*
X0179477Y0472348D01*
X0179947Y0468412D02*
X0199388Y0468412D01*
X0199872Y0464476D02*
X0179387Y0464476D01*
X0177671Y0460541D02*
X0201330Y0460541D01*
X0204136Y0456605D02*
X0174303Y0456605D01*
X0155033Y0456605D02*
X0123231Y0456605D01*
X0126037Y0460541D02*
X0151665Y0460541D01*
X0149949Y0464476D02*
X0127495Y0464476D01*
X0127979Y0468412D02*
X0149388Y0468412D01*
X0149859Y0472348D02*
X0127584Y0472348D01*
X0126230Y0476283D02*
X0151473Y0476283D01*
X0154699Y0480219D02*
X0123565Y0480219D01*
X0117869Y0452670D02*
X0209498Y0452670D01*
X0224168Y0452670D02*
X0260609Y0452670D01*
X0260609Y0456605D02*
X0229531Y0456605D01*
X0232336Y0460541D02*
X0260609Y0460541D01*
X0260609Y0464476D02*
X0233794Y0464476D01*
X0234278Y0468412D02*
X0260609Y0468412D01*
X0260609Y0472348D02*
X0233884Y0472348D01*
X0232529Y0476283D02*
X0260609Y0476283D01*
X0260609Y0480219D02*
X0229864Y0480219D01*
X0224746Y0484154D02*
X0260609Y0484154D01*
M02*
