G75*
%MOIN*%
%OFA0B0*%
%FSLAX25Y25*%
%IPPOS*%
%LPD*%
%AMOC8*
5,1,8,0,0,1.08239X$1,22.5*
%
%ADD10C,0.00000*%
D10*
X0065258Y0027634D02*
X0065258Y0533539D01*
X0264077Y0533539D01*
X0264077Y0027634D01*
X0065258Y0027634D01*
X0079038Y0090626D02*
X0079042Y0090916D01*
X0079052Y0091206D01*
X0079070Y0091495D01*
X0079095Y0091784D01*
X0079127Y0092072D01*
X0079166Y0092359D01*
X0079212Y0092645D01*
X0079265Y0092930D01*
X0079325Y0093214D01*
X0079392Y0093496D01*
X0079466Y0093776D01*
X0079547Y0094055D01*
X0079634Y0094331D01*
X0079728Y0094605D01*
X0079829Y0094877D01*
X0079937Y0095146D01*
X0080051Y0095412D01*
X0080172Y0095676D01*
X0080299Y0095936D01*
X0080433Y0096194D01*
X0080572Y0096448D01*
X0080718Y0096698D01*
X0080870Y0096945D01*
X0081029Y0097188D01*
X0081193Y0097427D01*
X0081362Y0097662D01*
X0081538Y0097893D01*
X0081719Y0098119D01*
X0081906Y0098341D01*
X0082098Y0098558D01*
X0082295Y0098770D01*
X0082497Y0098978D01*
X0082705Y0099180D01*
X0082917Y0099377D01*
X0083134Y0099569D01*
X0083356Y0099756D01*
X0083582Y0099937D01*
X0083813Y0100113D01*
X0084048Y0100282D01*
X0084287Y0100446D01*
X0084530Y0100605D01*
X0084777Y0100757D01*
X0085027Y0100903D01*
X0085281Y0101042D01*
X0085539Y0101176D01*
X0085799Y0101303D01*
X0086063Y0101424D01*
X0086329Y0101538D01*
X0086598Y0101646D01*
X0086870Y0101747D01*
X0087144Y0101841D01*
X0087420Y0101928D01*
X0087699Y0102009D01*
X0087979Y0102083D01*
X0088261Y0102150D01*
X0088545Y0102210D01*
X0088830Y0102263D01*
X0089116Y0102309D01*
X0089403Y0102348D01*
X0089691Y0102380D01*
X0089980Y0102405D01*
X0090269Y0102423D01*
X0090559Y0102433D01*
X0090849Y0102437D01*
X0091139Y0102433D01*
X0091429Y0102423D01*
X0091718Y0102405D01*
X0092007Y0102380D01*
X0092295Y0102348D01*
X0092582Y0102309D01*
X0092868Y0102263D01*
X0093153Y0102210D01*
X0093437Y0102150D01*
X0093719Y0102083D01*
X0093999Y0102009D01*
X0094278Y0101928D01*
X0094554Y0101841D01*
X0094828Y0101747D01*
X0095100Y0101646D01*
X0095369Y0101538D01*
X0095635Y0101424D01*
X0095899Y0101303D01*
X0096159Y0101176D01*
X0096417Y0101042D01*
X0096671Y0100903D01*
X0096921Y0100757D01*
X0097168Y0100605D01*
X0097411Y0100446D01*
X0097650Y0100282D01*
X0097885Y0100113D01*
X0098116Y0099937D01*
X0098342Y0099756D01*
X0098564Y0099569D01*
X0098781Y0099377D01*
X0098993Y0099180D01*
X0099201Y0098978D01*
X0099403Y0098770D01*
X0099600Y0098558D01*
X0099792Y0098341D01*
X0099979Y0098119D01*
X0100160Y0097893D01*
X0100336Y0097662D01*
X0100505Y0097427D01*
X0100669Y0097188D01*
X0100828Y0096945D01*
X0100980Y0096698D01*
X0101126Y0096448D01*
X0101265Y0096194D01*
X0101399Y0095936D01*
X0101526Y0095676D01*
X0101647Y0095412D01*
X0101761Y0095146D01*
X0101869Y0094877D01*
X0101970Y0094605D01*
X0102064Y0094331D01*
X0102151Y0094055D01*
X0102232Y0093776D01*
X0102306Y0093496D01*
X0102373Y0093214D01*
X0102433Y0092930D01*
X0102486Y0092645D01*
X0102532Y0092359D01*
X0102571Y0092072D01*
X0102603Y0091784D01*
X0102628Y0091495D01*
X0102646Y0091206D01*
X0102656Y0090916D01*
X0102660Y0090626D01*
X0102656Y0090336D01*
X0102646Y0090046D01*
X0102628Y0089757D01*
X0102603Y0089468D01*
X0102571Y0089180D01*
X0102532Y0088893D01*
X0102486Y0088607D01*
X0102433Y0088322D01*
X0102373Y0088038D01*
X0102306Y0087756D01*
X0102232Y0087476D01*
X0102151Y0087197D01*
X0102064Y0086921D01*
X0101970Y0086647D01*
X0101869Y0086375D01*
X0101761Y0086106D01*
X0101647Y0085840D01*
X0101526Y0085576D01*
X0101399Y0085316D01*
X0101265Y0085058D01*
X0101126Y0084804D01*
X0100980Y0084554D01*
X0100828Y0084307D01*
X0100669Y0084064D01*
X0100505Y0083825D01*
X0100336Y0083590D01*
X0100160Y0083359D01*
X0099979Y0083133D01*
X0099792Y0082911D01*
X0099600Y0082694D01*
X0099403Y0082482D01*
X0099201Y0082274D01*
X0098993Y0082072D01*
X0098781Y0081875D01*
X0098564Y0081683D01*
X0098342Y0081496D01*
X0098116Y0081315D01*
X0097885Y0081139D01*
X0097650Y0080970D01*
X0097411Y0080806D01*
X0097168Y0080647D01*
X0096921Y0080495D01*
X0096671Y0080349D01*
X0096417Y0080210D01*
X0096159Y0080076D01*
X0095899Y0079949D01*
X0095635Y0079828D01*
X0095369Y0079714D01*
X0095100Y0079606D01*
X0094828Y0079505D01*
X0094554Y0079411D01*
X0094278Y0079324D01*
X0093999Y0079243D01*
X0093719Y0079169D01*
X0093437Y0079102D01*
X0093153Y0079042D01*
X0092868Y0078989D01*
X0092582Y0078943D01*
X0092295Y0078904D01*
X0092007Y0078872D01*
X0091718Y0078847D01*
X0091429Y0078829D01*
X0091139Y0078819D01*
X0090849Y0078815D01*
X0090559Y0078819D01*
X0090269Y0078829D01*
X0089980Y0078847D01*
X0089691Y0078872D01*
X0089403Y0078904D01*
X0089116Y0078943D01*
X0088830Y0078989D01*
X0088545Y0079042D01*
X0088261Y0079102D01*
X0087979Y0079169D01*
X0087699Y0079243D01*
X0087420Y0079324D01*
X0087144Y0079411D01*
X0086870Y0079505D01*
X0086598Y0079606D01*
X0086329Y0079714D01*
X0086063Y0079828D01*
X0085799Y0079949D01*
X0085539Y0080076D01*
X0085281Y0080210D01*
X0085027Y0080349D01*
X0084777Y0080495D01*
X0084530Y0080647D01*
X0084287Y0080806D01*
X0084048Y0080970D01*
X0083813Y0081139D01*
X0083582Y0081315D01*
X0083356Y0081496D01*
X0083134Y0081683D01*
X0082917Y0081875D01*
X0082705Y0082072D01*
X0082497Y0082274D01*
X0082295Y0082482D01*
X0082098Y0082694D01*
X0081906Y0082911D01*
X0081719Y0083133D01*
X0081538Y0083359D01*
X0081362Y0083590D01*
X0081193Y0083825D01*
X0081029Y0084064D01*
X0080870Y0084307D01*
X0080718Y0084554D01*
X0080572Y0084804D01*
X0080433Y0085058D01*
X0080299Y0085316D01*
X0080172Y0085576D01*
X0080051Y0085840D01*
X0079937Y0086106D01*
X0079829Y0086375D01*
X0079728Y0086647D01*
X0079634Y0086921D01*
X0079547Y0087197D01*
X0079466Y0087476D01*
X0079392Y0087756D01*
X0079325Y0088038D01*
X0079265Y0088322D01*
X0079212Y0088607D01*
X0079166Y0088893D01*
X0079127Y0089180D01*
X0079095Y0089468D01*
X0079070Y0089757D01*
X0079052Y0090046D01*
X0079042Y0090336D01*
X0079038Y0090626D01*
X0079038Y0141807D02*
X0079042Y0142097D01*
X0079052Y0142387D01*
X0079070Y0142676D01*
X0079095Y0142965D01*
X0079127Y0143253D01*
X0079166Y0143540D01*
X0079212Y0143826D01*
X0079265Y0144111D01*
X0079325Y0144395D01*
X0079392Y0144677D01*
X0079466Y0144957D01*
X0079547Y0145236D01*
X0079634Y0145512D01*
X0079728Y0145786D01*
X0079829Y0146058D01*
X0079937Y0146327D01*
X0080051Y0146593D01*
X0080172Y0146857D01*
X0080299Y0147117D01*
X0080433Y0147375D01*
X0080572Y0147629D01*
X0080718Y0147879D01*
X0080870Y0148126D01*
X0081029Y0148369D01*
X0081193Y0148608D01*
X0081362Y0148843D01*
X0081538Y0149074D01*
X0081719Y0149300D01*
X0081906Y0149522D01*
X0082098Y0149739D01*
X0082295Y0149951D01*
X0082497Y0150159D01*
X0082705Y0150361D01*
X0082917Y0150558D01*
X0083134Y0150750D01*
X0083356Y0150937D01*
X0083582Y0151118D01*
X0083813Y0151294D01*
X0084048Y0151463D01*
X0084287Y0151627D01*
X0084530Y0151786D01*
X0084777Y0151938D01*
X0085027Y0152084D01*
X0085281Y0152223D01*
X0085539Y0152357D01*
X0085799Y0152484D01*
X0086063Y0152605D01*
X0086329Y0152719D01*
X0086598Y0152827D01*
X0086870Y0152928D01*
X0087144Y0153022D01*
X0087420Y0153109D01*
X0087699Y0153190D01*
X0087979Y0153264D01*
X0088261Y0153331D01*
X0088545Y0153391D01*
X0088830Y0153444D01*
X0089116Y0153490D01*
X0089403Y0153529D01*
X0089691Y0153561D01*
X0089980Y0153586D01*
X0090269Y0153604D01*
X0090559Y0153614D01*
X0090849Y0153618D01*
X0091139Y0153614D01*
X0091429Y0153604D01*
X0091718Y0153586D01*
X0092007Y0153561D01*
X0092295Y0153529D01*
X0092582Y0153490D01*
X0092868Y0153444D01*
X0093153Y0153391D01*
X0093437Y0153331D01*
X0093719Y0153264D01*
X0093999Y0153190D01*
X0094278Y0153109D01*
X0094554Y0153022D01*
X0094828Y0152928D01*
X0095100Y0152827D01*
X0095369Y0152719D01*
X0095635Y0152605D01*
X0095899Y0152484D01*
X0096159Y0152357D01*
X0096417Y0152223D01*
X0096671Y0152084D01*
X0096921Y0151938D01*
X0097168Y0151786D01*
X0097411Y0151627D01*
X0097650Y0151463D01*
X0097885Y0151294D01*
X0098116Y0151118D01*
X0098342Y0150937D01*
X0098564Y0150750D01*
X0098781Y0150558D01*
X0098993Y0150361D01*
X0099201Y0150159D01*
X0099403Y0149951D01*
X0099600Y0149739D01*
X0099792Y0149522D01*
X0099979Y0149300D01*
X0100160Y0149074D01*
X0100336Y0148843D01*
X0100505Y0148608D01*
X0100669Y0148369D01*
X0100828Y0148126D01*
X0100980Y0147879D01*
X0101126Y0147629D01*
X0101265Y0147375D01*
X0101399Y0147117D01*
X0101526Y0146857D01*
X0101647Y0146593D01*
X0101761Y0146327D01*
X0101869Y0146058D01*
X0101970Y0145786D01*
X0102064Y0145512D01*
X0102151Y0145236D01*
X0102232Y0144957D01*
X0102306Y0144677D01*
X0102373Y0144395D01*
X0102433Y0144111D01*
X0102486Y0143826D01*
X0102532Y0143540D01*
X0102571Y0143253D01*
X0102603Y0142965D01*
X0102628Y0142676D01*
X0102646Y0142387D01*
X0102656Y0142097D01*
X0102660Y0141807D01*
X0102656Y0141517D01*
X0102646Y0141227D01*
X0102628Y0140938D01*
X0102603Y0140649D01*
X0102571Y0140361D01*
X0102532Y0140074D01*
X0102486Y0139788D01*
X0102433Y0139503D01*
X0102373Y0139219D01*
X0102306Y0138937D01*
X0102232Y0138657D01*
X0102151Y0138378D01*
X0102064Y0138102D01*
X0101970Y0137828D01*
X0101869Y0137556D01*
X0101761Y0137287D01*
X0101647Y0137021D01*
X0101526Y0136757D01*
X0101399Y0136497D01*
X0101265Y0136239D01*
X0101126Y0135985D01*
X0100980Y0135735D01*
X0100828Y0135488D01*
X0100669Y0135245D01*
X0100505Y0135006D01*
X0100336Y0134771D01*
X0100160Y0134540D01*
X0099979Y0134314D01*
X0099792Y0134092D01*
X0099600Y0133875D01*
X0099403Y0133663D01*
X0099201Y0133455D01*
X0098993Y0133253D01*
X0098781Y0133056D01*
X0098564Y0132864D01*
X0098342Y0132677D01*
X0098116Y0132496D01*
X0097885Y0132320D01*
X0097650Y0132151D01*
X0097411Y0131987D01*
X0097168Y0131828D01*
X0096921Y0131676D01*
X0096671Y0131530D01*
X0096417Y0131391D01*
X0096159Y0131257D01*
X0095899Y0131130D01*
X0095635Y0131009D01*
X0095369Y0130895D01*
X0095100Y0130787D01*
X0094828Y0130686D01*
X0094554Y0130592D01*
X0094278Y0130505D01*
X0093999Y0130424D01*
X0093719Y0130350D01*
X0093437Y0130283D01*
X0093153Y0130223D01*
X0092868Y0130170D01*
X0092582Y0130124D01*
X0092295Y0130085D01*
X0092007Y0130053D01*
X0091718Y0130028D01*
X0091429Y0130010D01*
X0091139Y0130000D01*
X0090849Y0129996D01*
X0090559Y0130000D01*
X0090269Y0130010D01*
X0089980Y0130028D01*
X0089691Y0130053D01*
X0089403Y0130085D01*
X0089116Y0130124D01*
X0088830Y0130170D01*
X0088545Y0130223D01*
X0088261Y0130283D01*
X0087979Y0130350D01*
X0087699Y0130424D01*
X0087420Y0130505D01*
X0087144Y0130592D01*
X0086870Y0130686D01*
X0086598Y0130787D01*
X0086329Y0130895D01*
X0086063Y0131009D01*
X0085799Y0131130D01*
X0085539Y0131257D01*
X0085281Y0131391D01*
X0085027Y0131530D01*
X0084777Y0131676D01*
X0084530Y0131828D01*
X0084287Y0131987D01*
X0084048Y0132151D01*
X0083813Y0132320D01*
X0083582Y0132496D01*
X0083356Y0132677D01*
X0083134Y0132864D01*
X0082917Y0133056D01*
X0082705Y0133253D01*
X0082497Y0133455D01*
X0082295Y0133663D01*
X0082098Y0133875D01*
X0081906Y0134092D01*
X0081719Y0134314D01*
X0081538Y0134540D01*
X0081362Y0134771D01*
X0081193Y0135006D01*
X0081029Y0135245D01*
X0080870Y0135488D01*
X0080718Y0135735D01*
X0080572Y0135985D01*
X0080433Y0136239D01*
X0080299Y0136497D01*
X0080172Y0136757D01*
X0080051Y0137021D01*
X0079937Y0137287D01*
X0079829Y0137556D01*
X0079728Y0137828D01*
X0079634Y0138102D01*
X0079547Y0138378D01*
X0079466Y0138657D01*
X0079392Y0138937D01*
X0079325Y0139219D01*
X0079265Y0139503D01*
X0079212Y0139788D01*
X0079166Y0140074D01*
X0079127Y0140361D01*
X0079095Y0140649D01*
X0079070Y0140938D01*
X0079052Y0141227D01*
X0079042Y0141517D01*
X0079038Y0141807D01*
X0079038Y0192988D02*
X0079042Y0193278D01*
X0079052Y0193568D01*
X0079070Y0193857D01*
X0079095Y0194146D01*
X0079127Y0194434D01*
X0079166Y0194721D01*
X0079212Y0195007D01*
X0079265Y0195292D01*
X0079325Y0195576D01*
X0079392Y0195858D01*
X0079466Y0196138D01*
X0079547Y0196417D01*
X0079634Y0196693D01*
X0079728Y0196967D01*
X0079829Y0197239D01*
X0079937Y0197508D01*
X0080051Y0197774D01*
X0080172Y0198038D01*
X0080299Y0198298D01*
X0080433Y0198556D01*
X0080572Y0198810D01*
X0080718Y0199060D01*
X0080870Y0199307D01*
X0081029Y0199550D01*
X0081193Y0199789D01*
X0081362Y0200024D01*
X0081538Y0200255D01*
X0081719Y0200481D01*
X0081906Y0200703D01*
X0082098Y0200920D01*
X0082295Y0201132D01*
X0082497Y0201340D01*
X0082705Y0201542D01*
X0082917Y0201739D01*
X0083134Y0201931D01*
X0083356Y0202118D01*
X0083582Y0202299D01*
X0083813Y0202475D01*
X0084048Y0202644D01*
X0084287Y0202808D01*
X0084530Y0202967D01*
X0084777Y0203119D01*
X0085027Y0203265D01*
X0085281Y0203404D01*
X0085539Y0203538D01*
X0085799Y0203665D01*
X0086063Y0203786D01*
X0086329Y0203900D01*
X0086598Y0204008D01*
X0086870Y0204109D01*
X0087144Y0204203D01*
X0087420Y0204290D01*
X0087699Y0204371D01*
X0087979Y0204445D01*
X0088261Y0204512D01*
X0088545Y0204572D01*
X0088830Y0204625D01*
X0089116Y0204671D01*
X0089403Y0204710D01*
X0089691Y0204742D01*
X0089980Y0204767D01*
X0090269Y0204785D01*
X0090559Y0204795D01*
X0090849Y0204799D01*
X0091139Y0204795D01*
X0091429Y0204785D01*
X0091718Y0204767D01*
X0092007Y0204742D01*
X0092295Y0204710D01*
X0092582Y0204671D01*
X0092868Y0204625D01*
X0093153Y0204572D01*
X0093437Y0204512D01*
X0093719Y0204445D01*
X0093999Y0204371D01*
X0094278Y0204290D01*
X0094554Y0204203D01*
X0094828Y0204109D01*
X0095100Y0204008D01*
X0095369Y0203900D01*
X0095635Y0203786D01*
X0095899Y0203665D01*
X0096159Y0203538D01*
X0096417Y0203404D01*
X0096671Y0203265D01*
X0096921Y0203119D01*
X0097168Y0202967D01*
X0097411Y0202808D01*
X0097650Y0202644D01*
X0097885Y0202475D01*
X0098116Y0202299D01*
X0098342Y0202118D01*
X0098564Y0201931D01*
X0098781Y0201739D01*
X0098993Y0201542D01*
X0099201Y0201340D01*
X0099403Y0201132D01*
X0099600Y0200920D01*
X0099792Y0200703D01*
X0099979Y0200481D01*
X0100160Y0200255D01*
X0100336Y0200024D01*
X0100505Y0199789D01*
X0100669Y0199550D01*
X0100828Y0199307D01*
X0100980Y0199060D01*
X0101126Y0198810D01*
X0101265Y0198556D01*
X0101399Y0198298D01*
X0101526Y0198038D01*
X0101647Y0197774D01*
X0101761Y0197508D01*
X0101869Y0197239D01*
X0101970Y0196967D01*
X0102064Y0196693D01*
X0102151Y0196417D01*
X0102232Y0196138D01*
X0102306Y0195858D01*
X0102373Y0195576D01*
X0102433Y0195292D01*
X0102486Y0195007D01*
X0102532Y0194721D01*
X0102571Y0194434D01*
X0102603Y0194146D01*
X0102628Y0193857D01*
X0102646Y0193568D01*
X0102656Y0193278D01*
X0102660Y0192988D01*
X0102656Y0192698D01*
X0102646Y0192408D01*
X0102628Y0192119D01*
X0102603Y0191830D01*
X0102571Y0191542D01*
X0102532Y0191255D01*
X0102486Y0190969D01*
X0102433Y0190684D01*
X0102373Y0190400D01*
X0102306Y0190118D01*
X0102232Y0189838D01*
X0102151Y0189559D01*
X0102064Y0189283D01*
X0101970Y0189009D01*
X0101869Y0188737D01*
X0101761Y0188468D01*
X0101647Y0188202D01*
X0101526Y0187938D01*
X0101399Y0187678D01*
X0101265Y0187420D01*
X0101126Y0187166D01*
X0100980Y0186916D01*
X0100828Y0186669D01*
X0100669Y0186426D01*
X0100505Y0186187D01*
X0100336Y0185952D01*
X0100160Y0185721D01*
X0099979Y0185495D01*
X0099792Y0185273D01*
X0099600Y0185056D01*
X0099403Y0184844D01*
X0099201Y0184636D01*
X0098993Y0184434D01*
X0098781Y0184237D01*
X0098564Y0184045D01*
X0098342Y0183858D01*
X0098116Y0183677D01*
X0097885Y0183501D01*
X0097650Y0183332D01*
X0097411Y0183168D01*
X0097168Y0183009D01*
X0096921Y0182857D01*
X0096671Y0182711D01*
X0096417Y0182572D01*
X0096159Y0182438D01*
X0095899Y0182311D01*
X0095635Y0182190D01*
X0095369Y0182076D01*
X0095100Y0181968D01*
X0094828Y0181867D01*
X0094554Y0181773D01*
X0094278Y0181686D01*
X0093999Y0181605D01*
X0093719Y0181531D01*
X0093437Y0181464D01*
X0093153Y0181404D01*
X0092868Y0181351D01*
X0092582Y0181305D01*
X0092295Y0181266D01*
X0092007Y0181234D01*
X0091718Y0181209D01*
X0091429Y0181191D01*
X0091139Y0181181D01*
X0090849Y0181177D01*
X0090559Y0181181D01*
X0090269Y0181191D01*
X0089980Y0181209D01*
X0089691Y0181234D01*
X0089403Y0181266D01*
X0089116Y0181305D01*
X0088830Y0181351D01*
X0088545Y0181404D01*
X0088261Y0181464D01*
X0087979Y0181531D01*
X0087699Y0181605D01*
X0087420Y0181686D01*
X0087144Y0181773D01*
X0086870Y0181867D01*
X0086598Y0181968D01*
X0086329Y0182076D01*
X0086063Y0182190D01*
X0085799Y0182311D01*
X0085539Y0182438D01*
X0085281Y0182572D01*
X0085027Y0182711D01*
X0084777Y0182857D01*
X0084530Y0183009D01*
X0084287Y0183168D01*
X0084048Y0183332D01*
X0083813Y0183501D01*
X0083582Y0183677D01*
X0083356Y0183858D01*
X0083134Y0184045D01*
X0082917Y0184237D01*
X0082705Y0184434D01*
X0082497Y0184636D01*
X0082295Y0184844D01*
X0082098Y0185056D01*
X0081906Y0185273D01*
X0081719Y0185495D01*
X0081538Y0185721D01*
X0081362Y0185952D01*
X0081193Y0186187D01*
X0081029Y0186426D01*
X0080870Y0186669D01*
X0080718Y0186916D01*
X0080572Y0187166D01*
X0080433Y0187420D01*
X0080299Y0187678D01*
X0080172Y0187938D01*
X0080051Y0188202D01*
X0079937Y0188468D01*
X0079829Y0188737D01*
X0079728Y0189009D01*
X0079634Y0189283D01*
X0079547Y0189559D01*
X0079466Y0189838D01*
X0079392Y0190118D01*
X0079325Y0190400D01*
X0079265Y0190684D01*
X0079212Y0190969D01*
X0079166Y0191255D01*
X0079127Y0191542D01*
X0079095Y0191830D01*
X0079070Y0192119D01*
X0079052Y0192408D01*
X0079042Y0192698D01*
X0079038Y0192988D01*
X0078841Y0271728D02*
X0078845Y0272071D01*
X0078858Y0272414D01*
X0078879Y0272756D01*
X0078908Y0273098D01*
X0078946Y0273439D01*
X0078992Y0273779D01*
X0079047Y0274117D01*
X0079110Y0274455D01*
X0079181Y0274790D01*
X0079260Y0275124D01*
X0079347Y0275456D01*
X0079443Y0275785D01*
X0079546Y0276112D01*
X0079658Y0276436D01*
X0079777Y0276758D01*
X0079905Y0277076D01*
X0080040Y0277392D01*
X0080183Y0277704D01*
X0080333Y0278012D01*
X0080491Y0278316D01*
X0080657Y0278617D01*
X0080829Y0278913D01*
X0081009Y0279205D01*
X0081196Y0279493D01*
X0081390Y0279775D01*
X0081591Y0280053D01*
X0081799Y0280326D01*
X0082013Y0280594D01*
X0082234Y0280857D01*
X0082461Y0281114D01*
X0082695Y0281365D01*
X0082934Y0281611D01*
X0083180Y0281850D01*
X0083431Y0282084D01*
X0083688Y0282311D01*
X0083951Y0282532D01*
X0084219Y0282746D01*
X0084492Y0282954D01*
X0084770Y0283155D01*
X0085052Y0283349D01*
X0085340Y0283536D01*
X0085632Y0283716D01*
X0085928Y0283888D01*
X0086229Y0284054D01*
X0086533Y0284212D01*
X0086841Y0284362D01*
X0087153Y0284505D01*
X0087469Y0284640D01*
X0087787Y0284768D01*
X0088109Y0284887D01*
X0088433Y0284999D01*
X0088760Y0285102D01*
X0089089Y0285198D01*
X0089421Y0285285D01*
X0089755Y0285364D01*
X0090090Y0285435D01*
X0090428Y0285498D01*
X0090766Y0285553D01*
X0091106Y0285599D01*
X0091447Y0285637D01*
X0091789Y0285666D01*
X0092131Y0285687D01*
X0092474Y0285700D01*
X0092817Y0285704D01*
X0093160Y0285700D01*
X0093503Y0285687D01*
X0093845Y0285666D01*
X0094187Y0285637D01*
X0094528Y0285599D01*
X0094868Y0285553D01*
X0095206Y0285498D01*
X0095544Y0285435D01*
X0095879Y0285364D01*
X0096213Y0285285D01*
X0096545Y0285198D01*
X0096874Y0285102D01*
X0097201Y0284999D01*
X0097525Y0284887D01*
X0097847Y0284768D01*
X0098165Y0284640D01*
X0098481Y0284505D01*
X0098793Y0284362D01*
X0099101Y0284212D01*
X0099405Y0284054D01*
X0099706Y0283888D01*
X0100002Y0283716D01*
X0100294Y0283536D01*
X0100582Y0283349D01*
X0100864Y0283155D01*
X0101142Y0282954D01*
X0101415Y0282746D01*
X0101683Y0282532D01*
X0101946Y0282311D01*
X0102203Y0282084D01*
X0102454Y0281850D01*
X0102700Y0281611D01*
X0102939Y0281365D01*
X0103173Y0281114D01*
X0103400Y0280857D01*
X0103621Y0280594D01*
X0103835Y0280326D01*
X0104043Y0280053D01*
X0104244Y0279775D01*
X0104438Y0279493D01*
X0104625Y0279205D01*
X0104805Y0278913D01*
X0104977Y0278617D01*
X0105143Y0278316D01*
X0105301Y0278012D01*
X0105451Y0277704D01*
X0105594Y0277392D01*
X0105729Y0277076D01*
X0105857Y0276758D01*
X0105976Y0276436D01*
X0106088Y0276112D01*
X0106191Y0275785D01*
X0106287Y0275456D01*
X0106374Y0275124D01*
X0106453Y0274790D01*
X0106524Y0274455D01*
X0106587Y0274117D01*
X0106642Y0273779D01*
X0106688Y0273439D01*
X0106726Y0273098D01*
X0106755Y0272756D01*
X0106776Y0272414D01*
X0106789Y0272071D01*
X0106793Y0271728D01*
X0106789Y0271385D01*
X0106776Y0271042D01*
X0106755Y0270700D01*
X0106726Y0270358D01*
X0106688Y0270017D01*
X0106642Y0269677D01*
X0106587Y0269339D01*
X0106524Y0269001D01*
X0106453Y0268666D01*
X0106374Y0268332D01*
X0106287Y0268000D01*
X0106191Y0267671D01*
X0106088Y0267344D01*
X0105976Y0267020D01*
X0105857Y0266698D01*
X0105729Y0266380D01*
X0105594Y0266064D01*
X0105451Y0265752D01*
X0105301Y0265444D01*
X0105143Y0265140D01*
X0104977Y0264839D01*
X0104805Y0264543D01*
X0104625Y0264251D01*
X0104438Y0263963D01*
X0104244Y0263681D01*
X0104043Y0263403D01*
X0103835Y0263130D01*
X0103621Y0262862D01*
X0103400Y0262599D01*
X0103173Y0262342D01*
X0102939Y0262091D01*
X0102700Y0261845D01*
X0102454Y0261606D01*
X0102203Y0261372D01*
X0101946Y0261145D01*
X0101683Y0260924D01*
X0101415Y0260710D01*
X0101142Y0260502D01*
X0100864Y0260301D01*
X0100582Y0260107D01*
X0100294Y0259920D01*
X0100002Y0259740D01*
X0099706Y0259568D01*
X0099405Y0259402D01*
X0099101Y0259244D01*
X0098793Y0259094D01*
X0098481Y0258951D01*
X0098165Y0258816D01*
X0097847Y0258688D01*
X0097525Y0258569D01*
X0097201Y0258457D01*
X0096874Y0258354D01*
X0096545Y0258258D01*
X0096213Y0258171D01*
X0095879Y0258092D01*
X0095544Y0258021D01*
X0095206Y0257958D01*
X0094868Y0257903D01*
X0094528Y0257857D01*
X0094187Y0257819D01*
X0093845Y0257790D01*
X0093503Y0257769D01*
X0093160Y0257756D01*
X0092817Y0257752D01*
X0092474Y0257756D01*
X0092131Y0257769D01*
X0091789Y0257790D01*
X0091447Y0257819D01*
X0091106Y0257857D01*
X0090766Y0257903D01*
X0090428Y0257958D01*
X0090090Y0258021D01*
X0089755Y0258092D01*
X0089421Y0258171D01*
X0089089Y0258258D01*
X0088760Y0258354D01*
X0088433Y0258457D01*
X0088109Y0258569D01*
X0087787Y0258688D01*
X0087469Y0258816D01*
X0087153Y0258951D01*
X0086841Y0259094D01*
X0086533Y0259244D01*
X0086229Y0259402D01*
X0085928Y0259568D01*
X0085632Y0259740D01*
X0085340Y0259920D01*
X0085052Y0260107D01*
X0084770Y0260301D01*
X0084492Y0260502D01*
X0084219Y0260710D01*
X0083951Y0260924D01*
X0083688Y0261145D01*
X0083431Y0261372D01*
X0083180Y0261606D01*
X0082934Y0261845D01*
X0082695Y0262091D01*
X0082461Y0262342D01*
X0082234Y0262599D01*
X0082013Y0262862D01*
X0081799Y0263130D01*
X0081591Y0263403D01*
X0081390Y0263681D01*
X0081196Y0263963D01*
X0081009Y0264251D01*
X0080829Y0264543D01*
X0080657Y0264839D01*
X0080491Y0265140D01*
X0080333Y0265444D01*
X0080183Y0265752D01*
X0080040Y0266064D01*
X0079905Y0266380D01*
X0079777Y0266698D01*
X0079658Y0267020D01*
X0079546Y0267344D01*
X0079443Y0267671D01*
X0079347Y0268000D01*
X0079260Y0268332D01*
X0079181Y0268666D01*
X0079110Y0269001D01*
X0079047Y0269339D01*
X0078992Y0269677D01*
X0078946Y0270017D01*
X0078908Y0270358D01*
X0078879Y0270700D01*
X0078858Y0271042D01*
X0078845Y0271385D01*
X0078841Y0271728D01*
X0096558Y0374091D02*
X0096562Y0374434D01*
X0096575Y0374777D01*
X0096596Y0375119D01*
X0096625Y0375461D01*
X0096663Y0375802D01*
X0096709Y0376142D01*
X0096764Y0376480D01*
X0096827Y0376818D01*
X0096898Y0377153D01*
X0096977Y0377487D01*
X0097064Y0377819D01*
X0097160Y0378148D01*
X0097263Y0378475D01*
X0097375Y0378799D01*
X0097494Y0379121D01*
X0097622Y0379439D01*
X0097757Y0379755D01*
X0097900Y0380067D01*
X0098050Y0380375D01*
X0098208Y0380679D01*
X0098374Y0380980D01*
X0098546Y0381276D01*
X0098726Y0381568D01*
X0098913Y0381856D01*
X0099107Y0382138D01*
X0099308Y0382416D01*
X0099516Y0382689D01*
X0099730Y0382957D01*
X0099951Y0383220D01*
X0100178Y0383477D01*
X0100412Y0383728D01*
X0100651Y0383974D01*
X0100897Y0384213D01*
X0101148Y0384447D01*
X0101405Y0384674D01*
X0101668Y0384895D01*
X0101936Y0385109D01*
X0102209Y0385317D01*
X0102487Y0385518D01*
X0102769Y0385712D01*
X0103057Y0385899D01*
X0103349Y0386079D01*
X0103645Y0386251D01*
X0103946Y0386417D01*
X0104250Y0386575D01*
X0104558Y0386725D01*
X0104870Y0386868D01*
X0105186Y0387003D01*
X0105504Y0387131D01*
X0105826Y0387250D01*
X0106150Y0387362D01*
X0106477Y0387465D01*
X0106806Y0387561D01*
X0107138Y0387648D01*
X0107472Y0387727D01*
X0107807Y0387798D01*
X0108145Y0387861D01*
X0108483Y0387916D01*
X0108823Y0387962D01*
X0109164Y0388000D01*
X0109506Y0388029D01*
X0109848Y0388050D01*
X0110191Y0388063D01*
X0110534Y0388067D01*
X0110877Y0388063D01*
X0111220Y0388050D01*
X0111562Y0388029D01*
X0111904Y0388000D01*
X0112245Y0387962D01*
X0112585Y0387916D01*
X0112923Y0387861D01*
X0113261Y0387798D01*
X0113596Y0387727D01*
X0113930Y0387648D01*
X0114262Y0387561D01*
X0114591Y0387465D01*
X0114918Y0387362D01*
X0115242Y0387250D01*
X0115564Y0387131D01*
X0115882Y0387003D01*
X0116198Y0386868D01*
X0116510Y0386725D01*
X0116818Y0386575D01*
X0117122Y0386417D01*
X0117423Y0386251D01*
X0117719Y0386079D01*
X0118011Y0385899D01*
X0118299Y0385712D01*
X0118581Y0385518D01*
X0118859Y0385317D01*
X0119132Y0385109D01*
X0119400Y0384895D01*
X0119663Y0384674D01*
X0119920Y0384447D01*
X0120171Y0384213D01*
X0120417Y0383974D01*
X0120656Y0383728D01*
X0120890Y0383477D01*
X0121117Y0383220D01*
X0121338Y0382957D01*
X0121552Y0382689D01*
X0121760Y0382416D01*
X0121961Y0382138D01*
X0122155Y0381856D01*
X0122342Y0381568D01*
X0122522Y0381276D01*
X0122694Y0380980D01*
X0122860Y0380679D01*
X0123018Y0380375D01*
X0123168Y0380067D01*
X0123311Y0379755D01*
X0123446Y0379439D01*
X0123574Y0379121D01*
X0123693Y0378799D01*
X0123805Y0378475D01*
X0123908Y0378148D01*
X0124004Y0377819D01*
X0124091Y0377487D01*
X0124170Y0377153D01*
X0124241Y0376818D01*
X0124304Y0376480D01*
X0124359Y0376142D01*
X0124405Y0375802D01*
X0124443Y0375461D01*
X0124472Y0375119D01*
X0124493Y0374777D01*
X0124506Y0374434D01*
X0124510Y0374091D01*
X0124506Y0373748D01*
X0124493Y0373405D01*
X0124472Y0373063D01*
X0124443Y0372721D01*
X0124405Y0372380D01*
X0124359Y0372040D01*
X0124304Y0371702D01*
X0124241Y0371364D01*
X0124170Y0371029D01*
X0124091Y0370695D01*
X0124004Y0370363D01*
X0123908Y0370034D01*
X0123805Y0369707D01*
X0123693Y0369383D01*
X0123574Y0369061D01*
X0123446Y0368743D01*
X0123311Y0368427D01*
X0123168Y0368115D01*
X0123018Y0367807D01*
X0122860Y0367503D01*
X0122694Y0367202D01*
X0122522Y0366906D01*
X0122342Y0366614D01*
X0122155Y0366326D01*
X0121961Y0366044D01*
X0121760Y0365766D01*
X0121552Y0365493D01*
X0121338Y0365225D01*
X0121117Y0364962D01*
X0120890Y0364705D01*
X0120656Y0364454D01*
X0120417Y0364208D01*
X0120171Y0363969D01*
X0119920Y0363735D01*
X0119663Y0363508D01*
X0119400Y0363287D01*
X0119132Y0363073D01*
X0118859Y0362865D01*
X0118581Y0362664D01*
X0118299Y0362470D01*
X0118011Y0362283D01*
X0117719Y0362103D01*
X0117423Y0361931D01*
X0117122Y0361765D01*
X0116818Y0361607D01*
X0116510Y0361457D01*
X0116198Y0361314D01*
X0115882Y0361179D01*
X0115564Y0361051D01*
X0115242Y0360932D01*
X0114918Y0360820D01*
X0114591Y0360717D01*
X0114262Y0360621D01*
X0113930Y0360534D01*
X0113596Y0360455D01*
X0113261Y0360384D01*
X0112923Y0360321D01*
X0112585Y0360266D01*
X0112245Y0360220D01*
X0111904Y0360182D01*
X0111562Y0360153D01*
X0111220Y0360132D01*
X0110877Y0360119D01*
X0110534Y0360115D01*
X0110191Y0360119D01*
X0109848Y0360132D01*
X0109506Y0360153D01*
X0109164Y0360182D01*
X0108823Y0360220D01*
X0108483Y0360266D01*
X0108145Y0360321D01*
X0107807Y0360384D01*
X0107472Y0360455D01*
X0107138Y0360534D01*
X0106806Y0360621D01*
X0106477Y0360717D01*
X0106150Y0360820D01*
X0105826Y0360932D01*
X0105504Y0361051D01*
X0105186Y0361179D01*
X0104870Y0361314D01*
X0104558Y0361457D01*
X0104250Y0361607D01*
X0103946Y0361765D01*
X0103645Y0361931D01*
X0103349Y0362103D01*
X0103057Y0362283D01*
X0102769Y0362470D01*
X0102487Y0362664D01*
X0102209Y0362865D01*
X0101936Y0363073D01*
X0101668Y0363287D01*
X0101405Y0363508D01*
X0101148Y0363735D01*
X0100897Y0363969D01*
X0100651Y0364208D01*
X0100412Y0364454D01*
X0100178Y0364705D01*
X0099951Y0364962D01*
X0099730Y0365225D01*
X0099516Y0365493D01*
X0099308Y0365766D01*
X0099107Y0366044D01*
X0098913Y0366326D01*
X0098726Y0366614D01*
X0098546Y0366906D01*
X0098374Y0367202D01*
X0098208Y0367503D01*
X0098050Y0367807D01*
X0097900Y0368115D01*
X0097757Y0368427D01*
X0097622Y0368743D01*
X0097494Y0369061D01*
X0097375Y0369383D01*
X0097263Y0369707D01*
X0097160Y0370034D01*
X0097064Y0370363D01*
X0096977Y0370695D01*
X0096898Y0371029D01*
X0096827Y0371364D01*
X0096764Y0371702D01*
X0096709Y0372040D01*
X0096663Y0372380D01*
X0096625Y0372721D01*
X0096596Y0373063D01*
X0096575Y0373405D01*
X0096562Y0373748D01*
X0096558Y0374091D01*
X0096558Y0468579D02*
X0096562Y0468922D01*
X0096575Y0469265D01*
X0096596Y0469607D01*
X0096625Y0469949D01*
X0096663Y0470290D01*
X0096709Y0470630D01*
X0096764Y0470968D01*
X0096827Y0471306D01*
X0096898Y0471641D01*
X0096977Y0471975D01*
X0097064Y0472307D01*
X0097160Y0472636D01*
X0097263Y0472963D01*
X0097375Y0473287D01*
X0097494Y0473609D01*
X0097622Y0473927D01*
X0097757Y0474243D01*
X0097900Y0474555D01*
X0098050Y0474863D01*
X0098208Y0475167D01*
X0098374Y0475468D01*
X0098546Y0475764D01*
X0098726Y0476056D01*
X0098913Y0476344D01*
X0099107Y0476626D01*
X0099308Y0476904D01*
X0099516Y0477177D01*
X0099730Y0477445D01*
X0099951Y0477708D01*
X0100178Y0477965D01*
X0100412Y0478216D01*
X0100651Y0478462D01*
X0100897Y0478701D01*
X0101148Y0478935D01*
X0101405Y0479162D01*
X0101668Y0479383D01*
X0101936Y0479597D01*
X0102209Y0479805D01*
X0102487Y0480006D01*
X0102769Y0480200D01*
X0103057Y0480387D01*
X0103349Y0480567D01*
X0103645Y0480739D01*
X0103946Y0480905D01*
X0104250Y0481063D01*
X0104558Y0481213D01*
X0104870Y0481356D01*
X0105186Y0481491D01*
X0105504Y0481619D01*
X0105826Y0481738D01*
X0106150Y0481850D01*
X0106477Y0481953D01*
X0106806Y0482049D01*
X0107138Y0482136D01*
X0107472Y0482215D01*
X0107807Y0482286D01*
X0108145Y0482349D01*
X0108483Y0482404D01*
X0108823Y0482450D01*
X0109164Y0482488D01*
X0109506Y0482517D01*
X0109848Y0482538D01*
X0110191Y0482551D01*
X0110534Y0482555D01*
X0110877Y0482551D01*
X0111220Y0482538D01*
X0111562Y0482517D01*
X0111904Y0482488D01*
X0112245Y0482450D01*
X0112585Y0482404D01*
X0112923Y0482349D01*
X0113261Y0482286D01*
X0113596Y0482215D01*
X0113930Y0482136D01*
X0114262Y0482049D01*
X0114591Y0481953D01*
X0114918Y0481850D01*
X0115242Y0481738D01*
X0115564Y0481619D01*
X0115882Y0481491D01*
X0116198Y0481356D01*
X0116510Y0481213D01*
X0116818Y0481063D01*
X0117122Y0480905D01*
X0117423Y0480739D01*
X0117719Y0480567D01*
X0118011Y0480387D01*
X0118299Y0480200D01*
X0118581Y0480006D01*
X0118859Y0479805D01*
X0119132Y0479597D01*
X0119400Y0479383D01*
X0119663Y0479162D01*
X0119920Y0478935D01*
X0120171Y0478701D01*
X0120417Y0478462D01*
X0120656Y0478216D01*
X0120890Y0477965D01*
X0121117Y0477708D01*
X0121338Y0477445D01*
X0121552Y0477177D01*
X0121760Y0476904D01*
X0121961Y0476626D01*
X0122155Y0476344D01*
X0122342Y0476056D01*
X0122522Y0475764D01*
X0122694Y0475468D01*
X0122860Y0475167D01*
X0123018Y0474863D01*
X0123168Y0474555D01*
X0123311Y0474243D01*
X0123446Y0473927D01*
X0123574Y0473609D01*
X0123693Y0473287D01*
X0123805Y0472963D01*
X0123908Y0472636D01*
X0124004Y0472307D01*
X0124091Y0471975D01*
X0124170Y0471641D01*
X0124241Y0471306D01*
X0124304Y0470968D01*
X0124359Y0470630D01*
X0124405Y0470290D01*
X0124443Y0469949D01*
X0124472Y0469607D01*
X0124493Y0469265D01*
X0124506Y0468922D01*
X0124510Y0468579D01*
X0124506Y0468236D01*
X0124493Y0467893D01*
X0124472Y0467551D01*
X0124443Y0467209D01*
X0124405Y0466868D01*
X0124359Y0466528D01*
X0124304Y0466190D01*
X0124241Y0465852D01*
X0124170Y0465517D01*
X0124091Y0465183D01*
X0124004Y0464851D01*
X0123908Y0464522D01*
X0123805Y0464195D01*
X0123693Y0463871D01*
X0123574Y0463549D01*
X0123446Y0463231D01*
X0123311Y0462915D01*
X0123168Y0462603D01*
X0123018Y0462295D01*
X0122860Y0461991D01*
X0122694Y0461690D01*
X0122522Y0461394D01*
X0122342Y0461102D01*
X0122155Y0460814D01*
X0121961Y0460532D01*
X0121760Y0460254D01*
X0121552Y0459981D01*
X0121338Y0459713D01*
X0121117Y0459450D01*
X0120890Y0459193D01*
X0120656Y0458942D01*
X0120417Y0458696D01*
X0120171Y0458457D01*
X0119920Y0458223D01*
X0119663Y0457996D01*
X0119400Y0457775D01*
X0119132Y0457561D01*
X0118859Y0457353D01*
X0118581Y0457152D01*
X0118299Y0456958D01*
X0118011Y0456771D01*
X0117719Y0456591D01*
X0117423Y0456419D01*
X0117122Y0456253D01*
X0116818Y0456095D01*
X0116510Y0455945D01*
X0116198Y0455802D01*
X0115882Y0455667D01*
X0115564Y0455539D01*
X0115242Y0455420D01*
X0114918Y0455308D01*
X0114591Y0455205D01*
X0114262Y0455109D01*
X0113930Y0455022D01*
X0113596Y0454943D01*
X0113261Y0454872D01*
X0112923Y0454809D01*
X0112585Y0454754D01*
X0112245Y0454708D01*
X0111904Y0454670D01*
X0111562Y0454641D01*
X0111220Y0454620D01*
X0110877Y0454607D01*
X0110534Y0454603D01*
X0110191Y0454607D01*
X0109848Y0454620D01*
X0109506Y0454641D01*
X0109164Y0454670D01*
X0108823Y0454708D01*
X0108483Y0454754D01*
X0108145Y0454809D01*
X0107807Y0454872D01*
X0107472Y0454943D01*
X0107138Y0455022D01*
X0106806Y0455109D01*
X0106477Y0455205D01*
X0106150Y0455308D01*
X0105826Y0455420D01*
X0105504Y0455539D01*
X0105186Y0455667D01*
X0104870Y0455802D01*
X0104558Y0455945D01*
X0104250Y0456095D01*
X0103946Y0456253D01*
X0103645Y0456419D01*
X0103349Y0456591D01*
X0103057Y0456771D01*
X0102769Y0456958D01*
X0102487Y0457152D01*
X0102209Y0457353D01*
X0101936Y0457561D01*
X0101668Y0457775D01*
X0101405Y0457996D01*
X0101148Y0458223D01*
X0100897Y0458457D01*
X0100651Y0458696D01*
X0100412Y0458942D01*
X0100178Y0459193D01*
X0099951Y0459450D01*
X0099730Y0459713D01*
X0099516Y0459981D01*
X0099308Y0460254D01*
X0099107Y0460532D01*
X0098913Y0460814D01*
X0098726Y0461102D01*
X0098546Y0461394D01*
X0098374Y0461690D01*
X0098208Y0461991D01*
X0098050Y0462295D01*
X0097900Y0462603D01*
X0097757Y0462915D01*
X0097622Y0463231D01*
X0097494Y0463549D01*
X0097375Y0463871D01*
X0097263Y0464195D01*
X0097160Y0464522D01*
X0097064Y0464851D01*
X0096977Y0465183D01*
X0096898Y0465517D01*
X0096827Y0465852D01*
X0096764Y0466190D01*
X0096709Y0466528D01*
X0096663Y0466868D01*
X0096625Y0467209D01*
X0096596Y0467551D01*
X0096575Y0467893D01*
X0096562Y0468236D01*
X0096558Y0468579D01*
X0152857Y0468579D02*
X0152861Y0468869D01*
X0152871Y0469159D01*
X0152889Y0469448D01*
X0152914Y0469737D01*
X0152946Y0470025D01*
X0152985Y0470312D01*
X0153031Y0470598D01*
X0153084Y0470883D01*
X0153144Y0471167D01*
X0153211Y0471449D01*
X0153285Y0471729D01*
X0153366Y0472008D01*
X0153453Y0472284D01*
X0153547Y0472558D01*
X0153648Y0472830D01*
X0153756Y0473099D01*
X0153870Y0473365D01*
X0153991Y0473629D01*
X0154118Y0473889D01*
X0154252Y0474147D01*
X0154391Y0474401D01*
X0154537Y0474651D01*
X0154689Y0474898D01*
X0154848Y0475141D01*
X0155012Y0475380D01*
X0155181Y0475615D01*
X0155357Y0475846D01*
X0155538Y0476072D01*
X0155725Y0476294D01*
X0155917Y0476511D01*
X0156114Y0476723D01*
X0156316Y0476931D01*
X0156524Y0477133D01*
X0156736Y0477330D01*
X0156953Y0477522D01*
X0157175Y0477709D01*
X0157401Y0477890D01*
X0157632Y0478066D01*
X0157867Y0478235D01*
X0158106Y0478399D01*
X0158349Y0478558D01*
X0158596Y0478710D01*
X0158846Y0478856D01*
X0159100Y0478995D01*
X0159358Y0479129D01*
X0159618Y0479256D01*
X0159882Y0479377D01*
X0160148Y0479491D01*
X0160417Y0479599D01*
X0160689Y0479700D01*
X0160963Y0479794D01*
X0161239Y0479881D01*
X0161518Y0479962D01*
X0161798Y0480036D01*
X0162080Y0480103D01*
X0162364Y0480163D01*
X0162649Y0480216D01*
X0162935Y0480262D01*
X0163222Y0480301D01*
X0163510Y0480333D01*
X0163799Y0480358D01*
X0164088Y0480376D01*
X0164378Y0480386D01*
X0164668Y0480390D01*
X0164958Y0480386D01*
X0165248Y0480376D01*
X0165537Y0480358D01*
X0165826Y0480333D01*
X0166114Y0480301D01*
X0166401Y0480262D01*
X0166687Y0480216D01*
X0166972Y0480163D01*
X0167256Y0480103D01*
X0167538Y0480036D01*
X0167818Y0479962D01*
X0168097Y0479881D01*
X0168373Y0479794D01*
X0168647Y0479700D01*
X0168919Y0479599D01*
X0169188Y0479491D01*
X0169454Y0479377D01*
X0169718Y0479256D01*
X0169978Y0479129D01*
X0170236Y0478995D01*
X0170490Y0478856D01*
X0170740Y0478710D01*
X0170987Y0478558D01*
X0171230Y0478399D01*
X0171469Y0478235D01*
X0171704Y0478066D01*
X0171935Y0477890D01*
X0172161Y0477709D01*
X0172383Y0477522D01*
X0172600Y0477330D01*
X0172812Y0477133D01*
X0173020Y0476931D01*
X0173222Y0476723D01*
X0173419Y0476511D01*
X0173611Y0476294D01*
X0173798Y0476072D01*
X0173979Y0475846D01*
X0174155Y0475615D01*
X0174324Y0475380D01*
X0174488Y0475141D01*
X0174647Y0474898D01*
X0174799Y0474651D01*
X0174945Y0474401D01*
X0175084Y0474147D01*
X0175218Y0473889D01*
X0175345Y0473629D01*
X0175466Y0473365D01*
X0175580Y0473099D01*
X0175688Y0472830D01*
X0175789Y0472558D01*
X0175883Y0472284D01*
X0175970Y0472008D01*
X0176051Y0471729D01*
X0176125Y0471449D01*
X0176192Y0471167D01*
X0176252Y0470883D01*
X0176305Y0470598D01*
X0176351Y0470312D01*
X0176390Y0470025D01*
X0176422Y0469737D01*
X0176447Y0469448D01*
X0176465Y0469159D01*
X0176475Y0468869D01*
X0176479Y0468579D01*
X0176475Y0468289D01*
X0176465Y0467999D01*
X0176447Y0467710D01*
X0176422Y0467421D01*
X0176390Y0467133D01*
X0176351Y0466846D01*
X0176305Y0466560D01*
X0176252Y0466275D01*
X0176192Y0465991D01*
X0176125Y0465709D01*
X0176051Y0465429D01*
X0175970Y0465150D01*
X0175883Y0464874D01*
X0175789Y0464600D01*
X0175688Y0464328D01*
X0175580Y0464059D01*
X0175466Y0463793D01*
X0175345Y0463529D01*
X0175218Y0463269D01*
X0175084Y0463011D01*
X0174945Y0462757D01*
X0174799Y0462507D01*
X0174647Y0462260D01*
X0174488Y0462017D01*
X0174324Y0461778D01*
X0174155Y0461543D01*
X0173979Y0461312D01*
X0173798Y0461086D01*
X0173611Y0460864D01*
X0173419Y0460647D01*
X0173222Y0460435D01*
X0173020Y0460227D01*
X0172812Y0460025D01*
X0172600Y0459828D01*
X0172383Y0459636D01*
X0172161Y0459449D01*
X0171935Y0459268D01*
X0171704Y0459092D01*
X0171469Y0458923D01*
X0171230Y0458759D01*
X0170987Y0458600D01*
X0170740Y0458448D01*
X0170490Y0458302D01*
X0170236Y0458163D01*
X0169978Y0458029D01*
X0169718Y0457902D01*
X0169454Y0457781D01*
X0169188Y0457667D01*
X0168919Y0457559D01*
X0168647Y0457458D01*
X0168373Y0457364D01*
X0168097Y0457277D01*
X0167818Y0457196D01*
X0167538Y0457122D01*
X0167256Y0457055D01*
X0166972Y0456995D01*
X0166687Y0456942D01*
X0166401Y0456896D01*
X0166114Y0456857D01*
X0165826Y0456825D01*
X0165537Y0456800D01*
X0165248Y0456782D01*
X0164958Y0456772D01*
X0164668Y0456768D01*
X0164378Y0456772D01*
X0164088Y0456782D01*
X0163799Y0456800D01*
X0163510Y0456825D01*
X0163222Y0456857D01*
X0162935Y0456896D01*
X0162649Y0456942D01*
X0162364Y0456995D01*
X0162080Y0457055D01*
X0161798Y0457122D01*
X0161518Y0457196D01*
X0161239Y0457277D01*
X0160963Y0457364D01*
X0160689Y0457458D01*
X0160417Y0457559D01*
X0160148Y0457667D01*
X0159882Y0457781D01*
X0159618Y0457902D01*
X0159358Y0458029D01*
X0159100Y0458163D01*
X0158846Y0458302D01*
X0158596Y0458448D01*
X0158349Y0458600D01*
X0158106Y0458759D01*
X0157867Y0458923D01*
X0157632Y0459092D01*
X0157401Y0459268D01*
X0157175Y0459449D01*
X0156953Y0459636D01*
X0156736Y0459828D01*
X0156524Y0460025D01*
X0156316Y0460227D01*
X0156114Y0460435D01*
X0155917Y0460647D01*
X0155725Y0460864D01*
X0155538Y0461086D01*
X0155357Y0461312D01*
X0155181Y0461543D01*
X0155012Y0461778D01*
X0154848Y0462017D01*
X0154689Y0462260D01*
X0154537Y0462507D01*
X0154391Y0462757D01*
X0154252Y0463011D01*
X0154118Y0463269D01*
X0153991Y0463529D01*
X0153870Y0463793D01*
X0153756Y0464059D01*
X0153648Y0464328D01*
X0153547Y0464600D01*
X0153453Y0464874D01*
X0153366Y0465150D01*
X0153285Y0465429D01*
X0153211Y0465709D01*
X0153144Y0465991D01*
X0153084Y0466275D01*
X0153031Y0466560D01*
X0152985Y0466846D01*
X0152946Y0467133D01*
X0152914Y0467421D01*
X0152889Y0467710D01*
X0152871Y0467999D01*
X0152861Y0468289D01*
X0152857Y0468579D01*
X0158762Y0417398D02*
X0158764Y0417551D01*
X0158770Y0417705D01*
X0158780Y0417858D01*
X0158794Y0418010D01*
X0158812Y0418163D01*
X0158834Y0418314D01*
X0158859Y0418465D01*
X0158889Y0418616D01*
X0158923Y0418766D01*
X0158960Y0418914D01*
X0159001Y0419062D01*
X0159046Y0419208D01*
X0159095Y0419354D01*
X0159148Y0419498D01*
X0159204Y0419640D01*
X0159264Y0419781D01*
X0159328Y0419921D01*
X0159395Y0420059D01*
X0159466Y0420195D01*
X0159541Y0420329D01*
X0159618Y0420461D01*
X0159700Y0420591D01*
X0159784Y0420719D01*
X0159872Y0420845D01*
X0159963Y0420968D01*
X0160057Y0421089D01*
X0160155Y0421207D01*
X0160255Y0421323D01*
X0160359Y0421436D01*
X0160465Y0421547D01*
X0160574Y0421655D01*
X0160686Y0421760D01*
X0160800Y0421861D01*
X0160918Y0421960D01*
X0161037Y0422056D01*
X0161159Y0422149D01*
X0161284Y0422238D01*
X0161411Y0422325D01*
X0161540Y0422407D01*
X0161671Y0422487D01*
X0161804Y0422563D01*
X0161939Y0422636D01*
X0162076Y0422705D01*
X0162215Y0422770D01*
X0162355Y0422832D01*
X0162497Y0422890D01*
X0162640Y0422945D01*
X0162785Y0422996D01*
X0162931Y0423043D01*
X0163078Y0423086D01*
X0163226Y0423125D01*
X0163375Y0423161D01*
X0163525Y0423192D01*
X0163676Y0423220D01*
X0163827Y0423244D01*
X0163980Y0423264D01*
X0164132Y0423280D01*
X0164285Y0423292D01*
X0164438Y0423300D01*
X0164591Y0423304D01*
X0164745Y0423304D01*
X0164898Y0423300D01*
X0165051Y0423292D01*
X0165204Y0423280D01*
X0165356Y0423264D01*
X0165509Y0423244D01*
X0165660Y0423220D01*
X0165811Y0423192D01*
X0165961Y0423161D01*
X0166110Y0423125D01*
X0166258Y0423086D01*
X0166405Y0423043D01*
X0166551Y0422996D01*
X0166696Y0422945D01*
X0166839Y0422890D01*
X0166981Y0422832D01*
X0167121Y0422770D01*
X0167260Y0422705D01*
X0167397Y0422636D01*
X0167532Y0422563D01*
X0167665Y0422487D01*
X0167796Y0422407D01*
X0167925Y0422325D01*
X0168052Y0422238D01*
X0168177Y0422149D01*
X0168299Y0422056D01*
X0168418Y0421960D01*
X0168536Y0421861D01*
X0168650Y0421760D01*
X0168762Y0421655D01*
X0168871Y0421547D01*
X0168977Y0421436D01*
X0169081Y0421323D01*
X0169181Y0421207D01*
X0169279Y0421089D01*
X0169373Y0420968D01*
X0169464Y0420845D01*
X0169552Y0420719D01*
X0169636Y0420591D01*
X0169718Y0420461D01*
X0169795Y0420329D01*
X0169870Y0420195D01*
X0169941Y0420059D01*
X0170008Y0419921D01*
X0170072Y0419781D01*
X0170132Y0419640D01*
X0170188Y0419498D01*
X0170241Y0419354D01*
X0170290Y0419208D01*
X0170335Y0419062D01*
X0170376Y0418914D01*
X0170413Y0418766D01*
X0170447Y0418616D01*
X0170477Y0418465D01*
X0170502Y0418314D01*
X0170524Y0418163D01*
X0170542Y0418010D01*
X0170556Y0417858D01*
X0170566Y0417705D01*
X0170572Y0417551D01*
X0170574Y0417398D01*
X0170572Y0417245D01*
X0170566Y0417091D01*
X0170556Y0416938D01*
X0170542Y0416786D01*
X0170524Y0416633D01*
X0170502Y0416482D01*
X0170477Y0416331D01*
X0170447Y0416180D01*
X0170413Y0416030D01*
X0170376Y0415882D01*
X0170335Y0415734D01*
X0170290Y0415588D01*
X0170241Y0415442D01*
X0170188Y0415298D01*
X0170132Y0415156D01*
X0170072Y0415015D01*
X0170008Y0414875D01*
X0169941Y0414737D01*
X0169870Y0414601D01*
X0169795Y0414467D01*
X0169718Y0414335D01*
X0169636Y0414205D01*
X0169552Y0414077D01*
X0169464Y0413951D01*
X0169373Y0413828D01*
X0169279Y0413707D01*
X0169181Y0413589D01*
X0169081Y0413473D01*
X0168977Y0413360D01*
X0168871Y0413249D01*
X0168762Y0413141D01*
X0168650Y0413036D01*
X0168536Y0412935D01*
X0168418Y0412836D01*
X0168299Y0412740D01*
X0168177Y0412647D01*
X0168052Y0412558D01*
X0167925Y0412471D01*
X0167796Y0412389D01*
X0167665Y0412309D01*
X0167532Y0412233D01*
X0167397Y0412160D01*
X0167260Y0412091D01*
X0167121Y0412026D01*
X0166981Y0411964D01*
X0166839Y0411906D01*
X0166696Y0411851D01*
X0166551Y0411800D01*
X0166405Y0411753D01*
X0166258Y0411710D01*
X0166110Y0411671D01*
X0165961Y0411635D01*
X0165811Y0411604D01*
X0165660Y0411576D01*
X0165509Y0411552D01*
X0165356Y0411532D01*
X0165204Y0411516D01*
X0165051Y0411504D01*
X0164898Y0411496D01*
X0164745Y0411492D01*
X0164591Y0411492D01*
X0164438Y0411496D01*
X0164285Y0411504D01*
X0164132Y0411516D01*
X0163980Y0411532D01*
X0163827Y0411552D01*
X0163676Y0411576D01*
X0163525Y0411604D01*
X0163375Y0411635D01*
X0163226Y0411671D01*
X0163078Y0411710D01*
X0162931Y0411753D01*
X0162785Y0411800D01*
X0162640Y0411851D01*
X0162497Y0411906D01*
X0162355Y0411964D01*
X0162215Y0412026D01*
X0162076Y0412091D01*
X0161939Y0412160D01*
X0161804Y0412233D01*
X0161671Y0412309D01*
X0161540Y0412389D01*
X0161411Y0412471D01*
X0161284Y0412558D01*
X0161159Y0412647D01*
X0161037Y0412740D01*
X0160918Y0412836D01*
X0160800Y0412935D01*
X0160686Y0413036D01*
X0160574Y0413141D01*
X0160465Y0413249D01*
X0160359Y0413360D01*
X0160255Y0413473D01*
X0160155Y0413589D01*
X0160057Y0413707D01*
X0159963Y0413828D01*
X0159872Y0413951D01*
X0159784Y0414077D01*
X0159700Y0414205D01*
X0159618Y0414335D01*
X0159541Y0414467D01*
X0159466Y0414601D01*
X0159395Y0414737D01*
X0159328Y0414875D01*
X0159264Y0415015D01*
X0159204Y0415156D01*
X0159148Y0415298D01*
X0159095Y0415442D01*
X0159046Y0415588D01*
X0159001Y0415734D01*
X0158960Y0415882D01*
X0158923Y0416030D01*
X0158889Y0416180D01*
X0158859Y0416331D01*
X0158834Y0416482D01*
X0158812Y0416633D01*
X0158794Y0416786D01*
X0158780Y0416938D01*
X0158770Y0417091D01*
X0158764Y0417245D01*
X0158762Y0417398D01*
X0152857Y0374091D02*
X0152861Y0374381D01*
X0152871Y0374671D01*
X0152889Y0374960D01*
X0152914Y0375249D01*
X0152946Y0375537D01*
X0152985Y0375824D01*
X0153031Y0376110D01*
X0153084Y0376395D01*
X0153144Y0376679D01*
X0153211Y0376961D01*
X0153285Y0377241D01*
X0153366Y0377520D01*
X0153453Y0377796D01*
X0153547Y0378070D01*
X0153648Y0378342D01*
X0153756Y0378611D01*
X0153870Y0378877D01*
X0153991Y0379141D01*
X0154118Y0379401D01*
X0154252Y0379659D01*
X0154391Y0379913D01*
X0154537Y0380163D01*
X0154689Y0380410D01*
X0154848Y0380653D01*
X0155012Y0380892D01*
X0155181Y0381127D01*
X0155357Y0381358D01*
X0155538Y0381584D01*
X0155725Y0381806D01*
X0155917Y0382023D01*
X0156114Y0382235D01*
X0156316Y0382443D01*
X0156524Y0382645D01*
X0156736Y0382842D01*
X0156953Y0383034D01*
X0157175Y0383221D01*
X0157401Y0383402D01*
X0157632Y0383578D01*
X0157867Y0383747D01*
X0158106Y0383911D01*
X0158349Y0384070D01*
X0158596Y0384222D01*
X0158846Y0384368D01*
X0159100Y0384507D01*
X0159358Y0384641D01*
X0159618Y0384768D01*
X0159882Y0384889D01*
X0160148Y0385003D01*
X0160417Y0385111D01*
X0160689Y0385212D01*
X0160963Y0385306D01*
X0161239Y0385393D01*
X0161518Y0385474D01*
X0161798Y0385548D01*
X0162080Y0385615D01*
X0162364Y0385675D01*
X0162649Y0385728D01*
X0162935Y0385774D01*
X0163222Y0385813D01*
X0163510Y0385845D01*
X0163799Y0385870D01*
X0164088Y0385888D01*
X0164378Y0385898D01*
X0164668Y0385902D01*
X0164958Y0385898D01*
X0165248Y0385888D01*
X0165537Y0385870D01*
X0165826Y0385845D01*
X0166114Y0385813D01*
X0166401Y0385774D01*
X0166687Y0385728D01*
X0166972Y0385675D01*
X0167256Y0385615D01*
X0167538Y0385548D01*
X0167818Y0385474D01*
X0168097Y0385393D01*
X0168373Y0385306D01*
X0168647Y0385212D01*
X0168919Y0385111D01*
X0169188Y0385003D01*
X0169454Y0384889D01*
X0169718Y0384768D01*
X0169978Y0384641D01*
X0170236Y0384507D01*
X0170490Y0384368D01*
X0170740Y0384222D01*
X0170987Y0384070D01*
X0171230Y0383911D01*
X0171469Y0383747D01*
X0171704Y0383578D01*
X0171935Y0383402D01*
X0172161Y0383221D01*
X0172383Y0383034D01*
X0172600Y0382842D01*
X0172812Y0382645D01*
X0173020Y0382443D01*
X0173222Y0382235D01*
X0173419Y0382023D01*
X0173611Y0381806D01*
X0173798Y0381584D01*
X0173979Y0381358D01*
X0174155Y0381127D01*
X0174324Y0380892D01*
X0174488Y0380653D01*
X0174647Y0380410D01*
X0174799Y0380163D01*
X0174945Y0379913D01*
X0175084Y0379659D01*
X0175218Y0379401D01*
X0175345Y0379141D01*
X0175466Y0378877D01*
X0175580Y0378611D01*
X0175688Y0378342D01*
X0175789Y0378070D01*
X0175883Y0377796D01*
X0175970Y0377520D01*
X0176051Y0377241D01*
X0176125Y0376961D01*
X0176192Y0376679D01*
X0176252Y0376395D01*
X0176305Y0376110D01*
X0176351Y0375824D01*
X0176390Y0375537D01*
X0176422Y0375249D01*
X0176447Y0374960D01*
X0176465Y0374671D01*
X0176475Y0374381D01*
X0176479Y0374091D01*
X0176475Y0373801D01*
X0176465Y0373511D01*
X0176447Y0373222D01*
X0176422Y0372933D01*
X0176390Y0372645D01*
X0176351Y0372358D01*
X0176305Y0372072D01*
X0176252Y0371787D01*
X0176192Y0371503D01*
X0176125Y0371221D01*
X0176051Y0370941D01*
X0175970Y0370662D01*
X0175883Y0370386D01*
X0175789Y0370112D01*
X0175688Y0369840D01*
X0175580Y0369571D01*
X0175466Y0369305D01*
X0175345Y0369041D01*
X0175218Y0368781D01*
X0175084Y0368523D01*
X0174945Y0368269D01*
X0174799Y0368019D01*
X0174647Y0367772D01*
X0174488Y0367529D01*
X0174324Y0367290D01*
X0174155Y0367055D01*
X0173979Y0366824D01*
X0173798Y0366598D01*
X0173611Y0366376D01*
X0173419Y0366159D01*
X0173222Y0365947D01*
X0173020Y0365739D01*
X0172812Y0365537D01*
X0172600Y0365340D01*
X0172383Y0365148D01*
X0172161Y0364961D01*
X0171935Y0364780D01*
X0171704Y0364604D01*
X0171469Y0364435D01*
X0171230Y0364271D01*
X0170987Y0364112D01*
X0170740Y0363960D01*
X0170490Y0363814D01*
X0170236Y0363675D01*
X0169978Y0363541D01*
X0169718Y0363414D01*
X0169454Y0363293D01*
X0169188Y0363179D01*
X0168919Y0363071D01*
X0168647Y0362970D01*
X0168373Y0362876D01*
X0168097Y0362789D01*
X0167818Y0362708D01*
X0167538Y0362634D01*
X0167256Y0362567D01*
X0166972Y0362507D01*
X0166687Y0362454D01*
X0166401Y0362408D01*
X0166114Y0362369D01*
X0165826Y0362337D01*
X0165537Y0362312D01*
X0165248Y0362294D01*
X0164958Y0362284D01*
X0164668Y0362280D01*
X0164378Y0362284D01*
X0164088Y0362294D01*
X0163799Y0362312D01*
X0163510Y0362337D01*
X0163222Y0362369D01*
X0162935Y0362408D01*
X0162649Y0362454D01*
X0162364Y0362507D01*
X0162080Y0362567D01*
X0161798Y0362634D01*
X0161518Y0362708D01*
X0161239Y0362789D01*
X0160963Y0362876D01*
X0160689Y0362970D01*
X0160417Y0363071D01*
X0160148Y0363179D01*
X0159882Y0363293D01*
X0159618Y0363414D01*
X0159358Y0363541D01*
X0159100Y0363675D01*
X0158846Y0363814D01*
X0158596Y0363960D01*
X0158349Y0364112D01*
X0158106Y0364271D01*
X0157867Y0364435D01*
X0157632Y0364604D01*
X0157401Y0364780D01*
X0157175Y0364961D01*
X0156953Y0365148D01*
X0156736Y0365340D01*
X0156524Y0365537D01*
X0156316Y0365739D01*
X0156114Y0365947D01*
X0155917Y0366159D01*
X0155725Y0366376D01*
X0155538Y0366598D01*
X0155357Y0366824D01*
X0155181Y0367055D01*
X0155012Y0367290D01*
X0154848Y0367529D01*
X0154689Y0367772D01*
X0154537Y0368019D01*
X0154391Y0368269D01*
X0154252Y0368523D01*
X0154118Y0368781D01*
X0153991Y0369041D01*
X0153870Y0369305D01*
X0153756Y0369571D01*
X0153648Y0369840D01*
X0153547Y0370112D01*
X0153453Y0370386D01*
X0153366Y0370662D01*
X0153285Y0370941D01*
X0153211Y0371221D01*
X0153144Y0371503D01*
X0153084Y0371787D01*
X0153031Y0372072D01*
X0152985Y0372358D01*
X0152946Y0372645D01*
X0152914Y0372933D01*
X0152889Y0373222D01*
X0152871Y0373511D01*
X0152861Y0373801D01*
X0152857Y0374091D01*
X0175298Y0271728D02*
X0175302Y0272071D01*
X0175315Y0272414D01*
X0175336Y0272756D01*
X0175365Y0273098D01*
X0175403Y0273439D01*
X0175449Y0273779D01*
X0175504Y0274117D01*
X0175567Y0274455D01*
X0175638Y0274790D01*
X0175717Y0275124D01*
X0175804Y0275456D01*
X0175900Y0275785D01*
X0176003Y0276112D01*
X0176115Y0276436D01*
X0176234Y0276758D01*
X0176362Y0277076D01*
X0176497Y0277392D01*
X0176640Y0277704D01*
X0176790Y0278012D01*
X0176948Y0278316D01*
X0177114Y0278617D01*
X0177286Y0278913D01*
X0177466Y0279205D01*
X0177653Y0279493D01*
X0177847Y0279775D01*
X0178048Y0280053D01*
X0178256Y0280326D01*
X0178470Y0280594D01*
X0178691Y0280857D01*
X0178918Y0281114D01*
X0179152Y0281365D01*
X0179391Y0281611D01*
X0179637Y0281850D01*
X0179888Y0282084D01*
X0180145Y0282311D01*
X0180408Y0282532D01*
X0180676Y0282746D01*
X0180949Y0282954D01*
X0181227Y0283155D01*
X0181509Y0283349D01*
X0181797Y0283536D01*
X0182089Y0283716D01*
X0182385Y0283888D01*
X0182686Y0284054D01*
X0182990Y0284212D01*
X0183298Y0284362D01*
X0183610Y0284505D01*
X0183926Y0284640D01*
X0184244Y0284768D01*
X0184566Y0284887D01*
X0184890Y0284999D01*
X0185217Y0285102D01*
X0185546Y0285198D01*
X0185878Y0285285D01*
X0186212Y0285364D01*
X0186547Y0285435D01*
X0186885Y0285498D01*
X0187223Y0285553D01*
X0187563Y0285599D01*
X0187904Y0285637D01*
X0188246Y0285666D01*
X0188588Y0285687D01*
X0188931Y0285700D01*
X0189274Y0285704D01*
X0189617Y0285700D01*
X0189960Y0285687D01*
X0190302Y0285666D01*
X0190644Y0285637D01*
X0190985Y0285599D01*
X0191325Y0285553D01*
X0191663Y0285498D01*
X0192001Y0285435D01*
X0192336Y0285364D01*
X0192670Y0285285D01*
X0193002Y0285198D01*
X0193331Y0285102D01*
X0193658Y0284999D01*
X0193982Y0284887D01*
X0194304Y0284768D01*
X0194622Y0284640D01*
X0194938Y0284505D01*
X0195250Y0284362D01*
X0195558Y0284212D01*
X0195862Y0284054D01*
X0196163Y0283888D01*
X0196459Y0283716D01*
X0196751Y0283536D01*
X0197039Y0283349D01*
X0197321Y0283155D01*
X0197599Y0282954D01*
X0197872Y0282746D01*
X0198140Y0282532D01*
X0198403Y0282311D01*
X0198660Y0282084D01*
X0198911Y0281850D01*
X0199157Y0281611D01*
X0199396Y0281365D01*
X0199630Y0281114D01*
X0199857Y0280857D01*
X0200078Y0280594D01*
X0200292Y0280326D01*
X0200500Y0280053D01*
X0200701Y0279775D01*
X0200895Y0279493D01*
X0201082Y0279205D01*
X0201262Y0278913D01*
X0201434Y0278617D01*
X0201600Y0278316D01*
X0201758Y0278012D01*
X0201908Y0277704D01*
X0202051Y0277392D01*
X0202186Y0277076D01*
X0202314Y0276758D01*
X0202433Y0276436D01*
X0202545Y0276112D01*
X0202648Y0275785D01*
X0202744Y0275456D01*
X0202831Y0275124D01*
X0202910Y0274790D01*
X0202981Y0274455D01*
X0203044Y0274117D01*
X0203099Y0273779D01*
X0203145Y0273439D01*
X0203183Y0273098D01*
X0203212Y0272756D01*
X0203233Y0272414D01*
X0203246Y0272071D01*
X0203250Y0271728D01*
X0203246Y0271385D01*
X0203233Y0271042D01*
X0203212Y0270700D01*
X0203183Y0270358D01*
X0203145Y0270017D01*
X0203099Y0269677D01*
X0203044Y0269339D01*
X0202981Y0269001D01*
X0202910Y0268666D01*
X0202831Y0268332D01*
X0202744Y0268000D01*
X0202648Y0267671D01*
X0202545Y0267344D01*
X0202433Y0267020D01*
X0202314Y0266698D01*
X0202186Y0266380D01*
X0202051Y0266064D01*
X0201908Y0265752D01*
X0201758Y0265444D01*
X0201600Y0265140D01*
X0201434Y0264839D01*
X0201262Y0264543D01*
X0201082Y0264251D01*
X0200895Y0263963D01*
X0200701Y0263681D01*
X0200500Y0263403D01*
X0200292Y0263130D01*
X0200078Y0262862D01*
X0199857Y0262599D01*
X0199630Y0262342D01*
X0199396Y0262091D01*
X0199157Y0261845D01*
X0198911Y0261606D01*
X0198660Y0261372D01*
X0198403Y0261145D01*
X0198140Y0260924D01*
X0197872Y0260710D01*
X0197599Y0260502D01*
X0197321Y0260301D01*
X0197039Y0260107D01*
X0196751Y0259920D01*
X0196459Y0259740D01*
X0196163Y0259568D01*
X0195862Y0259402D01*
X0195558Y0259244D01*
X0195250Y0259094D01*
X0194938Y0258951D01*
X0194622Y0258816D01*
X0194304Y0258688D01*
X0193982Y0258569D01*
X0193658Y0258457D01*
X0193331Y0258354D01*
X0193002Y0258258D01*
X0192670Y0258171D01*
X0192336Y0258092D01*
X0192001Y0258021D01*
X0191663Y0257958D01*
X0191325Y0257903D01*
X0190985Y0257857D01*
X0190644Y0257819D01*
X0190302Y0257790D01*
X0189960Y0257769D01*
X0189617Y0257756D01*
X0189274Y0257752D01*
X0188931Y0257756D01*
X0188588Y0257769D01*
X0188246Y0257790D01*
X0187904Y0257819D01*
X0187563Y0257857D01*
X0187223Y0257903D01*
X0186885Y0257958D01*
X0186547Y0258021D01*
X0186212Y0258092D01*
X0185878Y0258171D01*
X0185546Y0258258D01*
X0185217Y0258354D01*
X0184890Y0258457D01*
X0184566Y0258569D01*
X0184244Y0258688D01*
X0183926Y0258816D01*
X0183610Y0258951D01*
X0183298Y0259094D01*
X0182990Y0259244D01*
X0182686Y0259402D01*
X0182385Y0259568D01*
X0182089Y0259740D01*
X0181797Y0259920D01*
X0181509Y0260107D01*
X0181227Y0260301D01*
X0180949Y0260502D01*
X0180676Y0260710D01*
X0180408Y0260924D01*
X0180145Y0261145D01*
X0179888Y0261372D01*
X0179637Y0261606D01*
X0179391Y0261845D01*
X0179152Y0262091D01*
X0178918Y0262342D01*
X0178691Y0262599D01*
X0178470Y0262862D01*
X0178256Y0263130D01*
X0178048Y0263403D01*
X0177847Y0263681D01*
X0177653Y0263963D01*
X0177466Y0264251D01*
X0177286Y0264543D01*
X0177114Y0264839D01*
X0176948Y0265140D01*
X0176790Y0265444D01*
X0176640Y0265752D01*
X0176497Y0266064D01*
X0176362Y0266380D01*
X0176234Y0266698D01*
X0176115Y0267020D01*
X0176003Y0267344D01*
X0175900Y0267671D01*
X0175804Y0268000D01*
X0175717Y0268332D01*
X0175638Y0268666D01*
X0175567Y0269001D01*
X0175504Y0269339D01*
X0175449Y0269677D01*
X0175403Y0270017D01*
X0175365Y0270358D01*
X0175336Y0270700D01*
X0175315Y0271042D01*
X0175302Y0271385D01*
X0175298Y0271728D01*
X0127070Y0255980D02*
X0127074Y0256323D01*
X0127087Y0256666D01*
X0127108Y0257008D01*
X0127137Y0257350D01*
X0127175Y0257691D01*
X0127221Y0258031D01*
X0127276Y0258369D01*
X0127339Y0258707D01*
X0127410Y0259042D01*
X0127489Y0259376D01*
X0127576Y0259708D01*
X0127672Y0260037D01*
X0127775Y0260364D01*
X0127887Y0260688D01*
X0128006Y0261010D01*
X0128134Y0261328D01*
X0128269Y0261644D01*
X0128412Y0261956D01*
X0128562Y0262264D01*
X0128720Y0262568D01*
X0128886Y0262869D01*
X0129058Y0263165D01*
X0129238Y0263457D01*
X0129425Y0263745D01*
X0129619Y0264027D01*
X0129820Y0264305D01*
X0130028Y0264578D01*
X0130242Y0264846D01*
X0130463Y0265109D01*
X0130690Y0265366D01*
X0130924Y0265617D01*
X0131163Y0265863D01*
X0131409Y0266102D01*
X0131660Y0266336D01*
X0131917Y0266563D01*
X0132180Y0266784D01*
X0132448Y0266998D01*
X0132721Y0267206D01*
X0132999Y0267407D01*
X0133281Y0267601D01*
X0133569Y0267788D01*
X0133861Y0267968D01*
X0134157Y0268140D01*
X0134458Y0268306D01*
X0134762Y0268464D01*
X0135070Y0268614D01*
X0135382Y0268757D01*
X0135698Y0268892D01*
X0136016Y0269020D01*
X0136338Y0269139D01*
X0136662Y0269251D01*
X0136989Y0269354D01*
X0137318Y0269450D01*
X0137650Y0269537D01*
X0137984Y0269616D01*
X0138319Y0269687D01*
X0138657Y0269750D01*
X0138995Y0269805D01*
X0139335Y0269851D01*
X0139676Y0269889D01*
X0140018Y0269918D01*
X0140360Y0269939D01*
X0140703Y0269952D01*
X0141046Y0269956D01*
X0141389Y0269952D01*
X0141732Y0269939D01*
X0142074Y0269918D01*
X0142416Y0269889D01*
X0142757Y0269851D01*
X0143097Y0269805D01*
X0143435Y0269750D01*
X0143773Y0269687D01*
X0144108Y0269616D01*
X0144442Y0269537D01*
X0144774Y0269450D01*
X0145103Y0269354D01*
X0145430Y0269251D01*
X0145754Y0269139D01*
X0146076Y0269020D01*
X0146394Y0268892D01*
X0146710Y0268757D01*
X0147022Y0268614D01*
X0147330Y0268464D01*
X0147634Y0268306D01*
X0147935Y0268140D01*
X0148231Y0267968D01*
X0148523Y0267788D01*
X0148811Y0267601D01*
X0149093Y0267407D01*
X0149371Y0267206D01*
X0149644Y0266998D01*
X0149912Y0266784D01*
X0150175Y0266563D01*
X0150432Y0266336D01*
X0150683Y0266102D01*
X0150929Y0265863D01*
X0151168Y0265617D01*
X0151402Y0265366D01*
X0151629Y0265109D01*
X0151850Y0264846D01*
X0152064Y0264578D01*
X0152272Y0264305D01*
X0152473Y0264027D01*
X0152667Y0263745D01*
X0152854Y0263457D01*
X0153034Y0263165D01*
X0153206Y0262869D01*
X0153372Y0262568D01*
X0153530Y0262264D01*
X0153680Y0261956D01*
X0153823Y0261644D01*
X0153958Y0261328D01*
X0154086Y0261010D01*
X0154205Y0260688D01*
X0154317Y0260364D01*
X0154420Y0260037D01*
X0154516Y0259708D01*
X0154603Y0259376D01*
X0154682Y0259042D01*
X0154753Y0258707D01*
X0154816Y0258369D01*
X0154871Y0258031D01*
X0154917Y0257691D01*
X0154955Y0257350D01*
X0154984Y0257008D01*
X0155005Y0256666D01*
X0155018Y0256323D01*
X0155022Y0255980D01*
X0155018Y0255637D01*
X0155005Y0255294D01*
X0154984Y0254952D01*
X0154955Y0254610D01*
X0154917Y0254269D01*
X0154871Y0253929D01*
X0154816Y0253591D01*
X0154753Y0253253D01*
X0154682Y0252918D01*
X0154603Y0252584D01*
X0154516Y0252252D01*
X0154420Y0251923D01*
X0154317Y0251596D01*
X0154205Y0251272D01*
X0154086Y0250950D01*
X0153958Y0250632D01*
X0153823Y0250316D01*
X0153680Y0250004D01*
X0153530Y0249696D01*
X0153372Y0249392D01*
X0153206Y0249091D01*
X0153034Y0248795D01*
X0152854Y0248503D01*
X0152667Y0248215D01*
X0152473Y0247933D01*
X0152272Y0247655D01*
X0152064Y0247382D01*
X0151850Y0247114D01*
X0151629Y0246851D01*
X0151402Y0246594D01*
X0151168Y0246343D01*
X0150929Y0246097D01*
X0150683Y0245858D01*
X0150432Y0245624D01*
X0150175Y0245397D01*
X0149912Y0245176D01*
X0149644Y0244962D01*
X0149371Y0244754D01*
X0149093Y0244553D01*
X0148811Y0244359D01*
X0148523Y0244172D01*
X0148231Y0243992D01*
X0147935Y0243820D01*
X0147634Y0243654D01*
X0147330Y0243496D01*
X0147022Y0243346D01*
X0146710Y0243203D01*
X0146394Y0243068D01*
X0146076Y0242940D01*
X0145754Y0242821D01*
X0145430Y0242709D01*
X0145103Y0242606D01*
X0144774Y0242510D01*
X0144442Y0242423D01*
X0144108Y0242344D01*
X0143773Y0242273D01*
X0143435Y0242210D01*
X0143097Y0242155D01*
X0142757Y0242109D01*
X0142416Y0242071D01*
X0142074Y0242042D01*
X0141732Y0242021D01*
X0141389Y0242008D01*
X0141046Y0242004D01*
X0140703Y0242008D01*
X0140360Y0242021D01*
X0140018Y0242042D01*
X0139676Y0242071D01*
X0139335Y0242109D01*
X0138995Y0242155D01*
X0138657Y0242210D01*
X0138319Y0242273D01*
X0137984Y0242344D01*
X0137650Y0242423D01*
X0137318Y0242510D01*
X0136989Y0242606D01*
X0136662Y0242709D01*
X0136338Y0242821D01*
X0136016Y0242940D01*
X0135698Y0243068D01*
X0135382Y0243203D01*
X0135070Y0243346D01*
X0134762Y0243496D01*
X0134458Y0243654D01*
X0134157Y0243820D01*
X0133861Y0243992D01*
X0133569Y0244172D01*
X0133281Y0244359D01*
X0132999Y0244553D01*
X0132721Y0244754D01*
X0132448Y0244962D01*
X0132180Y0245176D01*
X0131917Y0245397D01*
X0131660Y0245624D01*
X0131409Y0245858D01*
X0131163Y0246097D01*
X0130924Y0246343D01*
X0130690Y0246594D01*
X0130463Y0246851D01*
X0130242Y0247114D01*
X0130028Y0247382D01*
X0129820Y0247655D01*
X0129619Y0247933D01*
X0129425Y0248215D01*
X0129238Y0248503D01*
X0129058Y0248795D01*
X0128886Y0249091D01*
X0128720Y0249392D01*
X0128562Y0249696D01*
X0128412Y0250004D01*
X0128269Y0250316D01*
X0128134Y0250632D01*
X0128006Y0250950D01*
X0127887Y0251272D01*
X0127775Y0251596D01*
X0127672Y0251923D01*
X0127576Y0252252D01*
X0127489Y0252584D01*
X0127410Y0252918D01*
X0127339Y0253253D01*
X0127276Y0253591D01*
X0127221Y0253929D01*
X0127175Y0254269D01*
X0127137Y0254610D01*
X0127108Y0254952D01*
X0127087Y0255294D01*
X0127074Y0255637D01*
X0127070Y0255980D01*
X0128251Y0192988D02*
X0128255Y0193278D01*
X0128265Y0193568D01*
X0128283Y0193857D01*
X0128308Y0194146D01*
X0128340Y0194434D01*
X0128379Y0194721D01*
X0128425Y0195007D01*
X0128478Y0195292D01*
X0128538Y0195576D01*
X0128605Y0195858D01*
X0128679Y0196138D01*
X0128760Y0196417D01*
X0128847Y0196693D01*
X0128941Y0196967D01*
X0129042Y0197239D01*
X0129150Y0197508D01*
X0129264Y0197774D01*
X0129385Y0198038D01*
X0129512Y0198298D01*
X0129646Y0198556D01*
X0129785Y0198810D01*
X0129931Y0199060D01*
X0130083Y0199307D01*
X0130242Y0199550D01*
X0130406Y0199789D01*
X0130575Y0200024D01*
X0130751Y0200255D01*
X0130932Y0200481D01*
X0131119Y0200703D01*
X0131311Y0200920D01*
X0131508Y0201132D01*
X0131710Y0201340D01*
X0131918Y0201542D01*
X0132130Y0201739D01*
X0132347Y0201931D01*
X0132569Y0202118D01*
X0132795Y0202299D01*
X0133026Y0202475D01*
X0133261Y0202644D01*
X0133500Y0202808D01*
X0133743Y0202967D01*
X0133990Y0203119D01*
X0134240Y0203265D01*
X0134494Y0203404D01*
X0134752Y0203538D01*
X0135012Y0203665D01*
X0135276Y0203786D01*
X0135542Y0203900D01*
X0135811Y0204008D01*
X0136083Y0204109D01*
X0136357Y0204203D01*
X0136633Y0204290D01*
X0136912Y0204371D01*
X0137192Y0204445D01*
X0137474Y0204512D01*
X0137758Y0204572D01*
X0138043Y0204625D01*
X0138329Y0204671D01*
X0138616Y0204710D01*
X0138904Y0204742D01*
X0139193Y0204767D01*
X0139482Y0204785D01*
X0139772Y0204795D01*
X0140062Y0204799D01*
X0140352Y0204795D01*
X0140642Y0204785D01*
X0140931Y0204767D01*
X0141220Y0204742D01*
X0141508Y0204710D01*
X0141795Y0204671D01*
X0142081Y0204625D01*
X0142366Y0204572D01*
X0142650Y0204512D01*
X0142932Y0204445D01*
X0143212Y0204371D01*
X0143491Y0204290D01*
X0143767Y0204203D01*
X0144041Y0204109D01*
X0144313Y0204008D01*
X0144582Y0203900D01*
X0144848Y0203786D01*
X0145112Y0203665D01*
X0145372Y0203538D01*
X0145630Y0203404D01*
X0145884Y0203265D01*
X0146134Y0203119D01*
X0146381Y0202967D01*
X0146624Y0202808D01*
X0146863Y0202644D01*
X0147098Y0202475D01*
X0147329Y0202299D01*
X0147555Y0202118D01*
X0147777Y0201931D01*
X0147994Y0201739D01*
X0148206Y0201542D01*
X0148414Y0201340D01*
X0148616Y0201132D01*
X0148813Y0200920D01*
X0149005Y0200703D01*
X0149192Y0200481D01*
X0149373Y0200255D01*
X0149549Y0200024D01*
X0149718Y0199789D01*
X0149882Y0199550D01*
X0150041Y0199307D01*
X0150193Y0199060D01*
X0150339Y0198810D01*
X0150478Y0198556D01*
X0150612Y0198298D01*
X0150739Y0198038D01*
X0150860Y0197774D01*
X0150974Y0197508D01*
X0151082Y0197239D01*
X0151183Y0196967D01*
X0151277Y0196693D01*
X0151364Y0196417D01*
X0151445Y0196138D01*
X0151519Y0195858D01*
X0151586Y0195576D01*
X0151646Y0195292D01*
X0151699Y0195007D01*
X0151745Y0194721D01*
X0151784Y0194434D01*
X0151816Y0194146D01*
X0151841Y0193857D01*
X0151859Y0193568D01*
X0151869Y0193278D01*
X0151873Y0192988D01*
X0151869Y0192698D01*
X0151859Y0192408D01*
X0151841Y0192119D01*
X0151816Y0191830D01*
X0151784Y0191542D01*
X0151745Y0191255D01*
X0151699Y0190969D01*
X0151646Y0190684D01*
X0151586Y0190400D01*
X0151519Y0190118D01*
X0151445Y0189838D01*
X0151364Y0189559D01*
X0151277Y0189283D01*
X0151183Y0189009D01*
X0151082Y0188737D01*
X0150974Y0188468D01*
X0150860Y0188202D01*
X0150739Y0187938D01*
X0150612Y0187678D01*
X0150478Y0187420D01*
X0150339Y0187166D01*
X0150193Y0186916D01*
X0150041Y0186669D01*
X0149882Y0186426D01*
X0149718Y0186187D01*
X0149549Y0185952D01*
X0149373Y0185721D01*
X0149192Y0185495D01*
X0149005Y0185273D01*
X0148813Y0185056D01*
X0148616Y0184844D01*
X0148414Y0184636D01*
X0148206Y0184434D01*
X0147994Y0184237D01*
X0147777Y0184045D01*
X0147555Y0183858D01*
X0147329Y0183677D01*
X0147098Y0183501D01*
X0146863Y0183332D01*
X0146624Y0183168D01*
X0146381Y0183009D01*
X0146134Y0182857D01*
X0145884Y0182711D01*
X0145630Y0182572D01*
X0145372Y0182438D01*
X0145112Y0182311D01*
X0144848Y0182190D01*
X0144582Y0182076D01*
X0144313Y0181968D01*
X0144041Y0181867D01*
X0143767Y0181773D01*
X0143491Y0181686D01*
X0143212Y0181605D01*
X0142932Y0181531D01*
X0142650Y0181464D01*
X0142366Y0181404D01*
X0142081Y0181351D01*
X0141795Y0181305D01*
X0141508Y0181266D01*
X0141220Y0181234D01*
X0140931Y0181209D01*
X0140642Y0181191D01*
X0140352Y0181181D01*
X0140062Y0181177D01*
X0139772Y0181181D01*
X0139482Y0181191D01*
X0139193Y0181209D01*
X0138904Y0181234D01*
X0138616Y0181266D01*
X0138329Y0181305D01*
X0138043Y0181351D01*
X0137758Y0181404D01*
X0137474Y0181464D01*
X0137192Y0181531D01*
X0136912Y0181605D01*
X0136633Y0181686D01*
X0136357Y0181773D01*
X0136083Y0181867D01*
X0135811Y0181968D01*
X0135542Y0182076D01*
X0135276Y0182190D01*
X0135012Y0182311D01*
X0134752Y0182438D01*
X0134494Y0182572D01*
X0134240Y0182711D01*
X0133990Y0182857D01*
X0133743Y0183009D01*
X0133500Y0183168D01*
X0133261Y0183332D01*
X0133026Y0183501D01*
X0132795Y0183677D01*
X0132569Y0183858D01*
X0132347Y0184045D01*
X0132130Y0184237D01*
X0131918Y0184434D01*
X0131710Y0184636D01*
X0131508Y0184844D01*
X0131311Y0185056D01*
X0131119Y0185273D01*
X0130932Y0185495D01*
X0130751Y0185721D01*
X0130575Y0185952D01*
X0130406Y0186187D01*
X0130242Y0186426D01*
X0130083Y0186669D01*
X0129931Y0186916D01*
X0129785Y0187166D01*
X0129646Y0187420D01*
X0129512Y0187678D01*
X0129385Y0187938D01*
X0129264Y0188202D01*
X0129150Y0188468D01*
X0129042Y0188737D01*
X0128941Y0189009D01*
X0128847Y0189283D01*
X0128760Y0189559D01*
X0128679Y0189838D01*
X0128605Y0190118D01*
X0128538Y0190400D01*
X0128478Y0190684D01*
X0128425Y0190969D01*
X0128379Y0191255D01*
X0128340Y0191542D01*
X0128308Y0191830D01*
X0128283Y0192119D01*
X0128265Y0192408D01*
X0128255Y0192698D01*
X0128251Y0192988D01*
X0128251Y0141807D02*
X0128255Y0142097D01*
X0128265Y0142387D01*
X0128283Y0142676D01*
X0128308Y0142965D01*
X0128340Y0143253D01*
X0128379Y0143540D01*
X0128425Y0143826D01*
X0128478Y0144111D01*
X0128538Y0144395D01*
X0128605Y0144677D01*
X0128679Y0144957D01*
X0128760Y0145236D01*
X0128847Y0145512D01*
X0128941Y0145786D01*
X0129042Y0146058D01*
X0129150Y0146327D01*
X0129264Y0146593D01*
X0129385Y0146857D01*
X0129512Y0147117D01*
X0129646Y0147375D01*
X0129785Y0147629D01*
X0129931Y0147879D01*
X0130083Y0148126D01*
X0130242Y0148369D01*
X0130406Y0148608D01*
X0130575Y0148843D01*
X0130751Y0149074D01*
X0130932Y0149300D01*
X0131119Y0149522D01*
X0131311Y0149739D01*
X0131508Y0149951D01*
X0131710Y0150159D01*
X0131918Y0150361D01*
X0132130Y0150558D01*
X0132347Y0150750D01*
X0132569Y0150937D01*
X0132795Y0151118D01*
X0133026Y0151294D01*
X0133261Y0151463D01*
X0133500Y0151627D01*
X0133743Y0151786D01*
X0133990Y0151938D01*
X0134240Y0152084D01*
X0134494Y0152223D01*
X0134752Y0152357D01*
X0135012Y0152484D01*
X0135276Y0152605D01*
X0135542Y0152719D01*
X0135811Y0152827D01*
X0136083Y0152928D01*
X0136357Y0153022D01*
X0136633Y0153109D01*
X0136912Y0153190D01*
X0137192Y0153264D01*
X0137474Y0153331D01*
X0137758Y0153391D01*
X0138043Y0153444D01*
X0138329Y0153490D01*
X0138616Y0153529D01*
X0138904Y0153561D01*
X0139193Y0153586D01*
X0139482Y0153604D01*
X0139772Y0153614D01*
X0140062Y0153618D01*
X0140352Y0153614D01*
X0140642Y0153604D01*
X0140931Y0153586D01*
X0141220Y0153561D01*
X0141508Y0153529D01*
X0141795Y0153490D01*
X0142081Y0153444D01*
X0142366Y0153391D01*
X0142650Y0153331D01*
X0142932Y0153264D01*
X0143212Y0153190D01*
X0143491Y0153109D01*
X0143767Y0153022D01*
X0144041Y0152928D01*
X0144313Y0152827D01*
X0144582Y0152719D01*
X0144848Y0152605D01*
X0145112Y0152484D01*
X0145372Y0152357D01*
X0145630Y0152223D01*
X0145884Y0152084D01*
X0146134Y0151938D01*
X0146381Y0151786D01*
X0146624Y0151627D01*
X0146863Y0151463D01*
X0147098Y0151294D01*
X0147329Y0151118D01*
X0147555Y0150937D01*
X0147777Y0150750D01*
X0147994Y0150558D01*
X0148206Y0150361D01*
X0148414Y0150159D01*
X0148616Y0149951D01*
X0148813Y0149739D01*
X0149005Y0149522D01*
X0149192Y0149300D01*
X0149373Y0149074D01*
X0149549Y0148843D01*
X0149718Y0148608D01*
X0149882Y0148369D01*
X0150041Y0148126D01*
X0150193Y0147879D01*
X0150339Y0147629D01*
X0150478Y0147375D01*
X0150612Y0147117D01*
X0150739Y0146857D01*
X0150860Y0146593D01*
X0150974Y0146327D01*
X0151082Y0146058D01*
X0151183Y0145786D01*
X0151277Y0145512D01*
X0151364Y0145236D01*
X0151445Y0144957D01*
X0151519Y0144677D01*
X0151586Y0144395D01*
X0151646Y0144111D01*
X0151699Y0143826D01*
X0151745Y0143540D01*
X0151784Y0143253D01*
X0151816Y0142965D01*
X0151841Y0142676D01*
X0151859Y0142387D01*
X0151869Y0142097D01*
X0151873Y0141807D01*
X0151869Y0141517D01*
X0151859Y0141227D01*
X0151841Y0140938D01*
X0151816Y0140649D01*
X0151784Y0140361D01*
X0151745Y0140074D01*
X0151699Y0139788D01*
X0151646Y0139503D01*
X0151586Y0139219D01*
X0151519Y0138937D01*
X0151445Y0138657D01*
X0151364Y0138378D01*
X0151277Y0138102D01*
X0151183Y0137828D01*
X0151082Y0137556D01*
X0150974Y0137287D01*
X0150860Y0137021D01*
X0150739Y0136757D01*
X0150612Y0136497D01*
X0150478Y0136239D01*
X0150339Y0135985D01*
X0150193Y0135735D01*
X0150041Y0135488D01*
X0149882Y0135245D01*
X0149718Y0135006D01*
X0149549Y0134771D01*
X0149373Y0134540D01*
X0149192Y0134314D01*
X0149005Y0134092D01*
X0148813Y0133875D01*
X0148616Y0133663D01*
X0148414Y0133455D01*
X0148206Y0133253D01*
X0147994Y0133056D01*
X0147777Y0132864D01*
X0147555Y0132677D01*
X0147329Y0132496D01*
X0147098Y0132320D01*
X0146863Y0132151D01*
X0146624Y0131987D01*
X0146381Y0131828D01*
X0146134Y0131676D01*
X0145884Y0131530D01*
X0145630Y0131391D01*
X0145372Y0131257D01*
X0145112Y0131130D01*
X0144848Y0131009D01*
X0144582Y0130895D01*
X0144313Y0130787D01*
X0144041Y0130686D01*
X0143767Y0130592D01*
X0143491Y0130505D01*
X0143212Y0130424D01*
X0142932Y0130350D01*
X0142650Y0130283D01*
X0142366Y0130223D01*
X0142081Y0130170D01*
X0141795Y0130124D01*
X0141508Y0130085D01*
X0141220Y0130053D01*
X0140931Y0130028D01*
X0140642Y0130010D01*
X0140352Y0130000D01*
X0140062Y0129996D01*
X0139772Y0130000D01*
X0139482Y0130010D01*
X0139193Y0130028D01*
X0138904Y0130053D01*
X0138616Y0130085D01*
X0138329Y0130124D01*
X0138043Y0130170D01*
X0137758Y0130223D01*
X0137474Y0130283D01*
X0137192Y0130350D01*
X0136912Y0130424D01*
X0136633Y0130505D01*
X0136357Y0130592D01*
X0136083Y0130686D01*
X0135811Y0130787D01*
X0135542Y0130895D01*
X0135276Y0131009D01*
X0135012Y0131130D01*
X0134752Y0131257D01*
X0134494Y0131391D01*
X0134240Y0131530D01*
X0133990Y0131676D01*
X0133743Y0131828D01*
X0133500Y0131987D01*
X0133261Y0132151D01*
X0133026Y0132320D01*
X0132795Y0132496D01*
X0132569Y0132677D01*
X0132347Y0132864D01*
X0132130Y0133056D01*
X0131918Y0133253D01*
X0131710Y0133455D01*
X0131508Y0133663D01*
X0131311Y0133875D01*
X0131119Y0134092D01*
X0130932Y0134314D01*
X0130751Y0134540D01*
X0130575Y0134771D01*
X0130406Y0135006D01*
X0130242Y0135245D01*
X0130083Y0135488D01*
X0129931Y0135735D01*
X0129785Y0135985D01*
X0129646Y0136239D01*
X0129512Y0136497D01*
X0129385Y0136757D01*
X0129264Y0137021D01*
X0129150Y0137287D01*
X0129042Y0137556D01*
X0128941Y0137828D01*
X0128847Y0138102D01*
X0128760Y0138378D01*
X0128679Y0138657D01*
X0128605Y0138937D01*
X0128538Y0139219D01*
X0128478Y0139503D01*
X0128425Y0139788D01*
X0128379Y0140074D01*
X0128340Y0140361D01*
X0128308Y0140649D01*
X0128283Y0140938D01*
X0128265Y0141227D01*
X0128255Y0141517D01*
X0128251Y0141807D01*
X0128251Y0090626D02*
X0128255Y0090916D01*
X0128265Y0091206D01*
X0128283Y0091495D01*
X0128308Y0091784D01*
X0128340Y0092072D01*
X0128379Y0092359D01*
X0128425Y0092645D01*
X0128478Y0092930D01*
X0128538Y0093214D01*
X0128605Y0093496D01*
X0128679Y0093776D01*
X0128760Y0094055D01*
X0128847Y0094331D01*
X0128941Y0094605D01*
X0129042Y0094877D01*
X0129150Y0095146D01*
X0129264Y0095412D01*
X0129385Y0095676D01*
X0129512Y0095936D01*
X0129646Y0096194D01*
X0129785Y0096448D01*
X0129931Y0096698D01*
X0130083Y0096945D01*
X0130242Y0097188D01*
X0130406Y0097427D01*
X0130575Y0097662D01*
X0130751Y0097893D01*
X0130932Y0098119D01*
X0131119Y0098341D01*
X0131311Y0098558D01*
X0131508Y0098770D01*
X0131710Y0098978D01*
X0131918Y0099180D01*
X0132130Y0099377D01*
X0132347Y0099569D01*
X0132569Y0099756D01*
X0132795Y0099937D01*
X0133026Y0100113D01*
X0133261Y0100282D01*
X0133500Y0100446D01*
X0133743Y0100605D01*
X0133990Y0100757D01*
X0134240Y0100903D01*
X0134494Y0101042D01*
X0134752Y0101176D01*
X0135012Y0101303D01*
X0135276Y0101424D01*
X0135542Y0101538D01*
X0135811Y0101646D01*
X0136083Y0101747D01*
X0136357Y0101841D01*
X0136633Y0101928D01*
X0136912Y0102009D01*
X0137192Y0102083D01*
X0137474Y0102150D01*
X0137758Y0102210D01*
X0138043Y0102263D01*
X0138329Y0102309D01*
X0138616Y0102348D01*
X0138904Y0102380D01*
X0139193Y0102405D01*
X0139482Y0102423D01*
X0139772Y0102433D01*
X0140062Y0102437D01*
X0140352Y0102433D01*
X0140642Y0102423D01*
X0140931Y0102405D01*
X0141220Y0102380D01*
X0141508Y0102348D01*
X0141795Y0102309D01*
X0142081Y0102263D01*
X0142366Y0102210D01*
X0142650Y0102150D01*
X0142932Y0102083D01*
X0143212Y0102009D01*
X0143491Y0101928D01*
X0143767Y0101841D01*
X0144041Y0101747D01*
X0144313Y0101646D01*
X0144582Y0101538D01*
X0144848Y0101424D01*
X0145112Y0101303D01*
X0145372Y0101176D01*
X0145630Y0101042D01*
X0145884Y0100903D01*
X0146134Y0100757D01*
X0146381Y0100605D01*
X0146624Y0100446D01*
X0146863Y0100282D01*
X0147098Y0100113D01*
X0147329Y0099937D01*
X0147555Y0099756D01*
X0147777Y0099569D01*
X0147994Y0099377D01*
X0148206Y0099180D01*
X0148414Y0098978D01*
X0148616Y0098770D01*
X0148813Y0098558D01*
X0149005Y0098341D01*
X0149192Y0098119D01*
X0149373Y0097893D01*
X0149549Y0097662D01*
X0149718Y0097427D01*
X0149882Y0097188D01*
X0150041Y0096945D01*
X0150193Y0096698D01*
X0150339Y0096448D01*
X0150478Y0096194D01*
X0150612Y0095936D01*
X0150739Y0095676D01*
X0150860Y0095412D01*
X0150974Y0095146D01*
X0151082Y0094877D01*
X0151183Y0094605D01*
X0151277Y0094331D01*
X0151364Y0094055D01*
X0151445Y0093776D01*
X0151519Y0093496D01*
X0151586Y0093214D01*
X0151646Y0092930D01*
X0151699Y0092645D01*
X0151745Y0092359D01*
X0151784Y0092072D01*
X0151816Y0091784D01*
X0151841Y0091495D01*
X0151859Y0091206D01*
X0151869Y0090916D01*
X0151873Y0090626D01*
X0151869Y0090336D01*
X0151859Y0090046D01*
X0151841Y0089757D01*
X0151816Y0089468D01*
X0151784Y0089180D01*
X0151745Y0088893D01*
X0151699Y0088607D01*
X0151646Y0088322D01*
X0151586Y0088038D01*
X0151519Y0087756D01*
X0151445Y0087476D01*
X0151364Y0087197D01*
X0151277Y0086921D01*
X0151183Y0086647D01*
X0151082Y0086375D01*
X0150974Y0086106D01*
X0150860Y0085840D01*
X0150739Y0085576D01*
X0150612Y0085316D01*
X0150478Y0085058D01*
X0150339Y0084804D01*
X0150193Y0084554D01*
X0150041Y0084307D01*
X0149882Y0084064D01*
X0149718Y0083825D01*
X0149549Y0083590D01*
X0149373Y0083359D01*
X0149192Y0083133D01*
X0149005Y0082911D01*
X0148813Y0082694D01*
X0148616Y0082482D01*
X0148414Y0082274D01*
X0148206Y0082072D01*
X0147994Y0081875D01*
X0147777Y0081683D01*
X0147555Y0081496D01*
X0147329Y0081315D01*
X0147098Y0081139D01*
X0146863Y0080970D01*
X0146624Y0080806D01*
X0146381Y0080647D01*
X0146134Y0080495D01*
X0145884Y0080349D01*
X0145630Y0080210D01*
X0145372Y0080076D01*
X0145112Y0079949D01*
X0144848Y0079828D01*
X0144582Y0079714D01*
X0144313Y0079606D01*
X0144041Y0079505D01*
X0143767Y0079411D01*
X0143491Y0079324D01*
X0143212Y0079243D01*
X0142932Y0079169D01*
X0142650Y0079102D01*
X0142366Y0079042D01*
X0142081Y0078989D01*
X0141795Y0078943D01*
X0141508Y0078904D01*
X0141220Y0078872D01*
X0140931Y0078847D01*
X0140642Y0078829D01*
X0140352Y0078819D01*
X0140062Y0078815D01*
X0139772Y0078819D01*
X0139482Y0078829D01*
X0139193Y0078847D01*
X0138904Y0078872D01*
X0138616Y0078904D01*
X0138329Y0078943D01*
X0138043Y0078989D01*
X0137758Y0079042D01*
X0137474Y0079102D01*
X0137192Y0079169D01*
X0136912Y0079243D01*
X0136633Y0079324D01*
X0136357Y0079411D01*
X0136083Y0079505D01*
X0135811Y0079606D01*
X0135542Y0079714D01*
X0135276Y0079828D01*
X0135012Y0079949D01*
X0134752Y0080076D01*
X0134494Y0080210D01*
X0134240Y0080349D01*
X0133990Y0080495D01*
X0133743Y0080647D01*
X0133500Y0080806D01*
X0133261Y0080970D01*
X0133026Y0081139D01*
X0132795Y0081315D01*
X0132569Y0081496D01*
X0132347Y0081683D01*
X0132130Y0081875D01*
X0131918Y0082072D01*
X0131710Y0082274D01*
X0131508Y0082482D01*
X0131311Y0082694D01*
X0131119Y0082911D01*
X0130932Y0083133D01*
X0130751Y0083359D01*
X0130575Y0083590D01*
X0130406Y0083825D01*
X0130242Y0084064D01*
X0130083Y0084307D01*
X0129931Y0084554D01*
X0129785Y0084804D01*
X0129646Y0085058D01*
X0129512Y0085316D01*
X0129385Y0085576D01*
X0129264Y0085840D01*
X0129150Y0086106D01*
X0129042Y0086375D01*
X0128941Y0086647D01*
X0128847Y0086921D01*
X0128760Y0087197D01*
X0128679Y0087476D01*
X0128605Y0087756D01*
X0128538Y0088038D01*
X0128478Y0088322D01*
X0128425Y0088607D01*
X0128379Y0088893D01*
X0128340Y0089180D01*
X0128308Y0089468D01*
X0128283Y0089757D01*
X0128265Y0090046D01*
X0128255Y0090336D01*
X0128251Y0090626D01*
X0178447Y0090626D02*
X0178451Y0090916D01*
X0178461Y0091206D01*
X0178479Y0091495D01*
X0178504Y0091784D01*
X0178536Y0092072D01*
X0178575Y0092359D01*
X0178621Y0092645D01*
X0178674Y0092930D01*
X0178734Y0093214D01*
X0178801Y0093496D01*
X0178875Y0093776D01*
X0178956Y0094055D01*
X0179043Y0094331D01*
X0179137Y0094605D01*
X0179238Y0094877D01*
X0179346Y0095146D01*
X0179460Y0095412D01*
X0179581Y0095676D01*
X0179708Y0095936D01*
X0179842Y0096194D01*
X0179981Y0096448D01*
X0180127Y0096698D01*
X0180279Y0096945D01*
X0180438Y0097188D01*
X0180602Y0097427D01*
X0180771Y0097662D01*
X0180947Y0097893D01*
X0181128Y0098119D01*
X0181315Y0098341D01*
X0181507Y0098558D01*
X0181704Y0098770D01*
X0181906Y0098978D01*
X0182114Y0099180D01*
X0182326Y0099377D01*
X0182543Y0099569D01*
X0182765Y0099756D01*
X0182991Y0099937D01*
X0183222Y0100113D01*
X0183457Y0100282D01*
X0183696Y0100446D01*
X0183939Y0100605D01*
X0184186Y0100757D01*
X0184436Y0100903D01*
X0184690Y0101042D01*
X0184948Y0101176D01*
X0185208Y0101303D01*
X0185472Y0101424D01*
X0185738Y0101538D01*
X0186007Y0101646D01*
X0186279Y0101747D01*
X0186553Y0101841D01*
X0186829Y0101928D01*
X0187108Y0102009D01*
X0187388Y0102083D01*
X0187670Y0102150D01*
X0187954Y0102210D01*
X0188239Y0102263D01*
X0188525Y0102309D01*
X0188812Y0102348D01*
X0189100Y0102380D01*
X0189389Y0102405D01*
X0189678Y0102423D01*
X0189968Y0102433D01*
X0190258Y0102437D01*
X0190548Y0102433D01*
X0190838Y0102423D01*
X0191127Y0102405D01*
X0191416Y0102380D01*
X0191704Y0102348D01*
X0191991Y0102309D01*
X0192277Y0102263D01*
X0192562Y0102210D01*
X0192846Y0102150D01*
X0193128Y0102083D01*
X0193408Y0102009D01*
X0193687Y0101928D01*
X0193963Y0101841D01*
X0194237Y0101747D01*
X0194509Y0101646D01*
X0194778Y0101538D01*
X0195044Y0101424D01*
X0195308Y0101303D01*
X0195568Y0101176D01*
X0195826Y0101042D01*
X0196080Y0100903D01*
X0196330Y0100757D01*
X0196577Y0100605D01*
X0196820Y0100446D01*
X0197059Y0100282D01*
X0197294Y0100113D01*
X0197525Y0099937D01*
X0197751Y0099756D01*
X0197973Y0099569D01*
X0198190Y0099377D01*
X0198402Y0099180D01*
X0198610Y0098978D01*
X0198812Y0098770D01*
X0199009Y0098558D01*
X0199201Y0098341D01*
X0199388Y0098119D01*
X0199569Y0097893D01*
X0199745Y0097662D01*
X0199914Y0097427D01*
X0200078Y0097188D01*
X0200237Y0096945D01*
X0200389Y0096698D01*
X0200535Y0096448D01*
X0200674Y0096194D01*
X0200808Y0095936D01*
X0200935Y0095676D01*
X0201056Y0095412D01*
X0201170Y0095146D01*
X0201278Y0094877D01*
X0201379Y0094605D01*
X0201473Y0094331D01*
X0201560Y0094055D01*
X0201641Y0093776D01*
X0201715Y0093496D01*
X0201782Y0093214D01*
X0201842Y0092930D01*
X0201895Y0092645D01*
X0201941Y0092359D01*
X0201980Y0092072D01*
X0202012Y0091784D01*
X0202037Y0091495D01*
X0202055Y0091206D01*
X0202065Y0090916D01*
X0202069Y0090626D01*
X0202065Y0090336D01*
X0202055Y0090046D01*
X0202037Y0089757D01*
X0202012Y0089468D01*
X0201980Y0089180D01*
X0201941Y0088893D01*
X0201895Y0088607D01*
X0201842Y0088322D01*
X0201782Y0088038D01*
X0201715Y0087756D01*
X0201641Y0087476D01*
X0201560Y0087197D01*
X0201473Y0086921D01*
X0201379Y0086647D01*
X0201278Y0086375D01*
X0201170Y0086106D01*
X0201056Y0085840D01*
X0200935Y0085576D01*
X0200808Y0085316D01*
X0200674Y0085058D01*
X0200535Y0084804D01*
X0200389Y0084554D01*
X0200237Y0084307D01*
X0200078Y0084064D01*
X0199914Y0083825D01*
X0199745Y0083590D01*
X0199569Y0083359D01*
X0199388Y0083133D01*
X0199201Y0082911D01*
X0199009Y0082694D01*
X0198812Y0082482D01*
X0198610Y0082274D01*
X0198402Y0082072D01*
X0198190Y0081875D01*
X0197973Y0081683D01*
X0197751Y0081496D01*
X0197525Y0081315D01*
X0197294Y0081139D01*
X0197059Y0080970D01*
X0196820Y0080806D01*
X0196577Y0080647D01*
X0196330Y0080495D01*
X0196080Y0080349D01*
X0195826Y0080210D01*
X0195568Y0080076D01*
X0195308Y0079949D01*
X0195044Y0079828D01*
X0194778Y0079714D01*
X0194509Y0079606D01*
X0194237Y0079505D01*
X0193963Y0079411D01*
X0193687Y0079324D01*
X0193408Y0079243D01*
X0193128Y0079169D01*
X0192846Y0079102D01*
X0192562Y0079042D01*
X0192277Y0078989D01*
X0191991Y0078943D01*
X0191704Y0078904D01*
X0191416Y0078872D01*
X0191127Y0078847D01*
X0190838Y0078829D01*
X0190548Y0078819D01*
X0190258Y0078815D01*
X0189968Y0078819D01*
X0189678Y0078829D01*
X0189389Y0078847D01*
X0189100Y0078872D01*
X0188812Y0078904D01*
X0188525Y0078943D01*
X0188239Y0078989D01*
X0187954Y0079042D01*
X0187670Y0079102D01*
X0187388Y0079169D01*
X0187108Y0079243D01*
X0186829Y0079324D01*
X0186553Y0079411D01*
X0186279Y0079505D01*
X0186007Y0079606D01*
X0185738Y0079714D01*
X0185472Y0079828D01*
X0185208Y0079949D01*
X0184948Y0080076D01*
X0184690Y0080210D01*
X0184436Y0080349D01*
X0184186Y0080495D01*
X0183939Y0080647D01*
X0183696Y0080806D01*
X0183457Y0080970D01*
X0183222Y0081139D01*
X0182991Y0081315D01*
X0182765Y0081496D01*
X0182543Y0081683D01*
X0182326Y0081875D01*
X0182114Y0082072D01*
X0181906Y0082274D01*
X0181704Y0082482D01*
X0181507Y0082694D01*
X0181315Y0082911D01*
X0181128Y0083133D01*
X0180947Y0083359D01*
X0180771Y0083590D01*
X0180602Y0083825D01*
X0180438Y0084064D01*
X0180279Y0084307D01*
X0180127Y0084554D01*
X0179981Y0084804D01*
X0179842Y0085058D01*
X0179708Y0085316D01*
X0179581Y0085576D01*
X0179460Y0085840D01*
X0179346Y0086106D01*
X0179238Y0086375D01*
X0179137Y0086647D01*
X0179043Y0086921D01*
X0178956Y0087197D01*
X0178875Y0087476D01*
X0178801Y0087756D01*
X0178734Y0088038D01*
X0178674Y0088322D01*
X0178621Y0088607D01*
X0178575Y0088893D01*
X0178536Y0089180D01*
X0178504Y0089468D01*
X0178479Y0089757D01*
X0178461Y0090046D01*
X0178451Y0090336D01*
X0178447Y0090626D01*
X0178447Y0141807D02*
X0178451Y0142097D01*
X0178461Y0142387D01*
X0178479Y0142676D01*
X0178504Y0142965D01*
X0178536Y0143253D01*
X0178575Y0143540D01*
X0178621Y0143826D01*
X0178674Y0144111D01*
X0178734Y0144395D01*
X0178801Y0144677D01*
X0178875Y0144957D01*
X0178956Y0145236D01*
X0179043Y0145512D01*
X0179137Y0145786D01*
X0179238Y0146058D01*
X0179346Y0146327D01*
X0179460Y0146593D01*
X0179581Y0146857D01*
X0179708Y0147117D01*
X0179842Y0147375D01*
X0179981Y0147629D01*
X0180127Y0147879D01*
X0180279Y0148126D01*
X0180438Y0148369D01*
X0180602Y0148608D01*
X0180771Y0148843D01*
X0180947Y0149074D01*
X0181128Y0149300D01*
X0181315Y0149522D01*
X0181507Y0149739D01*
X0181704Y0149951D01*
X0181906Y0150159D01*
X0182114Y0150361D01*
X0182326Y0150558D01*
X0182543Y0150750D01*
X0182765Y0150937D01*
X0182991Y0151118D01*
X0183222Y0151294D01*
X0183457Y0151463D01*
X0183696Y0151627D01*
X0183939Y0151786D01*
X0184186Y0151938D01*
X0184436Y0152084D01*
X0184690Y0152223D01*
X0184948Y0152357D01*
X0185208Y0152484D01*
X0185472Y0152605D01*
X0185738Y0152719D01*
X0186007Y0152827D01*
X0186279Y0152928D01*
X0186553Y0153022D01*
X0186829Y0153109D01*
X0187108Y0153190D01*
X0187388Y0153264D01*
X0187670Y0153331D01*
X0187954Y0153391D01*
X0188239Y0153444D01*
X0188525Y0153490D01*
X0188812Y0153529D01*
X0189100Y0153561D01*
X0189389Y0153586D01*
X0189678Y0153604D01*
X0189968Y0153614D01*
X0190258Y0153618D01*
X0190548Y0153614D01*
X0190838Y0153604D01*
X0191127Y0153586D01*
X0191416Y0153561D01*
X0191704Y0153529D01*
X0191991Y0153490D01*
X0192277Y0153444D01*
X0192562Y0153391D01*
X0192846Y0153331D01*
X0193128Y0153264D01*
X0193408Y0153190D01*
X0193687Y0153109D01*
X0193963Y0153022D01*
X0194237Y0152928D01*
X0194509Y0152827D01*
X0194778Y0152719D01*
X0195044Y0152605D01*
X0195308Y0152484D01*
X0195568Y0152357D01*
X0195826Y0152223D01*
X0196080Y0152084D01*
X0196330Y0151938D01*
X0196577Y0151786D01*
X0196820Y0151627D01*
X0197059Y0151463D01*
X0197294Y0151294D01*
X0197525Y0151118D01*
X0197751Y0150937D01*
X0197973Y0150750D01*
X0198190Y0150558D01*
X0198402Y0150361D01*
X0198610Y0150159D01*
X0198812Y0149951D01*
X0199009Y0149739D01*
X0199201Y0149522D01*
X0199388Y0149300D01*
X0199569Y0149074D01*
X0199745Y0148843D01*
X0199914Y0148608D01*
X0200078Y0148369D01*
X0200237Y0148126D01*
X0200389Y0147879D01*
X0200535Y0147629D01*
X0200674Y0147375D01*
X0200808Y0147117D01*
X0200935Y0146857D01*
X0201056Y0146593D01*
X0201170Y0146327D01*
X0201278Y0146058D01*
X0201379Y0145786D01*
X0201473Y0145512D01*
X0201560Y0145236D01*
X0201641Y0144957D01*
X0201715Y0144677D01*
X0201782Y0144395D01*
X0201842Y0144111D01*
X0201895Y0143826D01*
X0201941Y0143540D01*
X0201980Y0143253D01*
X0202012Y0142965D01*
X0202037Y0142676D01*
X0202055Y0142387D01*
X0202065Y0142097D01*
X0202069Y0141807D01*
X0202065Y0141517D01*
X0202055Y0141227D01*
X0202037Y0140938D01*
X0202012Y0140649D01*
X0201980Y0140361D01*
X0201941Y0140074D01*
X0201895Y0139788D01*
X0201842Y0139503D01*
X0201782Y0139219D01*
X0201715Y0138937D01*
X0201641Y0138657D01*
X0201560Y0138378D01*
X0201473Y0138102D01*
X0201379Y0137828D01*
X0201278Y0137556D01*
X0201170Y0137287D01*
X0201056Y0137021D01*
X0200935Y0136757D01*
X0200808Y0136497D01*
X0200674Y0136239D01*
X0200535Y0135985D01*
X0200389Y0135735D01*
X0200237Y0135488D01*
X0200078Y0135245D01*
X0199914Y0135006D01*
X0199745Y0134771D01*
X0199569Y0134540D01*
X0199388Y0134314D01*
X0199201Y0134092D01*
X0199009Y0133875D01*
X0198812Y0133663D01*
X0198610Y0133455D01*
X0198402Y0133253D01*
X0198190Y0133056D01*
X0197973Y0132864D01*
X0197751Y0132677D01*
X0197525Y0132496D01*
X0197294Y0132320D01*
X0197059Y0132151D01*
X0196820Y0131987D01*
X0196577Y0131828D01*
X0196330Y0131676D01*
X0196080Y0131530D01*
X0195826Y0131391D01*
X0195568Y0131257D01*
X0195308Y0131130D01*
X0195044Y0131009D01*
X0194778Y0130895D01*
X0194509Y0130787D01*
X0194237Y0130686D01*
X0193963Y0130592D01*
X0193687Y0130505D01*
X0193408Y0130424D01*
X0193128Y0130350D01*
X0192846Y0130283D01*
X0192562Y0130223D01*
X0192277Y0130170D01*
X0191991Y0130124D01*
X0191704Y0130085D01*
X0191416Y0130053D01*
X0191127Y0130028D01*
X0190838Y0130010D01*
X0190548Y0130000D01*
X0190258Y0129996D01*
X0189968Y0130000D01*
X0189678Y0130010D01*
X0189389Y0130028D01*
X0189100Y0130053D01*
X0188812Y0130085D01*
X0188525Y0130124D01*
X0188239Y0130170D01*
X0187954Y0130223D01*
X0187670Y0130283D01*
X0187388Y0130350D01*
X0187108Y0130424D01*
X0186829Y0130505D01*
X0186553Y0130592D01*
X0186279Y0130686D01*
X0186007Y0130787D01*
X0185738Y0130895D01*
X0185472Y0131009D01*
X0185208Y0131130D01*
X0184948Y0131257D01*
X0184690Y0131391D01*
X0184436Y0131530D01*
X0184186Y0131676D01*
X0183939Y0131828D01*
X0183696Y0131987D01*
X0183457Y0132151D01*
X0183222Y0132320D01*
X0182991Y0132496D01*
X0182765Y0132677D01*
X0182543Y0132864D01*
X0182326Y0133056D01*
X0182114Y0133253D01*
X0181906Y0133455D01*
X0181704Y0133663D01*
X0181507Y0133875D01*
X0181315Y0134092D01*
X0181128Y0134314D01*
X0180947Y0134540D01*
X0180771Y0134771D01*
X0180602Y0135006D01*
X0180438Y0135245D01*
X0180279Y0135488D01*
X0180127Y0135735D01*
X0179981Y0135985D01*
X0179842Y0136239D01*
X0179708Y0136497D01*
X0179581Y0136757D01*
X0179460Y0137021D01*
X0179346Y0137287D01*
X0179238Y0137556D01*
X0179137Y0137828D01*
X0179043Y0138102D01*
X0178956Y0138378D01*
X0178875Y0138657D01*
X0178801Y0138937D01*
X0178734Y0139219D01*
X0178674Y0139503D01*
X0178621Y0139788D01*
X0178575Y0140074D01*
X0178536Y0140361D01*
X0178504Y0140649D01*
X0178479Y0140938D01*
X0178461Y0141227D01*
X0178451Y0141517D01*
X0178447Y0141807D01*
X0178447Y0192988D02*
X0178451Y0193278D01*
X0178461Y0193568D01*
X0178479Y0193857D01*
X0178504Y0194146D01*
X0178536Y0194434D01*
X0178575Y0194721D01*
X0178621Y0195007D01*
X0178674Y0195292D01*
X0178734Y0195576D01*
X0178801Y0195858D01*
X0178875Y0196138D01*
X0178956Y0196417D01*
X0179043Y0196693D01*
X0179137Y0196967D01*
X0179238Y0197239D01*
X0179346Y0197508D01*
X0179460Y0197774D01*
X0179581Y0198038D01*
X0179708Y0198298D01*
X0179842Y0198556D01*
X0179981Y0198810D01*
X0180127Y0199060D01*
X0180279Y0199307D01*
X0180438Y0199550D01*
X0180602Y0199789D01*
X0180771Y0200024D01*
X0180947Y0200255D01*
X0181128Y0200481D01*
X0181315Y0200703D01*
X0181507Y0200920D01*
X0181704Y0201132D01*
X0181906Y0201340D01*
X0182114Y0201542D01*
X0182326Y0201739D01*
X0182543Y0201931D01*
X0182765Y0202118D01*
X0182991Y0202299D01*
X0183222Y0202475D01*
X0183457Y0202644D01*
X0183696Y0202808D01*
X0183939Y0202967D01*
X0184186Y0203119D01*
X0184436Y0203265D01*
X0184690Y0203404D01*
X0184948Y0203538D01*
X0185208Y0203665D01*
X0185472Y0203786D01*
X0185738Y0203900D01*
X0186007Y0204008D01*
X0186279Y0204109D01*
X0186553Y0204203D01*
X0186829Y0204290D01*
X0187108Y0204371D01*
X0187388Y0204445D01*
X0187670Y0204512D01*
X0187954Y0204572D01*
X0188239Y0204625D01*
X0188525Y0204671D01*
X0188812Y0204710D01*
X0189100Y0204742D01*
X0189389Y0204767D01*
X0189678Y0204785D01*
X0189968Y0204795D01*
X0190258Y0204799D01*
X0190548Y0204795D01*
X0190838Y0204785D01*
X0191127Y0204767D01*
X0191416Y0204742D01*
X0191704Y0204710D01*
X0191991Y0204671D01*
X0192277Y0204625D01*
X0192562Y0204572D01*
X0192846Y0204512D01*
X0193128Y0204445D01*
X0193408Y0204371D01*
X0193687Y0204290D01*
X0193963Y0204203D01*
X0194237Y0204109D01*
X0194509Y0204008D01*
X0194778Y0203900D01*
X0195044Y0203786D01*
X0195308Y0203665D01*
X0195568Y0203538D01*
X0195826Y0203404D01*
X0196080Y0203265D01*
X0196330Y0203119D01*
X0196577Y0202967D01*
X0196820Y0202808D01*
X0197059Y0202644D01*
X0197294Y0202475D01*
X0197525Y0202299D01*
X0197751Y0202118D01*
X0197973Y0201931D01*
X0198190Y0201739D01*
X0198402Y0201542D01*
X0198610Y0201340D01*
X0198812Y0201132D01*
X0199009Y0200920D01*
X0199201Y0200703D01*
X0199388Y0200481D01*
X0199569Y0200255D01*
X0199745Y0200024D01*
X0199914Y0199789D01*
X0200078Y0199550D01*
X0200237Y0199307D01*
X0200389Y0199060D01*
X0200535Y0198810D01*
X0200674Y0198556D01*
X0200808Y0198298D01*
X0200935Y0198038D01*
X0201056Y0197774D01*
X0201170Y0197508D01*
X0201278Y0197239D01*
X0201379Y0196967D01*
X0201473Y0196693D01*
X0201560Y0196417D01*
X0201641Y0196138D01*
X0201715Y0195858D01*
X0201782Y0195576D01*
X0201842Y0195292D01*
X0201895Y0195007D01*
X0201941Y0194721D01*
X0201980Y0194434D01*
X0202012Y0194146D01*
X0202037Y0193857D01*
X0202055Y0193568D01*
X0202065Y0193278D01*
X0202069Y0192988D01*
X0202065Y0192698D01*
X0202055Y0192408D01*
X0202037Y0192119D01*
X0202012Y0191830D01*
X0201980Y0191542D01*
X0201941Y0191255D01*
X0201895Y0190969D01*
X0201842Y0190684D01*
X0201782Y0190400D01*
X0201715Y0190118D01*
X0201641Y0189838D01*
X0201560Y0189559D01*
X0201473Y0189283D01*
X0201379Y0189009D01*
X0201278Y0188737D01*
X0201170Y0188468D01*
X0201056Y0188202D01*
X0200935Y0187938D01*
X0200808Y0187678D01*
X0200674Y0187420D01*
X0200535Y0187166D01*
X0200389Y0186916D01*
X0200237Y0186669D01*
X0200078Y0186426D01*
X0199914Y0186187D01*
X0199745Y0185952D01*
X0199569Y0185721D01*
X0199388Y0185495D01*
X0199201Y0185273D01*
X0199009Y0185056D01*
X0198812Y0184844D01*
X0198610Y0184636D01*
X0198402Y0184434D01*
X0198190Y0184237D01*
X0197973Y0184045D01*
X0197751Y0183858D01*
X0197525Y0183677D01*
X0197294Y0183501D01*
X0197059Y0183332D01*
X0196820Y0183168D01*
X0196577Y0183009D01*
X0196330Y0182857D01*
X0196080Y0182711D01*
X0195826Y0182572D01*
X0195568Y0182438D01*
X0195308Y0182311D01*
X0195044Y0182190D01*
X0194778Y0182076D01*
X0194509Y0181968D01*
X0194237Y0181867D01*
X0193963Y0181773D01*
X0193687Y0181686D01*
X0193408Y0181605D01*
X0193128Y0181531D01*
X0192846Y0181464D01*
X0192562Y0181404D01*
X0192277Y0181351D01*
X0191991Y0181305D01*
X0191704Y0181266D01*
X0191416Y0181234D01*
X0191127Y0181209D01*
X0190838Y0181191D01*
X0190548Y0181181D01*
X0190258Y0181177D01*
X0189968Y0181181D01*
X0189678Y0181191D01*
X0189389Y0181209D01*
X0189100Y0181234D01*
X0188812Y0181266D01*
X0188525Y0181305D01*
X0188239Y0181351D01*
X0187954Y0181404D01*
X0187670Y0181464D01*
X0187388Y0181531D01*
X0187108Y0181605D01*
X0186829Y0181686D01*
X0186553Y0181773D01*
X0186279Y0181867D01*
X0186007Y0181968D01*
X0185738Y0182076D01*
X0185472Y0182190D01*
X0185208Y0182311D01*
X0184948Y0182438D01*
X0184690Y0182572D01*
X0184436Y0182711D01*
X0184186Y0182857D01*
X0183939Y0183009D01*
X0183696Y0183168D01*
X0183457Y0183332D01*
X0183222Y0183501D01*
X0182991Y0183677D01*
X0182765Y0183858D01*
X0182543Y0184045D01*
X0182326Y0184237D01*
X0182114Y0184434D01*
X0181906Y0184636D01*
X0181704Y0184844D01*
X0181507Y0185056D01*
X0181315Y0185273D01*
X0181128Y0185495D01*
X0180947Y0185721D01*
X0180771Y0185952D01*
X0180602Y0186187D01*
X0180438Y0186426D01*
X0180279Y0186669D01*
X0180127Y0186916D01*
X0179981Y0187166D01*
X0179842Y0187420D01*
X0179708Y0187678D01*
X0179581Y0187938D01*
X0179460Y0188202D01*
X0179346Y0188468D01*
X0179238Y0188737D01*
X0179137Y0189009D01*
X0179043Y0189283D01*
X0178956Y0189559D01*
X0178875Y0189838D01*
X0178801Y0190118D01*
X0178734Y0190400D01*
X0178674Y0190684D01*
X0178621Y0190969D01*
X0178575Y0191255D01*
X0178536Y0191542D01*
X0178504Y0191830D01*
X0178479Y0192119D01*
X0178461Y0192408D01*
X0178451Y0192698D01*
X0178447Y0192988D01*
X0222542Y0255980D02*
X0222546Y0256323D01*
X0222559Y0256666D01*
X0222580Y0257008D01*
X0222609Y0257350D01*
X0222647Y0257691D01*
X0222693Y0258031D01*
X0222748Y0258369D01*
X0222811Y0258707D01*
X0222882Y0259042D01*
X0222961Y0259376D01*
X0223048Y0259708D01*
X0223144Y0260037D01*
X0223247Y0260364D01*
X0223359Y0260688D01*
X0223478Y0261010D01*
X0223606Y0261328D01*
X0223741Y0261644D01*
X0223884Y0261956D01*
X0224034Y0262264D01*
X0224192Y0262568D01*
X0224358Y0262869D01*
X0224530Y0263165D01*
X0224710Y0263457D01*
X0224897Y0263745D01*
X0225091Y0264027D01*
X0225292Y0264305D01*
X0225500Y0264578D01*
X0225714Y0264846D01*
X0225935Y0265109D01*
X0226162Y0265366D01*
X0226396Y0265617D01*
X0226635Y0265863D01*
X0226881Y0266102D01*
X0227132Y0266336D01*
X0227389Y0266563D01*
X0227652Y0266784D01*
X0227920Y0266998D01*
X0228193Y0267206D01*
X0228471Y0267407D01*
X0228753Y0267601D01*
X0229041Y0267788D01*
X0229333Y0267968D01*
X0229629Y0268140D01*
X0229930Y0268306D01*
X0230234Y0268464D01*
X0230542Y0268614D01*
X0230854Y0268757D01*
X0231170Y0268892D01*
X0231488Y0269020D01*
X0231810Y0269139D01*
X0232134Y0269251D01*
X0232461Y0269354D01*
X0232790Y0269450D01*
X0233122Y0269537D01*
X0233456Y0269616D01*
X0233791Y0269687D01*
X0234129Y0269750D01*
X0234467Y0269805D01*
X0234807Y0269851D01*
X0235148Y0269889D01*
X0235490Y0269918D01*
X0235832Y0269939D01*
X0236175Y0269952D01*
X0236518Y0269956D01*
X0236861Y0269952D01*
X0237204Y0269939D01*
X0237546Y0269918D01*
X0237888Y0269889D01*
X0238229Y0269851D01*
X0238569Y0269805D01*
X0238907Y0269750D01*
X0239245Y0269687D01*
X0239580Y0269616D01*
X0239914Y0269537D01*
X0240246Y0269450D01*
X0240575Y0269354D01*
X0240902Y0269251D01*
X0241226Y0269139D01*
X0241548Y0269020D01*
X0241866Y0268892D01*
X0242182Y0268757D01*
X0242494Y0268614D01*
X0242802Y0268464D01*
X0243106Y0268306D01*
X0243407Y0268140D01*
X0243703Y0267968D01*
X0243995Y0267788D01*
X0244283Y0267601D01*
X0244565Y0267407D01*
X0244843Y0267206D01*
X0245116Y0266998D01*
X0245384Y0266784D01*
X0245647Y0266563D01*
X0245904Y0266336D01*
X0246155Y0266102D01*
X0246401Y0265863D01*
X0246640Y0265617D01*
X0246874Y0265366D01*
X0247101Y0265109D01*
X0247322Y0264846D01*
X0247536Y0264578D01*
X0247744Y0264305D01*
X0247945Y0264027D01*
X0248139Y0263745D01*
X0248326Y0263457D01*
X0248506Y0263165D01*
X0248678Y0262869D01*
X0248844Y0262568D01*
X0249002Y0262264D01*
X0249152Y0261956D01*
X0249295Y0261644D01*
X0249430Y0261328D01*
X0249558Y0261010D01*
X0249677Y0260688D01*
X0249789Y0260364D01*
X0249892Y0260037D01*
X0249988Y0259708D01*
X0250075Y0259376D01*
X0250154Y0259042D01*
X0250225Y0258707D01*
X0250288Y0258369D01*
X0250343Y0258031D01*
X0250389Y0257691D01*
X0250427Y0257350D01*
X0250456Y0257008D01*
X0250477Y0256666D01*
X0250490Y0256323D01*
X0250494Y0255980D01*
X0250490Y0255637D01*
X0250477Y0255294D01*
X0250456Y0254952D01*
X0250427Y0254610D01*
X0250389Y0254269D01*
X0250343Y0253929D01*
X0250288Y0253591D01*
X0250225Y0253253D01*
X0250154Y0252918D01*
X0250075Y0252584D01*
X0249988Y0252252D01*
X0249892Y0251923D01*
X0249789Y0251596D01*
X0249677Y0251272D01*
X0249558Y0250950D01*
X0249430Y0250632D01*
X0249295Y0250316D01*
X0249152Y0250004D01*
X0249002Y0249696D01*
X0248844Y0249392D01*
X0248678Y0249091D01*
X0248506Y0248795D01*
X0248326Y0248503D01*
X0248139Y0248215D01*
X0247945Y0247933D01*
X0247744Y0247655D01*
X0247536Y0247382D01*
X0247322Y0247114D01*
X0247101Y0246851D01*
X0246874Y0246594D01*
X0246640Y0246343D01*
X0246401Y0246097D01*
X0246155Y0245858D01*
X0245904Y0245624D01*
X0245647Y0245397D01*
X0245384Y0245176D01*
X0245116Y0244962D01*
X0244843Y0244754D01*
X0244565Y0244553D01*
X0244283Y0244359D01*
X0243995Y0244172D01*
X0243703Y0243992D01*
X0243407Y0243820D01*
X0243106Y0243654D01*
X0242802Y0243496D01*
X0242494Y0243346D01*
X0242182Y0243203D01*
X0241866Y0243068D01*
X0241548Y0242940D01*
X0241226Y0242821D01*
X0240902Y0242709D01*
X0240575Y0242606D01*
X0240246Y0242510D01*
X0239914Y0242423D01*
X0239580Y0242344D01*
X0239245Y0242273D01*
X0238907Y0242210D01*
X0238569Y0242155D01*
X0238229Y0242109D01*
X0237888Y0242071D01*
X0237546Y0242042D01*
X0237204Y0242021D01*
X0236861Y0242008D01*
X0236518Y0242004D01*
X0236175Y0242008D01*
X0235832Y0242021D01*
X0235490Y0242042D01*
X0235148Y0242071D01*
X0234807Y0242109D01*
X0234467Y0242155D01*
X0234129Y0242210D01*
X0233791Y0242273D01*
X0233456Y0242344D01*
X0233122Y0242423D01*
X0232790Y0242510D01*
X0232461Y0242606D01*
X0232134Y0242709D01*
X0231810Y0242821D01*
X0231488Y0242940D01*
X0231170Y0243068D01*
X0230854Y0243203D01*
X0230542Y0243346D01*
X0230234Y0243496D01*
X0229930Y0243654D01*
X0229629Y0243820D01*
X0229333Y0243992D01*
X0229041Y0244172D01*
X0228753Y0244359D01*
X0228471Y0244553D01*
X0228193Y0244754D01*
X0227920Y0244962D01*
X0227652Y0245176D01*
X0227389Y0245397D01*
X0227132Y0245624D01*
X0226881Y0245858D01*
X0226635Y0246097D01*
X0226396Y0246343D01*
X0226162Y0246594D01*
X0225935Y0246851D01*
X0225714Y0247114D01*
X0225500Y0247382D01*
X0225292Y0247655D01*
X0225091Y0247933D01*
X0224897Y0248215D01*
X0224710Y0248503D01*
X0224530Y0248795D01*
X0224358Y0249091D01*
X0224192Y0249392D01*
X0224034Y0249696D01*
X0223884Y0250004D01*
X0223741Y0250316D01*
X0223606Y0250632D01*
X0223478Y0250950D01*
X0223359Y0251272D01*
X0223247Y0251596D01*
X0223144Y0251923D01*
X0223048Y0252252D01*
X0222961Y0252584D01*
X0222882Y0252918D01*
X0222811Y0253253D01*
X0222748Y0253591D01*
X0222693Y0253929D01*
X0222647Y0254269D01*
X0222609Y0254610D01*
X0222580Y0254952D01*
X0222559Y0255294D01*
X0222546Y0255637D01*
X0222542Y0255980D01*
X0226676Y0192988D02*
X0226680Y0193278D01*
X0226690Y0193568D01*
X0226708Y0193857D01*
X0226733Y0194146D01*
X0226765Y0194434D01*
X0226804Y0194721D01*
X0226850Y0195007D01*
X0226903Y0195292D01*
X0226963Y0195576D01*
X0227030Y0195858D01*
X0227104Y0196138D01*
X0227185Y0196417D01*
X0227272Y0196693D01*
X0227366Y0196967D01*
X0227467Y0197239D01*
X0227575Y0197508D01*
X0227689Y0197774D01*
X0227810Y0198038D01*
X0227937Y0198298D01*
X0228071Y0198556D01*
X0228210Y0198810D01*
X0228356Y0199060D01*
X0228508Y0199307D01*
X0228667Y0199550D01*
X0228831Y0199789D01*
X0229000Y0200024D01*
X0229176Y0200255D01*
X0229357Y0200481D01*
X0229544Y0200703D01*
X0229736Y0200920D01*
X0229933Y0201132D01*
X0230135Y0201340D01*
X0230343Y0201542D01*
X0230555Y0201739D01*
X0230772Y0201931D01*
X0230994Y0202118D01*
X0231220Y0202299D01*
X0231451Y0202475D01*
X0231686Y0202644D01*
X0231925Y0202808D01*
X0232168Y0202967D01*
X0232415Y0203119D01*
X0232665Y0203265D01*
X0232919Y0203404D01*
X0233177Y0203538D01*
X0233437Y0203665D01*
X0233701Y0203786D01*
X0233967Y0203900D01*
X0234236Y0204008D01*
X0234508Y0204109D01*
X0234782Y0204203D01*
X0235058Y0204290D01*
X0235337Y0204371D01*
X0235617Y0204445D01*
X0235899Y0204512D01*
X0236183Y0204572D01*
X0236468Y0204625D01*
X0236754Y0204671D01*
X0237041Y0204710D01*
X0237329Y0204742D01*
X0237618Y0204767D01*
X0237907Y0204785D01*
X0238197Y0204795D01*
X0238487Y0204799D01*
X0238777Y0204795D01*
X0239067Y0204785D01*
X0239356Y0204767D01*
X0239645Y0204742D01*
X0239933Y0204710D01*
X0240220Y0204671D01*
X0240506Y0204625D01*
X0240791Y0204572D01*
X0241075Y0204512D01*
X0241357Y0204445D01*
X0241637Y0204371D01*
X0241916Y0204290D01*
X0242192Y0204203D01*
X0242466Y0204109D01*
X0242738Y0204008D01*
X0243007Y0203900D01*
X0243273Y0203786D01*
X0243537Y0203665D01*
X0243797Y0203538D01*
X0244055Y0203404D01*
X0244309Y0203265D01*
X0244559Y0203119D01*
X0244806Y0202967D01*
X0245049Y0202808D01*
X0245288Y0202644D01*
X0245523Y0202475D01*
X0245754Y0202299D01*
X0245980Y0202118D01*
X0246202Y0201931D01*
X0246419Y0201739D01*
X0246631Y0201542D01*
X0246839Y0201340D01*
X0247041Y0201132D01*
X0247238Y0200920D01*
X0247430Y0200703D01*
X0247617Y0200481D01*
X0247798Y0200255D01*
X0247974Y0200024D01*
X0248143Y0199789D01*
X0248307Y0199550D01*
X0248466Y0199307D01*
X0248618Y0199060D01*
X0248764Y0198810D01*
X0248903Y0198556D01*
X0249037Y0198298D01*
X0249164Y0198038D01*
X0249285Y0197774D01*
X0249399Y0197508D01*
X0249507Y0197239D01*
X0249608Y0196967D01*
X0249702Y0196693D01*
X0249789Y0196417D01*
X0249870Y0196138D01*
X0249944Y0195858D01*
X0250011Y0195576D01*
X0250071Y0195292D01*
X0250124Y0195007D01*
X0250170Y0194721D01*
X0250209Y0194434D01*
X0250241Y0194146D01*
X0250266Y0193857D01*
X0250284Y0193568D01*
X0250294Y0193278D01*
X0250298Y0192988D01*
X0250294Y0192698D01*
X0250284Y0192408D01*
X0250266Y0192119D01*
X0250241Y0191830D01*
X0250209Y0191542D01*
X0250170Y0191255D01*
X0250124Y0190969D01*
X0250071Y0190684D01*
X0250011Y0190400D01*
X0249944Y0190118D01*
X0249870Y0189838D01*
X0249789Y0189559D01*
X0249702Y0189283D01*
X0249608Y0189009D01*
X0249507Y0188737D01*
X0249399Y0188468D01*
X0249285Y0188202D01*
X0249164Y0187938D01*
X0249037Y0187678D01*
X0248903Y0187420D01*
X0248764Y0187166D01*
X0248618Y0186916D01*
X0248466Y0186669D01*
X0248307Y0186426D01*
X0248143Y0186187D01*
X0247974Y0185952D01*
X0247798Y0185721D01*
X0247617Y0185495D01*
X0247430Y0185273D01*
X0247238Y0185056D01*
X0247041Y0184844D01*
X0246839Y0184636D01*
X0246631Y0184434D01*
X0246419Y0184237D01*
X0246202Y0184045D01*
X0245980Y0183858D01*
X0245754Y0183677D01*
X0245523Y0183501D01*
X0245288Y0183332D01*
X0245049Y0183168D01*
X0244806Y0183009D01*
X0244559Y0182857D01*
X0244309Y0182711D01*
X0244055Y0182572D01*
X0243797Y0182438D01*
X0243537Y0182311D01*
X0243273Y0182190D01*
X0243007Y0182076D01*
X0242738Y0181968D01*
X0242466Y0181867D01*
X0242192Y0181773D01*
X0241916Y0181686D01*
X0241637Y0181605D01*
X0241357Y0181531D01*
X0241075Y0181464D01*
X0240791Y0181404D01*
X0240506Y0181351D01*
X0240220Y0181305D01*
X0239933Y0181266D01*
X0239645Y0181234D01*
X0239356Y0181209D01*
X0239067Y0181191D01*
X0238777Y0181181D01*
X0238487Y0181177D01*
X0238197Y0181181D01*
X0237907Y0181191D01*
X0237618Y0181209D01*
X0237329Y0181234D01*
X0237041Y0181266D01*
X0236754Y0181305D01*
X0236468Y0181351D01*
X0236183Y0181404D01*
X0235899Y0181464D01*
X0235617Y0181531D01*
X0235337Y0181605D01*
X0235058Y0181686D01*
X0234782Y0181773D01*
X0234508Y0181867D01*
X0234236Y0181968D01*
X0233967Y0182076D01*
X0233701Y0182190D01*
X0233437Y0182311D01*
X0233177Y0182438D01*
X0232919Y0182572D01*
X0232665Y0182711D01*
X0232415Y0182857D01*
X0232168Y0183009D01*
X0231925Y0183168D01*
X0231686Y0183332D01*
X0231451Y0183501D01*
X0231220Y0183677D01*
X0230994Y0183858D01*
X0230772Y0184045D01*
X0230555Y0184237D01*
X0230343Y0184434D01*
X0230135Y0184636D01*
X0229933Y0184844D01*
X0229736Y0185056D01*
X0229544Y0185273D01*
X0229357Y0185495D01*
X0229176Y0185721D01*
X0229000Y0185952D01*
X0228831Y0186187D01*
X0228667Y0186426D01*
X0228508Y0186669D01*
X0228356Y0186916D01*
X0228210Y0187166D01*
X0228071Y0187420D01*
X0227937Y0187678D01*
X0227810Y0187938D01*
X0227689Y0188202D01*
X0227575Y0188468D01*
X0227467Y0188737D01*
X0227366Y0189009D01*
X0227272Y0189283D01*
X0227185Y0189559D01*
X0227104Y0189838D01*
X0227030Y0190118D01*
X0226963Y0190400D01*
X0226903Y0190684D01*
X0226850Y0190969D01*
X0226804Y0191255D01*
X0226765Y0191542D01*
X0226733Y0191830D01*
X0226708Y0192119D01*
X0226690Y0192408D01*
X0226680Y0192698D01*
X0226676Y0192988D01*
X0226676Y0141807D02*
X0226680Y0142097D01*
X0226690Y0142387D01*
X0226708Y0142676D01*
X0226733Y0142965D01*
X0226765Y0143253D01*
X0226804Y0143540D01*
X0226850Y0143826D01*
X0226903Y0144111D01*
X0226963Y0144395D01*
X0227030Y0144677D01*
X0227104Y0144957D01*
X0227185Y0145236D01*
X0227272Y0145512D01*
X0227366Y0145786D01*
X0227467Y0146058D01*
X0227575Y0146327D01*
X0227689Y0146593D01*
X0227810Y0146857D01*
X0227937Y0147117D01*
X0228071Y0147375D01*
X0228210Y0147629D01*
X0228356Y0147879D01*
X0228508Y0148126D01*
X0228667Y0148369D01*
X0228831Y0148608D01*
X0229000Y0148843D01*
X0229176Y0149074D01*
X0229357Y0149300D01*
X0229544Y0149522D01*
X0229736Y0149739D01*
X0229933Y0149951D01*
X0230135Y0150159D01*
X0230343Y0150361D01*
X0230555Y0150558D01*
X0230772Y0150750D01*
X0230994Y0150937D01*
X0231220Y0151118D01*
X0231451Y0151294D01*
X0231686Y0151463D01*
X0231925Y0151627D01*
X0232168Y0151786D01*
X0232415Y0151938D01*
X0232665Y0152084D01*
X0232919Y0152223D01*
X0233177Y0152357D01*
X0233437Y0152484D01*
X0233701Y0152605D01*
X0233967Y0152719D01*
X0234236Y0152827D01*
X0234508Y0152928D01*
X0234782Y0153022D01*
X0235058Y0153109D01*
X0235337Y0153190D01*
X0235617Y0153264D01*
X0235899Y0153331D01*
X0236183Y0153391D01*
X0236468Y0153444D01*
X0236754Y0153490D01*
X0237041Y0153529D01*
X0237329Y0153561D01*
X0237618Y0153586D01*
X0237907Y0153604D01*
X0238197Y0153614D01*
X0238487Y0153618D01*
X0238777Y0153614D01*
X0239067Y0153604D01*
X0239356Y0153586D01*
X0239645Y0153561D01*
X0239933Y0153529D01*
X0240220Y0153490D01*
X0240506Y0153444D01*
X0240791Y0153391D01*
X0241075Y0153331D01*
X0241357Y0153264D01*
X0241637Y0153190D01*
X0241916Y0153109D01*
X0242192Y0153022D01*
X0242466Y0152928D01*
X0242738Y0152827D01*
X0243007Y0152719D01*
X0243273Y0152605D01*
X0243537Y0152484D01*
X0243797Y0152357D01*
X0244055Y0152223D01*
X0244309Y0152084D01*
X0244559Y0151938D01*
X0244806Y0151786D01*
X0245049Y0151627D01*
X0245288Y0151463D01*
X0245523Y0151294D01*
X0245754Y0151118D01*
X0245980Y0150937D01*
X0246202Y0150750D01*
X0246419Y0150558D01*
X0246631Y0150361D01*
X0246839Y0150159D01*
X0247041Y0149951D01*
X0247238Y0149739D01*
X0247430Y0149522D01*
X0247617Y0149300D01*
X0247798Y0149074D01*
X0247974Y0148843D01*
X0248143Y0148608D01*
X0248307Y0148369D01*
X0248466Y0148126D01*
X0248618Y0147879D01*
X0248764Y0147629D01*
X0248903Y0147375D01*
X0249037Y0147117D01*
X0249164Y0146857D01*
X0249285Y0146593D01*
X0249399Y0146327D01*
X0249507Y0146058D01*
X0249608Y0145786D01*
X0249702Y0145512D01*
X0249789Y0145236D01*
X0249870Y0144957D01*
X0249944Y0144677D01*
X0250011Y0144395D01*
X0250071Y0144111D01*
X0250124Y0143826D01*
X0250170Y0143540D01*
X0250209Y0143253D01*
X0250241Y0142965D01*
X0250266Y0142676D01*
X0250284Y0142387D01*
X0250294Y0142097D01*
X0250298Y0141807D01*
X0250294Y0141517D01*
X0250284Y0141227D01*
X0250266Y0140938D01*
X0250241Y0140649D01*
X0250209Y0140361D01*
X0250170Y0140074D01*
X0250124Y0139788D01*
X0250071Y0139503D01*
X0250011Y0139219D01*
X0249944Y0138937D01*
X0249870Y0138657D01*
X0249789Y0138378D01*
X0249702Y0138102D01*
X0249608Y0137828D01*
X0249507Y0137556D01*
X0249399Y0137287D01*
X0249285Y0137021D01*
X0249164Y0136757D01*
X0249037Y0136497D01*
X0248903Y0136239D01*
X0248764Y0135985D01*
X0248618Y0135735D01*
X0248466Y0135488D01*
X0248307Y0135245D01*
X0248143Y0135006D01*
X0247974Y0134771D01*
X0247798Y0134540D01*
X0247617Y0134314D01*
X0247430Y0134092D01*
X0247238Y0133875D01*
X0247041Y0133663D01*
X0246839Y0133455D01*
X0246631Y0133253D01*
X0246419Y0133056D01*
X0246202Y0132864D01*
X0245980Y0132677D01*
X0245754Y0132496D01*
X0245523Y0132320D01*
X0245288Y0132151D01*
X0245049Y0131987D01*
X0244806Y0131828D01*
X0244559Y0131676D01*
X0244309Y0131530D01*
X0244055Y0131391D01*
X0243797Y0131257D01*
X0243537Y0131130D01*
X0243273Y0131009D01*
X0243007Y0130895D01*
X0242738Y0130787D01*
X0242466Y0130686D01*
X0242192Y0130592D01*
X0241916Y0130505D01*
X0241637Y0130424D01*
X0241357Y0130350D01*
X0241075Y0130283D01*
X0240791Y0130223D01*
X0240506Y0130170D01*
X0240220Y0130124D01*
X0239933Y0130085D01*
X0239645Y0130053D01*
X0239356Y0130028D01*
X0239067Y0130010D01*
X0238777Y0130000D01*
X0238487Y0129996D01*
X0238197Y0130000D01*
X0237907Y0130010D01*
X0237618Y0130028D01*
X0237329Y0130053D01*
X0237041Y0130085D01*
X0236754Y0130124D01*
X0236468Y0130170D01*
X0236183Y0130223D01*
X0235899Y0130283D01*
X0235617Y0130350D01*
X0235337Y0130424D01*
X0235058Y0130505D01*
X0234782Y0130592D01*
X0234508Y0130686D01*
X0234236Y0130787D01*
X0233967Y0130895D01*
X0233701Y0131009D01*
X0233437Y0131130D01*
X0233177Y0131257D01*
X0232919Y0131391D01*
X0232665Y0131530D01*
X0232415Y0131676D01*
X0232168Y0131828D01*
X0231925Y0131987D01*
X0231686Y0132151D01*
X0231451Y0132320D01*
X0231220Y0132496D01*
X0230994Y0132677D01*
X0230772Y0132864D01*
X0230555Y0133056D01*
X0230343Y0133253D01*
X0230135Y0133455D01*
X0229933Y0133663D01*
X0229736Y0133875D01*
X0229544Y0134092D01*
X0229357Y0134314D01*
X0229176Y0134540D01*
X0229000Y0134771D01*
X0228831Y0135006D01*
X0228667Y0135245D01*
X0228508Y0135488D01*
X0228356Y0135735D01*
X0228210Y0135985D01*
X0228071Y0136239D01*
X0227937Y0136497D01*
X0227810Y0136757D01*
X0227689Y0137021D01*
X0227575Y0137287D01*
X0227467Y0137556D01*
X0227366Y0137828D01*
X0227272Y0138102D01*
X0227185Y0138378D01*
X0227104Y0138657D01*
X0227030Y0138937D01*
X0226963Y0139219D01*
X0226903Y0139503D01*
X0226850Y0139788D01*
X0226804Y0140074D01*
X0226765Y0140361D01*
X0226733Y0140649D01*
X0226708Y0140938D01*
X0226690Y0141227D01*
X0226680Y0141517D01*
X0226676Y0141807D01*
X0226676Y0090626D02*
X0226680Y0090916D01*
X0226690Y0091206D01*
X0226708Y0091495D01*
X0226733Y0091784D01*
X0226765Y0092072D01*
X0226804Y0092359D01*
X0226850Y0092645D01*
X0226903Y0092930D01*
X0226963Y0093214D01*
X0227030Y0093496D01*
X0227104Y0093776D01*
X0227185Y0094055D01*
X0227272Y0094331D01*
X0227366Y0094605D01*
X0227467Y0094877D01*
X0227575Y0095146D01*
X0227689Y0095412D01*
X0227810Y0095676D01*
X0227937Y0095936D01*
X0228071Y0096194D01*
X0228210Y0096448D01*
X0228356Y0096698D01*
X0228508Y0096945D01*
X0228667Y0097188D01*
X0228831Y0097427D01*
X0229000Y0097662D01*
X0229176Y0097893D01*
X0229357Y0098119D01*
X0229544Y0098341D01*
X0229736Y0098558D01*
X0229933Y0098770D01*
X0230135Y0098978D01*
X0230343Y0099180D01*
X0230555Y0099377D01*
X0230772Y0099569D01*
X0230994Y0099756D01*
X0231220Y0099937D01*
X0231451Y0100113D01*
X0231686Y0100282D01*
X0231925Y0100446D01*
X0232168Y0100605D01*
X0232415Y0100757D01*
X0232665Y0100903D01*
X0232919Y0101042D01*
X0233177Y0101176D01*
X0233437Y0101303D01*
X0233701Y0101424D01*
X0233967Y0101538D01*
X0234236Y0101646D01*
X0234508Y0101747D01*
X0234782Y0101841D01*
X0235058Y0101928D01*
X0235337Y0102009D01*
X0235617Y0102083D01*
X0235899Y0102150D01*
X0236183Y0102210D01*
X0236468Y0102263D01*
X0236754Y0102309D01*
X0237041Y0102348D01*
X0237329Y0102380D01*
X0237618Y0102405D01*
X0237907Y0102423D01*
X0238197Y0102433D01*
X0238487Y0102437D01*
X0238777Y0102433D01*
X0239067Y0102423D01*
X0239356Y0102405D01*
X0239645Y0102380D01*
X0239933Y0102348D01*
X0240220Y0102309D01*
X0240506Y0102263D01*
X0240791Y0102210D01*
X0241075Y0102150D01*
X0241357Y0102083D01*
X0241637Y0102009D01*
X0241916Y0101928D01*
X0242192Y0101841D01*
X0242466Y0101747D01*
X0242738Y0101646D01*
X0243007Y0101538D01*
X0243273Y0101424D01*
X0243537Y0101303D01*
X0243797Y0101176D01*
X0244055Y0101042D01*
X0244309Y0100903D01*
X0244559Y0100757D01*
X0244806Y0100605D01*
X0245049Y0100446D01*
X0245288Y0100282D01*
X0245523Y0100113D01*
X0245754Y0099937D01*
X0245980Y0099756D01*
X0246202Y0099569D01*
X0246419Y0099377D01*
X0246631Y0099180D01*
X0246839Y0098978D01*
X0247041Y0098770D01*
X0247238Y0098558D01*
X0247430Y0098341D01*
X0247617Y0098119D01*
X0247798Y0097893D01*
X0247974Y0097662D01*
X0248143Y0097427D01*
X0248307Y0097188D01*
X0248466Y0096945D01*
X0248618Y0096698D01*
X0248764Y0096448D01*
X0248903Y0096194D01*
X0249037Y0095936D01*
X0249164Y0095676D01*
X0249285Y0095412D01*
X0249399Y0095146D01*
X0249507Y0094877D01*
X0249608Y0094605D01*
X0249702Y0094331D01*
X0249789Y0094055D01*
X0249870Y0093776D01*
X0249944Y0093496D01*
X0250011Y0093214D01*
X0250071Y0092930D01*
X0250124Y0092645D01*
X0250170Y0092359D01*
X0250209Y0092072D01*
X0250241Y0091784D01*
X0250266Y0091495D01*
X0250284Y0091206D01*
X0250294Y0090916D01*
X0250298Y0090626D01*
X0250294Y0090336D01*
X0250284Y0090046D01*
X0250266Y0089757D01*
X0250241Y0089468D01*
X0250209Y0089180D01*
X0250170Y0088893D01*
X0250124Y0088607D01*
X0250071Y0088322D01*
X0250011Y0088038D01*
X0249944Y0087756D01*
X0249870Y0087476D01*
X0249789Y0087197D01*
X0249702Y0086921D01*
X0249608Y0086647D01*
X0249507Y0086375D01*
X0249399Y0086106D01*
X0249285Y0085840D01*
X0249164Y0085576D01*
X0249037Y0085316D01*
X0248903Y0085058D01*
X0248764Y0084804D01*
X0248618Y0084554D01*
X0248466Y0084307D01*
X0248307Y0084064D01*
X0248143Y0083825D01*
X0247974Y0083590D01*
X0247798Y0083359D01*
X0247617Y0083133D01*
X0247430Y0082911D01*
X0247238Y0082694D01*
X0247041Y0082482D01*
X0246839Y0082274D01*
X0246631Y0082072D01*
X0246419Y0081875D01*
X0246202Y0081683D01*
X0245980Y0081496D01*
X0245754Y0081315D01*
X0245523Y0081139D01*
X0245288Y0080970D01*
X0245049Y0080806D01*
X0244806Y0080647D01*
X0244559Y0080495D01*
X0244309Y0080349D01*
X0244055Y0080210D01*
X0243797Y0080076D01*
X0243537Y0079949D01*
X0243273Y0079828D01*
X0243007Y0079714D01*
X0242738Y0079606D01*
X0242466Y0079505D01*
X0242192Y0079411D01*
X0241916Y0079324D01*
X0241637Y0079243D01*
X0241357Y0079169D01*
X0241075Y0079102D01*
X0240791Y0079042D01*
X0240506Y0078989D01*
X0240220Y0078943D01*
X0239933Y0078904D01*
X0239645Y0078872D01*
X0239356Y0078847D01*
X0239067Y0078829D01*
X0238777Y0078819D01*
X0238487Y0078815D01*
X0238197Y0078819D01*
X0237907Y0078829D01*
X0237618Y0078847D01*
X0237329Y0078872D01*
X0237041Y0078904D01*
X0236754Y0078943D01*
X0236468Y0078989D01*
X0236183Y0079042D01*
X0235899Y0079102D01*
X0235617Y0079169D01*
X0235337Y0079243D01*
X0235058Y0079324D01*
X0234782Y0079411D01*
X0234508Y0079505D01*
X0234236Y0079606D01*
X0233967Y0079714D01*
X0233701Y0079828D01*
X0233437Y0079949D01*
X0233177Y0080076D01*
X0232919Y0080210D01*
X0232665Y0080349D01*
X0232415Y0080495D01*
X0232168Y0080647D01*
X0231925Y0080806D01*
X0231686Y0080970D01*
X0231451Y0081139D01*
X0231220Y0081315D01*
X0230994Y0081496D01*
X0230772Y0081683D01*
X0230555Y0081875D01*
X0230343Y0082072D01*
X0230135Y0082274D01*
X0229933Y0082482D01*
X0229736Y0082694D01*
X0229544Y0082911D01*
X0229357Y0083133D01*
X0229176Y0083359D01*
X0229000Y0083590D01*
X0228831Y0083825D01*
X0228667Y0084064D01*
X0228508Y0084307D01*
X0228356Y0084554D01*
X0228210Y0084804D01*
X0228071Y0085058D01*
X0227937Y0085316D01*
X0227810Y0085576D01*
X0227689Y0085840D01*
X0227575Y0086106D01*
X0227467Y0086375D01*
X0227366Y0086647D01*
X0227272Y0086921D01*
X0227185Y0087197D01*
X0227104Y0087476D01*
X0227030Y0087756D01*
X0226963Y0088038D01*
X0226903Y0088322D01*
X0226850Y0088607D01*
X0226804Y0088893D01*
X0226765Y0089180D01*
X0226733Y0089468D01*
X0226708Y0089757D01*
X0226690Y0090046D01*
X0226680Y0090336D01*
X0226676Y0090626D01*
X0202857Y0374091D02*
X0202861Y0374434D01*
X0202874Y0374777D01*
X0202895Y0375119D01*
X0202924Y0375461D01*
X0202962Y0375802D01*
X0203008Y0376142D01*
X0203063Y0376480D01*
X0203126Y0376818D01*
X0203197Y0377153D01*
X0203276Y0377487D01*
X0203363Y0377819D01*
X0203459Y0378148D01*
X0203562Y0378475D01*
X0203674Y0378799D01*
X0203793Y0379121D01*
X0203921Y0379439D01*
X0204056Y0379755D01*
X0204199Y0380067D01*
X0204349Y0380375D01*
X0204507Y0380679D01*
X0204673Y0380980D01*
X0204845Y0381276D01*
X0205025Y0381568D01*
X0205212Y0381856D01*
X0205406Y0382138D01*
X0205607Y0382416D01*
X0205815Y0382689D01*
X0206029Y0382957D01*
X0206250Y0383220D01*
X0206477Y0383477D01*
X0206711Y0383728D01*
X0206950Y0383974D01*
X0207196Y0384213D01*
X0207447Y0384447D01*
X0207704Y0384674D01*
X0207967Y0384895D01*
X0208235Y0385109D01*
X0208508Y0385317D01*
X0208786Y0385518D01*
X0209068Y0385712D01*
X0209356Y0385899D01*
X0209648Y0386079D01*
X0209944Y0386251D01*
X0210245Y0386417D01*
X0210549Y0386575D01*
X0210857Y0386725D01*
X0211169Y0386868D01*
X0211485Y0387003D01*
X0211803Y0387131D01*
X0212125Y0387250D01*
X0212449Y0387362D01*
X0212776Y0387465D01*
X0213105Y0387561D01*
X0213437Y0387648D01*
X0213771Y0387727D01*
X0214106Y0387798D01*
X0214444Y0387861D01*
X0214782Y0387916D01*
X0215122Y0387962D01*
X0215463Y0388000D01*
X0215805Y0388029D01*
X0216147Y0388050D01*
X0216490Y0388063D01*
X0216833Y0388067D01*
X0217176Y0388063D01*
X0217519Y0388050D01*
X0217861Y0388029D01*
X0218203Y0388000D01*
X0218544Y0387962D01*
X0218884Y0387916D01*
X0219222Y0387861D01*
X0219560Y0387798D01*
X0219895Y0387727D01*
X0220229Y0387648D01*
X0220561Y0387561D01*
X0220890Y0387465D01*
X0221217Y0387362D01*
X0221541Y0387250D01*
X0221863Y0387131D01*
X0222181Y0387003D01*
X0222497Y0386868D01*
X0222809Y0386725D01*
X0223117Y0386575D01*
X0223421Y0386417D01*
X0223722Y0386251D01*
X0224018Y0386079D01*
X0224310Y0385899D01*
X0224598Y0385712D01*
X0224880Y0385518D01*
X0225158Y0385317D01*
X0225431Y0385109D01*
X0225699Y0384895D01*
X0225962Y0384674D01*
X0226219Y0384447D01*
X0226470Y0384213D01*
X0226716Y0383974D01*
X0226955Y0383728D01*
X0227189Y0383477D01*
X0227416Y0383220D01*
X0227637Y0382957D01*
X0227851Y0382689D01*
X0228059Y0382416D01*
X0228260Y0382138D01*
X0228454Y0381856D01*
X0228641Y0381568D01*
X0228821Y0381276D01*
X0228993Y0380980D01*
X0229159Y0380679D01*
X0229317Y0380375D01*
X0229467Y0380067D01*
X0229610Y0379755D01*
X0229745Y0379439D01*
X0229873Y0379121D01*
X0229992Y0378799D01*
X0230104Y0378475D01*
X0230207Y0378148D01*
X0230303Y0377819D01*
X0230390Y0377487D01*
X0230469Y0377153D01*
X0230540Y0376818D01*
X0230603Y0376480D01*
X0230658Y0376142D01*
X0230704Y0375802D01*
X0230742Y0375461D01*
X0230771Y0375119D01*
X0230792Y0374777D01*
X0230805Y0374434D01*
X0230809Y0374091D01*
X0230805Y0373748D01*
X0230792Y0373405D01*
X0230771Y0373063D01*
X0230742Y0372721D01*
X0230704Y0372380D01*
X0230658Y0372040D01*
X0230603Y0371702D01*
X0230540Y0371364D01*
X0230469Y0371029D01*
X0230390Y0370695D01*
X0230303Y0370363D01*
X0230207Y0370034D01*
X0230104Y0369707D01*
X0229992Y0369383D01*
X0229873Y0369061D01*
X0229745Y0368743D01*
X0229610Y0368427D01*
X0229467Y0368115D01*
X0229317Y0367807D01*
X0229159Y0367503D01*
X0228993Y0367202D01*
X0228821Y0366906D01*
X0228641Y0366614D01*
X0228454Y0366326D01*
X0228260Y0366044D01*
X0228059Y0365766D01*
X0227851Y0365493D01*
X0227637Y0365225D01*
X0227416Y0364962D01*
X0227189Y0364705D01*
X0226955Y0364454D01*
X0226716Y0364208D01*
X0226470Y0363969D01*
X0226219Y0363735D01*
X0225962Y0363508D01*
X0225699Y0363287D01*
X0225431Y0363073D01*
X0225158Y0362865D01*
X0224880Y0362664D01*
X0224598Y0362470D01*
X0224310Y0362283D01*
X0224018Y0362103D01*
X0223722Y0361931D01*
X0223421Y0361765D01*
X0223117Y0361607D01*
X0222809Y0361457D01*
X0222497Y0361314D01*
X0222181Y0361179D01*
X0221863Y0361051D01*
X0221541Y0360932D01*
X0221217Y0360820D01*
X0220890Y0360717D01*
X0220561Y0360621D01*
X0220229Y0360534D01*
X0219895Y0360455D01*
X0219560Y0360384D01*
X0219222Y0360321D01*
X0218884Y0360266D01*
X0218544Y0360220D01*
X0218203Y0360182D01*
X0217861Y0360153D01*
X0217519Y0360132D01*
X0217176Y0360119D01*
X0216833Y0360115D01*
X0216490Y0360119D01*
X0216147Y0360132D01*
X0215805Y0360153D01*
X0215463Y0360182D01*
X0215122Y0360220D01*
X0214782Y0360266D01*
X0214444Y0360321D01*
X0214106Y0360384D01*
X0213771Y0360455D01*
X0213437Y0360534D01*
X0213105Y0360621D01*
X0212776Y0360717D01*
X0212449Y0360820D01*
X0212125Y0360932D01*
X0211803Y0361051D01*
X0211485Y0361179D01*
X0211169Y0361314D01*
X0210857Y0361457D01*
X0210549Y0361607D01*
X0210245Y0361765D01*
X0209944Y0361931D01*
X0209648Y0362103D01*
X0209356Y0362283D01*
X0209068Y0362470D01*
X0208786Y0362664D01*
X0208508Y0362865D01*
X0208235Y0363073D01*
X0207967Y0363287D01*
X0207704Y0363508D01*
X0207447Y0363735D01*
X0207196Y0363969D01*
X0206950Y0364208D01*
X0206711Y0364454D01*
X0206477Y0364705D01*
X0206250Y0364962D01*
X0206029Y0365225D01*
X0205815Y0365493D01*
X0205607Y0365766D01*
X0205406Y0366044D01*
X0205212Y0366326D01*
X0205025Y0366614D01*
X0204845Y0366906D01*
X0204673Y0367202D01*
X0204507Y0367503D01*
X0204349Y0367807D01*
X0204199Y0368115D01*
X0204056Y0368427D01*
X0203921Y0368743D01*
X0203793Y0369061D01*
X0203674Y0369383D01*
X0203562Y0369707D01*
X0203459Y0370034D01*
X0203363Y0370363D01*
X0203276Y0370695D01*
X0203197Y0371029D01*
X0203126Y0371364D01*
X0203063Y0371702D01*
X0203008Y0372040D01*
X0202962Y0372380D01*
X0202924Y0372721D01*
X0202895Y0373063D01*
X0202874Y0373405D01*
X0202861Y0373748D01*
X0202857Y0374091D01*
X0202857Y0468579D02*
X0202861Y0468922D01*
X0202874Y0469265D01*
X0202895Y0469607D01*
X0202924Y0469949D01*
X0202962Y0470290D01*
X0203008Y0470630D01*
X0203063Y0470968D01*
X0203126Y0471306D01*
X0203197Y0471641D01*
X0203276Y0471975D01*
X0203363Y0472307D01*
X0203459Y0472636D01*
X0203562Y0472963D01*
X0203674Y0473287D01*
X0203793Y0473609D01*
X0203921Y0473927D01*
X0204056Y0474243D01*
X0204199Y0474555D01*
X0204349Y0474863D01*
X0204507Y0475167D01*
X0204673Y0475468D01*
X0204845Y0475764D01*
X0205025Y0476056D01*
X0205212Y0476344D01*
X0205406Y0476626D01*
X0205607Y0476904D01*
X0205815Y0477177D01*
X0206029Y0477445D01*
X0206250Y0477708D01*
X0206477Y0477965D01*
X0206711Y0478216D01*
X0206950Y0478462D01*
X0207196Y0478701D01*
X0207447Y0478935D01*
X0207704Y0479162D01*
X0207967Y0479383D01*
X0208235Y0479597D01*
X0208508Y0479805D01*
X0208786Y0480006D01*
X0209068Y0480200D01*
X0209356Y0480387D01*
X0209648Y0480567D01*
X0209944Y0480739D01*
X0210245Y0480905D01*
X0210549Y0481063D01*
X0210857Y0481213D01*
X0211169Y0481356D01*
X0211485Y0481491D01*
X0211803Y0481619D01*
X0212125Y0481738D01*
X0212449Y0481850D01*
X0212776Y0481953D01*
X0213105Y0482049D01*
X0213437Y0482136D01*
X0213771Y0482215D01*
X0214106Y0482286D01*
X0214444Y0482349D01*
X0214782Y0482404D01*
X0215122Y0482450D01*
X0215463Y0482488D01*
X0215805Y0482517D01*
X0216147Y0482538D01*
X0216490Y0482551D01*
X0216833Y0482555D01*
X0217176Y0482551D01*
X0217519Y0482538D01*
X0217861Y0482517D01*
X0218203Y0482488D01*
X0218544Y0482450D01*
X0218884Y0482404D01*
X0219222Y0482349D01*
X0219560Y0482286D01*
X0219895Y0482215D01*
X0220229Y0482136D01*
X0220561Y0482049D01*
X0220890Y0481953D01*
X0221217Y0481850D01*
X0221541Y0481738D01*
X0221863Y0481619D01*
X0222181Y0481491D01*
X0222497Y0481356D01*
X0222809Y0481213D01*
X0223117Y0481063D01*
X0223421Y0480905D01*
X0223722Y0480739D01*
X0224018Y0480567D01*
X0224310Y0480387D01*
X0224598Y0480200D01*
X0224880Y0480006D01*
X0225158Y0479805D01*
X0225431Y0479597D01*
X0225699Y0479383D01*
X0225962Y0479162D01*
X0226219Y0478935D01*
X0226470Y0478701D01*
X0226716Y0478462D01*
X0226955Y0478216D01*
X0227189Y0477965D01*
X0227416Y0477708D01*
X0227637Y0477445D01*
X0227851Y0477177D01*
X0228059Y0476904D01*
X0228260Y0476626D01*
X0228454Y0476344D01*
X0228641Y0476056D01*
X0228821Y0475764D01*
X0228993Y0475468D01*
X0229159Y0475167D01*
X0229317Y0474863D01*
X0229467Y0474555D01*
X0229610Y0474243D01*
X0229745Y0473927D01*
X0229873Y0473609D01*
X0229992Y0473287D01*
X0230104Y0472963D01*
X0230207Y0472636D01*
X0230303Y0472307D01*
X0230390Y0471975D01*
X0230469Y0471641D01*
X0230540Y0471306D01*
X0230603Y0470968D01*
X0230658Y0470630D01*
X0230704Y0470290D01*
X0230742Y0469949D01*
X0230771Y0469607D01*
X0230792Y0469265D01*
X0230805Y0468922D01*
X0230809Y0468579D01*
X0230805Y0468236D01*
X0230792Y0467893D01*
X0230771Y0467551D01*
X0230742Y0467209D01*
X0230704Y0466868D01*
X0230658Y0466528D01*
X0230603Y0466190D01*
X0230540Y0465852D01*
X0230469Y0465517D01*
X0230390Y0465183D01*
X0230303Y0464851D01*
X0230207Y0464522D01*
X0230104Y0464195D01*
X0229992Y0463871D01*
X0229873Y0463549D01*
X0229745Y0463231D01*
X0229610Y0462915D01*
X0229467Y0462603D01*
X0229317Y0462295D01*
X0229159Y0461991D01*
X0228993Y0461690D01*
X0228821Y0461394D01*
X0228641Y0461102D01*
X0228454Y0460814D01*
X0228260Y0460532D01*
X0228059Y0460254D01*
X0227851Y0459981D01*
X0227637Y0459713D01*
X0227416Y0459450D01*
X0227189Y0459193D01*
X0226955Y0458942D01*
X0226716Y0458696D01*
X0226470Y0458457D01*
X0226219Y0458223D01*
X0225962Y0457996D01*
X0225699Y0457775D01*
X0225431Y0457561D01*
X0225158Y0457353D01*
X0224880Y0457152D01*
X0224598Y0456958D01*
X0224310Y0456771D01*
X0224018Y0456591D01*
X0223722Y0456419D01*
X0223421Y0456253D01*
X0223117Y0456095D01*
X0222809Y0455945D01*
X0222497Y0455802D01*
X0222181Y0455667D01*
X0221863Y0455539D01*
X0221541Y0455420D01*
X0221217Y0455308D01*
X0220890Y0455205D01*
X0220561Y0455109D01*
X0220229Y0455022D01*
X0219895Y0454943D01*
X0219560Y0454872D01*
X0219222Y0454809D01*
X0218884Y0454754D01*
X0218544Y0454708D01*
X0218203Y0454670D01*
X0217861Y0454641D01*
X0217519Y0454620D01*
X0217176Y0454607D01*
X0216833Y0454603D01*
X0216490Y0454607D01*
X0216147Y0454620D01*
X0215805Y0454641D01*
X0215463Y0454670D01*
X0215122Y0454708D01*
X0214782Y0454754D01*
X0214444Y0454809D01*
X0214106Y0454872D01*
X0213771Y0454943D01*
X0213437Y0455022D01*
X0213105Y0455109D01*
X0212776Y0455205D01*
X0212449Y0455308D01*
X0212125Y0455420D01*
X0211803Y0455539D01*
X0211485Y0455667D01*
X0211169Y0455802D01*
X0210857Y0455945D01*
X0210549Y0456095D01*
X0210245Y0456253D01*
X0209944Y0456419D01*
X0209648Y0456591D01*
X0209356Y0456771D01*
X0209068Y0456958D01*
X0208786Y0457152D01*
X0208508Y0457353D01*
X0208235Y0457561D01*
X0207967Y0457775D01*
X0207704Y0457996D01*
X0207447Y0458223D01*
X0207196Y0458457D01*
X0206950Y0458696D01*
X0206711Y0458942D01*
X0206477Y0459193D01*
X0206250Y0459450D01*
X0206029Y0459713D01*
X0205815Y0459981D01*
X0205607Y0460254D01*
X0205406Y0460532D01*
X0205212Y0460814D01*
X0205025Y0461102D01*
X0204845Y0461394D01*
X0204673Y0461690D01*
X0204507Y0461991D01*
X0204349Y0462295D01*
X0204199Y0462603D01*
X0204056Y0462915D01*
X0203921Y0463231D01*
X0203793Y0463549D01*
X0203674Y0463871D01*
X0203562Y0464195D01*
X0203459Y0464522D01*
X0203363Y0464851D01*
X0203276Y0465183D01*
X0203197Y0465517D01*
X0203126Y0465852D01*
X0203063Y0466190D01*
X0203008Y0466528D01*
X0202962Y0466868D01*
X0202924Y0467209D01*
X0202895Y0467551D01*
X0202874Y0467893D01*
X0202861Y0468236D01*
X0202857Y0468579D01*
M02*
