M48
;GenerationSoftware,Autodesk,EAGLE,9.3.1*%
;CreationDate,2019-09-14T14:23:41Z*%
FMAT,2
ICI,OFF
METRIC,TZ,000.000
T5C3.000
T4C3.200
T3C5.000
T2C6.100
T1C7.100
%
G90
M71
T1
X37500Y111000
X37500Y91000
X13000Y111000
X13000Y91000
X13000Y71000
X13000Y51000
T2
X5500Y30000
X15375Y30000
X25250Y30000
X35125Y30000
X45000Y30000
X5500Y16000
X15375Y16000
X25250Y16000
X35125Y16000
X45000Y16000
T3
X37500Y75500
X37500Y66000
X37500Y55500
X37500Y46000
T4
X7500Y3000
X7500Y125500
X43000Y125500
X43000Y3000
T5
X25250Y38500
X15375Y38500
X5500Y38500
X45970Y55500
X46020Y46000
M30